G04 #@! TF.GenerationSoftware,KiCad,Pcbnew,(5.0.0-3-g5ebb6b6)*
G04 #@! TF.CreationDate,2019-02-02T18:51:14+01:00*
G04 #@! TF.ProjectId,tt_opt101_module,74745F6F70743130315F6D6F64756C65,rev?*
G04 #@! TF.SameCoordinates,Original*
G04 #@! TF.FileFunction,Other,Fab,Bot*
%FSLAX46Y46*%
G04 Gerber Fmt 4.6, Leading zero omitted, Abs format (unit mm)*
G04 Created by KiCad (PCBNEW (5.0.0-3-g5ebb6b6)) date Saturday, 02. February 2019 um 18:51:14*
%MOMM*%
%LPD*%
G01*
G04 APERTURE LIST*
%ADD10C,0.100000*%
%ADD11C,0.150000*%
G04 APERTURE END LIST*
D10*
G04 #@! TO.C,O1*
X135515000Y-52070000D02*
X130165000Y-52070000D01*
X130165000Y-52070000D02*
X130165000Y-62230000D01*
X130165000Y-62230000D02*
X136515000Y-62230000D01*
X136515000Y-62230000D02*
X136515000Y-53070000D01*
X136515000Y-53070000D02*
X135515000Y-52070000D01*
G04 #@! TD*
G04 #@! TO.C,O1*
D11*
X135578095Y-63742380D02*
X135673333Y-63694761D01*
X135720952Y-63647142D01*
X135768571Y-63551904D01*
X135768571Y-63266190D01*
X135720952Y-63170952D01*
X135673333Y-63123333D01*
X135578095Y-63075714D01*
X135435238Y-63075714D01*
X135340000Y-63123333D01*
X135292380Y-63170952D01*
X135244761Y-63266190D01*
X135244761Y-63551904D01*
X135292380Y-63647142D01*
X135340000Y-63694761D01*
X135435238Y-63742380D01*
X135578095Y-63742380D01*
X134816190Y-63075714D02*
X134816190Y-64075714D01*
X134816190Y-63123333D02*
X134720952Y-63075714D01*
X134530476Y-63075714D01*
X134435238Y-63123333D01*
X134387619Y-63170952D01*
X134340000Y-63266190D01*
X134340000Y-63551904D01*
X134387619Y-63647142D01*
X134435238Y-63694761D01*
X134530476Y-63742380D01*
X134720952Y-63742380D01*
X134816190Y-63694761D01*
X134054285Y-63075714D02*
X133673333Y-63075714D01*
X133911428Y-62742380D02*
X133911428Y-63599523D01*
X133863809Y-63694761D01*
X133768571Y-63742380D01*
X133673333Y-63742380D01*
X132816190Y-63742380D02*
X133387619Y-63742380D01*
X133101904Y-63742380D02*
X133101904Y-62742380D01*
X133197142Y-62885238D01*
X133292380Y-62980476D01*
X133387619Y-63028095D01*
X132197142Y-62742380D02*
X132101904Y-62742380D01*
X132006666Y-62790000D01*
X131959047Y-62837619D01*
X131911428Y-62932857D01*
X131863809Y-63123333D01*
X131863809Y-63361428D01*
X131911428Y-63551904D01*
X131959047Y-63647142D01*
X132006666Y-63694761D01*
X132101904Y-63742380D01*
X132197142Y-63742380D01*
X132292380Y-63694761D01*
X132340000Y-63647142D01*
X132387619Y-63551904D01*
X132435238Y-63361428D01*
X132435238Y-63123333D01*
X132387619Y-62932857D01*
X132340000Y-62837619D01*
X132292380Y-62790000D01*
X132197142Y-62742380D01*
X130911428Y-63742380D02*
X131482857Y-63742380D01*
X131197142Y-63742380D02*
X131197142Y-62742380D01*
X131292380Y-62885238D01*
X131387619Y-62980476D01*
X131482857Y-63028095D01*
X133911428Y-56602380D02*
X133720952Y-56602380D01*
X133625714Y-56650000D01*
X133530476Y-56745238D01*
X133482857Y-56935714D01*
X133482857Y-57269047D01*
X133530476Y-57459523D01*
X133625714Y-57554761D01*
X133720952Y-57602380D01*
X133911428Y-57602380D01*
X134006666Y-57554761D01*
X134101904Y-57459523D01*
X134149523Y-57269047D01*
X134149523Y-56935714D01*
X134101904Y-56745238D01*
X134006666Y-56650000D01*
X133911428Y-56602380D01*
X132530476Y-57602380D02*
X133101904Y-57602380D01*
X132816190Y-57602380D02*
X132816190Y-56602380D01*
X132911428Y-56745238D01*
X133006666Y-56840476D01*
X133101904Y-56888095D01*
G04 #@! TD*
M02*
