G04 #@! TF.GenerationSoftware,KiCad,Pcbnew,(5.0.0-3-g5ebb6b6)*
G04 #@! TF.CreationDate,2018-12-04T22:30:26+01:00*
G04 #@! TF.ProjectId,tt_opt101_module,74745F6F70743130315F6D6F64756C65,rev?*
G04 #@! TF.SameCoordinates,Original*
G04 #@! TF.FileFunction,Copper,L1,Top,Signal*
G04 #@! TF.FilePolarity,Positive*
%FSLAX46Y46*%
G04 Gerber Fmt 4.6, Leading zero omitted, Abs format (unit mm)*
G04 Created by KiCad (PCBNEW (5.0.0-3-g5ebb6b6)) date Tuesday, 04. December 2018 um 22:30:26*
%MOMM*%
%LPD*%
G01*
G04 APERTURE LIST*
G04 #@! TA.AperFunction,ComponentPad*
%ADD10R,1.700000X1.950000*%
G04 #@! TD*
G04 #@! TA.AperFunction,ComponentPad*
%ADD11O,1.700000X1.950000*%
G04 #@! TD*
G04 #@! TA.AperFunction,ComponentPad*
%ADD12R,1.600000X1.600000*%
G04 #@! TD*
G04 #@! TA.AperFunction,ComponentPad*
%ADD13O,1.600000X1.600000*%
G04 #@! TD*
G04 #@! TA.AperFunction,Conductor*
%ADD14C,0.100000*%
G04 #@! TD*
G04 #@! TA.AperFunction,SMDPad,CuDef*
%ADD15C,1.150000*%
G04 #@! TD*
G04 #@! TA.AperFunction,SMDPad,CuDef*
%ADD16R,1.300000X2.000000*%
G04 #@! TD*
G04 #@! TA.AperFunction,SMDPad,CuDef*
%ADD17R,2.000000X2.000000*%
G04 #@! TD*
G04 #@! TA.AperFunction,Conductor*
%ADD18C,0.250000*%
G04 #@! TD*
G04 #@! TA.AperFunction,Conductor*
%ADD19C,0.254000*%
G04 #@! TD*
G04 APERTURE END LIST*
D10*
G04 #@! TO.P,J1,1*
G04 #@! TO.N,GND*
X130850000Y-66040000D03*
D11*
G04 #@! TO.P,J1,2*
G04 #@! TO.N,Net-(J1-Pad2)*
X133350000Y-66040000D03*
G04 #@! TO.P,J1,3*
G04 #@! TO.N,+5V*
X135850000Y-66040000D03*
G04 #@! TD*
D12*
G04 #@! TO.P,O1,1*
G04 #@! TO.N,+5V*
X137150000Y-53340000D03*
D13*
G04 #@! TO.P,O1,5*
G04 #@! TO.N,Net-(J1-Pad2)*
X129530000Y-60960000D03*
G04 #@! TO.P,O1,2*
G04 #@! TO.N,Net-(O1-Pad2)*
X137150000Y-55880000D03*
G04 #@! TO.P,O1,6*
G04 #@! TO.N,Net-(O1-Pad6)*
X129530000Y-58420000D03*
G04 #@! TO.P,O1,3*
G04 #@! TO.N,GND*
X137150000Y-58420000D03*
G04 #@! TO.P,O1,7*
G04 #@! TO.N,Net-(O1-Pad7)*
X129530000Y-55880000D03*
G04 #@! TO.P,O1,4*
G04 #@! TO.N,Net-(O1-Pad4)*
X137150000Y-60960000D03*
G04 #@! TO.P,O1,8*
G04 #@! TO.N,GND*
X129530000Y-53340000D03*
G04 #@! TD*
D14*
G04 #@! TO.N,Net-(O1-Pad2)*
G04 #@! TO.C,R1*
G36*
X134724505Y-52641204D02*
X134748773Y-52644804D01*
X134772572Y-52650765D01*
X134795671Y-52659030D01*
X134817850Y-52669520D01*
X134838893Y-52682132D01*
X134858599Y-52696747D01*
X134876777Y-52713223D01*
X134893253Y-52731401D01*
X134907868Y-52751107D01*
X134920480Y-52772150D01*
X134930970Y-52794329D01*
X134939235Y-52817428D01*
X134945196Y-52841227D01*
X134948796Y-52865495D01*
X134950000Y-52889999D01*
X134950000Y-53790001D01*
X134948796Y-53814505D01*
X134945196Y-53838773D01*
X134939235Y-53862572D01*
X134930970Y-53885671D01*
X134920480Y-53907850D01*
X134907868Y-53928893D01*
X134893253Y-53948599D01*
X134876777Y-53966777D01*
X134858599Y-53983253D01*
X134838893Y-53997868D01*
X134817850Y-54010480D01*
X134795671Y-54020970D01*
X134772572Y-54029235D01*
X134748773Y-54035196D01*
X134724505Y-54038796D01*
X134700001Y-54040000D01*
X134049999Y-54040000D01*
X134025495Y-54038796D01*
X134001227Y-54035196D01*
X133977428Y-54029235D01*
X133954329Y-54020970D01*
X133932150Y-54010480D01*
X133911107Y-53997868D01*
X133891401Y-53983253D01*
X133873223Y-53966777D01*
X133856747Y-53948599D01*
X133842132Y-53928893D01*
X133829520Y-53907850D01*
X133819030Y-53885671D01*
X133810765Y-53862572D01*
X133804804Y-53838773D01*
X133801204Y-53814505D01*
X133800000Y-53790001D01*
X133800000Y-52889999D01*
X133801204Y-52865495D01*
X133804804Y-52841227D01*
X133810765Y-52817428D01*
X133819030Y-52794329D01*
X133829520Y-52772150D01*
X133842132Y-52751107D01*
X133856747Y-52731401D01*
X133873223Y-52713223D01*
X133891401Y-52696747D01*
X133911107Y-52682132D01*
X133932150Y-52669520D01*
X133954329Y-52659030D01*
X133977428Y-52650765D01*
X134001227Y-52644804D01*
X134025495Y-52641204D01*
X134049999Y-52640000D01*
X134700001Y-52640000D01*
X134724505Y-52641204D01*
X134724505Y-52641204D01*
G37*
D15*
G04 #@! TD*
G04 #@! TO.P,R1,1*
G04 #@! TO.N,Net-(O1-Pad2)*
X134375000Y-53340000D03*
D14*
G04 #@! TO.N,Net-(R1-Pad2)*
G04 #@! TO.C,R1*
G36*
X132674505Y-52641204D02*
X132698773Y-52644804D01*
X132722572Y-52650765D01*
X132745671Y-52659030D01*
X132767850Y-52669520D01*
X132788893Y-52682132D01*
X132808599Y-52696747D01*
X132826777Y-52713223D01*
X132843253Y-52731401D01*
X132857868Y-52751107D01*
X132870480Y-52772150D01*
X132880970Y-52794329D01*
X132889235Y-52817428D01*
X132895196Y-52841227D01*
X132898796Y-52865495D01*
X132900000Y-52889999D01*
X132900000Y-53790001D01*
X132898796Y-53814505D01*
X132895196Y-53838773D01*
X132889235Y-53862572D01*
X132880970Y-53885671D01*
X132870480Y-53907850D01*
X132857868Y-53928893D01*
X132843253Y-53948599D01*
X132826777Y-53966777D01*
X132808599Y-53983253D01*
X132788893Y-53997868D01*
X132767850Y-54010480D01*
X132745671Y-54020970D01*
X132722572Y-54029235D01*
X132698773Y-54035196D01*
X132674505Y-54038796D01*
X132650001Y-54040000D01*
X131999999Y-54040000D01*
X131975495Y-54038796D01*
X131951227Y-54035196D01*
X131927428Y-54029235D01*
X131904329Y-54020970D01*
X131882150Y-54010480D01*
X131861107Y-53997868D01*
X131841401Y-53983253D01*
X131823223Y-53966777D01*
X131806747Y-53948599D01*
X131792132Y-53928893D01*
X131779520Y-53907850D01*
X131769030Y-53885671D01*
X131760765Y-53862572D01*
X131754804Y-53838773D01*
X131751204Y-53814505D01*
X131750000Y-53790001D01*
X131750000Y-52889999D01*
X131751204Y-52865495D01*
X131754804Y-52841227D01*
X131760765Y-52817428D01*
X131769030Y-52794329D01*
X131779520Y-52772150D01*
X131792132Y-52751107D01*
X131806747Y-52731401D01*
X131823223Y-52713223D01*
X131841401Y-52696747D01*
X131861107Y-52682132D01*
X131882150Y-52669520D01*
X131904329Y-52659030D01*
X131927428Y-52650765D01*
X131951227Y-52644804D01*
X131975495Y-52641204D01*
X131999999Y-52640000D01*
X132650001Y-52640000D01*
X132674505Y-52641204D01*
X132674505Y-52641204D01*
G37*
D15*
G04 #@! TD*
G04 #@! TO.P,R1,2*
G04 #@! TO.N,Net-(R1-Pad2)*
X132325000Y-53340000D03*
D16*
G04 #@! TO.P,RV1,1*
G04 #@! TO.N,Net-(R1-Pad2)*
X132200000Y-56960000D03*
D17*
G04 #@! TO.P,RV1,2*
G04 #@! TO.N,Net-(J1-Pad2)*
X133350000Y-60960000D03*
D16*
G04 #@! TO.P,RV1,3*
G04 #@! TO.N,Net-(RV1-Pad3)*
X134500000Y-56960000D03*
G04 #@! TD*
D18*
G04 #@! TO.N,Net-(J1-Pad2)*
X129530000Y-60960000D02*
X133350000Y-60960000D01*
X133350000Y-60960000D02*
X133350000Y-66040000D01*
G04 #@! TO.N,Net-(O1-Pad2)*
X136915000Y-55880000D02*
X137150000Y-55880000D01*
X134375000Y-53340000D02*
X136915000Y-55880000D01*
G04 #@! TO.N,Net-(R1-Pad2)*
X132200000Y-53465000D02*
X132325000Y-53340000D01*
X132200000Y-56960000D02*
X132200000Y-53465000D01*
G04 #@! TD*
D19*
G04 #@! TO.N,GND*
G36*
X140260000Y-70410000D02*
X126440000Y-70410000D01*
X126440000Y-66325750D01*
X129365000Y-66325750D01*
X129365000Y-67141310D01*
X129461673Y-67374699D01*
X129640302Y-67553327D01*
X129873691Y-67650000D01*
X130564250Y-67650000D01*
X130723000Y-67491250D01*
X130723000Y-66167000D01*
X129523750Y-66167000D01*
X129365000Y-66325750D01*
X126440000Y-66325750D01*
X126440000Y-64938690D01*
X129365000Y-64938690D01*
X129365000Y-65754250D01*
X129523750Y-65913000D01*
X130723000Y-65913000D01*
X130723000Y-64588750D01*
X130564250Y-64430000D01*
X129873691Y-64430000D01*
X129640302Y-64526673D01*
X129461673Y-64705301D01*
X129365000Y-64938690D01*
X126440000Y-64938690D01*
X126440000Y-55880000D01*
X128066887Y-55880000D01*
X128178260Y-56439909D01*
X128495423Y-56914577D01*
X128847758Y-57150000D01*
X128495423Y-57385423D01*
X128178260Y-57860091D01*
X128066887Y-58420000D01*
X128178260Y-58979909D01*
X128495423Y-59454577D01*
X128847758Y-59690000D01*
X128495423Y-59925423D01*
X128178260Y-60400091D01*
X128066887Y-60960000D01*
X128178260Y-61519909D01*
X128495423Y-61994577D01*
X128970091Y-62311740D01*
X129388667Y-62395000D01*
X129671333Y-62395000D01*
X130089909Y-62311740D01*
X130564577Y-61994577D01*
X130748043Y-61720000D01*
X131702560Y-61720000D01*
X131702560Y-61960000D01*
X131751843Y-62207765D01*
X131892191Y-62417809D01*
X132102235Y-62558157D01*
X132350000Y-62607440D01*
X132590000Y-62607440D01*
X132590001Y-64636822D01*
X132292344Y-64835709D01*
X132238327Y-64705301D01*
X132059698Y-64526673D01*
X131826309Y-64430000D01*
X131135750Y-64430000D01*
X130977000Y-64588750D01*
X130977000Y-65913000D01*
X130997000Y-65913000D01*
X130997000Y-66167000D01*
X130977000Y-66167000D01*
X130977000Y-67491250D01*
X131135750Y-67650000D01*
X131826309Y-67650000D01*
X132059698Y-67553327D01*
X132238327Y-67374699D01*
X132292344Y-67244291D01*
X132770583Y-67563839D01*
X133350000Y-67679092D01*
X133929418Y-67563839D01*
X134420625Y-67235625D01*
X134600000Y-66967171D01*
X134779375Y-67235625D01*
X135270583Y-67563839D01*
X135850000Y-67679092D01*
X136429418Y-67563839D01*
X136920625Y-67235625D01*
X137248839Y-66744417D01*
X137335000Y-66311255D01*
X137335000Y-65768744D01*
X137248839Y-65335582D01*
X136920625Y-64844375D01*
X136429417Y-64516161D01*
X135850000Y-64400908D01*
X135270582Y-64516161D01*
X134779375Y-64844375D01*
X134600000Y-65112829D01*
X134420625Y-64844375D01*
X134110000Y-64636822D01*
X134110000Y-62607440D01*
X134350000Y-62607440D01*
X134597765Y-62558157D01*
X134807809Y-62417809D01*
X134948157Y-62207765D01*
X134997440Y-61960000D01*
X134997440Y-60960000D01*
X135686887Y-60960000D01*
X135798260Y-61519909D01*
X136115423Y-61994577D01*
X136590091Y-62311740D01*
X137008667Y-62395000D01*
X137291333Y-62395000D01*
X137709909Y-62311740D01*
X138184577Y-61994577D01*
X138501740Y-61519909D01*
X138613113Y-60960000D01*
X138501740Y-60400091D01*
X138184577Y-59925423D01*
X137800892Y-59669053D01*
X138005134Y-59572389D01*
X138381041Y-59157423D01*
X138541904Y-58769039D01*
X138419915Y-58547000D01*
X137277000Y-58547000D01*
X137277000Y-58567000D01*
X137023000Y-58567000D01*
X137023000Y-58547000D01*
X135880085Y-58547000D01*
X135758096Y-58769039D01*
X135918959Y-59157423D01*
X136294866Y-59572389D01*
X136499108Y-59669053D01*
X136115423Y-59925423D01*
X135798260Y-60400091D01*
X135686887Y-60960000D01*
X134997440Y-60960000D01*
X134997440Y-59960000D01*
X134948157Y-59712235D01*
X134807809Y-59502191D01*
X134597765Y-59361843D01*
X134350000Y-59312560D01*
X132350000Y-59312560D01*
X132102235Y-59361843D01*
X131892191Y-59502191D01*
X131751843Y-59712235D01*
X131702560Y-59960000D01*
X131702560Y-60200000D01*
X130748043Y-60200000D01*
X130564577Y-59925423D01*
X130212242Y-59690000D01*
X130564577Y-59454577D01*
X130881740Y-58979909D01*
X130993113Y-58420000D01*
X130881740Y-57860091D01*
X130564577Y-57385423D01*
X130212242Y-57150000D01*
X130564577Y-56914577D01*
X130881740Y-56439909D01*
X130902560Y-56335240D01*
X130902560Y-57960000D01*
X130951843Y-58207765D01*
X131092191Y-58417809D01*
X131302235Y-58558157D01*
X131550000Y-58607440D01*
X132850000Y-58607440D01*
X133097765Y-58558157D01*
X133307809Y-58417809D01*
X133350000Y-58354666D01*
X133392191Y-58417809D01*
X133602235Y-58558157D01*
X133850000Y-58607440D01*
X135150000Y-58607440D01*
X135397765Y-58558157D01*
X135607809Y-58417809D01*
X135748157Y-58207765D01*
X135770777Y-58094043D01*
X135880085Y-58293000D01*
X137023000Y-58293000D01*
X137023000Y-58273000D01*
X137277000Y-58273000D01*
X137277000Y-58293000D01*
X138419915Y-58293000D01*
X138541904Y-58070961D01*
X138381041Y-57682577D01*
X138005134Y-57267611D01*
X137800892Y-57170947D01*
X138184577Y-56914577D01*
X138501740Y-56439909D01*
X138613113Y-55880000D01*
X138501740Y-55320091D01*
X138184577Y-54845423D01*
X138063894Y-54764785D01*
X138197765Y-54738157D01*
X138407809Y-54597809D01*
X138548157Y-54387765D01*
X138597440Y-54140000D01*
X138597440Y-52540000D01*
X138548157Y-52292235D01*
X138407809Y-52082191D01*
X138197765Y-51941843D01*
X137950000Y-51892560D01*
X136350000Y-51892560D01*
X136102235Y-51941843D01*
X135892191Y-52082191D01*
X135751843Y-52292235D01*
X135702560Y-52540000D01*
X135702560Y-53592758D01*
X135597440Y-53487638D01*
X135597440Y-52889999D01*
X135529127Y-52546564D01*
X135334586Y-52255414D01*
X135043436Y-52060873D01*
X134700001Y-51992560D01*
X134049999Y-51992560D01*
X133706564Y-52060873D01*
X133415414Y-52255414D01*
X133350000Y-52353313D01*
X133284586Y-52255414D01*
X132993436Y-52060873D01*
X132650001Y-51992560D01*
X131999999Y-51992560D01*
X131656564Y-52060873D01*
X131365414Y-52255414D01*
X131170873Y-52546564D01*
X131102560Y-52889999D01*
X131102560Y-53790001D01*
X131170873Y-54133436D01*
X131365414Y-54424586D01*
X131440001Y-54474423D01*
X131440000Y-55334440D01*
X131302235Y-55361843D01*
X131092191Y-55502191D01*
X130957930Y-55703125D01*
X130881740Y-55320091D01*
X130564577Y-54845423D01*
X130180892Y-54589053D01*
X130385134Y-54492389D01*
X130761041Y-54077423D01*
X130921904Y-53689039D01*
X130799915Y-53467000D01*
X129657000Y-53467000D01*
X129657000Y-53487000D01*
X129403000Y-53487000D01*
X129403000Y-53467000D01*
X128260085Y-53467000D01*
X128138096Y-53689039D01*
X128298959Y-54077423D01*
X128674866Y-54492389D01*
X128879108Y-54589053D01*
X128495423Y-54845423D01*
X128178260Y-55320091D01*
X128066887Y-55880000D01*
X126440000Y-55880000D01*
X126440000Y-52990961D01*
X128138096Y-52990961D01*
X128260085Y-53213000D01*
X129403000Y-53213000D01*
X129403000Y-52069371D01*
X129657000Y-52069371D01*
X129657000Y-53213000D01*
X130799915Y-53213000D01*
X130921904Y-52990961D01*
X130761041Y-52602577D01*
X130385134Y-52187611D01*
X129879041Y-51948086D01*
X129657000Y-52069371D01*
X129403000Y-52069371D01*
X129180959Y-51948086D01*
X128674866Y-52187611D01*
X128298959Y-52602577D01*
X128138096Y-52990961D01*
X126440000Y-52990961D01*
X126440000Y-48970000D01*
X140260001Y-48970000D01*
X140260000Y-70410000D01*
X140260000Y-70410000D01*
G37*
X140260000Y-70410000D02*
X126440000Y-70410000D01*
X126440000Y-66325750D01*
X129365000Y-66325750D01*
X129365000Y-67141310D01*
X129461673Y-67374699D01*
X129640302Y-67553327D01*
X129873691Y-67650000D01*
X130564250Y-67650000D01*
X130723000Y-67491250D01*
X130723000Y-66167000D01*
X129523750Y-66167000D01*
X129365000Y-66325750D01*
X126440000Y-66325750D01*
X126440000Y-64938690D01*
X129365000Y-64938690D01*
X129365000Y-65754250D01*
X129523750Y-65913000D01*
X130723000Y-65913000D01*
X130723000Y-64588750D01*
X130564250Y-64430000D01*
X129873691Y-64430000D01*
X129640302Y-64526673D01*
X129461673Y-64705301D01*
X129365000Y-64938690D01*
X126440000Y-64938690D01*
X126440000Y-55880000D01*
X128066887Y-55880000D01*
X128178260Y-56439909D01*
X128495423Y-56914577D01*
X128847758Y-57150000D01*
X128495423Y-57385423D01*
X128178260Y-57860091D01*
X128066887Y-58420000D01*
X128178260Y-58979909D01*
X128495423Y-59454577D01*
X128847758Y-59690000D01*
X128495423Y-59925423D01*
X128178260Y-60400091D01*
X128066887Y-60960000D01*
X128178260Y-61519909D01*
X128495423Y-61994577D01*
X128970091Y-62311740D01*
X129388667Y-62395000D01*
X129671333Y-62395000D01*
X130089909Y-62311740D01*
X130564577Y-61994577D01*
X130748043Y-61720000D01*
X131702560Y-61720000D01*
X131702560Y-61960000D01*
X131751843Y-62207765D01*
X131892191Y-62417809D01*
X132102235Y-62558157D01*
X132350000Y-62607440D01*
X132590000Y-62607440D01*
X132590001Y-64636822D01*
X132292344Y-64835709D01*
X132238327Y-64705301D01*
X132059698Y-64526673D01*
X131826309Y-64430000D01*
X131135750Y-64430000D01*
X130977000Y-64588750D01*
X130977000Y-65913000D01*
X130997000Y-65913000D01*
X130997000Y-66167000D01*
X130977000Y-66167000D01*
X130977000Y-67491250D01*
X131135750Y-67650000D01*
X131826309Y-67650000D01*
X132059698Y-67553327D01*
X132238327Y-67374699D01*
X132292344Y-67244291D01*
X132770583Y-67563839D01*
X133350000Y-67679092D01*
X133929418Y-67563839D01*
X134420625Y-67235625D01*
X134600000Y-66967171D01*
X134779375Y-67235625D01*
X135270583Y-67563839D01*
X135850000Y-67679092D01*
X136429418Y-67563839D01*
X136920625Y-67235625D01*
X137248839Y-66744417D01*
X137335000Y-66311255D01*
X137335000Y-65768744D01*
X137248839Y-65335582D01*
X136920625Y-64844375D01*
X136429417Y-64516161D01*
X135850000Y-64400908D01*
X135270582Y-64516161D01*
X134779375Y-64844375D01*
X134600000Y-65112829D01*
X134420625Y-64844375D01*
X134110000Y-64636822D01*
X134110000Y-62607440D01*
X134350000Y-62607440D01*
X134597765Y-62558157D01*
X134807809Y-62417809D01*
X134948157Y-62207765D01*
X134997440Y-61960000D01*
X134997440Y-60960000D01*
X135686887Y-60960000D01*
X135798260Y-61519909D01*
X136115423Y-61994577D01*
X136590091Y-62311740D01*
X137008667Y-62395000D01*
X137291333Y-62395000D01*
X137709909Y-62311740D01*
X138184577Y-61994577D01*
X138501740Y-61519909D01*
X138613113Y-60960000D01*
X138501740Y-60400091D01*
X138184577Y-59925423D01*
X137800892Y-59669053D01*
X138005134Y-59572389D01*
X138381041Y-59157423D01*
X138541904Y-58769039D01*
X138419915Y-58547000D01*
X137277000Y-58547000D01*
X137277000Y-58567000D01*
X137023000Y-58567000D01*
X137023000Y-58547000D01*
X135880085Y-58547000D01*
X135758096Y-58769039D01*
X135918959Y-59157423D01*
X136294866Y-59572389D01*
X136499108Y-59669053D01*
X136115423Y-59925423D01*
X135798260Y-60400091D01*
X135686887Y-60960000D01*
X134997440Y-60960000D01*
X134997440Y-59960000D01*
X134948157Y-59712235D01*
X134807809Y-59502191D01*
X134597765Y-59361843D01*
X134350000Y-59312560D01*
X132350000Y-59312560D01*
X132102235Y-59361843D01*
X131892191Y-59502191D01*
X131751843Y-59712235D01*
X131702560Y-59960000D01*
X131702560Y-60200000D01*
X130748043Y-60200000D01*
X130564577Y-59925423D01*
X130212242Y-59690000D01*
X130564577Y-59454577D01*
X130881740Y-58979909D01*
X130993113Y-58420000D01*
X130881740Y-57860091D01*
X130564577Y-57385423D01*
X130212242Y-57150000D01*
X130564577Y-56914577D01*
X130881740Y-56439909D01*
X130902560Y-56335240D01*
X130902560Y-57960000D01*
X130951843Y-58207765D01*
X131092191Y-58417809D01*
X131302235Y-58558157D01*
X131550000Y-58607440D01*
X132850000Y-58607440D01*
X133097765Y-58558157D01*
X133307809Y-58417809D01*
X133350000Y-58354666D01*
X133392191Y-58417809D01*
X133602235Y-58558157D01*
X133850000Y-58607440D01*
X135150000Y-58607440D01*
X135397765Y-58558157D01*
X135607809Y-58417809D01*
X135748157Y-58207765D01*
X135770777Y-58094043D01*
X135880085Y-58293000D01*
X137023000Y-58293000D01*
X137023000Y-58273000D01*
X137277000Y-58273000D01*
X137277000Y-58293000D01*
X138419915Y-58293000D01*
X138541904Y-58070961D01*
X138381041Y-57682577D01*
X138005134Y-57267611D01*
X137800892Y-57170947D01*
X138184577Y-56914577D01*
X138501740Y-56439909D01*
X138613113Y-55880000D01*
X138501740Y-55320091D01*
X138184577Y-54845423D01*
X138063894Y-54764785D01*
X138197765Y-54738157D01*
X138407809Y-54597809D01*
X138548157Y-54387765D01*
X138597440Y-54140000D01*
X138597440Y-52540000D01*
X138548157Y-52292235D01*
X138407809Y-52082191D01*
X138197765Y-51941843D01*
X137950000Y-51892560D01*
X136350000Y-51892560D01*
X136102235Y-51941843D01*
X135892191Y-52082191D01*
X135751843Y-52292235D01*
X135702560Y-52540000D01*
X135702560Y-53592758D01*
X135597440Y-53487638D01*
X135597440Y-52889999D01*
X135529127Y-52546564D01*
X135334586Y-52255414D01*
X135043436Y-52060873D01*
X134700001Y-51992560D01*
X134049999Y-51992560D01*
X133706564Y-52060873D01*
X133415414Y-52255414D01*
X133350000Y-52353313D01*
X133284586Y-52255414D01*
X132993436Y-52060873D01*
X132650001Y-51992560D01*
X131999999Y-51992560D01*
X131656564Y-52060873D01*
X131365414Y-52255414D01*
X131170873Y-52546564D01*
X131102560Y-52889999D01*
X131102560Y-53790001D01*
X131170873Y-54133436D01*
X131365414Y-54424586D01*
X131440001Y-54474423D01*
X131440000Y-55334440D01*
X131302235Y-55361843D01*
X131092191Y-55502191D01*
X130957930Y-55703125D01*
X130881740Y-55320091D01*
X130564577Y-54845423D01*
X130180892Y-54589053D01*
X130385134Y-54492389D01*
X130761041Y-54077423D01*
X130921904Y-53689039D01*
X130799915Y-53467000D01*
X129657000Y-53467000D01*
X129657000Y-53487000D01*
X129403000Y-53487000D01*
X129403000Y-53467000D01*
X128260085Y-53467000D01*
X128138096Y-53689039D01*
X128298959Y-54077423D01*
X128674866Y-54492389D01*
X128879108Y-54589053D01*
X128495423Y-54845423D01*
X128178260Y-55320091D01*
X128066887Y-55880000D01*
X126440000Y-55880000D01*
X126440000Y-52990961D01*
X128138096Y-52990961D01*
X128260085Y-53213000D01*
X129403000Y-53213000D01*
X129403000Y-52069371D01*
X129657000Y-52069371D01*
X129657000Y-53213000D01*
X130799915Y-53213000D01*
X130921904Y-52990961D01*
X130761041Y-52602577D01*
X130385134Y-52187611D01*
X129879041Y-51948086D01*
X129657000Y-52069371D01*
X129403000Y-52069371D01*
X129180959Y-51948086D01*
X128674866Y-52187611D01*
X128298959Y-52602577D01*
X128138096Y-52990961D01*
X126440000Y-52990961D01*
X126440000Y-48970000D01*
X140260001Y-48970000D01*
X140260000Y-70410000D01*
G04 #@! TD*
M02*
