G04 #@! TF.GenerationSoftware,KiCad,Pcbnew,(5.0.0-3-g5ebb6b6)*
G04 #@! TF.CreationDate,2018-12-04T22:30:26+01:00*
G04 #@! TF.ProjectId,tt_opt101_module,74745F6F70743130315F6D6F64756C65,rev?*
G04 #@! TF.SameCoordinates,Original*
G04 #@! TF.FileFunction,Other,Fab,Top*
%FSLAX46Y46*%
G04 Gerber Fmt 4.6, Leading zero omitted, Abs format (unit mm)*
G04 Created by KiCad (PCBNEW (5.0.0-3-g5ebb6b6)) date Tuesday, 04. December 2018 um 22:30:26*
%MOMM*%
%LPD*%
G01*
G04 APERTURE LIST*
%ADD10C,0.100000*%
%ADD11C,0.150000*%
%ADD12C,0.080000*%
G04 APERTURE END LIST*
D10*
G04 #@! TO.C,J1*
X128350000Y-64440000D02*
X128350000Y-68240000D01*
X128350000Y-68240000D02*
X138350000Y-68240000D01*
X138350000Y-68240000D02*
X138350000Y-64440000D01*
X138350000Y-64440000D02*
X128350000Y-64440000D01*
X127940000Y-66150000D02*
X127940000Y-68650000D01*
X127940000Y-68650000D02*
X130440000Y-68650000D01*
G04 #@! TO.C,R1*
X134350000Y-52740000D02*
X134350000Y-53940000D01*
X134350000Y-53940000D02*
X132350000Y-53940000D01*
X132350000Y-53940000D02*
X132350000Y-52740000D01*
X132350000Y-52740000D02*
X134350000Y-52740000D01*
G04 #@! TO.C,RV1*
X130950000Y-61260000D02*
X135750000Y-61260000D01*
X135750000Y-61260000D02*
X135750000Y-56660000D01*
X135750000Y-56660000D02*
X130950000Y-56660000D01*
X130950000Y-56660000D02*
X130950000Y-61260000D01*
X131330000Y-61260000D02*
X133110000Y-61260000D01*
X133110000Y-61260000D02*
X133110000Y-61260000D01*
X133110000Y-61260000D02*
X131330000Y-61260000D01*
X131330000Y-61260000D02*
X131330000Y-61260000D01*
X132220000Y-61260000D02*
X132220000Y-61260000D01*
G04 #@! TD*
G04 #@! TO.C,J1*
D11*
X127516666Y-69797142D02*
X127469047Y-69844761D01*
X127326190Y-69892380D01*
X127230952Y-69892380D01*
X127088095Y-69844761D01*
X126992857Y-69749523D01*
X126945238Y-69654285D01*
X126897619Y-69463809D01*
X126897619Y-69320952D01*
X126945238Y-69130476D01*
X126992857Y-69035238D01*
X127088095Y-68940000D01*
X127230952Y-68892380D01*
X127326190Y-68892380D01*
X127469047Y-68940000D01*
X127516666Y-68987619D01*
X128088095Y-69892380D02*
X127992857Y-69844761D01*
X127945238Y-69797142D01*
X127897619Y-69701904D01*
X127897619Y-69416190D01*
X127945238Y-69320952D01*
X127992857Y-69273333D01*
X128088095Y-69225714D01*
X128230952Y-69225714D01*
X128326190Y-69273333D01*
X128373809Y-69320952D01*
X128421428Y-69416190D01*
X128421428Y-69701904D01*
X128373809Y-69797142D01*
X128326190Y-69844761D01*
X128230952Y-69892380D01*
X128088095Y-69892380D01*
X128850000Y-69225714D02*
X128850000Y-69892380D01*
X128850000Y-69320952D02*
X128897619Y-69273333D01*
X128992857Y-69225714D01*
X129135714Y-69225714D01*
X129230952Y-69273333D01*
X129278571Y-69368571D01*
X129278571Y-69892380D01*
X129754761Y-69225714D02*
X129754761Y-69892380D01*
X129754761Y-69320952D02*
X129802380Y-69273333D01*
X129897619Y-69225714D01*
X130040476Y-69225714D01*
X130135714Y-69273333D01*
X130183333Y-69368571D01*
X130183333Y-69892380D01*
X130421428Y-69987619D02*
X131183333Y-69987619D01*
X131611904Y-68892380D02*
X131707142Y-68892380D01*
X131802380Y-68940000D01*
X131850000Y-68987619D01*
X131897619Y-69082857D01*
X131945238Y-69273333D01*
X131945238Y-69511428D01*
X131897619Y-69701904D01*
X131850000Y-69797142D01*
X131802380Y-69844761D01*
X131707142Y-69892380D01*
X131611904Y-69892380D01*
X131516666Y-69844761D01*
X131469047Y-69797142D01*
X131421428Y-69701904D01*
X131373809Y-69511428D01*
X131373809Y-69273333D01*
X131421428Y-69082857D01*
X131469047Y-68987619D01*
X131516666Y-68940000D01*
X131611904Y-68892380D01*
X132897619Y-69892380D02*
X132326190Y-69892380D01*
X132611904Y-69892380D02*
X132611904Y-68892380D01*
X132516666Y-69035238D01*
X132421428Y-69130476D01*
X132326190Y-69178095D01*
X133230952Y-69892380D02*
X133754761Y-69225714D01*
X133230952Y-69225714D02*
X133754761Y-69892380D01*
X134326190Y-68892380D02*
X134421428Y-68892380D01*
X134516666Y-68940000D01*
X134564285Y-68987619D01*
X134611904Y-69082857D01*
X134659523Y-69273333D01*
X134659523Y-69511428D01*
X134611904Y-69701904D01*
X134564285Y-69797142D01*
X134516666Y-69844761D01*
X134421428Y-69892380D01*
X134326190Y-69892380D01*
X134230952Y-69844761D01*
X134183333Y-69797142D01*
X134135714Y-69701904D01*
X134088095Y-69511428D01*
X134088095Y-69273333D01*
X134135714Y-69082857D01*
X134183333Y-68987619D01*
X134230952Y-68940000D01*
X134326190Y-68892380D01*
X134992857Y-68892380D02*
X135611904Y-68892380D01*
X135278571Y-69273333D01*
X135421428Y-69273333D01*
X135516666Y-69320952D01*
X135564285Y-69368571D01*
X135611904Y-69463809D01*
X135611904Y-69701904D01*
X135564285Y-69797142D01*
X135516666Y-69844761D01*
X135421428Y-69892380D01*
X135135714Y-69892380D01*
X135040476Y-69844761D01*
X134992857Y-69797142D01*
X135802380Y-69987619D02*
X136564285Y-69987619D01*
X136802380Y-69892380D02*
X136802380Y-68892380D01*
X137135714Y-69606666D01*
X137469047Y-68892380D01*
X137469047Y-69892380D01*
X138373809Y-69892380D02*
X138373809Y-69368571D01*
X138326190Y-69273333D01*
X138230952Y-69225714D01*
X138040476Y-69225714D01*
X137945238Y-69273333D01*
X138373809Y-69844761D02*
X138278571Y-69892380D01*
X138040476Y-69892380D01*
X137945238Y-69844761D01*
X137897619Y-69749523D01*
X137897619Y-69654285D01*
X137945238Y-69559047D01*
X138040476Y-69511428D01*
X138278571Y-69511428D01*
X138373809Y-69463809D01*
X138992857Y-69892380D02*
X138897619Y-69844761D01*
X138850000Y-69749523D01*
X138850000Y-68892380D01*
X139754761Y-69844761D02*
X139659523Y-69892380D01*
X139469047Y-69892380D01*
X139373809Y-69844761D01*
X139326190Y-69749523D01*
X139326190Y-69368571D01*
X139373809Y-69273333D01*
X139469047Y-69225714D01*
X139659523Y-69225714D01*
X139754761Y-69273333D01*
X139802380Y-69368571D01*
X139802380Y-69463809D01*
X139326190Y-69559047D01*
X133016666Y-66992380D02*
X133016666Y-67706666D01*
X132969047Y-67849523D01*
X132873809Y-67944761D01*
X132730952Y-67992380D01*
X132635714Y-67992380D01*
X134016666Y-67992380D02*
X133445238Y-67992380D01*
X133730952Y-67992380D02*
X133730952Y-66992380D01*
X133635714Y-67135238D01*
X133540476Y-67230476D01*
X133445238Y-67278095D01*
G04 #@! TO.C,R1*
X133659523Y-52142380D02*
X133326190Y-51666190D01*
X133088095Y-52142380D02*
X133088095Y-51142380D01*
X133469047Y-51142380D01*
X133564285Y-51190000D01*
X133611904Y-51237619D01*
X133659523Y-51332857D01*
X133659523Y-51475714D01*
X133611904Y-51570952D01*
X133564285Y-51618571D01*
X133469047Y-51666190D01*
X133088095Y-51666190D01*
D12*
X133266666Y-53566190D02*
X133100000Y-53328095D01*
X132980952Y-53566190D02*
X132980952Y-53066190D01*
X133171428Y-53066190D01*
X133219047Y-53090000D01*
X133242857Y-53113809D01*
X133266666Y-53161428D01*
X133266666Y-53232857D01*
X133242857Y-53280476D01*
X133219047Y-53304285D01*
X133171428Y-53328095D01*
X132980952Y-53328095D01*
X133742857Y-53566190D02*
X133457142Y-53566190D01*
X133600000Y-53566190D02*
X133600000Y-53066190D01*
X133552380Y-53137619D01*
X133504761Y-53185238D01*
X133457142Y-53209047D01*
G04 #@! TO.C,RV1*
D11*
X137452380Y-60436190D02*
X136976190Y-60769523D01*
X137452380Y-61007619D02*
X136452380Y-61007619D01*
X136452380Y-60626666D01*
X136500000Y-60531428D01*
X136547619Y-60483809D01*
X136642857Y-60436190D01*
X136785714Y-60436190D01*
X136880952Y-60483809D01*
X136928571Y-60531428D01*
X136976190Y-60626666D01*
X136976190Y-61007619D01*
X137547619Y-60245714D02*
X137547619Y-59483809D01*
X137452380Y-59245714D02*
X136452380Y-59245714D01*
X136452380Y-58864761D01*
X136500000Y-58769523D01*
X136547619Y-58721904D01*
X136642857Y-58674285D01*
X136785714Y-58674285D01*
X136880952Y-58721904D01*
X136928571Y-58769523D01*
X136976190Y-58864761D01*
X136976190Y-59245714D01*
X136452380Y-58055238D02*
X136452380Y-57864761D01*
X136500000Y-57769523D01*
X136595238Y-57674285D01*
X136785714Y-57626666D01*
X137119047Y-57626666D01*
X137309523Y-57674285D01*
X137404761Y-57769523D01*
X137452380Y-57864761D01*
X137452380Y-58055238D01*
X137404761Y-58150476D01*
X137309523Y-58245714D01*
X137119047Y-58293333D01*
X136785714Y-58293333D01*
X136595238Y-58245714D01*
X136500000Y-58150476D01*
X136452380Y-58055238D01*
X136452380Y-57340952D02*
X136452380Y-56769523D01*
X137452380Y-57055238D02*
X136452380Y-57055238D01*
X133802380Y-59555238D02*
X133326190Y-59888571D01*
X133802380Y-60126666D02*
X132802380Y-60126666D01*
X132802380Y-59745714D01*
X132850000Y-59650476D01*
X132897619Y-59602857D01*
X132992857Y-59555238D01*
X133135714Y-59555238D01*
X133230952Y-59602857D01*
X133278571Y-59650476D01*
X133326190Y-59745714D01*
X133326190Y-60126666D01*
X132802380Y-59269523D02*
X133802380Y-58936190D01*
X132802380Y-58602857D01*
X133802380Y-57745714D02*
X133802380Y-58317142D01*
X133802380Y-58031428D02*
X132802380Y-58031428D01*
X132945238Y-58126666D01*
X133040476Y-58221904D01*
X133088095Y-58317142D01*
G04 #@! TD*
M02*
