G04 #@! TF.GenerationSoftware,KiCad,Pcbnew,(5.0.0-3-g5ebb6b6)*
G04 #@! TF.CreationDate,2018-10-06T16:58:55+02:00*
G04 #@! TF.ProjectId,tt_photometer,74745F70686F746F6D657465722E6B69,rev?*
G04 #@! TF.SameCoordinates,Original*
G04 #@! TF.FileFunction,Soldermask,Bot*
G04 #@! TF.FilePolarity,Negative*
%FSLAX46Y46*%
G04 Gerber Fmt 4.6, Leading zero omitted, Abs format (unit mm)*
G04 Created by KiCad (PCBNEW (5.0.0-3-g5ebb6b6)) date Saturday, 06. October 2018 um 16:58:55*
%MOMM*%
%LPD*%
G01*
G04 APERTURE LIST*
%ADD10R,2.100000X2.350000*%
%ADD11O,2.100000X2.350000*%
%ADD12R,2.000000X2.000000*%
%ADD13O,2.000000X2.000000*%
%ADD14R,1.700000X2.400000*%
%ADD15R,2.400000X2.400000*%
%ADD16C,0.100000*%
%ADD17C,1.825000*%
G04 APERTURE END LIST*
D10*
G04 #@! TO.C,J1*
X156210000Y-72390000D03*
D11*
X158710000Y-72390000D03*
X161210000Y-72390000D03*
G04 #@! TD*
D12*
G04 #@! TO.C,U1*
X153475001Y-77775001D03*
D13*
X163635001Y-85395001D03*
X153475001Y-80315001D03*
X163635001Y-82855001D03*
X153475001Y-82855001D03*
X163635001Y-80315001D03*
X153475001Y-85395001D03*
X163635001Y-77775001D03*
G04 #@! TD*
D14*
G04 #@! TO.C,RV1*
X158990000Y-93980000D03*
D15*
X160140000Y-89980000D03*
D14*
X161290000Y-93980000D03*
G04 #@! TD*
D16*
G04 #@! TO.C,R1*
G36*
X154456207Y-89041542D02*
X154487287Y-89046152D01*
X154517766Y-89053787D01*
X154547350Y-89064372D01*
X154575754Y-89077806D01*
X154602704Y-89093959D01*
X154627942Y-89112677D01*
X154651223Y-89133777D01*
X154672323Y-89157058D01*
X154691041Y-89182296D01*
X154707194Y-89209246D01*
X154720628Y-89237650D01*
X154731213Y-89267234D01*
X154738848Y-89297713D01*
X154743458Y-89328793D01*
X154745000Y-89360176D01*
X154745000Y-90544824D01*
X154743458Y-90576207D01*
X154738848Y-90607287D01*
X154731213Y-90637766D01*
X154720628Y-90667350D01*
X154707194Y-90695754D01*
X154691041Y-90722704D01*
X154672323Y-90747942D01*
X154651223Y-90771223D01*
X154627942Y-90792323D01*
X154602704Y-90811041D01*
X154575754Y-90827194D01*
X154547350Y-90840628D01*
X154517766Y-90851213D01*
X154487287Y-90858848D01*
X154456207Y-90863458D01*
X154424824Y-90865000D01*
X152915176Y-90865000D01*
X152883793Y-90863458D01*
X152852713Y-90858848D01*
X152822234Y-90851213D01*
X152792650Y-90840628D01*
X152764246Y-90827194D01*
X152737296Y-90811041D01*
X152712058Y-90792323D01*
X152688777Y-90771223D01*
X152667677Y-90747942D01*
X152648959Y-90722704D01*
X152632806Y-90695754D01*
X152619372Y-90667350D01*
X152608787Y-90637766D01*
X152601152Y-90607287D01*
X152596542Y-90576207D01*
X152595000Y-90544824D01*
X152595000Y-89360176D01*
X152596542Y-89328793D01*
X152601152Y-89297713D01*
X152608787Y-89267234D01*
X152619372Y-89237650D01*
X152632806Y-89209246D01*
X152648959Y-89182296D01*
X152667677Y-89157058D01*
X152688777Y-89133777D01*
X152712058Y-89112677D01*
X152737296Y-89093959D01*
X152764246Y-89077806D01*
X152792650Y-89064372D01*
X152822234Y-89053787D01*
X152852713Y-89046152D01*
X152883793Y-89041542D01*
X152915176Y-89040000D01*
X154424824Y-89040000D01*
X154456207Y-89041542D01*
X154456207Y-89041542D01*
G37*
D17*
X153670000Y-89952500D03*
D16*
G36*
X154456207Y-92016542D02*
X154487287Y-92021152D01*
X154517766Y-92028787D01*
X154547350Y-92039372D01*
X154575754Y-92052806D01*
X154602704Y-92068959D01*
X154627942Y-92087677D01*
X154651223Y-92108777D01*
X154672323Y-92132058D01*
X154691041Y-92157296D01*
X154707194Y-92184246D01*
X154720628Y-92212650D01*
X154731213Y-92242234D01*
X154738848Y-92272713D01*
X154743458Y-92303793D01*
X154745000Y-92335176D01*
X154745000Y-93519824D01*
X154743458Y-93551207D01*
X154738848Y-93582287D01*
X154731213Y-93612766D01*
X154720628Y-93642350D01*
X154707194Y-93670754D01*
X154691041Y-93697704D01*
X154672323Y-93722942D01*
X154651223Y-93746223D01*
X154627942Y-93767323D01*
X154602704Y-93786041D01*
X154575754Y-93802194D01*
X154547350Y-93815628D01*
X154517766Y-93826213D01*
X154487287Y-93833848D01*
X154456207Y-93838458D01*
X154424824Y-93840000D01*
X152915176Y-93840000D01*
X152883793Y-93838458D01*
X152852713Y-93833848D01*
X152822234Y-93826213D01*
X152792650Y-93815628D01*
X152764246Y-93802194D01*
X152737296Y-93786041D01*
X152712058Y-93767323D01*
X152688777Y-93746223D01*
X152667677Y-93722942D01*
X152648959Y-93697704D01*
X152632806Y-93670754D01*
X152619372Y-93642350D01*
X152608787Y-93612766D01*
X152601152Y-93582287D01*
X152596542Y-93551207D01*
X152595000Y-93519824D01*
X152595000Y-92335176D01*
X152596542Y-92303793D01*
X152601152Y-92272713D01*
X152608787Y-92242234D01*
X152619372Y-92212650D01*
X152632806Y-92184246D01*
X152648959Y-92157296D01*
X152667677Y-92132058D01*
X152688777Y-92108777D01*
X152712058Y-92087677D01*
X152737296Y-92068959D01*
X152764246Y-92052806D01*
X152792650Y-92039372D01*
X152822234Y-92028787D01*
X152852713Y-92021152D01*
X152883793Y-92016542D01*
X152915176Y-92015000D01*
X154424824Y-92015000D01*
X154456207Y-92016542D01*
X154456207Y-92016542D01*
G37*
D17*
X153670000Y-92927500D03*
G04 #@! TD*
M02*
