G04 #@! TF.GenerationSoftware,KiCad,Pcbnew,(5.0.0-3-g5ebb6b6)*
G04 #@! TF.CreationDate,2018-10-06T16:58:55+02:00*
G04 #@! TF.ProjectId,tt_photometer,74745F70686F746F6D657465722E6B69,rev?*
G04 #@! TF.SameCoordinates,Original*
G04 #@! TF.FileFunction,Paste,Bot*
G04 #@! TF.FilePolarity,Positive*
%FSLAX46Y46*%
G04 Gerber Fmt 4.6, Leading zero omitted, Abs format (unit mm)*
G04 Created by KiCad (PCBNEW (5.0.0-3-g5ebb6b6)) date Saturday, 06. October 2018 um 16:58:55*
%MOMM*%
%LPD*%
G01*
G04 APERTURE LIST*
%ADD10R,1.300000X2.000000*%
%ADD11R,2.000000X2.000000*%
%ADD12C,0.100000*%
%ADD13C,1.425000*%
G04 APERTURE END LIST*
D10*
G04 #@! TO.C,RV1*
X158990000Y-93980000D03*
D11*
X160140000Y-89980000D03*
D10*
X161290000Y-93980000D03*
G04 #@! TD*
D12*
G04 #@! TO.C,R1*
G36*
X154319504Y-89241204D02*
X154343773Y-89244804D01*
X154367571Y-89250765D01*
X154390671Y-89259030D01*
X154412849Y-89269520D01*
X154433893Y-89282133D01*
X154453598Y-89296747D01*
X154471777Y-89313223D01*
X154488253Y-89331402D01*
X154502867Y-89351107D01*
X154515480Y-89372151D01*
X154525970Y-89394329D01*
X154534235Y-89417429D01*
X154540196Y-89441227D01*
X154543796Y-89465496D01*
X154545000Y-89490000D01*
X154545000Y-90415000D01*
X154543796Y-90439504D01*
X154540196Y-90463773D01*
X154534235Y-90487571D01*
X154525970Y-90510671D01*
X154515480Y-90532849D01*
X154502867Y-90553893D01*
X154488253Y-90573598D01*
X154471777Y-90591777D01*
X154453598Y-90608253D01*
X154433893Y-90622867D01*
X154412849Y-90635480D01*
X154390671Y-90645970D01*
X154367571Y-90654235D01*
X154343773Y-90660196D01*
X154319504Y-90663796D01*
X154295000Y-90665000D01*
X153045000Y-90665000D01*
X153020496Y-90663796D01*
X152996227Y-90660196D01*
X152972429Y-90654235D01*
X152949329Y-90645970D01*
X152927151Y-90635480D01*
X152906107Y-90622867D01*
X152886402Y-90608253D01*
X152868223Y-90591777D01*
X152851747Y-90573598D01*
X152837133Y-90553893D01*
X152824520Y-90532849D01*
X152814030Y-90510671D01*
X152805765Y-90487571D01*
X152799804Y-90463773D01*
X152796204Y-90439504D01*
X152795000Y-90415000D01*
X152795000Y-89490000D01*
X152796204Y-89465496D01*
X152799804Y-89441227D01*
X152805765Y-89417429D01*
X152814030Y-89394329D01*
X152824520Y-89372151D01*
X152837133Y-89351107D01*
X152851747Y-89331402D01*
X152868223Y-89313223D01*
X152886402Y-89296747D01*
X152906107Y-89282133D01*
X152927151Y-89269520D01*
X152949329Y-89259030D01*
X152972429Y-89250765D01*
X152996227Y-89244804D01*
X153020496Y-89241204D01*
X153045000Y-89240000D01*
X154295000Y-89240000D01*
X154319504Y-89241204D01*
X154319504Y-89241204D01*
G37*
D13*
X153670000Y-89952500D03*
D12*
G36*
X154319504Y-92216204D02*
X154343773Y-92219804D01*
X154367571Y-92225765D01*
X154390671Y-92234030D01*
X154412849Y-92244520D01*
X154433893Y-92257133D01*
X154453598Y-92271747D01*
X154471777Y-92288223D01*
X154488253Y-92306402D01*
X154502867Y-92326107D01*
X154515480Y-92347151D01*
X154525970Y-92369329D01*
X154534235Y-92392429D01*
X154540196Y-92416227D01*
X154543796Y-92440496D01*
X154545000Y-92465000D01*
X154545000Y-93390000D01*
X154543796Y-93414504D01*
X154540196Y-93438773D01*
X154534235Y-93462571D01*
X154525970Y-93485671D01*
X154515480Y-93507849D01*
X154502867Y-93528893D01*
X154488253Y-93548598D01*
X154471777Y-93566777D01*
X154453598Y-93583253D01*
X154433893Y-93597867D01*
X154412849Y-93610480D01*
X154390671Y-93620970D01*
X154367571Y-93629235D01*
X154343773Y-93635196D01*
X154319504Y-93638796D01*
X154295000Y-93640000D01*
X153045000Y-93640000D01*
X153020496Y-93638796D01*
X152996227Y-93635196D01*
X152972429Y-93629235D01*
X152949329Y-93620970D01*
X152927151Y-93610480D01*
X152906107Y-93597867D01*
X152886402Y-93583253D01*
X152868223Y-93566777D01*
X152851747Y-93548598D01*
X152837133Y-93528893D01*
X152824520Y-93507849D01*
X152814030Y-93485671D01*
X152805765Y-93462571D01*
X152799804Y-93438773D01*
X152796204Y-93414504D01*
X152795000Y-93390000D01*
X152795000Y-92465000D01*
X152796204Y-92440496D01*
X152799804Y-92416227D01*
X152805765Y-92392429D01*
X152814030Y-92369329D01*
X152824520Y-92347151D01*
X152837133Y-92326107D01*
X152851747Y-92306402D01*
X152868223Y-92288223D01*
X152886402Y-92271747D01*
X152906107Y-92257133D01*
X152927151Y-92244520D01*
X152949329Y-92234030D01*
X152972429Y-92225765D01*
X152996227Y-92219804D01*
X153020496Y-92216204D01*
X153045000Y-92215000D01*
X154295000Y-92215000D01*
X154319504Y-92216204D01*
X154319504Y-92216204D01*
G37*
D13*
X153670000Y-92927500D03*
G04 #@! TD*
M02*
