<?xml version="1.0" encoding="UTF-8" standalone="no"?>
<!-- Created with Inkscape (http://www.inkscape.org/) -->

<svg
   xmlns:dc="http://purl.org/dc/elements/1.1/"
   xmlns:cc="http://creativecommons.org/ns#"
   xmlns:rdf="http://www.w3.org/1999/02/22-rdf-syntax-ns#"
   xmlns:svg="http://www.w3.org/2000/svg"
   xmlns="http://www.w3.org/2000/svg"
   xmlns:sodipodi="http://sodipodi.sourceforge.net/DTD/sodipodi-0.dtd"
   xmlns:inkscape="http://www.inkscape.org/namespaces/inkscape"
   width="210mm"
   height="297mm"
   viewBox="0 0 210 297"
   version="1.1"
   id="svg8"
   inkscape:version="0.92.2 5c3e80d, 2017-08-06"
   sodipodi:docname="tt_logo_sw_outline.svg">
  <defs
     id="defs2" />
  <sodipodi:namedview
     id="base"
     pagecolor="#ffffff"
     bordercolor="#666666"
     borderopacity="1.0"
     inkscape:pageopacity="0.0"
     inkscape:pageshadow="2"
     inkscape:zoom="2.8"
     inkscape:cx="195.43932"
     inkscape:cy="617.51667"
     inkscape:document-units="mm"
     inkscape:current-layer="layer1"
     showgrid="false"
     inkscape:window-width="1920"
     inkscape:window-height="971"
     inkscape:window-x="0"
     inkscape:window-y="1"
     inkscape:window-maximized="1" />
  <metadata
     id="metadata5">
    <rdf:RDF>
      <cc:Work
         rdf:about="">
        <dc:format>image/svg+xml</dc:format>
        <dc:type
           rdf:resource="http://purl.org/dc/dcmitype/StillImage" />
        <dc:title />
      </cc:Work>
    </rdf:RDF>
  </metadata>
  <g
     inkscape:label="Ebene 1"
     inkscape:groupmode="layer"
     id="layer1">
    <path
       style="color:#000000;font-style:normal;font-variant:normal;font-weight:normal;font-stretch:normal;font-size:medium;line-height:normal;font-family:sans-serif;font-variant-ligatures:normal;font-variant-position:normal;font-variant-caps:normal;font-variant-numeric:normal;font-variant-alternates:normal;font-feature-settings:normal;text-indent:0;text-align:start;text-decoration:none;text-decoration-line:none;text-decoration-style:solid;text-decoration-color:#000000;letter-spacing:normal;word-spacing:normal;text-transform:none;writing-mode:lr-tb;direction:ltr;text-orientation:mixed;dominant-baseline:auto;baseline-shift:baseline;text-anchor:start;white-space:normal;shape-padding:0;clip-rule:nonzero;display:inline;overflow:visible;visibility:visible;opacity:1;isolation:auto;mix-blend-mode:normal;color-interpolation:sRGB;color-interpolation-filters:linearRGB;solid-color:#000000;solid-opacity:1;vector-effect:none;fill:#000000;fill-opacity:1;fill-rule:nonzero;stroke:none;stroke-width:1;stroke-linecap:round;stroke-linejoin:round;stroke-miterlimit:4;stroke-dasharray:none;stroke-dashoffset:0;stroke-opacity:1;color-rendering:auto;image-rendering:auto;shape-rendering:auto;text-rendering:auto;enable-background:accumulate"
       d="m 93.927734,131.60742 c -3.053751,0 -5.847905,0.14211 -7.96875,1.125 -2.120844,0.98289 -3.49414,2.91353 -3.49414,6.08399 v 9.44921 c 0,6.34092 5.121975,11.4629 11.46289,11.4629 h 0.1875 c 6.340916,0 11.462886,-5.12198 11.462886,-11.4629 v -10.50781 c 0,-1.58523 -0.32129,-2.80595 -0.94531,-3.72461 -0.62401,-0.91865 -1.5382,-1.50076 -2.60156,-1.85156 -2.126716,-0.7016 -4.891313,-0.57422 -7.916016,-0.57422 z m 0,1 h 0.1875 c 3.047858,0 5.765764,-0.0822 7.601566,0.52344 0.9179,0.30281 1.60549,0.75468 2.08789,1.46484 0.48239,0.71017 0.77344,1.71106 0.77343,3.16211 v 10.50781 c 0,5.80421 -4.658678,10.4629 -10.462886,10.4629 h -0.1875 c -5.804212,0 -10.46289,-4.65869 -10.46289,-10.4629 v -9.44921 c 0,-2.90211 1.072395,-4.32423 2.914062,-5.17774 1.841668,-0.8535 4.530016,-1.03125 7.548828,-1.03125 z"
       id="rect867"
       inkscape:connector-curvature="0" />
    <path
       style="color:#000000;font-style:normal;font-variant:normal;font-weight:normal;font-stretch:normal;font-size:medium;line-height:normal;font-family:sans-serif;font-variant-ligatures:normal;font-variant-position:normal;font-variant-caps:normal;font-variant-numeric:normal;font-variant-alternates:normal;font-feature-settings:normal;text-indent:0;text-align:start;text-decoration:none;text-decoration-line:none;text-decoration-style:solid;text-decoration-color:#000000;letter-spacing:normal;word-spacing:normal;text-transform:none;writing-mode:lr-tb;direction:ltr;text-orientation:mixed;dominant-baseline:auto;baseline-shift:baseline;text-anchor:start;white-space:normal;shape-padding:0;clip-rule:nonzero;display:inline;overflow:visible;visibility:visible;opacity:1;isolation:auto;mix-blend-mode:normal;color-interpolation:sRGB;color-interpolation-filters:linearRGB;solid-color:#000000;solid-opacity:1;vector-effect:none;fill:#000000;fill-opacity:1;fill-rule:nonzero;stroke:none;stroke-width:2;stroke-linecap:round;stroke-linejoin:round;stroke-miterlimit:4;stroke-dasharray:none;stroke-dashoffset:0;stroke-opacity:1;color-rendering:auto;image-rendering:auto;shape-rendering:auto;text-rendering:auto;enable-background:accumulate"
       d="m 93.300781,87.082031 c -3.024147,0.07382 -5.698018,0.584488 -7.68164,1.417969 -0.991812,0.416741 -1.817559,0.911118 -2.431641,1.542969 -0.614082,0.63185 -1.024615,1.483854 -0.921875,2.382812 0.10274,0.898958 0.654518,1.636273 1.367187,2.210938 0.71267,0.574665 1.620546,1.030952 2.6875,1.408203 2.13391,0.754502 4.912118,1.178914 7.941407,1.154297 3.029288,-0.02462 5.758261,-0.493121 7.818361,-1.28711 1.03005,-0.396994 1.89802,-0.872509 2.5625,-1.474609 0.66448,-0.6021 1.15039,-1.395146 1.15039,-2.300781 a 1.0001,1.0001 0 0 0 -0.0371,-0.292969 1.0001,1.0001 0 0 0 -0.0273,-0.279297 c -0.20152,-0.879962 -0.80525,-1.566003 -1.56446,-2.115234 -0.75921,-0.549232 -1.71008,-0.988281 -2.8125,-1.345703 -2.20484,-0.714844 -5.026631,-1.095304 -8.050779,-1.021485 z m 0.04883,2 c 2.822507,-0.0689 5.463397,0.300891 7.384771,0.923828 0.96068,0.311469 1.74056,0.690266 2.25781,1.064453 0.51724,0.374188 0.73652,0.718534 0.78711,0.939454 a 1.0001,1.0001 0 0 0 0.0156,0.05664 1.0001,1.0001 0 0 0 0,0.0039 1.0001,1.0001 0 0 0 -0.002,0.06641 c 0,0.199346 -0.0976,0.460985 -0.49414,0.820312 -0.39656,0.359327 -1.06471,0.751505 -1.9375,1.087891 -1.745589,0.672771 -4.287001,1.131313 -7.115236,1.154297 -2.828236,0.02298 -5.422089,-0.391945 -7.257813,-1.041016 -0.917861,-0.324535 -1.642449,-0.711444 -2.099609,-1.080078 -0.457161,-0.368634 -0.611337,-0.673909 -0.634766,-0.878906 -0.02343,-0.204998 0.03099,-0.415797 0.367188,-0.761719 0.336194,-0.345922 0.945956,-0.746878 1.771484,-1.09375 1.651057,-0.693743 4.134525,-1.192822 6.957031,-1.261719 z"
       id="path819"
       inkscape:connector-curvature="0" />
    <path
       style="color:#000000;font-style:normal;font-variant:normal;font-weight:normal;font-stretch:normal;font-size:medium;line-height:normal;font-family:sans-serif;font-variant-ligatures:normal;font-variant-position:normal;font-variant-caps:normal;font-variant-numeric:normal;font-variant-alternates:normal;font-feature-settings:normal;text-indent:0;text-align:start;text-decoration:none;text-decoration-line:none;text-decoration-style:solid;text-decoration-color:#000000;letter-spacing:normal;word-spacing:normal;text-transform:none;writing-mode:lr-tb;direction:ltr;text-orientation:mixed;dominant-baseline:auto;baseline-shift:baseline;text-anchor:start;white-space:normal;shape-padding:0;clip-rule:nonzero;display:inline;overflow:visible;visibility:visible;opacity:1;isolation:auto;mix-blend-mode:normal;color-interpolation:sRGB;color-interpolation-filters:linearRGB;solid-color:#000000;solid-opacity:1;vector-effect:none;fill:#000000;fill-opacity:1;fill-rule:nonzero;stroke:none;stroke-width:1;stroke-linecap:round;stroke-linejoin:miter;stroke-miterlimit:4;stroke-dasharray:none;stroke-dashoffset:0;stroke-opacity:1;color-rendering:auto;image-rendering:auto;shape-rendering:auto;text-rendering:auto;enable-background:accumulate"
       d="m 99.820312,147.0918 a 0.50005,0.50005 0 0 0 -0.30664,0.11328 l -3.201172,2.5625 -21.423828,-0.26563 a 0.50005,0.50005 0 1 0 -0.01172,1 l 21.779297,0.26953 3.48047,-2.78515 a 0.50005,0.50005 0 0 0 -0.316408,-0.89453 z"
       id="path832"
       inkscape:connector-curvature="0" />
    <path
       style="color:#000000;font-style:normal;font-variant:normal;font-weight:normal;font-stretch:normal;font-size:medium;line-height:normal;font-family:sans-serif;font-variant-ligatures:normal;font-variant-position:normal;font-variant-caps:normal;font-variant-numeric:normal;font-variant-alternates:normal;font-feature-settings:normal;text-indent:0;text-align:start;text-decoration:none;text-decoration-line:none;text-decoration-style:solid;text-decoration-color:#000000;letter-spacing:normal;word-spacing:normal;text-transform:none;writing-mode:lr-tb;direction:ltr;text-orientation:mixed;dominant-baseline:auto;baseline-shift:baseline;text-anchor:start;white-space:normal;shape-padding:0;clip-rule:nonzero;display:inline;overflow:visible;visibility:visible;opacity:1;isolation:auto;mix-blend-mode:normal;color-interpolation:sRGB;color-interpolation-filters:linearRGB;solid-color:#000000;solid-opacity:1;vector-effect:none;fill:#000000;fill-opacity:1;fill-rule:nonzero;stroke:none;stroke-width:1;stroke-linecap:round;stroke-linejoin:miter;stroke-miterlimit:4;stroke-dasharray:none;stroke-dashoffset:0;stroke-opacity:1;color-rendering:auto;image-rendering:auto;shape-rendering:auto;text-rendering:auto;enable-background:accumulate"
       d="m 93.333984,145.15234 a 0.50005,0.50005 0 0 0 -0.404296,0.78711 l 3.25,4.77149 4.931642,1.17968 a 0.50024427,0.50024427 0 1 0 0.23437,-0.97265 l -4.556638,-1.08985 -3.03125,-4.45117 a 0.50005,0.50005 0 0 0 -0.423828,-0.22461 z"
       id="path834"
       inkscape:connector-curvature="0" />
    <path
       style="color:#000000;font-style:normal;font-variant:normal;font-weight:normal;font-stretch:normal;font-size:medium;line-height:normal;font-family:sans-serif;font-variant-ligatures:normal;font-variant-position:normal;font-variant-caps:normal;font-variant-numeric:normal;font-variant-alternates:normal;font-feature-settings:normal;text-indent:0;text-align:start;text-decoration:none;text-decoration-line:none;text-decoration-style:solid;text-decoration-color:#000000;letter-spacing:normal;word-spacing:normal;text-transform:none;writing-mode:lr-tb;direction:ltr;text-orientation:mixed;dominant-baseline:auto;baseline-shift:baseline;text-anchor:start;white-space:normal;shape-padding:0;clip-rule:nonzero;display:inline;overflow:visible;visibility:visible;opacity:1;isolation:auto;mix-blend-mode:normal;color-interpolation:sRGB;color-interpolation-filters:linearRGB;solid-color:#000000;solid-opacity:1;vector-effect:none;fill:#000000;fill-opacity:1;fill-rule:nonzero;stroke:none;stroke-width:1;stroke-linecap:round;stroke-linejoin:miter;stroke-miterlimit:4;stroke-dasharray:none;stroke-dashoffset:0;stroke-opacity:1;color-rendering:auto;image-rendering:auto;shape-rendering:auto;text-rendering:auto;enable-background:accumulate"
       d="m 99.867188,142.88086 a 0.50005,0.50005 0 0 0 -0.423829,0.2832 l -3.539062,7.15039 2.310547,3.25196 a 0.50005,0.50005 0 1 0 0.814453,-0.58008 l -1.964844,-2.76367 3.275387,-6.61328 a 0.50005,0.50005 0 0 0 -0.472652,-0.72852 z"
       id="path836"
       inkscape:connector-curvature="0" />
    <path
       style="color:#000000;font-style:normal;font-variant:normal;font-weight:normal;font-stretch:normal;font-size:medium;line-height:normal;font-family:sans-serif;font-variant-ligatures:normal;font-variant-position:normal;font-variant-caps:normal;font-variant-numeric:normal;font-variant-alternates:normal;font-feature-settings:normal;text-indent:0;text-align:start;text-decoration:none;text-decoration-line:none;text-decoration-style:solid;text-decoration-color:#000000;letter-spacing:normal;word-spacing:normal;text-transform:none;writing-mode:lr-tb;direction:ltr;text-orientation:mixed;dominant-baseline:auto;baseline-shift:baseline;text-anchor:start;white-space:normal;shape-padding:0;clip-rule:nonzero;display:inline;overflow:visible;visibility:visible;opacity:1;isolation:auto;mix-blend-mode:normal;color-interpolation:sRGB;color-interpolation-filters:linearRGB;solid-color:#000000;solid-opacity:1;vector-effect:none;fill:#000000;fill-opacity:1;fill-rule:nonzero;stroke:none;stroke-width:1;stroke-linecap:round;stroke-linejoin:miter;stroke-miterlimit:4;stroke-dasharray:none;stroke-dashoffset:0;stroke-opacity:1;color-rendering:auto;image-rendering:auto;shape-rendering:auto;text-rendering:auto;enable-background:accumulate"
       d="M 96.503906,149.76172 A 0.50005,0.50005 0 0 0 96,150.14453 L 95.332031,152.75 a 0.50024408,0.50024408 0 1 0 0.96875,0.25 l 0.667969,-2.60742 a 0.50005,0.50005 0 0 0 -0.464844,-0.63086 z"
       id="path838"
       inkscape:connector-curvature="0" />
    <path
       style="color:#000000;font-style:normal;font-variant:normal;font-weight:normal;font-stretch:normal;font-size:medium;line-height:normal;font-family:sans-serif;font-variant-ligatures:normal;font-variant-position:normal;font-variant-caps:normal;font-variant-numeric:normal;font-variant-alternates:normal;font-feature-settings:normal;text-indent:0;text-align:start;text-decoration:none;text-decoration-line:none;text-decoration-style:solid;text-decoration-color:#000000;letter-spacing:normal;word-spacing:normal;text-transform:none;writing-mode:lr-tb;direction:ltr;text-orientation:mixed;dominant-baseline:auto;baseline-shift:baseline;text-anchor:start;white-space:normal;shape-padding:0;clip-rule:nonzero;display:inline;overflow:visible;visibility:visible;opacity:1;isolation:auto;mix-blend-mode:normal;color-interpolation:sRGB;color-interpolation-filters:linearRGB;solid-color:#000000;solid-opacity:1;vector-effect:none;fill:#000000;fill-opacity:1;fill-rule:nonzero;stroke:none;stroke-width:2;stroke-linecap:round;stroke-linejoin:round;stroke-miterlimit:4;stroke-dasharray:none;stroke-dashoffset:0;stroke-opacity:1;color-rendering:auto;image-rendering:auto;shape-rendering:auto;text-rendering:auto;enable-background:accumulate"
       d="m 93.300781,130.91406 c -3.024147,0.0738 -5.698018,0.58449 -7.68164,1.41797 -0.991812,0.41674 -1.817559,0.91112 -2.431641,1.54297 -0.614082,0.63185 -1.024615,1.48385 -0.921875,2.38281 0.10274,0.89896 0.654518,1.63628 1.367187,2.21094 0.71267,0.57466 1.620546,1.03095 2.6875,1.4082 2.13391,0.75451 4.912118,1.17892 7.941407,1.1543 3.029288,-0.0246 5.758261,-0.49312 7.818361,-1.28711 1.03005,-0.39699 1.89802,-0.87251 2.5625,-1.47461 0.66448,-0.6021 1.15039,-1.39515 1.15039,-2.30078 a 1.0001,1.0001 0 0 0 -0.0391,-0.29102 1.0001,1.0001 0 0 0 -0.0254,-0.28125 c -0.20152,-0.87996 -0.80525,-1.566 -1.56446,-2.11523 -0.75921,-0.54923 -1.71008,-0.98828 -2.8125,-1.3457 -2.20484,-0.71485 -5.026631,-1.09531 -8.050779,-1.02149 z m 0.04883,2 c 2.822507,-0.0689 5.463397,0.30285 7.384771,0.92578 0.96068,0.31147 1.74056,0.68832 2.25781,1.0625 0.51724,0.37419 0.73652,0.71854 0.78711,0.93946 a 1.0001,1.0001 0 0 0 0.0156,0.0566 1.0001,1.0001 0 0 0 0,0.004 1.0001,1.0001 0 0 0 -0.002,0.0664 c 0,0.19935 -0.0976,0.46099 -0.49414,0.82031 -0.39656,0.35933 -1.06471,0.75346 -1.9375,1.08985 -1.745589,0.67277 -4.287001,1.12936 -7.115236,1.15234 -2.828236,0.023 -5.422089,-0.39195 -7.257813,-1.04102 -0.917861,-0.32453 -1.642449,-0.70949 -2.099609,-1.07812 -0.457161,-0.36863 -0.611337,-0.67586 -0.634766,-0.88086 -0.02343,-0.205 0.03099,-0.4158 0.367188,-0.76172 0.336194,-0.34592 0.945956,-0.74688 1.771484,-1.09375 1.651057,-0.69374 4.134525,-1.19282 6.957031,-1.26172 z"
       id="path822"
       inkscape:connector-curvature="0" />
    <path
       style="color:#000000;font-style:normal;font-variant:normal;font-weight:normal;font-stretch:normal;font-size:medium;line-height:normal;font-family:sans-serif;font-variant-ligatures:normal;font-variant-position:normal;font-variant-caps:normal;font-variant-numeric:normal;font-variant-alternates:normal;font-feature-settings:normal;text-indent:0;text-align:start;text-decoration:none;text-decoration-line:none;text-decoration-style:solid;text-decoration-color:#000000;letter-spacing:normal;word-spacing:normal;text-transform:none;writing-mode:lr-tb;direction:ltr;text-orientation:mixed;dominant-baseline:auto;baseline-shift:baseline;text-anchor:start;white-space:normal;shape-padding:0;clip-rule:nonzero;display:inline;overflow:visible;visibility:visible;opacity:1;isolation:auto;mix-blend-mode:normal;color-interpolation:sRGB;color-interpolation-filters:linearRGB;solid-color:#000000;solid-opacity:1;vector-effect:none;fill:#000000;fill-opacity:1;fill-rule:nonzero;stroke:none;stroke-width:2;stroke-linecap:round;stroke-linejoin:round;stroke-miterlimit:4;stroke-dasharray:none;stroke-dashoffset:0;stroke-opacity:1;color-rendering:auto;image-rendering:auto;shape-rendering:auto;text-rendering:auto;enable-background:accumulate"
       d="m 83.193359,90.773438 a 1.0001,1.0001 0 0 0 -0.984375,1.013671 v 56.318361 c 0,6.50457 5.268869,11.77344 11.773438,11.77344 6.504568,0 11.771488,-5.26887 11.771488,-11.77344 V 91.787109 a 1.0001,1.0001 0 1 0 -2,0 v 56.318361 c 0,5.43117 -4.340323,9.77344 -9.771488,9.77344 -5.431165,0 -9.773438,-4.34227 -9.773438,-9.77344 V 91.787109 a 1.0001,1.0001 0 0 0 -1.015625,-1.013671 z"
       id="rect817"
       inkscape:connector-curvature="0" />
  </g>
</svg>
