G04 #@! TF.GenerationSoftware,KiCad,Pcbnew,(5.0.0-3-g5ebb6b6)*
G04 #@! TF.CreationDate,2019-02-02T18:47:35+01:00*
G04 #@! TF.ProjectId,tt_nano_HAT,74745F6E616E6F5F4841542E6B696361,rev?*
G04 #@! TF.SameCoordinates,Original*
G04 #@! TF.FileFunction,Other,User*
%FSLAX46Y46*%
G04 Gerber Fmt 4.6, Leading zero omitted, Abs format (unit mm)*
G04 Created by KiCad (PCBNEW (5.0.0-3-g5ebb6b6)) date Saturday, 02. February 2019 um 18:47:35*
%MOMM*%
%LPD*%
G01*
G04 APERTURE LIST*
%ADD10C,0.050000*%
G04 APERTURE END LIST*
D10*
G04 #@! TO.C,A1*
X161000000Y-49555001D02*
X179280000Y-49555001D01*
X161000000Y-49555001D02*
X161000000Y-95775001D01*
X179280000Y-95775001D02*
X179280000Y-49555001D01*
X179280000Y-95775001D02*
X161000000Y-95775001D01*
G04 #@! TO.C,D4*
X153440000Y-44670000D02*
X153440000Y-56930000D01*
X156440000Y-44670000D02*
X153440000Y-44670000D01*
X156440000Y-56930000D02*
X156440000Y-44670000D01*
X153440000Y-56930000D02*
X156440000Y-56930000D01*
G04 #@! TO.C,J2*
X162030000Y-47520000D02*
X178330000Y-47520000D01*
X178330000Y-47520000D02*
X178330000Y-43920000D01*
X178330000Y-43920000D02*
X162030000Y-43920000D01*
X162030000Y-43920000D02*
X162030000Y-47520000D01*
G04 #@! TO.C,J3*
X181080000Y-57890000D02*
X184630000Y-57890000D01*
X184630000Y-57890000D02*
X184630000Y-69090000D01*
X184630000Y-69090000D02*
X181080000Y-69090000D01*
X181080000Y-69090000D02*
X181080000Y-57890000D01*
G04 #@! TO.C,J4*
X175640000Y-77910000D02*
X164640000Y-77910000D01*
X175640000Y-82710000D02*
X175640000Y-77910000D01*
X164640000Y-82710000D02*
X175640000Y-82710000D01*
X164640000Y-77910000D02*
X164640000Y-82710000D01*
G04 #@! TO.C,J5*
X164640000Y-72830000D02*
X164640000Y-77630000D01*
X164640000Y-77630000D02*
X175640000Y-77630000D01*
X175640000Y-77630000D02*
X175640000Y-72830000D01*
X175640000Y-72830000D02*
X164640000Y-72830000D01*
G04 #@! TO.C,J6*
X175640000Y-67750000D02*
X164640000Y-67750000D01*
X175640000Y-72550000D02*
X175640000Y-67750000D01*
X164640000Y-72550000D02*
X175640000Y-72550000D01*
X164640000Y-67750000D02*
X164640000Y-72550000D01*
G04 #@! TO.C,J7*
X164640000Y-62670000D02*
X164640000Y-67470000D01*
X164640000Y-67470000D02*
X175640000Y-67470000D01*
X175640000Y-67470000D02*
X175640000Y-62670000D01*
X175640000Y-62670000D02*
X164640000Y-62670000D01*
G04 #@! TO.C,J8*
X175640000Y-57590000D02*
X164640000Y-57590000D01*
X175640000Y-62390000D02*
X175640000Y-57590000D01*
X164640000Y-62390000D02*
X175640000Y-62390000D01*
X164640000Y-57590000D02*
X164640000Y-62390000D01*
G04 #@! TO.C,J9*
X164640000Y-52510000D02*
X164640000Y-57310000D01*
X164640000Y-57310000D02*
X175640000Y-57310000D01*
X175640000Y-57310000D02*
X175640000Y-52510000D01*
X175640000Y-52510000D02*
X164640000Y-52510000D01*
G04 #@! TO.C,D3*
X157250000Y-56930000D02*
X160250000Y-56930000D01*
X160250000Y-56930000D02*
X160250000Y-44670000D01*
X160250000Y-44670000D02*
X157250000Y-44670000D01*
X157250000Y-44670000D02*
X157250000Y-56930000D01*
G04 #@! TO.C,D5*
X157250000Y-72170000D02*
X160250000Y-72170000D01*
X160250000Y-72170000D02*
X160250000Y-59910000D01*
X160250000Y-59910000D02*
X157250000Y-59910000D01*
X157250000Y-59910000D02*
X157250000Y-72170000D01*
G04 #@! TO.C,D6*
X153440000Y-59910000D02*
X153440000Y-72170000D01*
X156440000Y-59910000D02*
X153440000Y-59910000D01*
X156440000Y-72170000D02*
X156440000Y-59910000D01*
X153440000Y-72170000D02*
X156440000Y-72170000D01*
G04 #@! TO.C,D7*
X157250000Y-87410000D02*
X160250000Y-87410000D01*
X160250000Y-87410000D02*
X160250000Y-75150000D01*
X160250000Y-75150000D02*
X157250000Y-75150000D01*
X157250000Y-75150000D02*
X157250000Y-87410000D01*
G04 #@! TO.C,D8*
X153440000Y-75150000D02*
X153440000Y-87410000D01*
X156440000Y-75150000D02*
X153440000Y-75150000D01*
X156440000Y-87410000D02*
X156440000Y-75150000D01*
X153440000Y-87410000D02*
X156440000Y-87410000D01*
G04 #@! TO.C,J1*
X164570000Y-86890000D02*
X175770000Y-86890000D01*
X175770000Y-86890000D02*
X175770000Y-83290000D01*
X175770000Y-83290000D02*
X164570000Y-83290000D01*
X164570000Y-83290000D02*
X164570000Y-86890000D01*
G04 #@! TO.C,D12*
X164870000Y-87400000D02*
X164870000Y-90400000D01*
X164870000Y-90400000D02*
X169960000Y-90400000D01*
X169960000Y-90400000D02*
X169960000Y-87400000D01*
X169960000Y-87400000D02*
X164870000Y-87400000D01*
G04 #@! TO.C,D13*
X175040000Y-87400000D02*
X169950000Y-87400000D01*
X175040000Y-90400000D02*
X175040000Y-87400000D01*
X169950000Y-90400000D02*
X175040000Y-90400000D01*
X169950000Y-87400000D02*
X169950000Y-90400000D01*
G04 #@! TD*
M02*
