M48
;DRILL file {KiCad (5.0.0-3-g5ebb6b6)} date Saturday, 02. February 2019 um 18:46:05
;FORMAT={-:-/ absolute / inch / decimal}
FMAT,2
INCH,TZ
T1C0.0315
T2C0.0374
T3C0.0394
%
G90
G05
M72
T1
X6.25Y-1.8
X6.25Y-2.2
X6.25Y-3.
X6.25Y-3.4
X6.3988Y-2.1108
X6.3988Y-2.2108
X6.3988Y-2.3108
X6.3988Y-2.4108
X6.3988Y-2.5108
X6.3988Y-2.6108
X6.3988Y-2.7108
X6.3988Y-2.8108
X6.3988Y-2.9108
X6.3988Y-3.0108
X6.3988Y-3.1108
X6.3988Y-3.2108
X6.3988Y-3.3108
X6.3988Y-3.4108
X6.3988Y-3.5108
X6.9988Y-2.1108
X6.9988Y-2.2108
X6.9988Y-2.3108
X6.9988Y-2.4108
X6.9988Y-2.5108
X6.9988Y-2.6108
X6.9988Y-2.7108
X6.9988Y-2.8108
X6.9988Y-2.9108
X6.9988Y-3.0108
X6.9988Y-3.1108
X6.9988Y-3.2108
X6.9988Y-3.3108
X6.9988Y-3.4108
X6.9988Y-3.5108
X6.1Y-2.4
X6.1Y-2.8
X6.25Y-2.4
X6.25Y-2.8
X6.75Y-3.5
X6.85Y-3.5
X6.1Y-1.8
X6.1Y-2.2
X6.1Y-3.
X6.1Y-3.4
X6.55Y-3.5
X6.65Y-3.5
T2
X6.6Y-2.35
X6.6984Y-2.35
X6.7969Y-2.35
X6.6Y-2.75
X6.6984Y-2.75
X6.7969Y-2.75
X6.6Y-2.95
X6.6984Y-2.95
X6.7969Y-2.95
X6.6Y-3.15
X6.6984Y-3.15
X6.7969Y-3.15
X6.6Y-2.55
X6.6984Y-2.55
X6.7969Y-2.55
X6.6Y-2.15
X6.6984Y-2.15
X6.7969Y-2.15
T3
X6.45Y-1.8
X6.55Y-1.8
X6.65Y-1.8
X6.75Y-1.8
X6.85Y-1.8
X6.95Y-1.8
X7.2Y-2.35
X7.2Y-2.45
X7.2Y-2.55
X7.2Y-2.65
X6.55Y-3.35
X6.65Y-3.35
X6.75Y-3.35
X6.85Y-3.35
T0
M30
