G04 #@! TF.GenerationSoftware,KiCad,Pcbnew,(5.0.0-3-g5ebb6b6)*
G04 #@! TF.CreationDate,2018-11-24T18:14:00+01:00*
G04 #@! TF.ProjectId,tt_nano_HAT,74745F6E616E6F5F4841542E6B696361,rev?*
G04 #@! TF.SameCoordinates,Original*
G04 #@! TF.FileFunction,Soldermask,Bot*
G04 #@! TF.FilePolarity,Negative*
%FSLAX46Y46*%
G04 Gerber Fmt 4.6, Leading zero omitted, Abs format (unit mm)*
G04 Created by KiCad (PCBNEW (5.0.0-3-g5ebb6b6)) date Saturday, 24. November 2018 um 18:14:00*
%MOMM*%
%LPD*%
G01*
G04 APERTURE LIST*
%ADD10R,2.000000X2.000000*%
%ADD11O,2.000000X2.000000*%
%ADD12C,2.000000*%
%ADD13R,2.100000X2.100000*%
%ADD14O,2.100000X2.100000*%
%ADD15O,2.100000X2.350000*%
%ADD16R,2.100000X2.350000*%
G04 APERTURE END LIST*
D10*
G04 #@! TO.C,A1*
X162530000Y-53615001D03*
D11*
X177770000Y-86635001D03*
X162530000Y-56155001D03*
X177770000Y-84095001D03*
X162530000Y-58695001D03*
X177770000Y-81555001D03*
X162530000Y-61235001D03*
X177770000Y-79015001D03*
X162530000Y-63775001D03*
X177770000Y-76475001D03*
X162530000Y-66315001D03*
X177770000Y-73935001D03*
X162530000Y-68855001D03*
X177770000Y-71395001D03*
X162530000Y-71395001D03*
X177770000Y-68855001D03*
X162530000Y-73935001D03*
X177770000Y-66315001D03*
X162530000Y-76475001D03*
X177770000Y-63775001D03*
X162530000Y-79015001D03*
X177770000Y-61235001D03*
X162530000Y-81555001D03*
X177770000Y-58695001D03*
X162530000Y-84095001D03*
X177770000Y-56155001D03*
X162530000Y-86635001D03*
X177770000Y-53615001D03*
X162530000Y-89175001D03*
X177770000Y-89175001D03*
G04 #@! TD*
G04 #@! TO.C,D4*
X154940000Y-45720000D03*
D12*
X154940000Y-55880000D03*
G04 #@! TD*
D13*
G04 #@! TO.C,J2*
X163830000Y-45720000D03*
D14*
X166370000Y-45720000D03*
X168910000Y-45720000D03*
X171450000Y-45720000D03*
X173990000Y-45720000D03*
X176530000Y-45720000D03*
G04 #@! TD*
D13*
G04 #@! TO.C,J3*
X182880000Y-59690000D03*
D14*
X182880000Y-62230000D03*
X182880000Y-64770000D03*
X182880000Y-67310000D03*
G04 #@! TD*
D15*
G04 #@! TO.C,J4*
X172640000Y-80010000D03*
X170140000Y-80010000D03*
D16*
X167640000Y-80010000D03*
G04 #@! TD*
G04 #@! TO.C,J5*
X167640000Y-74930000D03*
D15*
X170140000Y-74930000D03*
X172640000Y-74930000D03*
G04 #@! TD*
G04 #@! TO.C,J6*
X172640000Y-69850000D03*
X170140000Y-69850000D03*
D16*
X167640000Y-69850000D03*
G04 #@! TD*
G04 #@! TO.C,J7*
X167640000Y-64770000D03*
D15*
X170140000Y-64770000D03*
X172640000Y-64770000D03*
G04 #@! TD*
G04 #@! TO.C,J8*
X172640000Y-59690000D03*
X170140000Y-59690000D03*
D16*
X167640000Y-59690000D03*
G04 #@! TD*
G04 #@! TO.C,J9*
X167640000Y-54610000D03*
D15*
X170140000Y-54610000D03*
X172640000Y-54610000D03*
G04 #@! TD*
D12*
G04 #@! TO.C,D3*
X158750000Y-55880000D03*
D11*
X158750000Y-45720000D03*
G04 #@! TD*
D12*
G04 #@! TO.C,D5*
X158750000Y-71120000D03*
D11*
X158750000Y-60960000D03*
G04 #@! TD*
G04 #@! TO.C,D6*
X154940000Y-60960000D03*
D12*
X154940000Y-71120000D03*
G04 #@! TD*
G04 #@! TO.C,D7*
X158750000Y-86360000D03*
D11*
X158750000Y-76200000D03*
G04 #@! TD*
G04 #@! TO.C,D8*
X154940000Y-76200000D03*
D12*
X154940000Y-86360000D03*
G04 #@! TD*
D13*
G04 #@! TO.C,J1*
X166370000Y-85090000D03*
D14*
X168910000Y-85090000D03*
X171450000Y-85090000D03*
X173990000Y-85090000D03*
G04 #@! TD*
D12*
G04 #@! TO.C,D12*
X166370000Y-88900000D03*
D11*
X168910000Y-88900000D03*
G04 #@! TD*
G04 #@! TO.C,D13*
X173990000Y-88900000D03*
D12*
X171450000Y-88900000D03*
G04 #@! TD*
M02*
