G04 #@! TF.GenerationSoftware,KiCad,Pcbnew,(5.0.0-3-g5ebb6b6)*
G04 #@! TF.CreationDate,2018-11-24T18:14:00+01:00*
G04 #@! TF.ProjectId,tt_nano_HAT,74745F6E616E6F5F4841542E6B696361,rev?*
G04 #@! TF.SameCoordinates,Original*
G04 #@! TF.FileFunction,Copper,L1,Top,Signal*
G04 #@! TF.FilePolarity,Positive*
%FSLAX46Y46*%
G04 Gerber Fmt 4.6, Leading zero omitted, Abs format (unit mm)*
G04 Created by KiCad (PCBNEW (5.0.0-3-g5ebb6b6)) date Saturday, 24. November 2018 um 18:14:00*
%MOMM*%
%LPD*%
G01*
G04 APERTURE LIST*
G04 #@! TA.AperFunction,ComponentPad*
%ADD10R,1.600000X1.600000*%
G04 #@! TD*
G04 #@! TA.AperFunction,ComponentPad*
%ADD11O,1.600000X1.600000*%
G04 #@! TD*
G04 #@! TA.AperFunction,ComponentPad*
%ADD12C,1.600000*%
G04 #@! TD*
G04 #@! TA.AperFunction,ComponentPad*
%ADD13R,1.700000X1.700000*%
G04 #@! TD*
G04 #@! TA.AperFunction,ComponentPad*
%ADD14O,1.700000X1.700000*%
G04 #@! TD*
G04 #@! TA.AperFunction,ComponentPad*
%ADD15O,1.700000X1.950000*%
G04 #@! TD*
G04 #@! TA.AperFunction,ComponentPad*
%ADD16R,1.700000X1.950000*%
G04 #@! TD*
G04 #@! TA.AperFunction,Conductor*
%ADD17C,0.250000*%
G04 #@! TD*
G04 #@! TA.AperFunction,Conductor*
%ADD18C,0.254000*%
G04 #@! TD*
G04 APERTURE END LIST*
D10*
G04 #@! TO.P,A1,1*
G04 #@! TO.N,Net-(A1-Pad1)*
X162530000Y-53615001D03*
D11*
G04 #@! TO.P,A1,17*
G04 #@! TO.N,Net-(A1-Pad17)*
X177770000Y-86635001D03*
G04 #@! TO.P,A1,2*
G04 #@! TO.N,Net-(A1-Pad2)*
X162530000Y-56155001D03*
G04 #@! TO.P,A1,18*
G04 #@! TO.N,Net-(A1-Pad18)*
X177770000Y-84095001D03*
G04 #@! TO.P,A1,3*
G04 #@! TO.N,Net-(A1-Pad3)*
X162530000Y-58695001D03*
G04 #@! TO.P,A1,19*
G04 #@! TO.N,Net-(A1-Pad19)*
X177770000Y-81555001D03*
G04 #@! TO.P,A1,4*
G04 #@! TO.N,Net-(A1-Pad4)*
X162530000Y-61235001D03*
G04 #@! TO.P,A1,20*
G04 #@! TO.N,Net-(A1-Pad20)*
X177770000Y-79015001D03*
G04 #@! TO.P,A1,5*
G04 #@! TO.N,Net-(A1-Pad5)*
X162530000Y-63775001D03*
G04 #@! TO.P,A1,21*
G04 #@! TO.N,Net-(A1-Pad21)*
X177770000Y-76475001D03*
G04 #@! TO.P,A1,6*
G04 #@! TO.N,Net-(A1-Pad6)*
X162530000Y-66315001D03*
G04 #@! TO.P,A1,22*
G04 #@! TO.N,Net-(A1-Pad22)*
X177770000Y-73935001D03*
G04 #@! TO.P,A1,7*
G04 #@! TO.N,Net-(A1-Pad7)*
X162530000Y-68855001D03*
G04 #@! TO.P,A1,23*
G04 #@! TO.N,Net-(A1-Pad23)*
X177770000Y-71395001D03*
G04 #@! TO.P,A1,8*
G04 #@! TO.N,Net-(A1-Pad8)*
X162530000Y-71395001D03*
G04 #@! TO.P,A1,24*
G04 #@! TO.N,Net-(A1-Pad24)*
X177770000Y-68855001D03*
G04 #@! TO.P,A1,9*
G04 #@! TO.N,Net-(A1-Pad9)*
X162530000Y-73935001D03*
G04 #@! TO.P,A1,25*
G04 #@! TO.N,Net-(A1-Pad25)*
X177770000Y-66315001D03*
G04 #@! TO.P,A1,10*
G04 #@! TO.N,Net-(A1-Pad10)*
X162530000Y-76475001D03*
G04 #@! TO.P,A1,26*
G04 #@! TO.N,Net-(A1-Pad26)*
X177770000Y-63775001D03*
G04 #@! TO.P,A1,11*
G04 #@! TO.N,Net-(A1-Pad11)*
X162530000Y-79015001D03*
G04 #@! TO.P,A1,27*
G04 #@! TO.N,Net-(A1-Pad27)*
X177770000Y-61235001D03*
G04 #@! TO.P,A1,12*
G04 #@! TO.N,Net-(A1-Pad12)*
X162530000Y-81555001D03*
G04 #@! TO.P,A1,28*
G04 #@! TO.N,Net-(A1-Pad28)*
X177770000Y-58695001D03*
G04 #@! TO.P,A1,13*
G04 #@! TO.N,Net-(A1-Pad13)*
X162530000Y-84095001D03*
G04 #@! TO.P,A1,29*
G04 #@! TO.N,Net-(A1-Pad29)*
X177770000Y-56155001D03*
G04 #@! TO.P,A1,14*
G04 #@! TO.N,Net-(A1-Pad14)*
X162530000Y-86635001D03*
G04 #@! TO.P,A1,30*
G04 #@! TO.N,Net-(A1-Pad30)*
X177770000Y-53615001D03*
G04 #@! TO.P,A1,15*
G04 #@! TO.N,Net-(A1-Pad15)*
X162530000Y-89175001D03*
G04 #@! TO.P,A1,16*
G04 #@! TO.N,Net-(A1-Pad16)*
X177770000Y-89175001D03*
G04 #@! TD*
G04 #@! TO.P,D4,2*
G04 #@! TO.N,Net-(J2-Pad2)*
X154940000Y-45720000D03*
D12*
G04 #@! TO.P,D4,1*
G04 #@! TO.N,Net-(A1-Pad7)*
X154940000Y-55880000D03*
G04 #@! TD*
D13*
G04 #@! TO.P,J2,1*
G04 #@! TO.N,Net-(J2-Pad1)*
X163830000Y-45720000D03*
D14*
G04 #@! TO.P,J2,2*
G04 #@! TO.N,Net-(J2-Pad2)*
X166370000Y-45720000D03*
G04 #@! TO.P,J2,3*
G04 #@! TO.N,Net-(J2-Pad3)*
X168910000Y-45720000D03*
G04 #@! TO.P,J2,4*
G04 #@! TO.N,Net-(J2-Pad4)*
X171450000Y-45720000D03*
G04 #@! TO.P,J2,5*
G04 #@! TO.N,Net-(J2-Pad5)*
X173990000Y-45720000D03*
G04 #@! TO.P,J2,6*
G04 #@! TO.N,Net-(J2-Pad6)*
X176530000Y-45720000D03*
G04 #@! TD*
D13*
G04 #@! TO.P,J3,1*
G04 #@! TO.N,Net-(A1-Pad27)*
X182880000Y-59690000D03*
D14*
G04 #@! TO.P,J3,2*
G04 #@! TO.N,Net-(A1-Pad29)*
X182880000Y-62230000D03*
G04 #@! TO.P,J3,3*
G04 #@! TO.N,Net-(A1-Pad23)*
X182880000Y-64770000D03*
G04 #@! TO.P,J3,4*
G04 #@! TO.N,Net-(A1-Pad24)*
X182880000Y-67310000D03*
G04 #@! TD*
D15*
G04 #@! TO.P,J4,3*
G04 #@! TO.N,Net-(A1-Pad27)*
X172640000Y-80010000D03*
G04 #@! TO.P,J4,2*
G04 #@! TO.N,Net-(A1-Pad19)*
X170140000Y-80010000D03*
D16*
G04 #@! TO.P,J4,1*
G04 #@! TO.N,Net-(A1-Pad29)*
X167640000Y-80010000D03*
G04 #@! TD*
G04 #@! TO.P,J5,1*
G04 #@! TO.N,Net-(A1-Pad29)*
X167640000Y-74930000D03*
D15*
G04 #@! TO.P,J5,2*
G04 #@! TO.N,Net-(A1-Pad20)*
X170140000Y-74930000D03*
G04 #@! TO.P,J5,3*
G04 #@! TO.N,Net-(A1-Pad27)*
X172640000Y-74930000D03*
G04 #@! TD*
G04 #@! TO.P,J6,3*
G04 #@! TO.N,Net-(A1-Pad27)*
X172640000Y-69850000D03*
G04 #@! TO.P,J6,2*
G04 #@! TO.N,Net-(A1-Pad21)*
X170140000Y-69850000D03*
D16*
G04 #@! TO.P,J6,1*
G04 #@! TO.N,Net-(A1-Pad29)*
X167640000Y-69850000D03*
G04 #@! TD*
G04 #@! TO.P,J7,1*
G04 #@! TO.N,Net-(A1-Pad29)*
X167640000Y-64770000D03*
D15*
G04 #@! TO.P,J7,2*
G04 #@! TO.N,Net-(A1-Pad22)*
X170140000Y-64770000D03*
G04 #@! TO.P,J7,3*
G04 #@! TO.N,Net-(A1-Pad27)*
X172640000Y-64770000D03*
G04 #@! TD*
G04 #@! TO.P,J8,3*
G04 #@! TO.N,Net-(A1-Pad27)*
X172640000Y-59690000D03*
G04 #@! TO.P,J8,2*
G04 #@! TO.N,Net-(A1-Pad25)*
X170140000Y-59690000D03*
D16*
G04 #@! TO.P,J8,1*
G04 #@! TO.N,Net-(A1-Pad29)*
X167640000Y-59690000D03*
G04 #@! TD*
G04 #@! TO.P,J9,1*
G04 #@! TO.N,Net-(A1-Pad29)*
X167640000Y-54610000D03*
D15*
G04 #@! TO.P,J9,2*
G04 #@! TO.N,Net-(A1-Pad26)*
X170140000Y-54610000D03*
G04 #@! TO.P,J9,3*
G04 #@! TO.N,Net-(A1-Pad27)*
X172640000Y-54610000D03*
G04 #@! TD*
D12*
G04 #@! TO.P,D3,1*
G04 #@! TO.N,Net-(A1-Pad6)*
X158750000Y-55880000D03*
D11*
G04 #@! TO.P,D3,2*
G04 #@! TO.N,Net-(J2-Pad1)*
X158750000Y-45720000D03*
G04 #@! TD*
D12*
G04 #@! TO.P,D5,1*
G04 #@! TO.N,Net-(A1-Pad8)*
X158750000Y-71120000D03*
D11*
G04 #@! TO.P,D5,2*
G04 #@! TO.N,Net-(J2-Pad3)*
X158750000Y-60960000D03*
G04 #@! TD*
G04 #@! TO.P,D6,2*
G04 #@! TO.N,Net-(J2-Pad4)*
X154940000Y-60960000D03*
D12*
G04 #@! TO.P,D6,1*
G04 #@! TO.N,Net-(A1-Pad9)*
X154940000Y-71120000D03*
G04 #@! TD*
G04 #@! TO.P,D7,1*
G04 #@! TO.N,Net-(A1-Pad10)*
X158750000Y-86360000D03*
D11*
G04 #@! TO.P,D7,2*
G04 #@! TO.N,Net-(J2-Pad5)*
X158750000Y-76200000D03*
G04 #@! TD*
G04 #@! TO.P,D8,2*
G04 #@! TO.N,Net-(J2-Pad6)*
X154940000Y-76200000D03*
D12*
G04 #@! TO.P,D8,1*
G04 #@! TO.N,Net-(A1-Pad11)*
X154940000Y-86360000D03*
G04 #@! TD*
D13*
G04 #@! TO.P,J1,1*
G04 #@! TO.N,Net-(A1-Pad27)*
X166370000Y-85090000D03*
D14*
G04 #@! TO.P,J1,2*
X168910000Y-85090000D03*
G04 #@! TO.P,J1,3*
G04 #@! TO.N,Net-(A1-Pad15)*
X171450000Y-85090000D03*
G04 #@! TO.P,J1,4*
G04 #@! TO.N,Net-(A1-Pad16)*
X173990000Y-85090000D03*
G04 #@! TD*
D12*
G04 #@! TO.P,D12,1*
G04 #@! TO.N,Net-(A1-Pad29)*
X166370000Y-88900000D03*
D11*
G04 #@! TO.P,D12,2*
G04 #@! TO.N,Net-(A1-Pad15)*
X168910000Y-88900000D03*
G04 #@! TD*
G04 #@! TO.P,D13,2*
G04 #@! TO.N,Net-(A1-Pad16)*
X173990000Y-88900000D03*
D12*
G04 #@! TO.P,D13,1*
G04 #@! TO.N,Net-(A1-Pad29)*
X171450000Y-88900000D03*
G04 #@! TD*
D17*
G04 #@! TO.N,Net-(A1-Pad19)*
X176638630Y-81555001D02*
X177770000Y-81555001D01*
X170140000Y-80135000D02*
X171560001Y-81555001D01*
X171560001Y-81555001D02*
X176638630Y-81555001D01*
X170140000Y-80010000D02*
X170140000Y-80135000D01*
G04 #@! TO.N,Net-(A1-Pad20)*
X176638630Y-79015001D02*
X177770000Y-79015001D01*
X174100001Y-79015001D02*
X176638630Y-79015001D01*
X170140000Y-75055000D02*
X174100001Y-79015001D01*
X170140000Y-74930000D02*
X170140000Y-75055000D01*
G04 #@! TO.N,Net-(A1-Pad21)*
X176970001Y-75675002D02*
X177770000Y-76475001D01*
X175840002Y-75675002D02*
X176970001Y-75675002D01*
X170140000Y-69975000D02*
X175840002Y-75675002D01*
X170140000Y-69850000D02*
X170140000Y-69975000D01*
G04 #@! TO.N,Net-(A1-Pad6)*
X159875001Y-63113593D02*
X162530000Y-65768592D01*
X159875001Y-57005001D02*
X159875001Y-63113593D01*
X162530000Y-65768592D02*
X162530000Y-66315001D01*
X158750000Y-55880000D02*
X159875001Y-57005001D01*
G04 #@! TO.N,Net-(A1-Pad22)*
X176970001Y-73135002D02*
X177770000Y-73935001D01*
X176644999Y-72810000D02*
X176970001Y-73135002D01*
X170140000Y-64895000D02*
X176644999Y-71399999D01*
X176644999Y-71399999D02*
X176644999Y-72810000D01*
X170140000Y-64770000D02*
X170140000Y-64895000D01*
G04 #@! TO.N,Net-(A1-Pad7)*
X161730001Y-68055002D02*
X162530000Y-68855001D01*
X161404999Y-67730000D02*
X161730001Y-68055002D01*
X154940000Y-58815002D02*
X161404999Y-65280001D01*
X161404999Y-65280001D02*
X161404999Y-67730000D01*
X154940000Y-55880000D02*
X154940000Y-58815002D01*
G04 #@! TO.N,Net-(A1-Pad23)*
X183729999Y-65619999D02*
X182880000Y-64770000D01*
X184055001Y-65945001D02*
X183729999Y-65619999D01*
X184055001Y-67874001D02*
X184055001Y-65945001D01*
X180534001Y-71395001D02*
X184055001Y-67874001D01*
X177770000Y-71395001D02*
X180534001Y-71395001D01*
G04 #@! TO.N,Net-(A1-Pad8)*
X162254999Y-71120000D02*
X162530000Y-71395001D01*
X158750000Y-71120000D02*
X162254999Y-71120000D01*
G04 #@! TO.N,Net-(A1-Pad24)*
X181334999Y-68855001D02*
X182880000Y-67310000D01*
X177770000Y-68855001D02*
X181334999Y-68855001D01*
G04 #@! TO.N,Net-(A1-Pad9)*
X157755001Y-73935001D02*
X162530000Y-73935001D01*
X154940000Y-71120000D02*
X157755001Y-73935001D01*
G04 #@! TO.N,Net-(A1-Pad25)*
X176970001Y-65515002D02*
X177770000Y-66315001D01*
X175840002Y-65515002D02*
X176970001Y-65515002D01*
X170140000Y-59815000D02*
X175840002Y-65515002D01*
X170140000Y-59690000D02*
X170140000Y-59815000D01*
G04 #@! TO.N,Net-(A1-Pad10)*
X158750000Y-80255001D02*
X162530000Y-76475001D01*
X158750000Y-86360000D02*
X158750000Y-80255001D01*
G04 #@! TO.N,Net-(A1-Pad26)*
X176644999Y-62650000D02*
X176970001Y-62975002D01*
X176644999Y-61239999D02*
X176644999Y-62650000D01*
X176970001Y-62975002D02*
X177770000Y-63775001D01*
X170140000Y-54735000D02*
X176644999Y-61239999D01*
X170140000Y-54610000D02*
X170140000Y-54735000D01*
G04 #@! TO.N,Net-(A1-Pad11)*
X161730001Y-79815000D02*
X162530000Y-79015001D01*
X161404999Y-80140002D02*
X161730001Y-79815000D01*
X161404999Y-85370003D02*
X161404999Y-80140002D01*
X159145002Y-87630000D02*
X161404999Y-85370003D01*
X156210000Y-87630000D02*
X159145002Y-87630000D01*
X154940000Y-86360000D02*
X156210000Y-87630000D01*
G04 #@! TO.N,Net-(A1-Pad27)*
X181334999Y-61235001D02*
X182880000Y-59690000D01*
X177770000Y-61235001D02*
X181334999Y-61235001D01*
X166370000Y-85090000D02*
X168910000Y-85090000D01*
G04 #@! TO.N,Net-(A1-Pad15)*
X168110001Y-89699999D02*
X168910000Y-88900000D01*
X167784999Y-90025001D02*
X168110001Y-89699999D01*
X163380000Y-90025001D02*
X167784999Y-90025001D01*
X162530000Y-89175001D02*
X163380000Y-90025001D01*
X168910000Y-87630000D02*
X171450000Y-85090000D01*
X168910000Y-88900000D02*
X168910000Y-87630000D01*
G04 #@! TO.N,Net-(A1-Pad16)*
X173990000Y-85090000D02*
X173990000Y-88900000D01*
X174265001Y-89175001D02*
X173990000Y-88900000D01*
X177770000Y-89175001D02*
X174265001Y-89175001D01*
G04 #@! TO.N,Net-(J2-Pad1)*
X158750000Y-45720000D02*
X163830000Y-45720000D01*
G04 #@! TO.N,Net-(J2-Pad2)*
X165520001Y-46569999D02*
X166370000Y-45720000D01*
X165194999Y-46895001D02*
X165520001Y-46569999D01*
X156115001Y-46895001D02*
X165194999Y-46895001D01*
X154940000Y-45720000D02*
X156115001Y-46895001D01*
G04 #@! TD*
D18*
G04 #@! TO.N,Net-(A1-Pad29)*
G36*
X185980001Y-90730000D02*
X168097856Y-90730000D01*
X168332928Y-90572930D01*
X168375330Y-90509471D01*
X168586113Y-90298688D01*
X168768667Y-90335000D01*
X169051333Y-90335000D01*
X169469909Y-90251740D01*
X169944577Y-89934577D01*
X169962505Y-89907745D01*
X170621861Y-89907745D01*
X170695995Y-90153864D01*
X171233223Y-90346965D01*
X171803454Y-90319778D01*
X172204005Y-90153864D01*
X172278139Y-89907745D01*
X171450000Y-89079605D01*
X170621861Y-89907745D01*
X169962505Y-89907745D01*
X170171611Y-89594797D01*
X170196136Y-89654005D01*
X170442255Y-89728139D01*
X171270395Y-88900000D01*
X170442255Y-88071861D01*
X170196136Y-88145995D01*
X170173720Y-88208359D01*
X169962506Y-87892255D01*
X170621861Y-87892255D01*
X171450000Y-88720395D01*
X172278139Y-87892255D01*
X172204005Y-87646136D01*
X171666777Y-87453035D01*
X171096546Y-87480222D01*
X170695995Y-87646136D01*
X170621861Y-87892255D01*
X169962506Y-87892255D01*
X169944577Y-87865423D01*
X169827564Y-87787237D01*
X171083593Y-86531209D01*
X171303744Y-86575000D01*
X171596256Y-86575000D01*
X172029418Y-86488839D01*
X172520625Y-86160625D01*
X172720000Y-85862239D01*
X172919375Y-86160625D01*
X173230000Y-86368178D01*
X173230001Y-87681956D01*
X172955423Y-87865423D01*
X172728389Y-88205203D01*
X172703864Y-88145995D01*
X172457745Y-88071861D01*
X171629605Y-88900000D01*
X172457745Y-89728139D01*
X172703864Y-89654005D01*
X172726280Y-89591641D01*
X172955423Y-89934577D01*
X173430091Y-90251740D01*
X173848667Y-90335000D01*
X174131333Y-90335000D01*
X174549909Y-90251740D01*
X175023942Y-89935001D01*
X176551957Y-89935001D01*
X176735423Y-90209578D01*
X177210091Y-90526741D01*
X177628667Y-90610001D01*
X177911333Y-90610001D01*
X178329909Y-90526741D01*
X178804577Y-90209578D01*
X179121740Y-89734910D01*
X179233113Y-89175001D01*
X179121740Y-88615092D01*
X178804577Y-88140424D01*
X178452242Y-87905001D01*
X178804577Y-87669578D01*
X179121740Y-87194910D01*
X179233113Y-86635001D01*
X179121740Y-86075092D01*
X178804577Y-85600424D01*
X178452242Y-85365001D01*
X178804577Y-85129578D01*
X179121740Y-84654910D01*
X179233113Y-84095001D01*
X179121740Y-83535092D01*
X178804577Y-83060424D01*
X178452242Y-82825001D01*
X178804577Y-82589578D01*
X179121740Y-82114910D01*
X179233113Y-81555001D01*
X179121740Y-80995092D01*
X178804577Y-80520424D01*
X178452242Y-80285001D01*
X178804577Y-80049578D01*
X179121740Y-79574910D01*
X179233113Y-79015001D01*
X179121740Y-78455092D01*
X178804577Y-77980424D01*
X178452242Y-77745001D01*
X178804577Y-77509578D01*
X179121740Y-77034910D01*
X179233113Y-76475001D01*
X179121740Y-75915092D01*
X178804577Y-75440424D01*
X178452242Y-75205001D01*
X178804577Y-74969578D01*
X179121740Y-74494910D01*
X179233113Y-73935001D01*
X179121740Y-73375092D01*
X178804577Y-72900424D01*
X178452242Y-72665001D01*
X178804577Y-72429578D01*
X178988043Y-72155001D01*
X180459154Y-72155001D01*
X180534001Y-72169889D01*
X180608848Y-72155001D01*
X180608853Y-72155001D01*
X180830538Y-72110905D01*
X181081930Y-71942930D01*
X181124332Y-71879471D01*
X184539474Y-68464330D01*
X184602930Y-68421930D01*
X184770905Y-68170538D01*
X184815001Y-67948853D01*
X184815001Y-67948848D01*
X184829889Y-67874001D01*
X184815001Y-67799154D01*
X184815001Y-66019847D01*
X184829889Y-65945000D01*
X184815001Y-65870153D01*
X184815001Y-65870149D01*
X184770905Y-65648464D01*
X184602930Y-65397072D01*
X184539471Y-65354670D01*
X184321209Y-65136408D01*
X184394092Y-64770000D01*
X184278839Y-64190582D01*
X183950625Y-63699375D01*
X183631522Y-63486157D01*
X183761358Y-63425183D01*
X184151645Y-62996924D01*
X184321476Y-62586890D01*
X184200155Y-62357000D01*
X183007000Y-62357000D01*
X183007000Y-62377000D01*
X182753000Y-62377000D01*
X182753000Y-62357000D01*
X181559845Y-62357000D01*
X181438524Y-62586890D01*
X181608355Y-62996924D01*
X181998642Y-63425183D01*
X182128478Y-63486157D01*
X181809375Y-63699375D01*
X181481161Y-64190582D01*
X181365908Y-64770000D01*
X181481161Y-65349418D01*
X181809375Y-65840625D01*
X182107761Y-66040000D01*
X181809375Y-66239375D01*
X181481161Y-66730582D01*
X181365908Y-67310000D01*
X181438791Y-67676407D01*
X181020198Y-68095001D01*
X178988043Y-68095001D01*
X178804577Y-67820424D01*
X178452242Y-67585001D01*
X178804577Y-67349578D01*
X179121740Y-66874910D01*
X179233113Y-66315001D01*
X179121740Y-65755092D01*
X178804577Y-65280424D01*
X178452242Y-65045001D01*
X178804577Y-64809578D01*
X179121740Y-64334910D01*
X179233113Y-63775001D01*
X179121740Y-63215092D01*
X178804577Y-62740424D01*
X178452242Y-62505001D01*
X178804577Y-62269578D01*
X178988043Y-61995001D01*
X181260152Y-61995001D01*
X181334999Y-62009889D01*
X181409846Y-61995001D01*
X181409851Y-61995001D01*
X181494015Y-61978260D01*
X181559845Y-62103000D01*
X182753000Y-62103000D01*
X182753000Y-62083000D01*
X183007000Y-62083000D01*
X183007000Y-62103000D01*
X184200155Y-62103000D01*
X184321476Y-61873110D01*
X184151645Y-61463076D01*
X183874292Y-61158739D01*
X183977765Y-61138157D01*
X184187809Y-60997809D01*
X184328157Y-60787765D01*
X184377440Y-60540000D01*
X184377440Y-58840000D01*
X184328157Y-58592235D01*
X184187809Y-58382191D01*
X183977765Y-58241843D01*
X183730000Y-58192560D01*
X182030000Y-58192560D01*
X181782235Y-58241843D01*
X181572191Y-58382191D01*
X181431843Y-58592235D01*
X181382560Y-58840000D01*
X181382560Y-60112638D01*
X181020198Y-60475001D01*
X178988043Y-60475001D01*
X178804577Y-60200424D01*
X178452242Y-59965001D01*
X178804577Y-59729578D01*
X179121740Y-59254910D01*
X179233113Y-58695001D01*
X179121740Y-58135092D01*
X178804577Y-57660424D01*
X178420892Y-57404054D01*
X178625134Y-57307390D01*
X179001041Y-56892424D01*
X179161904Y-56504040D01*
X179039915Y-56282001D01*
X177897000Y-56282001D01*
X177897000Y-56302001D01*
X177643000Y-56302001D01*
X177643000Y-56282001D01*
X176500085Y-56282001D01*
X176378096Y-56504040D01*
X176538959Y-56892424D01*
X176914866Y-57307390D01*
X177119108Y-57404054D01*
X176735423Y-57660424D01*
X176418260Y-58135092D01*
X176306887Y-58695001D01*
X176418260Y-59254910D01*
X176735423Y-59729578D01*
X177087758Y-59965001D01*
X176735423Y-60200424D01*
X176713314Y-60233512D01*
X172714145Y-56234344D01*
X173219418Y-56133839D01*
X173710625Y-55805625D01*
X174038839Y-55314417D01*
X174125000Y-54881255D01*
X174125000Y-54338744D01*
X174038839Y-53905582D01*
X173844679Y-53615001D01*
X176306887Y-53615001D01*
X176418260Y-54174910D01*
X176735423Y-54649578D01*
X177119108Y-54905948D01*
X176914866Y-55002612D01*
X176538959Y-55417578D01*
X176378096Y-55805962D01*
X176500085Y-56028001D01*
X177643000Y-56028001D01*
X177643000Y-56008001D01*
X177897000Y-56008001D01*
X177897000Y-56028001D01*
X179039915Y-56028001D01*
X179161904Y-55805962D01*
X179001041Y-55417578D01*
X178625134Y-55002612D01*
X178420892Y-54905948D01*
X178804577Y-54649578D01*
X179121740Y-54174910D01*
X179233113Y-53615001D01*
X179121740Y-53055092D01*
X178804577Y-52580424D01*
X178329909Y-52263261D01*
X177911333Y-52180001D01*
X177628667Y-52180001D01*
X177210091Y-52263261D01*
X176735423Y-52580424D01*
X176418260Y-53055092D01*
X176306887Y-53615001D01*
X173844679Y-53615001D01*
X173710625Y-53414375D01*
X173219417Y-53086161D01*
X172640000Y-52970908D01*
X172060582Y-53086161D01*
X171569375Y-53414375D01*
X171390000Y-53682829D01*
X171210625Y-53414375D01*
X170719417Y-53086161D01*
X170140000Y-52970908D01*
X169560582Y-53086161D01*
X169082344Y-53405709D01*
X169028327Y-53275301D01*
X168849698Y-53096673D01*
X168616309Y-53000000D01*
X167925750Y-53000000D01*
X167767000Y-53158750D01*
X167767000Y-54483000D01*
X167787000Y-54483000D01*
X167787000Y-54737000D01*
X167767000Y-54737000D01*
X167767000Y-56061250D01*
X167925750Y-56220000D01*
X168616309Y-56220000D01*
X168849698Y-56123327D01*
X169028327Y-55944699D01*
X169082344Y-55814291D01*
X169560583Y-56133839D01*
X170140000Y-56249092D01*
X170506408Y-56176209D01*
X172424060Y-58093861D01*
X172060582Y-58166161D01*
X171569375Y-58494375D01*
X171390000Y-58762829D01*
X171210625Y-58494375D01*
X170719417Y-58166161D01*
X170140000Y-58050908D01*
X169560582Y-58166161D01*
X169082344Y-58485709D01*
X169028327Y-58355301D01*
X168849698Y-58176673D01*
X168616309Y-58080000D01*
X167925750Y-58080000D01*
X167767000Y-58238750D01*
X167767000Y-59563000D01*
X167787000Y-59563000D01*
X167787000Y-59817000D01*
X167767000Y-59817000D01*
X167767000Y-61141250D01*
X167925750Y-61300000D01*
X168616309Y-61300000D01*
X168849698Y-61203327D01*
X169028327Y-61024699D01*
X169082344Y-60894291D01*
X169560583Y-61213839D01*
X170140000Y-61329092D01*
X170506408Y-61256209D01*
X172424060Y-63173861D01*
X172060582Y-63246161D01*
X171569375Y-63574375D01*
X171390000Y-63842829D01*
X171210625Y-63574375D01*
X170719417Y-63246161D01*
X170140000Y-63130908D01*
X169560582Y-63246161D01*
X169082344Y-63565709D01*
X169028327Y-63435301D01*
X168849698Y-63256673D01*
X168616309Y-63160000D01*
X167925750Y-63160000D01*
X167767000Y-63318750D01*
X167767000Y-64643000D01*
X167787000Y-64643000D01*
X167787000Y-64897000D01*
X167767000Y-64897000D01*
X167767000Y-66221250D01*
X167925750Y-66380000D01*
X168616309Y-66380000D01*
X168849698Y-66283327D01*
X169028327Y-66104699D01*
X169082344Y-65974291D01*
X169560583Y-66293839D01*
X170140000Y-66409092D01*
X170506408Y-66336209D01*
X172424060Y-68253861D01*
X172060582Y-68326161D01*
X171569375Y-68654375D01*
X171390000Y-68922829D01*
X171210625Y-68654375D01*
X170719417Y-68326161D01*
X170140000Y-68210908D01*
X169560582Y-68326161D01*
X169082344Y-68645709D01*
X169028327Y-68515301D01*
X168849698Y-68336673D01*
X168616309Y-68240000D01*
X167925750Y-68240000D01*
X167767000Y-68398750D01*
X167767000Y-69723000D01*
X167787000Y-69723000D01*
X167787000Y-69977000D01*
X167767000Y-69977000D01*
X167767000Y-71301250D01*
X167925750Y-71460000D01*
X168616309Y-71460000D01*
X168849698Y-71363327D01*
X169028327Y-71184699D01*
X169082344Y-71054291D01*
X169560583Y-71373839D01*
X170140000Y-71489092D01*
X170506408Y-71416209D01*
X172424060Y-73333861D01*
X172060582Y-73406161D01*
X171569375Y-73734375D01*
X171390000Y-74002829D01*
X171210625Y-73734375D01*
X170719417Y-73406161D01*
X170140000Y-73290908D01*
X169560582Y-73406161D01*
X169082344Y-73725709D01*
X169028327Y-73595301D01*
X168849698Y-73416673D01*
X168616309Y-73320000D01*
X167925750Y-73320000D01*
X167767000Y-73478750D01*
X167767000Y-74803000D01*
X167787000Y-74803000D01*
X167787000Y-75057000D01*
X167767000Y-75057000D01*
X167767000Y-76381250D01*
X167925750Y-76540000D01*
X168616309Y-76540000D01*
X168849698Y-76443327D01*
X169028327Y-76264699D01*
X169082344Y-76134291D01*
X169560583Y-76453839D01*
X170140000Y-76569092D01*
X170506408Y-76496209D01*
X172424059Y-78413861D01*
X172060582Y-78486161D01*
X171569375Y-78814375D01*
X171390000Y-79082829D01*
X171210625Y-78814375D01*
X170719417Y-78486161D01*
X170140000Y-78370908D01*
X169560582Y-78486161D01*
X169082344Y-78805709D01*
X169028327Y-78675301D01*
X168849698Y-78496673D01*
X168616309Y-78400000D01*
X167925750Y-78400000D01*
X167767000Y-78558750D01*
X167767000Y-79883000D01*
X167787000Y-79883000D01*
X167787000Y-80137000D01*
X167767000Y-80137000D01*
X167767000Y-81461250D01*
X167925750Y-81620000D01*
X168616309Y-81620000D01*
X168849698Y-81523327D01*
X169028327Y-81344699D01*
X169082344Y-81214291D01*
X169560583Y-81533839D01*
X170140000Y-81649092D01*
X170506408Y-81576209D01*
X170969672Y-82039474D01*
X171012072Y-82102930D01*
X171075528Y-82145330D01*
X171263463Y-82270905D01*
X171311606Y-82280481D01*
X171485149Y-82315001D01*
X171485153Y-82315001D01*
X171560001Y-82329889D01*
X171634849Y-82315001D01*
X176551957Y-82315001D01*
X176735423Y-82589578D01*
X177087758Y-82825001D01*
X176735423Y-83060424D01*
X176418260Y-83535092D01*
X176306887Y-84095001D01*
X176418260Y-84654910D01*
X176735423Y-85129578D01*
X177087758Y-85365001D01*
X176735423Y-85600424D01*
X176418260Y-86075092D01*
X176306887Y-86635001D01*
X176418260Y-87194910D01*
X176735423Y-87669578D01*
X177087758Y-87905001D01*
X176735423Y-88140424D01*
X176551957Y-88415001D01*
X175356641Y-88415001D01*
X175341740Y-88340091D01*
X175024577Y-87865423D01*
X174750000Y-87681957D01*
X174750000Y-86368178D01*
X175060625Y-86160625D01*
X175388839Y-85669418D01*
X175504092Y-85090000D01*
X175388839Y-84510582D01*
X175060625Y-84019375D01*
X174569418Y-83691161D01*
X174136256Y-83605000D01*
X173843744Y-83605000D01*
X173410582Y-83691161D01*
X172919375Y-84019375D01*
X172720000Y-84317761D01*
X172520625Y-84019375D01*
X172029418Y-83691161D01*
X171596256Y-83605000D01*
X171303744Y-83605000D01*
X170870582Y-83691161D01*
X170379375Y-84019375D01*
X170180000Y-84317761D01*
X169980625Y-84019375D01*
X169489418Y-83691161D01*
X169056256Y-83605000D01*
X168763744Y-83605000D01*
X168330582Y-83691161D01*
X167839375Y-84019375D01*
X167827184Y-84037619D01*
X167818157Y-83992235D01*
X167677809Y-83782191D01*
X167467765Y-83641843D01*
X167220000Y-83592560D01*
X165520000Y-83592560D01*
X165272235Y-83641843D01*
X165062191Y-83782191D01*
X164921843Y-83992235D01*
X164872560Y-84240000D01*
X164872560Y-85940000D01*
X164921843Y-86187765D01*
X165062191Y-86397809D01*
X165272235Y-86538157D01*
X165520000Y-86587440D01*
X167220000Y-86587440D01*
X167467765Y-86538157D01*
X167677809Y-86397809D01*
X167818157Y-86187765D01*
X167827184Y-86142381D01*
X167839375Y-86160625D01*
X168330582Y-86488839D01*
X168763744Y-86575000D01*
X168890199Y-86575000D01*
X168425528Y-87039671D01*
X168362072Y-87082071D01*
X168319672Y-87145527D01*
X168319671Y-87145528D01*
X168194097Y-87333463D01*
X168135112Y-87630000D01*
X168145981Y-87684642D01*
X167875423Y-87865423D01*
X167648389Y-88205203D01*
X167623864Y-88145995D01*
X167377745Y-88071861D01*
X166549605Y-88900000D01*
X166563748Y-88914143D01*
X166384143Y-89093748D01*
X166370000Y-89079605D01*
X166355858Y-89093748D01*
X166176253Y-88914143D01*
X166190395Y-88900000D01*
X165362255Y-88071861D01*
X165116136Y-88145995D01*
X164923035Y-88683223D01*
X164950222Y-89253454D01*
X164955005Y-89265001D01*
X163975211Y-89265001D01*
X163993113Y-89175001D01*
X163881740Y-88615092D01*
X163564577Y-88140424D01*
X163212242Y-87905001D01*
X163231317Y-87892255D01*
X165541861Y-87892255D01*
X166370000Y-88720395D01*
X167198139Y-87892255D01*
X167124005Y-87646136D01*
X166586777Y-87453035D01*
X166016546Y-87480222D01*
X165615995Y-87646136D01*
X165541861Y-87892255D01*
X163231317Y-87892255D01*
X163564577Y-87669578D01*
X163881740Y-87194910D01*
X163993113Y-86635001D01*
X163881740Y-86075092D01*
X163564577Y-85600424D01*
X163212242Y-85365001D01*
X163564577Y-85129578D01*
X163881740Y-84654910D01*
X163993113Y-84095001D01*
X163881740Y-83535092D01*
X163564577Y-83060424D01*
X163212242Y-82825001D01*
X163564577Y-82589578D01*
X163881740Y-82114910D01*
X163993113Y-81555001D01*
X163881740Y-80995092D01*
X163564577Y-80520424D01*
X163228329Y-80295750D01*
X166155000Y-80295750D01*
X166155000Y-81111310D01*
X166251673Y-81344699D01*
X166430302Y-81523327D01*
X166663691Y-81620000D01*
X167354250Y-81620000D01*
X167513000Y-81461250D01*
X167513000Y-80137000D01*
X166313750Y-80137000D01*
X166155000Y-80295750D01*
X163228329Y-80295750D01*
X163212242Y-80285001D01*
X163564577Y-80049578D01*
X163881740Y-79574910D01*
X163993113Y-79015001D01*
X163971967Y-78908690D01*
X166155000Y-78908690D01*
X166155000Y-79724250D01*
X166313750Y-79883000D01*
X167513000Y-79883000D01*
X167513000Y-78558750D01*
X167354250Y-78400000D01*
X166663691Y-78400000D01*
X166430302Y-78496673D01*
X166251673Y-78675301D01*
X166155000Y-78908690D01*
X163971967Y-78908690D01*
X163881740Y-78455092D01*
X163564577Y-77980424D01*
X163212242Y-77745001D01*
X163564577Y-77509578D01*
X163881740Y-77034910D01*
X163993113Y-76475001D01*
X163881740Y-75915092D01*
X163564577Y-75440424D01*
X163228329Y-75215750D01*
X166155000Y-75215750D01*
X166155000Y-76031310D01*
X166251673Y-76264699D01*
X166430302Y-76443327D01*
X166663691Y-76540000D01*
X167354250Y-76540000D01*
X167513000Y-76381250D01*
X167513000Y-75057000D01*
X166313750Y-75057000D01*
X166155000Y-75215750D01*
X163228329Y-75215750D01*
X163212242Y-75205001D01*
X163564577Y-74969578D01*
X163881740Y-74494910D01*
X163993113Y-73935001D01*
X163971967Y-73828690D01*
X166155000Y-73828690D01*
X166155000Y-74644250D01*
X166313750Y-74803000D01*
X167513000Y-74803000D01*
X167513000Y-73478750D01*
X167354250Y-73320000D01*
X166663691Y-73320000D01*
X166430302Y-73416673D01*
X166251673Y-73595301D01*
X166155000Y-73828690D01*
X163971967Y-73828690D01*
X163881740Y-73375092D01*
X163564577Y-72900424D01*
X163212242Y-72665001D01*
X163564577Y-72429578D01*
X163881740Y-71954910D01*
X163993113Y-71395001D01*
X163881740Y-70835092D01*
X163564577Y-70360424D01*
X163228329Y-70135750D01*
X166155000Y-70135750D01*
X166155000Y-70951310D01*
X166251673Y-71184699D01*
X166430302Y-71363327D01*
X166663691Y-71460000D01*
X167354250Y-71460000D01*
X167513000Y-71301250D01*
X167513000Y-69977000D01*
X166313750Y-69977000D01*
X166155000Y-70135750D01*
X163228329Y-70135750D01*
X163212242Y-70125001D01*
X163564577Y-69889578D01*
X163881740Y-69414910D01*
X163993113Y-68855001D01*
X163971967Y-68748690D01*
X166155000Y-68748690D01*
X166155000Y-69564250D01*
X166313750Y-69723000D01*
X167513000Y-69723000D01*
X167513000Y-68398750D01*
X167354250Y-68240000D01*
X166663691Y-68240000D01*
X166430302Y-68336673D01*
X166251673Y-68515301D01*
X166155000Y-68748690D01*
X163971967Y-68748690D01*
X163881740Y-68295092D01*
X163564577Y-67820424D01*
X163212242Y-67585001D01*
X163564577Y-67349578D01*
X163881740Y-66874910D01*
X163993113Y-66315001D01*
X163881740Y-65755092D01*
X163564577Y-65280424D01*
X163228329Y-65055750D01*
X166155000Y-65055750D01*
X166155000Y-65871310D01*
X166251673Y-66104699D01*
X166430302Y-66283327D01*
X166663691Y-66380000D01*
X167354250Y-66380000D01*
X167513000Y-66221250D01*
X167513000Y-64897000D01*
X166313750Y-64897000D01*
X166155000Y-65055750D01*
X163228329Y-65055750D01*
X163212242Y-65045001D01*
X163564577Y-64809578D01*
X163881740Y-64334910D01*
X163993113Y-63775001D01*
X163971967Y-63668690D01*
X166155000Y-63668690D01*
X166155000Y-64484250D01*
X166313750Y-64643000D01*
X167513000Y-64643000D01*
X167513000Y-63318750D01*
X167354250Y-63160000D01*
X166663691Y-63160000D01*
X166430302Y-63256673D01*
X166251673Y-63435301D01*
X166155000Y-63668690D01*
X163971967Y-63668690D01*
X163881740Y-63215092D01*
X163564577Y-62740424D01*
X163212242Y-62505001D01*
X163564577Y-62269578D01*
X163881740Y-61794910D01*
X163993113Y-61235001D01*
X163881740Y-60675092D01*
X163564577Y-60200424D01*
X163228329Y-59975750D01*
X166155000Y-59975750D01*
X166155000Y-60791310D01*
X166251673Y-61024699D01*
X166430302Y-61203327D01*
X166663691Y-61300000D01*
X167354250Y-61300000D01*
X167513000Y-61141250D01*
X167513000Y-59817000D01*
X166313750Y-59817000D01*
X166155000Y-59975750D01*
X163228329Y-59975750D01*
X163212242Y-59965001D01*
X163564577Y-59729578D01*
X163881740Y-59254910D01*
X163993113Y-58695001D01*
X163971967Y-58588690D01*
X166155000Y-58588690D01*
X166155000Y-59404250D01*
X166313750Y-59563000D01*
X167513000Y-59563000D01*
X167513000Y-58238750D01*
X167354250Y-58080000D01*
X166663691Y-58080000D01*
X166430302Y-58176673D01*
X166251673Y-58355301D01*
X166155000Y-58588690D01*
X163971967Y-58588690D01*
X163881740Y-58135092D01*
X163564577Y-57660424D01*
X163212242Y-57425001D01*
X163564577Y-57189578D01*
X163881740Y-56714910D01*
X163993113Y-56155001D01*
X163881740Y-55595092D01*
X163564577Y-55120424D01*
X163443894Y-55039786D01*
X163577765Y-55013158D01*
X163753477Y-54895750D01*
X166155000Y-54895750D01*
X166155000Y-55711310D01*
X166251673Y-55944699D01*
X166430302Y-56123327D01*
X166663691Y-56220000D01*
X167354250Y-56220000D01*
X167513000Y-56061250D01*
X167513000Y-54737000D01*
X166313750Y-54737000D01*
X166155000Y-54895750D01*
X163753477Y-54895750D01*
X163787809Y-54872810D01*
X163928157Y-54662766D01*
X163977440Y-54415001D01*
X163977440Y-53508690D01*
X166155000Y-53508690D01*
X166155000Y-54324250D01*
X166313750Y-54483000D01*
X167513000Y-54483000D01*
X167513000Y-53158750D01*
X167354250Y-53000000D01*
X166663691Y-53000000D01*
X166430302Y-53096673D01*
X166251673Y-53275301D01*
X166155000Y-53508690D01*
X163977440Y-53508690D01*
X163977440Y-52815001D01*
X163928157Y-52567236D01*
X163787809Y-52357192D01*
X163577765Y-52216844D01*
X163330000Y-52167561D01*
X161730000Y-52167561D01*
X161482235Y-52216844D01*
X161272191Y-52357192D01*
X161131843Y-52567236D01*
X161082560Y-52815001D01*
X161082560Y-54415001D01*
X161131843Y-54662766D01*
X161272191Y-54872810D01*
X161482235Y-55013158D01*
X161616106Y-55039786D01*
X161495423Y-55120424D01*
X161178260Y-55595092D01*
X161066887Y-56155001D01*
X161178260Y-56714910D01*
X161495423Y-57189578D01*
X161847758Y-57425001D01*
X161495423Y-57660424D01*
X161178260Y-58135092D01*
X161066887Y-58695001D01*
X161178260Y-59254910D01*
X161495423Y-59729578D01*
X161847758Y-59965001D01*
X161495423Y-60200424D01*
X161178260Y-60675092D01*
X161066887Y-61235001D01*
X161178260Y-61794910D01*
X161495423Y-62269578D01*
X161847758Y-62505001D01*
X161495423Y-62740424D01*
X161178260Y-63215092D01*
X161157196Y-63320987D01*
X160635001Y-62798792D01*
X160635001Y-57079849D01*
X160649889Y-57005001D01*
X160635001Y-56930153D01*
X160635001Y-56930149D01*
X160590905Y-56708464D01*
X160590905Y-56708463D01*
X160465330Y-56520528D01*
X160422930Y-56457072D01*
X160359474Y-56414672D01*
X160163104Y-56218302D01*
X160185000Y-56165439D01*
X160185000Y-55594561D01*
X159966534Y-55067138D01*
X159562862Y-54663466D01*
X159035439Y-54445000D01*
X158464561Y-54445000D01*
X157937138Y-54663466D01*
X157533466Y-55067138D01*
X157315000Y-55594561D01*
X157315000Y-56165439D01*
X157533466Y-56692862D01*
X157937138Y-57096534D01*
X158464561Y-57315000D01*
X159035439Y-57315000D01*
X159088302Y-57293104D01*
X159115001Y-57319803D01*
X159115001Y-59569490D01*
X158891333Y-59525000D01*
X158608667Y-59525000D01*
X158190091Y-59608260D01*
X157715423Y-59925423D01*
X157479022Y-60279222D01*
X155700000Y-58500201D01*
X155700000Y-57118430D01*
X155752862Y-57096534D01*
X156156534Y-56692862D01*
X156375000Y-56165439D01*
X156375000Y-55594561D01*
X156156534Y-55067138D01*
X155752862Y-54663466D01*
X155225439Y-54445000D01*
X154654561Y-54445000D01*
X154127138Y-54663466D01*
X153723466Y-55067138D01*
X153505000Y-55594561D01*
X153505000Y-56165439D01*
X153723466Y-56692862D01*
X154127138Y-57096534D01*
X154180000Y-57118430D01*
X154180001Y-58740150D01*
X154165112Y-58815002D01*
X154224097Y-59111539D01*
X154319895Y-59254910D01*
X154392072Y-59362931D01*
X154455528Y-59405331D01*
X154612273Y-59562076D01*
X154380091Y-59608260D01*
X153905423Y-59925423D01*
X153588260Y-60400091D01*
X153476887Y-60960000D01*
X153588260Y-61519909D01*
X153905423Y-61994577D01*
X154380091Y-62311740D01*
X154798667Y-62395000D01*
X155081333Y-62395000D01*
X155499909Y-62311740D01*
X155974577Y-61994577D01*
X156291740Y-61519909D01*
X156337924Y-61287727D01*
X160644999Y-65594803D01*
X160645000Y-67655148D01*
X160630111Y-67730000D01*
X160689096Y-68026537D01*
X160785315Y-68170538D01*
X160857071Y-68277929D01*
X160920527Y-68320329D01*
X161131312Y-68531114D01*
X161066887Y-68855001D01*
X161178260Y-69414910D01*
X161495423Y-69889578D01*
X161847758Y-70125001D01*
X161496058Y-70360000D01*
X159988430Y-70360000D01*
X159966534Y-70307138D01*
X159562862Y-69903466D01*
X159035439Y-69685000D01*
X158464561Y-69685000D01*
X157937138Y-69903466D01*
X157533466Y-70307138D01*
X157315000Y-70834561D01*
X157315000Y-71405439D01*
X157533466Y-71932862D01*
X157937138Y-72336534D01*
X158464561Y-72555000D01*
X159035439Y-72555000D01*
X159562862Y-72336534D01*
X159966534Y-71932862D01*
X159988430Y-71880000D01*
X161163359Y-71880000D01*
X161178260Y-71954910D01*
X161495423Y-72429578D01*
X161847758Y-72665001D01*
X161495423Y-72900424D01*
X161311957Y-73175001D01*
X158069803Y-73175001D01*
X156353103Y-71458302D01*
X156375000Y-71405439D01*
X156375000Y-70834561D01*
X156156534Y-70307138D01*
X155752862Y-69903466D01*
X155225439Y-69685000D01*
X154654561Y-69685000D01*
X154127138Y-69903466D01*
X153723466Y-70307138D01*
X153505000Y-70834561D01*
X153505000Y-71405439D01*
X153723466Y-71932862D01*
X154127138Y-72336534D01*
X154654561Y-72555000D01*
X155225439Y-72555000D01*
X155278302Y-72533103D01*
X157164672Y-74419474D01*
X157207072Y-74482930D01*
X157458464Y-74650905D01*
X157680149Y-74695001D01*
X157680153Y-74695001D01*
X157755001Y-74709889D01*
X157829849Y-74695001D01*
X161311957Y-74695001D01*
X161495423Y-74969578D01*
X161847758Y-75205001D01*
X161495423Y-75440424D01*
X161178260Y-75915092D01*
X161066887Y-76475001D01*
X161131312Y-76798887D01*
X158265528Y-79664672D01*
X158202072Y-79707072D01*
X158159672Y-79770528D01*
X158159671Y-79770529D01*
X158034097Y-79958464D01*
X157975112Y-80255001D01*
X157990001Y-80329853D01*
X157990000Y-85121570D01*
X157937138Y-85143466D01*
X157533466Y-85547138D01*
X157315000Y-86074561D01*
X157315000Y-86645439D01*
X157408016Y-86870000D01*
X156524802Y-86870000D01*
X156353103Y-86698302D01*
X156375000Y-86645439D01*
X156375000Y-86074561D01*
X156156534Y-85547138D01*
X155752862Y-85143466D01*
X155225439Y-84925000D01*
X154654561Y-84925000D01*
X154127138Y-85143466D01*
X153723466Y-85547138D01*
X153505000Y-86074561D01*
X153505000Y-86645439D01*
X153723466Y-87172862D01*
X154127138Y-87576534D01*
X154654561Y-87795000D01*
X155225439Y-87795000D01*
X155278302Y-87773103D01*
X155619671Y-88114473D01*
X155662071Y-88177929D01*
X155913463Y-88345904D01*
X156135148Y-88390000D01*
X156135152Y-88390000D01*
X156209999Y-88404888D01*
X156284846Y-88390000D01*
X159070155Y-88390000D01*
X159145002Y-88404888D01*
X159219849Y-88390000D01*
X159219854Y-88390000D01*
X159441539Y-88345904D01*
X159692931Y-88177929D01*
X159735333Y-88114470D01*
X161091428Y-86758376D01*
X161178260Y-87194910D01*
X161495423Y-87669578D01*
X161847758Y-87905001D01*
X161495423Y-88140424D01*
X161178260Y-88615092D01*
X161066887Y-89175001D01*
X161178260Y-89734910D01*
X161495423Y-90209578D01*
X161970091Y-90526741D01*
X162388667Y-90610001D01*
X162671333Y-90610001D01*
X162837951Y-90576859D01*
X163067143Y-90730000D01*
X151840000Y-90730000D01*
X151840000Y-76200000D01*
X153476887Y-76200000D01*
X153588260Y-76759909D01*
X153905423Y-77234577D01*
X154380091Y-77551740D01*
X154798667Y-77635000D01*
X155081333Y-77635000D01*
X155499909Y-77551740D01*
X155974577Y-77234577D01*
X156291740Y-76759909D01*
X156403113Y-76200000D01*
X157286887Y-76200000D01*
X157398260Y-76759909D01*
X157715423Y-77234577D01*
X158190091Y-77551740D01*
X158608667Y-77635000D01*
X158891333Y-77635000D01*
X159309909Y-77551740D01*
X159784577Y-77234577D01*
X160101740Y-76759909D01*
X160213113Y-76200000D01*
X160101740Y-75640091D01*
X159784577Y-75165423D01*
X159309909Y-74848260D01*
X158891333Y-74765000D01*
X158608667Y-74765000D01*
X158190091Y-74848260D01*
X157715423Y-75165423D01*
X157398260Y-75640091D01*
X157286887Y-76200000D01*
X156403113Y-76200000D01*
X156291740Y-75640091D01*
X155974577Y-75165423D01*
X155499909Y-74848260D01*
X155081333Y-74765000D01*
X154798667Y-74765000D01*
X154380091Y-74848260D01*
X153905423Y-75165423D01*
X153588260Y-75640091D01*
X153476887Y-76200000D01*
X151840000Y-76200000D01*
X151840000Y-45720000D01*
X153476887Y-45720000D01*
X153588260Y-46279909D01*
X153905423Y-46754577D01*
X154380091Y-47071740D01*
X154798667Y-47155000D01*
X155081333Y-47155000D01*
X155263886Y-47118688D01*
X155524674Y-47379477D01*
X155567072Y-47442930D01*
X155630525Y-47485328D01*
X155630527Y-47485330D01*
X155755903Y-47569103D01*
X155818464Y-47610905D01*
X156040149Y-47655001D01*
X156040153Y-47655001D01*
X156115000Y-47669889D01*
X156189847Y-47655001D01*
X165120152Y-47655001D01*
X165194999Y-47669889D01*
X165269846Y-47655001D01*
X165269851Y-47655001D01*
X165491536Y-47610905D01*
X165742928Y-47442930D01*
X165785330Y-47379471D01*
X166003592Y-47161209D01*
X166223744Y-47205000D01*
X166516256Y-47205000D01*
X166949418Y-47118839D01*
X167440625Y-46790625D01*
X167640000Y-46492239D01*
X167839375Y-46790625D01*
X168330582Y-47118839D01*
X168763744Y-47205000D01*
X169056256Y-47205000D01*
X169489418Y-47118839D01*
X169980625Y-46790625D01*
X170180000Y-46492239D01*
X170379375Y-46790625D01*
X170870582Y-47118839D01*
X171303744Y-47205000D01*
X171596256Y-47205000D01*
X172029418Y-47118839D01*
X172520625Y-46790625D01*
X172720000Y-46492239D01*
X172919375Y-46790625D01*
X173410582Y-47118839D01*
X173843744Y-47205000D01*
X174136256Y-47205000D01*
X174569418Y-47118839D01*
X175060625Y-46790625D01*
X175260000Y-46492239D01*
X175459375Y-46790625D01*
X175950582Y-47118839D01*
X176383744Y-47205000D01*
X176676256Y-47205000D01*
X177109418Y-47118839D01*
X177600625Y-46790625D01*
X177928839Y-46299418D01*
X178044092Y-45720000D01*
X177928839Y-45140582D01*
X177600625Y-44649375D01*
X177109418Y-44321161D01*
X176676256Y-44235000D01*
X176383744Y-44235000D01*
X175950582Y-44321161D01*
X175459375Y-44649375D01*
X175260000Y-44947761D01*
X175060625Y-44649375D01*
X174569418Y-44321161D01*
X174136256Y-44235000D01*
X173843744Y-44235000D01*
X173410582Y-44321161D01*
X172919375Y-44649375D01*
X172720000Y-44947761D01*
X172520625Y-44649375D01*
X172029418Y-44321161D01*
X171596256Y-44235000D01*
X171303744Y-44235000D01*
X170870582Y-44321161D01*
X170379375Y-44649375D01*
X170180000Y-44947761D01*
X169980625Y-44649375D01*
X169489418Y-44321161D01*
X169056256Y-44235000D01*
X168763744Y-44235000D01*
X168330582Y-44321161D01*
X167839375Y-44649375D01*
X167640000Y-44947761D01*
X167440625Y-44649375D01*
X166949418Y-44321161D01*
X166516256Y-44235000D01*
X166223744Y-44235000D01*
X165790582Y-44321161D01*
X165299375Y-44649375D01*
X165287184Y-44667619D01*
X165278157Y-44622235D01*
X165137809Y-44412191D01*
X164927765Y-44271843D01*
X164680000Y-44222560D01*
X162980000Y-44222560D01*
X162732235Y-44271843D01*
X162522191Y-44412191D01*
X162381843Y-44622235D01*
X162332560Y-44870000D01*
X162332560Y-44960000D01*
X159968043Y-44960000D01*
X159784577Y-44685423D01*
X159309909Y-44368260D01*
X158891333Y-44285000D01*
X158608667Y-44285000D01*
X158190091Y-44368260D01*
X157715423Y-44685423D01*
X157398260Y-45160091D01*
X157286887Y-45720000D01*
X157369436Y-46135001D01*
X156429804Y-46135001D01*
X156338688Y-46043886D01*
X156403113Y-45720000D01*
X156291740Y-45160091D01*
X155974577Y-44685423D01*
X155499909Y-44368260D01*
X155081333Y-44285000D01*
X154798667Y-44285000D01*
X154380091Y-44368260D01*
X153905423Y-44685423D01*
X153588260Y-45160091D01*
X153476887Y-45720000D01*
X151840000Y-45720000D01*
X151840000Y-42620000D01*
X185980000Y-42620000D01*
X185980001Y-90730000D01*
X185980001Y-90730000D01*
G37*
X185980001Y-90730000D02*
X168097856Y-90730000D01*
X168332928Y-90572930D01*
X168375330Y-90509471D01*
X168586113Y-90298688D01*
X168768667Y-90335000D01*
X169051333Y-90335000D01*
X169469909Y-90251740D01*
X169944577Y-89934577D01*
X169962505Y-89907745D01*
X170621861Y-89907745D01*
X170695995Y-90153864D01*
X171233223Y-90346965D01*
X171803454Y-90319778D01*
X172204005Y-90153864D01*
X172278139Y-89907745D01*
X171450000Y-89079605D01*
X170621861Y-89907745D01*
X169962505Y-89907745D01*
X170171611Y-89594797D01*
X170196136Y-89654005D01*
X170442255Y-89728139D01*
X171270395Y-88900000D01*
X170442255Y-88071861D01*
X170196136Y-88145995D01*
X170173720Y-88208359D01*
X169962506Y-87892255D01*
X170621861Y-87892255D01*
X171450000Y-88720395D01*
X172278139Y-87892255D01*
X172204005Y-87646136D01*
X171666777Y-87453035D01*
X171096546Y-87480222D01*
X170695995Y-87646136D01*
X170621861Y-87892255D01*
X169962506Y-87892255D01*
X169944577Y-87865423D01*
X169827564Y-87787237D01*
X171083593Y-86531209D01*
X171303744Y-86575000D01*
X171596256Y-86575000D01*
X172029418Y-86488839D01*
X172520625Y-86160625D01*
X172720000Y-85862239D01*
X172919375Y-86160625D01*
X173230000Y-86368178D01*
X173230001Y-87681956D01*
X172955423Y-87865423D01*
X172728389Y-88205203D01*
X172703864Y-88145995D01*
X172457745Y-88071861D01*
X171629605Y-88900000D01*
X172457745Y-89728139D01*
X172703864Y-89654005D01*
X172726280Y-89591641D01*
X172955423Y-89934577D01*
X173430091Y-90251740D01*
X173848667Y-90335000D01*
X174131333Y-90335000D01*
X174549909Y-90251740D01*
X175023942Y-89935001D01*
X176551957Y-89935001D01*
X176735423Y-90209578D01*
X177210091Y-90526741D01*
X177628667Y-90610001D01*
X177911333Y-90610001D01*
X178329909Y-90526741D01*
X178804577Y-90209578D01*
X179121740Y-89734910D01*
X179233113Y-89175001D01*
X179121740Y-88615092D01*
X178804577Y-88140424D01*
X178452242Y-87905001D01*
X178804577Y-87669578D01*
X179121740Y-87194910D01*
X179233113Y-86635001D01*
X179121740Y-86075092D01*
X178804577Y-85600424D01*
X178452242Y-85365001D01*
X178804577Y-85129578D01*
X179121740Y-84654910D01*
X179233113Y-84095001D01*
X179121740Y-83535092D01*
X178804577Y-83060424D01*
X178452242Y-82825001D01*
X178804577Y-82589578D01*
X179121740Y-82114910D01*
X179233113Y-81555001D01*
X179121740Y-80995092D01*
X178804577Y-80520424D01*
X178452242Y-80285001D01*
X178804577Y-80049578D01*
X179121740Y-79574910D01*
X179233113Y-79015001D01*
X179121740Y-78455092D01*
X178804577Y-77980424D01*
X178452242Y-77745001D01*
X178804577Y-77509578D01*
X179121740Y-77034910D01*
X179233113Y-76475001D01*
X179121740Y-75915092D01*
X178804577Y-75440424D01*
X178452242Y-75205001D01*
X178804577Y-74969578D01*
X179121740Y-74494910D01*
X179233113Y-73935001D01*
X179121740Y-73375092D01*
X178804577Y-72900424D01*
X178452242Y-72665001D01*
X178804577Y-72429578D01*
X178988043Y-72155001D01*
X180459154Y-72155001D01*
X180534001Y-72169889D01*
X180608848Y-72155001D01*
X180608853Y-72155001D01*
X180830538Y-72110905D01*
X181081930Y-71942930D01*
X181124332Y-71879471D01*
X184539474Y-68464330D01*
X184602930Y-68421930D01*
X184770905Y-68170538D01*
X184815001Y-67948853D01*
X184815001Y-67948848D01*
X184829889Y-67874001D01*
X184815001Y-67799154D01*
X184815001Y-66019847D01*
X184829889Y-65945000D01*
X184815001Y-65870153D01*
X184815001Y-65870149D01*
X184770905Y-65648464D01*
X184602930Y-65397072D01*
X184539471Y-65354670D01*
X184321209Y-65136408D01*
X184394092Y-64770000D01*
X184278839Y-64190582D01*
X183950625Y-63699375D01*
X183631522Y-63486157D01*
X183761358Y-63425183D01*
X184151645Y-62996924D01*
X184321476Y-62586890D01*
X184200155Y-62357000D01*
X183007000Y-62357000D01*
X183007000Y-62377000D01*
X182753000Y-62377000D01*
X182753000Y-62357000D01*
X181559845Y-62357000D01*
X181438524Y-62586890D01*
X181608355Y-62996924D01*
X181998642Y-63425183D01*
X182128478Y-63486157D01*
X181809375Y-63699375D01*
X181481161Y-64190582D01*
X181365908Y-64770000D01*
X181481161Y-65349418D01*
X181809375Y-65840625D01*
X182107761Y-66040000D01*
X181809375Y-66239375D01*
X181481161Y-66730582D01*
X181365908Y-67310000D01*
X181438791Y-67676407D01*
X181020198Y-68095001D01*
X178988043Y-68095001D01*
X178804577Y-67820424D01*
X178452242Y-67585001D01*
X178804577Y-67349578D01*
X179121740Y-66874910D01*
X179233113Y-66315001D01*
X179121740Y-65755092D01*
X178804577Y-65280424D01*
X178452242Y-65045001D01*
X178804577Y-64809578D01*
X179121740Y-64334910D01*
X179233113Y-63775001D01*
X179121740Y-63215092D01*
X178804577Y-62740424D01*
X178452242Y-62505001D01*
X178804577Y-62269578D01*
X178988043Y-61995001D01*
X181260152Y-61995001D01*
X181334999Y-62009889D01*
X181409846Y-61995001D01*
X181409851Y-61995001D01*
X181494015Y-61978260D01*
X181559845Y-62103000D01*
X182753000Y-62103000D01*
X182753000Y-62083000D01*
X183007000Y-62083000D01*
X183007000Y-62103000D01*
X184200155Y-62103000D01*
X184321476Y-61873110D01*
X184151645Y-61463076D01*
X183874292Y-61158739D01*
X183977765Y-61138157D01*
X184187809Y-60997809D01*
X184328157Y-60787765D01*
X184377440Y-60540000D01*
X184377440Y-58840000D01*
X184328157Y-58592235D01*
X184187809Y-58382191D01*
X183977765Y-58241843D01*
X183730000Y-58192560D01*
X182030000Y-58192560D01*
X181782235Y-58241843D01*
X181572191Y-58382191D01*
X181431843Y-58592235D01*
X181382560Y-58840000D01*
X181382560Y-60112638D01*
X181020198Y-60475001D01*
X178988043Y-60475001D01*
X178804577Y-60200424D01*
X178452242Y-59965001D01*
X178804577Y-59729578D01*
X179121740Y-59254910D01*
X179233113Y-58695001D01*
X179121740Y-58135092D01*
X178804577Y-57660424D01*
X178420892Y-57404054D01*
X178625134Y-57307390D01*
X179001041Y-56892424D01*
X179161904Y-56504040D01*
X179039915Y-56282001D01*
X177897000Y-56282001D01*
X177897000Y-56302001D01*
X177643000Y-56302001D01*
X177643000Y-56282001D01*
X176500085Y-56282001D01*
X176378096Y-56504040D01*
X176538959Y-56892424D01*
X176914866Y-57307390D01*
X177119108Y-57404054D01*
X176735423Y-57660424D01*
X176418260Y-58135092D01*
X176306887Y-58695001D01*
X176418260Y-59254910D01*
X176735423Y-59729578D01*
X177087758Y-59965001D01*
X176735423Y-60200424D01*
X176713314Y-60233512D01*
X172714145Y-56234344D01*
X173219418Y-56133839D01*
X173710625Y-55805625D01*
X174038839Y-55314417D01*
X174125000Y-54881255D01*
X174125000Y-54338744D01*
X174038839Y-53905582D01*
X173844679Y-53615001D01*
X176306887Y-53615001D01*
X176418260Y-54174910D01*
X176735423Y-54649578D01*
X177119108Y-54905948D01*
X176914866Y-55002612D01*
X176538959Y-55417578D01*
X176378096Y-55805962D01*
X176500085Y-56028001D01*
X177643000Y-56028001D01*
X177643000Y-56008001D01*
X177897000Y-56008001D01*
X177897000Y-56028001D01*
X179039915Y-56028001D01*
X179161904Y-55805962D01*
X179001041Y-55417578D01*
X178625134Y-55002612D01*
X178420892Y-54905948D01*
X178804577Y-54649578D01*
X179121740Y-54174910D01*
X179233113Y-53615001D01*
X179121740Y-53055092D01*
X178804577Y-52580424D01*
X178329909Y-52263261D01*
X177911333Y-52180001D01*
X177628667Y-52180001D01*
X177210091Y-52263261D01*
X176735423Y-52580424D01*
X176418260Y-53055092D01*
X176306887Y-53615001D01*
X173844679Y-53615001D01*
X173710625Y-53414375D01*
X173219417Y-53086161D01*
X172640000Y-52970908D01*
X172060582Y-53086161D01*
X171569375Y-53414375D01*
X171390000Y-53682829D01*
X171210625Y-53414375D01*
X170719417Y-53086161D01*
X170140000Y-52970908D01*
X169560582Y-53086161D01*
X169082344Y-53405709D01*
X169028327Y-53275301D01*
X168849698Y-53096673D01*
X168616309Y-53000000D01*
X167925750Y-53000000D01*
X167767000Y-53158750D01*
X167767000Y-54483000D01*
X167787000Y-54483000D01*
X167787000Y-54737000D01*
X167767000Y-54737000D01*
X167767000Y-56061250D01*
X167925750Y-56220000D01*
X168616309Y-56220000D01*
X168849698Y-56123327D01*
X169028327Y-55944699D01*
X169082344Y-55814291D01*
X169560583Y-56133839D01*
X170140000Y-56249092D01*
X170506408Y-56176209D01*
X172424060Y-58093861D01*
X172060582Y-58166161D01*
X171569375Y-58494375D01*
X171390000Y-58762829D01*
X171210625Y-58494375D01*
X170719417Y-58166161D01*
X170140000Y-58050908D01*
X169560582Y-58166161D01*
X169082344Y-58485709D01*
X169028327Y-58355301D01*
X168849698Y-58176673D01*
X168616309Y-58080000D01*
X167925750Y-58080000D01*
X167767000Y-58238750D01*
X167767000Y-59563000D01*
X167787000Y-59563000D01*
X167787000Y-59817000D01*
X167767000Y-59817000D01*
X167767000Y-61141250D01*
X167925750Y-61300000D01*
X168616309Y-61300000D01*
X168849698Y-61203327D01*
X169028327Y-61024699D01*
X169082344Y-60894291D01*
X169560583Y-61213839D01*
X170140000Y-61329092D01*
X170506408Y-61256209D01*
X172424060Y-63173861D01*
X172060582Y-63246161D01*
X171569375Y-63574375D01*
X171390000Y-63842829D01*
X171210625Y-63574375D01*
X170719417Y-63246161D01*
X170140000Y-63130908D01*
X169560582Y-63246161D01*
X169082344Y-63565709D01*
X169028327Y-63435301D01*
X168849698Y-63256673D01*
X168616309Y-63160000D01*
X167925750Y-63160000D01*
X167767000Y-63318750D01*
X167767000Y-64643000D01*
X167787000Y-64643000D01*
X167787000Y-64897000D01*
X167767000Y-64897000D01*
X167767000Y-66221250D01*
X167925750Y-66380000D01*
X168616309Y-66380000D01*
X168849698Y-66283327D01*
X169028327Y-66104699D01*
X169082344Y-65974291D01*
X169560583Y-66293839D01*
X170140000Y-66409092D01*
X170506408Y-66336209D01*
X172424060Y-68253861D01*
X172060582Y-68326161D01*
X171569375Y-68654375D01*
X171390000Y-68922829D01*
X171210625Y-68654375D01*
X170719417Y-68326161D01*
X170140000Y-68210908D01*
X169560582Y-68326161D01*
X169082344Y-68645709D01*
X169028327Y-68515301D01*
X168849698Y-68336673D01*
X168616309Y-68240000D01*
X167925750Y-68240000D01*
X167767000Y-68398750D01*
X167767000Y-69723000D01*
X167787000Y-69723000D01*
X167787000Y-69977000D01*
X167767000Y-69977000D01*
X167767000Y-71301250D01*
X167925750Y-71460000D01*
X168616309Y-71460000D01*
X168849698Y-71363327D01*
X169028327Y-71184699D01*
X169082344Y-71054291D01*
X169560583Y-71373839D01*
X170140000Y-71489092D01*
X170506408Y-71416209D01*
X172424060Y-73333861D01*
X172060582Y-73406161D01*
X171569375Y-73734375D01*
X171390000Y-74002829D01*
X171210625Y-73734375D01*
X170719417Y-73406161D01*
X170140000Y-73290908D01*
X169560582Y-73406161D01*
X169082344Y-73725709D01*
X169028327Y-73595301D01*
X168849698Y-73416673D01*
X168616309Y-73320000D01*
X167925750Y-73320000D01*
X167767000Y-73478750D01*
X167767000Y-74803000D01*
X167787000Y-74803000D01*
X167787000Y-75057000D01*
X167767000Y-75057000D01*
X167767000Y-76381250D01*
X167925750Y-76540000D01*
X168616309Y-76540000D01*
X168849698Y-76443327D01*
X169028327Y-76264699D01*
X169082344Y-76134291D01*
X169560583Y-76453839D01*
X170140000Y-76569092D01*
X170506408Y-76496209D01*
X172424059Y-78413861D01*
X172060582Y-78486161D01*
X171569375Y-78814375D01*
X171390000Y-79082829D01*
X171210625Y-78814375D01*
X170719417Y-78486161D01*
X170140000Y-78370908D01*
X169560582Y-78486161D01*
X169082344Y-78805709D01*
X169028327Y-78675301D01*
X168849698Y-78496673D01*
X168616309Y-78400000D01*
X167925750Y-78400000D01*
X167767000Y-78558750D01*
X167767000Y-79883000D01*
X167787000Y-79883000D01*
X167787000Y-80137000D01*
X167767000Y-80137000D01*
X167767000Y-81461250D01*
X167925750Y-81620000D01*
X168616309Y-81620000D01*
X168849698Y-81523327D01*
X169028327Y-81344699D01*
X169082344Y-81214291D01*
X169560583Y-81533839D01*
X170140000Y-81649092D01*
X170506408Y-81576209D01*
X170969672Y-82039474D01*
X171012072Y-82102930D01*
X171075528Y-82145330D01*
X171263463Y-82270905D01*
X171311606Y-82280481D01*
X171485149Y-82315001D01*
X171485153Y-82315001D01*
X171560001Y-82329889D01*
X171634849Y-82315001D01*
X176551957Y-82315001D01*
X176735423Y-82589578D01*
X177087758Y-82825001D01*
X176735423Y-83060424D01*
X176418260Y-83535092D01*
X176306887Y-84095001D01*
X176418260Y-84654910D01*
X176735423Y-85129578D01*
X177087758Y-85365001D01*
X176735423Y-85600424D01*
X176418260Y-86075092D01*
X176306887Y-86635001D01*
X176418260Y-87194910D01*
X176735423Y-87669578D01*
X177087758Y-87905001D01*
X176735423Y-88140424D01*
X176551957Y-88415001D01*
X175356641Y-88415001D01*
X175341740Y-88340091D01*
X175024577Y-87865423D01*
X174750000Y-87681957D01*
X174750000Y-86368178D01*
X175060625Y-86160625D01*
X175388839Y-85669418D01*
X175504092Y-85090000D01*
X175388839Y-84510582D01*
X175060625Y-84019375D01*
X174569418Y-83691161D01*
X174136256Y-83605000D01*
X173843744Y-83605000D01*
X173410582Y-83691161D01*
X172919375Y-84019375D01*
X172720000Y-84317761D01*
X172520625Y-84019375D01*
X172029418Y-83691161D01*
X171596256Y-83605000D01*
X171303744Y-83605000D01*
X170870582Y-83691161D01*
X170379375Y-84019375D01*
X170180000Y-84317761D01*
X169980625Y-84019375D01*
X169489418Y-83691161D01*
X169056256Y-83605000D01*
X168763744Y-83605000D01*
X168330582Y-83691161D01*
X167839375Y-84019375D01*
X167827184Y-84037619D01*
X167818157Y-83992235D01*
X167677809Y-83782191D01*
X167467765Y-83641843D01*
X167220000Y-83592560D01*
X165520000Y-83592560D01*
X165272235Y-83641843D01*
X165062191Y-83782191D01*
X164921843Y-83992235D01*
X164872560Y-84240000D01*
X164872560Y-85940000D01*
X164921843Y-86187765D01*
X165062191Y-86397809D01*
X165272235Y-86538157D01*
X165520000Y-86587440D01*
X167220000Y-86587440D01*
X167467765Y-86538157D01*
X167677809Y-86397809D01*
X167818157Y-86187765D01*
X167827184Y-86142381D01*
X167839375Y-86160625D01*
X168330582Y-86488839D01*
X168763744Y-86575000D01*
X168890199Y-86575000D01*
X168425528Y-87039671D01*
X168362072Y-87082071D01*
X168319672Y-87145527D01*
X168319671Y-87145528D01*
X168194097Y-87333463D01*
X168135112Y-87630000D01*
X168145981Y-87684642D01*
X167875423Y-87865423D01*
X167648389Y-88205203D01*
X167623864Y-88145995D01*
X167377745Y-88071861D01*
X166549605Y-88900000D01*
X166563748Y-88914143D01*
X166384143Y-89093748D01*
X166370000Y-89079605D01*
X166355858Y-89093748D01*
X166176253Y-88914143D01*
X166190395Y-88900000D01*
X165362255Y-88071861D01*
X165116136Y-88145995D01*
X164923035Y-88683223D01*
X164950222Y-89253454D01*
X164955005Y-89265001D01*
X163975211Y-89265001D01*
X163993113Y-89175001D01*
X163881740Y-88615092D01*
X163564577Y-88140424D01*
X163212242Y-87905001D01*
X163231317Y-87892255D01*
X165541861Y-87892255D01*
X166370000Y-88720395D01*
X167198139Y-87892255D01*
X167124005Y-87646136D01*
X166586777Y-87453035D01*
X166016546Y-87480222D01*
X165615995Y-87646136D01*
X165541861Y-87892255D01*
X163231317Y-87892255D01*
X163564577Y-87669578D01*
X163881740Y-87194910D01*
X163993113Y-86635001D01*
X163881740Y-86075092D01*
X163564577Y-85600424D01*
X163212242Y-85365001D01*
X163564577Y-85129578D01*
X163881740Y-84654910D01*
X163993113Y-84095001D01*
X163881740Y-83535092D01*
X163564577Y-83060424D01*
X163212242Y-82825001D01*
X163564577Y-82589578D01*
X163881740Y-82114910D01*
X163993113Y-81555001D01*
X163881740Y-80995092D01*
X163564577Y-80520424D01*
X163228329Y-80295750D01*
X166155000Y-80295750D01*
X166155000Y-81111310D01*
X166251673Y-81344699D01*
X166430302Y-81523327D01*
X166663691Y-81620000D01*
X167354250Y-81620000D01*
X167513000Y-81461250D01*
X167513000Y-80137000D01*
X166313750Y-80137000D01*
X166155000Y-80295750D01*
X163228329Y-80295750D01*
X163212242Y-80285001D01*
X163564577Y-80049578D01*
X163881740Y-79574910D01*
X163993113Y-79015001D01*
X163971967Y-78908690D01*
X166155000Y-78908690D01*
X166155000Y-79724250D01*
X166313750Y-79883000D01*
X167513000Y-79883000D01*
X167513000Y-78558750D01*
X167354250Y-78400000D01*
X166663691Y-78400000D01*
X166430302Y-78496673D01*
X166251673Y-78675301D01*
X166155000Y-78908690D01*
X163971967Y-78908690D01*
X163881740Y-78455092D01*
X163564577Y-77980424D01*
X163212242Y-77745001D01*
X163564577Y-77509578D01*
X163881740Y-77034910D01*
X163993113Y-76475001D01*
X163881740Y-75915092D01*
X163564577Y-75440424D01*
X163228329Y-75215750D01*
X166155000Y-75215750D01*
X166155000Y-76031310D01*
X166251673Y-76264699D01*
X166430302Y-76443327D01*
X166663691Y-76540000D01*
X167354250Y-76540000D01*
X167513000Y-76381250D01*
X167513000Y-75057000D01*
X166313750Y-75057000D01*
X166155000Y-75215750D01*
X163228329Y-75215750D01*
X163212242Y-75205001D01*
X163564577Y-74969578D01*
X163881740Y-74494910D01*
X163993113Y-73935001D01*
X163971967Y-73828690D01*
X166155000Y-73828690D01*
X166155000Y-74644250D01*
X166313750Y-74803000D01*
X167513000Y-74803000D01*
X167513000Y-73478750D01*
X167354250Y-73320000D01*
X166663691Y-73320000D01*
X166430302Y-73416673D01*
X166251673Y-73595301D01*
X166155000Y-73828690D01*
X163971967Y-73828690D01*
X163881740Y-73375092D01*
X163564577Y-72900424D01*
X163212242Y-72665001D01*
X163564577Y-72429578D01*
X163881740Y-71954910D01*
X163993113Y-71395001D01*
X163881740Y-70835092D01*
X163564577Y-70360424D01*
X163228329Y-70135750D01*
X166155000Y-70135750D01*
X166155000Y-70951310D01*
X166251673Y-71184699D01*
X166430302Y-71363327D01*
X166663691Y-71460000D01*
X167354250Y-71460000D01*
X167513000Y-71301250D01*
X167513000Y-69977000D01*
X166313750Y-69977000D01*
X166155000Y-70135750D01*
X163228329Y-70135750D01*
X163212242Y-70125001D01*
X163564577Y-69889578D01*
X163881740Y-69414910D01*
X163993113Y-68855001D01*
X163971967Y-68748690D01*
X166155000Y-68748690D01*
X166155000Y-69564250D01*
X166313750Y-69723000D01*
X167513000Y-69723000D01*
X167513000Y-68398750D01*
X167354250Y-68240000D01*
X166663691Y-68240000D01*
X166430302Y-68336673D01*
X166251673Y-68515301D01*
X166155000Y-68748690D01*
X163971967Y-68748690D01*
X163881740Y-68295092D01*
X163564577Y-67820424D01*
X163212242Y-67585001D01*
X163564577Y-67349578D01*
X163881740Y-66874910D01*
X163993113Y-66315001D01*
X163881740Y-65755092D01*
X163564577Y-65280424D01*
X163228329Y-65055750D01*
X166155000Y-65055750D01*
X166155000Y-65871310D01*
X166251673Y-66104699D01*
X166430302Y-66283327D01*
X166663691Y-66380000D01*
X167354250Y-66380000D01*
X167513000Y-66221250D01*
X167513000Y-64897000D01*
X166313750Y-64897000D01*
X166155000Y-65055750D01*
X163228329Y-65055750D01*
X163212242Y-65045001D01*
X163564577Y-64809578D01*
X163881740Y-64334910D01*
X163993113Y-63775001D01*
X163971967Y-63668690D01*
X166155000Y-63668690D01*
X166155000Y-64484250D01*
X166313750Y-64643000D01*
X167513000Y-64643000D01*
X167513000Y-63318750D01*
X167354250Y-63160000D01*
X166663691Y-63160000D01*
X166430302Y-63256673D01*
X166251673Y-63435301D01*
X166155000Y-63668690D01*
X163971967Y-63668690D01*
X163881740Y-63215092D01*
X163564577Y-62740424D01*
X163212242Y-62505001D01*
X163564577Y-62269578D01*
X163881740Y-61794910D01*
X163993113Y-61235001D01*
X163881740Y-60675092D01*
X163564577Y-60200424D01*
X163228329Y-59975750D01*
X166155000Y-59975750D01*
X166155000Y-60791310D01*
X166251673Y-61024699D01*
X166430302Y-61203327D01*
X166663691Y-61300000D01*
X167354250Y-61300000D01*
X167513000Y-61141250D01*
X167513000Y-59817000D01*
X166313750Y-59817000D01*
X166155000Y-59975750D01*
X163228329Y-59975750D01*
X163212242Y-59965001D01*
X163564577Y-59729578D01*
X163881740Y-59254910D01*
X163993113Y-58695001D01*
X163971967Y-58588690D01*
X166155000Y-58588690D01*
X166155000Y-59404250D01*
X166313750Y-59563000D01*
X167513000Y-59563000D01*
X167513000Y-58238750D01*
X167354250Y-58080000D01*
X166663691Y-58080000D01*
X166430302Y-58176673D01*
X166251673Y-58355301D01*
X166155000Y-58588690D01*
X163971967Y-58588690D01*
X163881740Y-58135092D01*
X163564577Y-57660424D01*
X163212242Y-57425001D01*
X163564577Y-57189578D01*
X163881740Y-56714910D01*
X163993113Y-56155001D01*
X163881740Y-55595092D01*
X163564577Y-55120424D01*
X163443894Y-55039786D01*
X163577765Y-55013158D01*
X163753477Y-54895750D01*
X166155000Y-54895750D01*
X166155000Y-55711310D01*
X166251673Y-55944699D01*
X166430302Y-56123327D01*
X166663691Y-56220000D01*
X167354250Y-56220000D01*
X167513000Y-56061250D01*
X167513000Y-54737000D01*
X166313750Y-54737000D01*
X166155000Y-54895750D01*
X163753477Y-54895750D01*
X163787809Y-54872810D01*
X163928157Y-54662766D01*
X163977440Y-54415001D01*
X163977440Y-53508690D01*
X166155000Y-53508690D01*
X166155000Y-54324250D01*
X166313750Y-54483000D01*
X167513000Y-54483000D01*
X167513000Y-53158750D01*
X167354250Y-53000000D01*
X166663691Y-53000000D01*
X166430302Y-53096673D01*
X166251673Y-53275301D01*
X166155000Y-53508690D01*
X163977440Y-53508690D01*
X163977440Y-52815001D01*
X163928157Y-52567236D01*
X163787809Y-52357192D01*
X163577765Y-52216844D01*
X163330000Y-52167561D01*
X161730000Y-52167561D01*
X161482235Y-52216844D01*
X161272191Y-52357192D01*
X161131843Y-52567236D01*
X161082560Y-52815001D01*
X161082560Y-54415001D01*
X161131843Y-54662766D01*
X161272191Y-54872810D01*
X161482235Y-55013158D01*
X161616106Y-55039786D01*
X161495423Y-55120424D01*
X161178260Y-55595092D01*
X161066887Y-56155001D01*
X161178260Y-56714910D01*
X161495423Y-57189578D01*
X161847758Y-57425001D01*
X161495423Y-57660424D01*
X161178260Y-58135092D01*
X161066887Y-58695001D01*
X161178260Y-59254910D01*
X161495423Y-59729578D01*
X161847758Y-59965001D01*
X161495423Y-60200424D01*
X161178260Y-60675092D01*
X161066887Y-61235001D01*
X161178260Y-61794910D01*
X161495423Y-62269578D01*
X161847758Y-62505001D01*
X161495423Y-62740424D01*
X161178260Y-63215092D01*
X161157196Y-63320987D01*
X160635001Y-62798792D01*
X160635001Y-57079849D01*
X160649889Y-57005001D01*
X160635001Y-56930153D01*
X160635001Y-56930149D01*
X160590905Y-56708464D01*
X160590905Y-56708463D01*
X160465330Y-56520528D01*
X160422930Y-56457072D01*
X160359474Y-56414672D01*
X160163104Y-56218302D01*
X160185000Y-56165439D01*
X160185000Y-55594561D01*
X159966534Y-55067138D01*
X159562862Y-54663466D01*
X159035439Y-54445000D01*
X158464561Y-54445000D01*
X157937138Y-54663466D01*
X157533466Y-55067138D01*
X157315000Y-55594561D01*
X157315000Y-56165439D01*
X157533466Y-56692862D01*
X157937138Y-57096534D01*
X158464561Y-57315000D01*
X159035439Y-57315000D01*
X159088302Y-57293104D01*
X159115001Y-57319803D01*
X159115001Y-59569490D01*
X158891333Y-59525000D01*
X158608667Y-59525000D01*
X158190091Y-59608260D01*
X157715423Y-59925423D01*
X157479022Y-60279222D01*
X155700000Y-58500201D01*
X155700000Y-57118430D01*
X155752862Y-57096534D01*
X156156534Y-56692862D01*
X156375000Y-56165439D01*
X156375000Y-55594561D01*
X156156534Y-55067138D01*
X155752862Y-54663466D01*
X155225439Y-54445000D01*
X154654561Y-54445000D01*
X154127138Y-54663466D01*
X153723466Y-55067138D01*
X153505000Y-55594561D01*
X153505000Y-56165439D01*
X153723466Y-56692862D01*
X154127138Y-57096534D01*
X154180000Y-57118430D01*
X154180001Y-58740150D01*
X154165112Y-58815002D01*
X154224097Y-59111539D01*
X154319895Y-59254910D01*
X154392072Y-59362931D01*
X154455528Y-59405331D01*
X154612273Y-59562076D01*
X154380091Y-59608260D01*
X153905423Y-59925423D01*
X153588260Y-60400091D01*
X153476887Y-60960000D01*
X153588260Y-61519909D01*
X153905423Y-61994577D01*
X154380091Y-62311740D01*
X154798667Y-62395000D01*
X155081333Y-62395000D01*
X155499909Y-62311740D01*
X155974577Y-61994577D01*
X156291740Y-61519909D01*
X156337924Y-61287727D01*
X160644999Y-65594803D01*
X160645000Y-67655148D01*
X160630111Y-67730000D01*
X160689096Y-68026537D01*
X160785315Y-68170538D01*
X160857071Y-68277929D01*
X160920527Y-68320329D01*
X161131312Y-68531114D01*
X161066887Y-68855001D01*
X161178260Y-69414910D01*
X161495423Y-69889578D01*
X161847758Y-70125001D01*
X161496058Y-70360000D01*
X159988430Y-70360000D01*
X159966534Y-70307138D01*
X159562862Y-69903466D01*
X159035439Y-69685000D01*
X158464561Y-69685000D01*
X157937138Y-69903466D01*
X157533466Y-70307138D01*
X157315000Y-70834561D01*
X157315000Y-71405439D01*
X157533466Y-71932862D01*
X157937138Y-72336534D01*
X158464561Y-72555000D01*
X159035439Y-72555000D01*
X159562862Y-72336534D01*
X159966534Y-71932862D01*
X159988430Y-71880000D01*
X161163359Y-71880000D01*
X161178260Y-71954910D01*
X161495423Y-72429578D01*
X161847758Y-72665001D01*
X161495423Y-72900424D01*
X161311957Y-73175001D01*
X158069803Y-73175001D01*
X156353103Y-71458302D01*
X156375000Y-71405439D01*
X156375000Y-70834561D01*
X156156534Y-70307138D01*
X155752862Y-69903466D01*
X155225439Y-69685000D01*
X154654561Y-69685000D01*
X154127138Y-69903466D01*
X153723466Y-70307138D01*
X153505000Y-70834561D01*
X153505000Y-71405439D01*
X153723466Y-71932862D01*
X154127138Y-72336534D01*
X154654561Y-72555000D01*
X155225439Y-72555000D01*
X155278302Y-72533103D01*
X157164672Y-74419474D01*
X157207072Y-74482930D01*
X157458464Y-74650905D01*
X157680149Y-74695001D01*
X157680153Y-74695001D01*
X157755001Y-74709889D01*
X157829849Y-74695001D01*
X161311957Y-74695001D01*
X161495423Y-74969578D01*
X161847758Y-75205001D01*
X161495423Y-75440424D01*
X161178260Y-75915092D01*
X161066887Y-76475001D01*
X161131312Y-76798887D01*
X158265528Y-79664672D01*
X158202072Y-79707072D01*
X158159672Y-79770528D01*
X158159671Y-79770529D01*
X158034097Y-79958464D01*
X157975112Y-80255001D01*
X157990001Y-80329853D01*
X157990000Y-85121570D01*
X157937138Y-85143466D01*
X157533466Y-85547138D01*
X157315000Y-86074561D01*
X157315000Y-86645439D01*
X157408016Y-86870000D01*
X156524802Y-86870000D01*
X156353103Y-86698302D01*
X156375000Y-86645439D01*
X156375000Y-86074561D01*
X156156534Y-85547138D01*
X155752862Y-85143466D01*
X155225439Y-84925000D01*
X154654561Y-84925000D01*
X154127138Y-85143466D01*
X153723466Y-85547138D01*
X153505000Y-86074561D01*
X153505000Y-86645439D01*
X153723466Y-87172862D01*
X154127138Y-87576534D01*
X154654561Y-87795000D01*
X155225439Y-87795000D01*
X155278302Y-87773103D01*
X155619671Y-88114473D01*
X155662071Y-88177929D01*
X155913463Y-88345904D01*
X156135148Y-88390000D01*
X156135152Y-88390000D01*
X156209999Y-88404888D01*
X156284846Y-88390000D01*
X159070155Y-88390000D01*
X159145002Y-88404888D01*
X159219849Y-88390000D01*
X159219854Y-88390000D01*
X159441539Y-88345904D01*
X159692931Y-88177929D01*
X159735333Y-88114470D01*
X161091428Y-86758376D01*
X161178260Y-87194910D01*
X161495423Y-87669578D01*
X161847758Y-87905001D01*
X161495423Y-88140424D01*
X161178260Y-88615092D01*
X161066887Y-89175001D01*
X161178260Y-89734910D01*
X161495423Y-90209578D01*
X161970091Y-90526741D01*
X162388667Y-90610001D01*
X162671333Y-90610001D01*
X162837951Y-90576859D01*
X163067143Y-90730000D01*
X151840000Y-90730000D01*
X151840000Y-76200000D01*
X153476887Y-76200000D01*
X153588260Y-76759909D01*
X153905423Y-77234577D01*
X154380091Y-77551740D01*
X154798667Y-77635000D01*
X155081333Y-77635000D01*
X155499909Y-77551740D01*
X155974577Y-77234577D01*
X156291740Y-76759909D01*
X156403113Y-76200000D01*
X157286887Y-76200000D01*
X157398260Y-76759909D01*
X157715423Y-77234577D01*
X158190091Y-77551740D01*
X158608667Y-77635000D01*
X158891333Y-77635000D01*
X159309909Y-77551740D01*
X159784577Y-77234577D01*
X160101740Y-76759909D01*
X160213113Y-76200000D01*
X160101740Y-75640091D01*
X159784577Y-75165423D01*
X159309909Y-74848260D01*
X158891333Y-74765000D01*
X158608667Y-74765000D01*
X158190091Y-74848260D01*
X157715423Y-75165423D01*
X157398260Y-75640091D01*
X157286887Y-76200000D01*
X156403113Y-76200000D01*
X156291740Y-75640091D01*
X155974577Y-75165423D01*
X155499909Y-74848260D01*
X155081333Y-74765000D01*
X154798667Y-74765000D01*
X154380091Y-74848260D01*
X153905423Y-75165423D01*
X153588260Y-75640091D01*
X153476887Y-76200000D01*
X151840000Y-76200000D01*
X151840000Y-45720000D01*
X153476887Y-45720000D01*
X153588260Y-46279909D01*
X153905423Y-46754577D01*
X154380091Y-47071740D01*
X154798667Y-47155000D01*
X155081333Y-47155000D01*
X155263886Y-47118688D01*
X155524674Y-47379477D01*
X155567072Y-47442930D01*
X155630525Y-47485328D01*
X155630527Y-47485330D01*
X155755903Y-47569103D01*
X155818464Y-47610905D01*
X156040149Y-47655001D01*
X156040153Y-47655001D01*
X156115000Y-47669889D01*
X156189847Y-47655001D01*
X165120152Y-47655001D01*
X165194999Y-47669889D01*
X165269846Y-47655001D01*
X165269851Y-47655001D01*
X165491536Y-47610905D01*
X165742928Y-47442930D01*
X165785330Y-47379471D01*
X166003592Y-47161209D01*
X166223744Y-47205000D01*
X166516256Y-47205000D01*
X166949418Y-47118839D01*
X167440625Y-46790625D01*
X167640000Y-46492239D01*
X167839375Y-46790625D01*
X168330582Y-47118839D01*
X168763744Y-47205000D01*
X169056256Y-47205000D01*
X169489418Y-47118839D01*
X169980625Y-46790625D01*
X170180000Y-46492239D01*
X170379375Y-46790625D01*
X170870582Y-47118839D01*
X171303744Y-47205000D01*
X171596256Y-47205000D01*
X172029418Y-47118839D01*
X172520625Y-46790625D01*
X172720000Y-46492239D01*
X172919375Y-46790625D01*
X173410582Y-47118839D01*
X173843744Y-47205000D01*
X174136256Y-47205000D01*
X174569418Y-47118839D01*
X175060625Y-46790625D01*
X175260000Y-46492239D01*
X175459375Y-46790625D01*
X175950582Y-47118839D01*
X176383744Y-47205000D01*
X176676256Y-47205000D01*
X177109418Y-47118839D01*
X177600625Y-46790625D01*
X177928839Y-46299418D01*
X178044092Y-45720000D01*
X177928839Y-45140582D01*
X177600625Y-44649375D01*
X177109418Y-44321161D01*
X176676256Y-44235000D01*
X176383744Y-44235000D01*
X175950582Y-44321161D01*
X175459375Y-44649375D01*
X175260000Y-44947761D01*
X175060625Y-44649375D01*
X174569418Y-44321161D01*
X174136256Y-44235000D01*
X173843744Y-44235000D01*
X173410582Y-44321161D01*
X172919375Y-44649375D01*
X172720000Y-44947761D01*
X172520625Y-44649375D01*
X172029418Y-44321161D01*
X171596256Y-44235000D01*
X171303744Y-44235000D01*
X170870582Y-44321161D01*
X170379375Y-44649375D01*
X170180000Y-44947761D01*
X169980625Y-44649375D01*
X169489418Y-44321161D01*
X169056256Y-44235000D01*
X168763744Y-44235000D01*
X168330582Y-44321161D01*
X167839375Y-44649375D01*
X167640000Y-44947761D01*
X167440625Y-44649375D01*
X166949418Y-44321161D01*
X166516256Y-44235000D01*
X166223744Y-44235000D01*
X165790582Y-44321161D01*
X165299375Y-44649375D01*
X165287184Y-44667619D01*
X165278157Y-44622235D01*
X165137809Y-44412191D01*
X164927765Y-44271843D01*
X164680000Y-44222560D01*
X162980000Y-44222560D01*
X162732235Y-44271843D01*
X162522191Y-44412191D01*
X162381843Y-44622235D01*
X162332560Y-44870000D01*
X162332560Y-44960000D01*
X159968043Y-44960000D01*
X159784577Y-44685423D01*
X159309909Y-44368260D01*
X158891333Y-44285000D01*
X158608667Y-44285000D01*
X158190091Y-44368260D01*
X157715423Y-44685423D01*
X157398260Y-45160091D01*
X157286887Y-45720000D01*
X157369436Y-46135001D01*
X156429804Y-46135001D01*
X156338688Y-46043886D01*
X156403113Y-45720000D01*
X156291740Y-45160091D01*
X155974577Y-44685423D01*
X155499909Y-44368260D01*
X155081333Y-44285000D01*
X154798667Y-44285000D01*
X154380091Y-44368260D01*
X153905423Y-44685423D01*
X153588260Y-45160091D01*
X153476887Y-45720000D01*
X151840000Y-45720000D01*
X151840000Y-42620000D01*
X185980000Y-42620000D01*
X185980001Y-90730000D01*
G04 #@! TD*
M02*
