G04 #@! TF.GenerationSoftware,KiCad,Pcbnew,(5.0.0-3-g5ebb6b6)*
G04 #@! TF.CreationDate,2019-03-28T22:34:17+01:00*
G04 #@! TF.ProjectId,tt_nano_HAT_b2,74745F6E616E6F5F4841545F62322E6B,rev?*
G04 #@! TF.SameCoordinates,Original*
G04 #@! TF.FileFunction,Legend,Top*
G04 #@! TF.FilePolarity,Positive*
%FSLAX46Y46*%
G04 Gerber Fmt 4.6, Leading zero omitted, Abs format (unit mm)*
G04 Created by KiCad (PCBNEW (5.0.0-3-g5ebb6b6)) date Thursday, 28. March 2019 um 22:34:17*
%MOMM*%
%LPD*%
G01*
G04 APERTURE LIST*
%ADD10C,0.300000*%
%ADD11C,0.175000*%
%ADD12C,0.100000*%
%ADD13C,0.200000*%
%ADD14C,0.250000*%
%ADD15C,0.120000*%
%ADD16C,0.150000*%
G04 APERTURE END LIST*
D10*
X160678571Y-67285714D02*
X162178571Y-66785714D01*
X160678571Y-66285714D01*
X160821428Y-65857142D02*
X160750000Y-65785714D01*
X160678571Y-65642857D01*
X160678571Y-65285714D01*
X160750000Y-65142857D01*
X160821428Y-65071428D01*
X160964285Y-65000000D01*
X161107142Y-65000000D01*
X161321428Y-65071428D01*
X162178571Y-65928571D01*
X162178571Y-65000000D01*
X162035714Y-64357142D02*
X162107142Y-64285714D01*
X162178571Y-64357142D01*
X162107142Y-64428571D01*
X162035714Y-64357142D01*
X162178571Y-64357142D01*
X162178571Y-62857142D02*
X162178571Y-63714285D01*
X162178571Y-63285714D02*
X160678571Y-63285714D01*
X160892857Y-63428571D01*
X161035714Y-63571428D01*
X161107142Y-63714285D01*
D11*
X158550000Y-38816666D02*
X158216666Y-38816666D01*
X158216666Y-38116666D01*
X158783333Y-38450000D02*
X159016666Y-38450000D01*
X159116666Y-38816666D02*
X158783333Y-38816666D01*
X158783333Y-38116666D01*
X159116666Y-38116666D01*
X159416666Y-38816666D02*
X159416666Y-38116666D01*
X159583333Y-38116666D01*
X159683333Y-38150000D01*
X159750000Y-38216666D01*
X159783333Y-38283333D01*
X159816666Y-38416666D01*
X159816666Y-38516666D01*
X159783333Y-38650000D01*
X159750000Y-38716666D01*
X159683333Y-38783333D01*
X159583333Y-38816666D01*
X159416666Y-38816666D01*
D12*
X136285714Y-69015714D02*
X136321428Y-68980000D01*
X136392857Y-68944285D01*
X136571428Y-68944285D01*
X136642857Y-68980000D01*
X136678571Y-69015714D01*
X136714285Y-69087142D01*
X136714285Y-69158571D01*
X136678571Y-69265714D01*
X136250000Y-69694285D01*
X136714285Y-69694285D01*
X136357142Y-72144285D02*
X136500000Y-72144285D01*
X136571428Y-72108571D01*
X136607142Y-72072857D01*
X136678571Y-71965714D01*
X136714285Y-71822857D01*
X136714285Y-71537142D01*
X136678571Y-71465714D01*
X136642857Y-71430000D01*
X136571428Y-71394285D01*
X136428571Y-71394285D01*
X136357142Y-71430000D01*
X136321428Y-71465714D01*
X136285714Y-71537142D01*
X136285714Y-71715714D01*
X136321428Y-71787142D01*
X136357142Y-71822857D01*
X136428571Y-71858571D01*
X136571428Y-71858571D01*
X136642857Y-71822857D01*
X136678571Y-71787142D01*
X136714285Y-71715714D01*
X136357142Y-74594285D02*
X135928571Y-74594285D01*
X136142857Y-74594285D02*
X136142857Y-73844285D01*
X136071428Y-73951428D01*
X136000000Y-74022857D01*
X135928571Y-74058571D01*
X136821428Y-73844285D02*
X136892857Y-73844285D01*
X136964285Y-73880000D01*
X137000000Y-73915714D01*
X137035714Y-73987142D01*
X137071428Y-74130000D01*
X137071428Y-74308571D01*
X137035714Y-74451428D01*
X137000000Y-74522857D01*
X136964285Y-74558571D01*
X136892857Y-74594285D01*
X136821428Y-74594285D01*
X136750000Y-74558571D01*
X136714285Y-74522857D01*
X136678571Y-74451428D01*
X136642857Y-74308571D01*
X136642857Y-74130000D01*
X136678571Y-73987142D01*
X136714285Y-73915714D01*
X136750000Y-73880000D01*
X136821428Y-73844285D01*
X136357142Y-77044285D02*
X135928571Y-77044285D01*
X136142857Y-77044285D02*
X136142857Y-76294285D01*
X136071428Y-76401428D01*
X136000000Y-76472857D01*
X135928571Y-76508571D01*
X137071428Y-77044285D02*
X136642857Y-77044285D01*
X136857142Y-77044285D02*
X136857142Y-76294285D01*
X136785714Y-76401428D01*
X136714285Y-76472857D01*
X136642857Y-76508571D01*
X136357142Y-79494285D02*
X135928571Y-79494285D01*
X136142857Y-79494285D02*
X136142857Y-78744285D01*
X136071428Y-78851428D01*
X136000000Y-78922857D01*
X135928571Y-78958571D01*
X136642857Y-78815714D02*
X136678571Y-78780000D01*
X136750000Y-78744285D01*
X136928571Y-78744285D01*
X137000000Y-78780000D01*
X137035714Y-78815714D01*
X137071428Y-78887142D01*
X137071428Y-78958571D01*
X137035714Y-79065714D01*
X136607142Y-79494285D01*
X137071428Y-79494285D01*
X136357142Y-81944285D02*
X135928571Y-81944285D01*
X136142857Y-81944285D02*
X136142857Y-81194285D01*
X136071428Y-81301428D01*
X136000000Y-81372857D01*
X135928571Y-81408571D01*
X136607142Y-81194285D02*
X137071428Y-81194285D01*
X136821428Y-81480000D01*
X136928571Y-81480000D01*
X137000000Y-81515714D01*
X137035714Y-81551428D01*
X137071428Y-81622857D01*
X137071428Y-81801428D01*
X137035714Y-81872857D01*
X137000000Y-81908571D01*
X136928571Y-81944285D01*
X136714285Y-81944285D01*
X136642857Y-81908571D01*
X136607142Y-81872857D01*
D11*
X134816666Y-83933333D02*
X134116666Y-83933333D01*
X134816666Y-83633333D02*
X134450000Y-83633333D01*
X134383333Y-83666666D01*
X134350000Y-83733333D01*
X134350000Y-83833333D01*
X134383333Y-83900000D01*
X134416666Y-83933333D01*
X134350000Y-83400000D02*
X134350000Y-83133333D01*
X134116666Y-83300000D02*
X134716666Y-83300000D01*
X134783333Y-83266666D01*
X134816666Y-83200000D01*
X134816666Y-83133333D01*
X134350000Y-83000000D02*
X134350000Y-82733333D01*
X134116666Y-82900000D02*
X134716666Y-82900000D01*
X134783333Y-82866666D01*
X134816666Y-82800000D01*
X134816666Y-82733333D01*
X134350000Y-82500000D02*
X135050000Y-82500000D01*
X134383333Y-82500000D02*
X134350000Y-82433333D01*
X134350000Y-82300000D01*
X134383333Y-82233333D01*
X134416666Y-82200000D01*
X134483333Y-82166666D01*
X134683333Y-82166666D01*
X134750000Y-82200000D01*
X134783333Y-82233333D01*
X134816666Y-82300000D01*
X134816666Y-82433333D01*
X134783333Y-82500000D01*
X134783333Y-81900000D02*
X134816666Y-81833333D01*
X134816666Y-81700000D01*
X134783333Y-81633333D01*
X134716666Y-81600000D01*
X134683333Y-81600000D01*
X134616666Y-81633333D01*
X134583333Y-81700000D01*
X134583333Y-81800000D01*
X134550000Y-81866666D01*
X134483333Y-81900000D01*
X134450000Y-81900000D01*
X134383333Y-81866666D01*
X134350000Y-81800000D01*
X134350000Y-81700000D01*
X134383333Y-81633333D01*
X134750000Y-81300000D02*
X134783333Y-81266666D01*
X134816666Y-81300000D01*
X134783333Y-81333333D01*
X134750000Y-81300000D01*
X134816666Y-81300000D01*
X134383333Y-81300000D02*
X134416666Y-81266666D01*
X134450000Y-81300000D01*
X134416666Y-81333333D01*
X134383333Y-81300000D01*
X134450000Y-81300000D01*
X134083333Y-80466666D02*
X134983333Y-81066666D01*
X134083333Y-79733333D02*
X134983333Y-80333333D01*
X134350000Y-79200000D02*
X134916666Y-79200000D01*
X134983333Y-79233333D01*
X135016666Y-79266666D01*
X135050000Y-79333333D01*
X135050000Y-79433333D01*
X135016666Y-79500000D01*
X134783333Y-79200000D02*
X134816666Y-79266666D01*
X134816666Y-79400000D01*
X134783333Y-79466666D01*
X134750000Y-79500000D01*
X134683333Y-79533333D01*
X134483333Y-79533333D01*
X134416666Y-79500000D01*
X134383333Y-79466666D01*
X134350000Y-79400000D01*
X134350000Y-79266666D01*
X134383333Y-79200000D01*
X134816666Y-78866666D02*
X134350000Y-78866666D01*
X134116666Y-78866666D02*
X134150000Y-78900000D01*
X134183333Y-78866666D01*
X134150000Y-78833333D01*
X134116666Y-78866666D01*
X134183333Y-78866666D01*
X134350000Y-78633333D02*
X134350000Y-78366666D01*
X134116666Y-78533333D02*
X134716666Y-78533333D01*
X134783333Y-78500000D01*
X134816666Y-78433333D01*
X134816666Y-78366666D01*
X134816666Y-78133333D02*
X134116666Y-78133333D01*
X134816666Y-77833333D02*
X134450000Y-77833333D01*
X134383333Y-77866666D01*
X134350000Y-77933333D01*
X134350000Y-78033333D01*
X134383333Y-78100000D01*
X134416666Y-78133333D01*
X134350000Y-77200000D02*
X134816666Y-77200000D01*
X134350000Y-77500000D02*
X134716666Y-77500000D01*
X134783333Y-77466666D01*
X134816666Y-77400000D01*
X134816666Y-77300000D01*
X134783333Y-77233333D01*
X134750000Y-77200000D01*
X134816666Y-76866666D02*
X134116666Y-76866666D01*
X134383333Y-76866666D02*
X134350000Y-76800000D01*
X134350000Y-76666666D01*
X134383333Y-76600000D01*
X134416666Y-76566666D01*
X134483333Y-76533333D01*
X134683333Y-76533333D01*
X134750000Y-76566666D01*
X134783333Y-76600000D01*
X134816666Y-76666666D01*
X134816666Y-76800000D01*
X134783333Y-76866666D01*
X134750000Y-76233333D02*
X134783333Y-76200000D01*
X134816666Y-76233333D01*
X134783333Y-76266666D01*
X134750000Y-76233333D01*
X134816666Y-76233333D01*
X134783333Y-75600000D02*
X134816666Y-75666666D01*
X134816666Y-75800000D01*
X134783333Y-75866666D01*
X134750000Y-75900000D01*
X134683333Y-75933333D01*
X134483333Y-75933333D01*
X134416666Y-75900000D01*
X134383333Y-75866666D01*
X134350000Y-75800000D01*
X134350000Y-75666666D01*
X134383333Y-75600000D01*
X134816666Y-75200000D02*
X134783333Y-75266666D01*
X134750000Y-75300000D01*
X134683333Y-75333333D01*
X134483333Y-75333333D01*
X134416666Y-75300000D01*
X134383333Y-75266666D01*
X134350000Y-75200000D01*
X134350000Y-75100000D01*
X134383333Y-75033333D01*
X134416666Y-75000000D01*
X134483333Y-74966666D01*
X134683333Y-74966666D01*
X134750000Y-75000000D01*
X134783333Y-75033333D01*
X134816666Y-75100000D01*
X134816666Y-75200000D01*
X134816666Y-74666666D02*
X134350000Y-74666666D01*
X134416666Y-74666666D02*
X134383333Y-74633333D01*
X134350000Y-74566666D01*
X134350000Y-74466666D01*
X134383333Y-74400000D01*
X134450000Y-74366666D01*
X134816666Y-74366666D01*
X134450000Y-74366666D02*
X134383333Y-74333333D01*
X134350000Y-74266666D01*
X134350000Y-74166666D01*
X134383333Y-74100000D01*
X134450000Y-74066666D01*
X134816666Y-74066666D01*
X134083333Y-73233333D02*
X134983333Y-73833333D01*
X134350000Y-73066666D02*
X134816666Y-72900000D01*
X134350000Y-72733333D01*
X134783333Y-72200000D02*
X134816666Y-72266666D01*
X134816666Y-72400000D01*
X134783333Y-72466666D01*
X134716666Y-72500000D01*
X134450000Y-72500000D01*
X134383333Y-72466666D01*
X134350000Y-72400000D01*
X134350000Y-72266666D01*
X134383333Y-72200000D01*
X134450000Y-72166666D01*
X134516666Y-72166666D01*
X134583333Y-72500000D01*
X134816666Y-71866666D02*
X134116666Y-71866666D01*
X134550000Y-71800000D02*
X134816666Y-71600000D01*
X134350000Y-71600000D02*
X134616666Y-71866666D01*
X134350000Y-71400000D02*
X134350000Y-71133333D01*
X134116666Y-71300000D02*
X134716666Y-71300000D01*
X134783333Y-71266666D01*
X134816666Y-71200000D01*
X134816666Y-71133333D01*
X134816666Y-70800000D02*
X134783333Y-70866666D01*
X134750000Y-70900000D01*
X134683333Y-70933333D01*
X134483333Y-70933333D01*
X134416666Y-70900000D01*
X134383333Y-70866666D01*
X134350000Y-70800000D01*
X134350000Y-70700000D01*
X134383333Y-70633333D01*
X134416666Y-70600000D01*
X134483333Y-70566666D01*
X134683333Y-70566666D01*
X134750000Y-70600000D01*
X134783333Y-70633333D01*
X134816666Y-70700000D01*
X134816666Y-70800000D01*
X134816666Y-70266666D02*
X134350000Y-70266666D01*
X134483333Y-70266666D02*
X134416666Y-70233333D01*
X134383333Y-70200000D01*
X134350000Y-70133333D01*
X134350000Y-70066666D01*
X134816666Y-69833333D02*
X134350000Y-69833333D01*
X134116666Y-69833333D02*
X134150000Y-69866666D01*
X134183333Y-69833333D01*
X134150000Y-69800000D01*
X134116666Y-69833333D01*
X134183333Y-69833333D01*
X134816666Y-69400000D02*
X134783333Y-69466666D01*
X134750000Y-69500000D01*
X134683333Y-69533333D01*
X134483333Y-69533333D01*
X134416666Y-69500000D01*
X134383333Y-69466666D01*
X134350000Y-69400000D01*
X134350000Y-69300000D01*
X134383333Y-69233333D01*
X134416666Y-69200000D01*
X134483333Y-69166666D01*
X134683333Y-69166666D01*
X134750000Y-69200000D01*
X134783333Y-69233333D01*
X134816666Y-69300000D01*
X134816666Y-69400000D01*
X134350000Y-68566666D02*
X134816666Y-68566666D01*
X134350000Y-68866666D02*
X134716666Y-68866666D01*
X134783333Y-68833333D01*
X134816666Y-68766666D01*
X134816666Y-68666666D01*
X134783333Y-68600000D01*
X134750000Y-68566666D01*
X134783333Y-68266666D02*
X134816666Y-68200000D01*
X134816666Y-68066666D01*
X134783333Y-68000000D01*
X134716666Y-67966666D01*
X134683333Y-67966666D01*
X134616666Y-68000000D01*
X134583333Y-68066666D01*
X134583333Y-68166666D01*
X134550000Y-68233333D01*
X134483333Y-68266666D01*
X134450000Y-68266666D01*
X134383333Y-68233333D01*
X134350000Y-68166666D01*
X134350000Y-68066666D01*
X134383333Y-68000000D01*
X134083333Y-67166666D02*
X134983333Y-67766666D01*
X134350000Y-67033333D02*
X134350000Y-66766666D01*
X134116666Y-66933333D02*
X134716666Y-66933333D01*
X134783333Y-66900000D01*
X134816666Y-66833333D01*
X134816666Y-66766666D01*
X134783333Y-66266666D02*
X134816666Y-66333333D01*
X134816666Y-66466666D01*
X134783333Y-66533333D01*
X134716666Y-66566666D01*
X134450000Y-66566666D01*
X134383333Y-66533333D01*
X134350000Y-66466666D01*
X134350000Y-66333333D01*
X134383333Y-66266666D01*
X134450000Y-66233333D01*
X134516666Y-66233333D01*
X134583333Y-66566666D01*
X134783333Y-65966666D02*
X134816666Y-65900000D01*
X134816666Y-65766666D01*
X134783333Y-65700000D01*
X134716666Y-65666666D01*
X134683333Y-65666666D01*
X134616666Y-65700000D01*
X134583333Y-65766666D01*
X134583333Y-65866666D01*
X134550000Y-65933333D01*
X134483333Y-65966666D01*
X134450000Y-65966666D01*
X134383333Y-65933333D01*
X134350000Y-65866666D01*
X134350000Y-65766666D01*
X134383333Y-65700000D01*
X134350000Y-65466666D02*
X134350000Y-65200000D01*
X134116666Y-65366666D02*
X134716666Y-65366666D01*
X134783333Y-65333333D01*
X134816666Y-65266666D01*
X134816666Y-65200000D01*
X134883333Y-65133333D02*
X134883333Y-64600000D01*
X134350000Y-64533333D02*
X134350000Y-64266666D01*
X134116666Y-64433333D02*
X134716666Y-64433333D01*
X134783333Y-64400000D01*
X134816666Y-64333333D01*
X134816666Y-64266666D01*
X134350000Y-63733333D02*
X134816666Y-63733333D01*
X134350000Y-64033333D02*
X134716666Y-64033333D01*
X134783333Y-64000000D01*
X134816666Y-63933333D01*
X134816666Y-63833333D01*
X134783333Y-63766666D01*
X134750000Y-63733333D01*
X134816666Y-63400000D02*
X134116666Y-63400000D01*
X134383333Y-63400000D02*
X134350000Y-63333333D01*
X134350000Y-63200000D01*
X134383333Y-63133333D01*
X134416666Y-63100000D01*
X134483333Y-63066666D01*
X134683333Y-63066666D01*
X134750000Y-63100000D01*
X134783333Y-63133333D01*
X134816666Y-63200000D01*
X134816666Y-63333333D01*
X134783333Y-63400000D01*
X134783333Y-62500000D02*
X134816666Y-62566666D01*
X134816666Y-62700000D01*
X134783333Y-62766666D01*
X134716666Y-62800000D01*
X134450000Y-62800000D01*
X134383333Y-62766666D01*
X134350000Y-62700000D01*
X134350000Y-62566666D01*
X134383333Y-62500000D01*
X134450000Y-62466666D01*
X134516666Y-62466666D01*
X134583333Y-62800000D01*
X134883333Y-62333333D02*
X134883333Y-61800000D01*
X134350000Y-61633333D02*
X135050000Y-61633333D01*
X134383333Y-61633333D02*
X134350000Y-61566666D01*
X134350000Y-61433333D01*
X134383333Y-61366666D01*
X134416666Y-61333333D01*
X134483333Y-61300000D01*
X134683333Y-61300000D01*
X134750000Y-61333333D01*
X134783333Y-61366666D01*
X134816666Y-61433333D01*
X134816666Y-61566666D01*
X134783333Y-61633333D01*
X134816666Y-61000000D02*
X134116666Y-61000000D01*
X134816666Y-60700000D02*
X134450000Y-60700000D01*
X134383333Y-60733333D01*
X134350000Y-60800000D01*
X134350000Y-60900000D01*
X134383333Y-60966666D01*
X134416666Y-61000000D01*
X134816666Y-60266666D02*
X134783333Y-60333333D01*
X134750000Y-60366666D01*
X134683333Y-60400000D01*
X134483333Y-60400000D01*
X134416666Y-60366666D01*
X134383333Y-60333333D01*
X134350000Y-60266666D01*
X134350000Y-60166666D01*
X134383333Y-60100000D01*
X134416666Y-60066666D01*
X134483333Y-60033333D01*
X134683333Y-60033333D01*
X134750000Y-60066666D01*
X134783333Y-60100000D01*
X134816666Y-60166666D01*
X134816666Y-60266666D01*
X134350000Y-59833333D02*
X134350000Y-59566666D01*
X134116666Y-59733333D02*
X134716666Y-59733333D01*
X134783333Y-59700000D01*
X134816666Y-59633333D01*
X134816666Y-59566666D01*
X134816666Y-59233333D02*
X134783333Y-59300000D01*
X134750000Y-59333333D01*
X134683333Y-59366666D01*
X134483333Y-59366666D01*
X134416666Y-59333333D01*
X134383333Y-59300000D01*
X134350000Y-59233333D01*
X134350000Y-59133333D01*
X134383333Y-59066666D01*
X134416666Y-59033333D01*
X134483333Y-59000000D01*
X134683333Y-59000000D01*
X134750000Y-59033333D01*
X134783333Y-59066666D01*
X134816666Y-59133333D01*
X134816666Y-59233333D01*
X134816666Y-58700000D02*
X134350000Y-58700000D01*
X134416666Y-58700000D02*
X134383333Y-58666666D01*
X134350000Y-58600000D01*
X134350000Y-58500000D01*
X134383333Y-58433333D01*
X134450000Y-58400000D01*
X134816666Y-58400000D01*
X134450000Y-58400000D02*
X134383333Y-58366666D01*
X134350000Y-58300000D01*
X134350000Y-58200000D01*
X134383333Y-58133333D01*
X134450000Y-58100000D01*
X134816666Y-58100000D01*
X134783333Y-57500000D02*
X134816666Y-57566666D01*
X134816666Y-57700000D01*
X134783333Y-57766666D01*
X134716666Y-57800000D01*
X134450000Y-57800000D01*
X134383333Y-57766666D01*
X134350000Y-57700000D01*
X134350000Y-57566666D01*
X134383333Y-57500000D01*
X134450000Y-57466666D01*
X134516666Y-57466666D01*
X134583333Y-57800000D01*
X134350000Y-57266666D02*
X134350000Y-57000000D01*
X134116666Y-57166666D02*
X134716666Y-57166666D01*
X134783333Y-57133333D01*
X134816666Y-57066666D01*
X134816666Y-57000000D01*
X134783333Y-56500000D02*
X134816666Y-56566666D01*
X134816666Y-56700000D01*
X134783333Y-56766666D01*
X134716666Y-56800000D01*
X134450000Y-56800000D01*
X134383333Y-56766666D01*
X134350000Y-56700000D01*
X134350000Y-56566666D01*
X134383333Y-56500000D01*
X134450000Y-56466666D01*
X134516666Y-56466666D01*
X134583333Y-56800000D01*
X134816666Y-56166666D02*
X134350000Y-56166666D01*
X134483333Y-56166666D02*
X134416666Y-56133333D01*
X134383333Y-56100000D01*
X134350000Y-56033333D01*
X134350000Y-55966666D01*
D13*
X143071428Y-37678571D02*
X144000000Y-37678571D01*
X143500000Y-38250000D01*
X143714285Y-38250000D01*
X143857142Y-38321428D01*
X143928571Y-38392857D01*
X144000000Y-38535714D01*
X144000000Y-38892857D01*
X143928571Y-39035714D01*
X143857142Y-39107142D01*
X143714285Y-39178571D01*
X143285714Y-39178571D01*
X143142857Y-39107142D01*
X143071428Y-39035714D01*
X146428571Y-38178571D02*
X146428571Y-39178571D01*
X146071428Y-37607142D02*
X145714285Y-38678571D01*
X146642857Y-38678571D01*
X149071428Y-37678571D02*
X148357142Y-37678571D01*
X148285714Y-38392857D01*
X148357142Y-38321428D01*
X148500000Y-38250000D01*
X148857142Y-38250000D01*
X149000000Y-38321428D01*
X149071428Y-38392857D01*
X149142857Y-38535714D01*
X149142857Y-38892857D01*
X149071428Y-39035714D01*
X149000000Y-39107142D01*
X148857142Y-39178571D01*
X148500000Y-39178571D01*
X148357142Y-39107142D01*
X148285714Y-39035714D01*
X151571428Y-37678571D02*
X151285714Y-37678571D01*
X151142857Y-37750000D01*
X151071428Y-37821428D01*
X150928571Y-38035714D01*
X150857142Y-38321428D01*
X150857142Y-38892857D01*
X150928571Y-39035714D01*
X151000000Y-39107142D01*
X151142857Y-39178571D01*
X151428571Y-39178571D01*
X151571428Y-39107142D01*
X151642857Y-39035714D01*
X151714285Y-38892857D01*
X151714285Y-38535714D01*
X151642857Y-38392857D01*
X151571428Y-38321428D01*
X151428571Y-38250000D01*
X151142857Y-38250000D01*
X151000000Y-38321428D01*
X150928571Y-38392857D01*
X150857142Y-38535714D01*
X153357142Y-37678571D02*
X154357142Y-37678571D01*
X153714285Y-39178571D01*
X156285714Y-38321428D02*
X156142857Y-38250000D01*
X156071428Y-38178571D01*
X156000000Y-38035714D01*
X156000000Y-37964285D01*
X156071428Y-37821428D01*
X156142857Y-37750000D01*
X156285714Y-37678571D01*
X156571428Y-37678571D01*
X156714285Y-37750000D01*
X156785714Y-37821428D01*
X156857142Y-37964285D01*
X156857142Y-38035714D01*
X156785714Y-38178571D01*
X156714285Y-38250000D01*
X156571428Y-38321428D01*
X156285714Y-38321428D01*
X156142857Y-38392857D01*
X156071428Y-38464285D01*
X156000000Y-38607142D01*
X156000000Y-38892857D01*
X156071428Y-39035714D01*
X156142857Y-39107142D01*
X156285714Y-39178571D01*
X156571428Y-39178571D01*
X156714285Y-39107142D01*
X156785714Y-39035714D01*
X156857142Y-38892857D01*
X156857142Y-38607142D01*
X156785714Y-38464285D01*
X156714285Y-38392857D01*
X156571428Y-38321428D01*
D10*
X164742857Y-68328571D02*
X165942857Y-68328571D01*
X164800000Y-68328571D02*
X164742857Y-68214285D01*
X164742857Y-67985714D01*
X164800000Y-67871428D01*
X164857142Y-67814285D01*
X164971428Y-67757142D01*
X165314285Y-67757142D01*
X165428571Y-67814285D01*
X165485714Y-67871428D01*
X165542857Y-67985714D01*
X165542857Y-68214285D01*
X165485714Y-68328571D01*
X165542857Y-67242857D02*
X164342857Y-67242857D01*
X165542857Y-66728571D02*
X164914285Y-66728571D01*
X164800000Y-66785714D01*
X164742857Y-66900000D01*
X164742857Y-67071428D01*
X164800000Y-67185714D01*
X164857142Y-67242857D01*
X165542857Y-65985714D02*
X165485714Y-66100000D01*
X165428571Y-66157142D01*
X165314285Y-66214285D01*
X164971428Y-66214285D01*
X164857142Y-66157142D01*
X164800000Y-66100000D01*
X164742857Y-65985714D01*
X164742857Y-65814285D01*
X164800000Y-65700000D01*
X164857142Y-65642857D01*
X164971428Y-65585714D01*
X165314285Y-65585714D01*
X165428571Y-65642857D01*
X165485714Y-65700000D01*
X165542857Y-65814285D01*
X165542857Y-65985714D01*
X164742857Y-65242857D02*
X164742857Y-64785714D01*
X164342857Y-65071428D02*
X165371428Y-65071428D01*
X165485714Y-65014285D01*
X165542857Y-64900000D01*
X165542857Y-64785714D01*
X165542857Y-64214285D02*
X165485714Y-64328571D01*
X165428571Y-64385714D01*
X165314285Y-64442857D01*
X164971428Y-64442857D01*
X164857142Y-64385714D01*
X164800000Y-64328571D01*
X164742857Y-64214285D01*
X164742857Y-64042857D01*
X164800000Y-63928571D01*
X164857142Y-63871428D01*
X164971428Y-63814285D01*
X165314285Y-63814285D01*
X165428571Y-63871428D01*
X165485714Y-63928571D01*
X165542857Y-64042857D01*
X165542857Y-64214285D01*
X165542857Y-63300000D02*
X164742857Y-63300000D01*
X164857142Y-63300000D02*
X164800000Y-63242857D01*
X164742857Y-63128571D01*
X164742857Y-62957142D01*
X164800000Y-62842857D01*
X164914285Y-62785714D01*
X165542857Y-62785714D01*
X164914285Y-62785714D02*
X164800000Y-62728571D01*
X164742857Y-62614285D01*
X164742857Y-62442857D01*
X164800000Y-62328571D01*
X164914285Y-62271428D01*
X165542857Y-62271428D01*
X165485714Y-61242857D02*
X165542857Y-61357142D01*
X165542857Y-61585714D01*
X165485714Y-61700000D01*
X165371428Y-61757142D01*
X164914285Y-61757142D01*
X164800000Y-61700000D01*
X164742857Y-61585714D01*
X164742857Y-61357142D01*
X164800000Y-61242857D01*
X164914285Y-61185714D01*
X165028571Y-61185714D01*
X165142857Y-61757142D01*
X164742857Y-60842857D02*
X164742857Y-60385714D01*
X164342857Y-60671428D02*
X165371428Y-60671428D01*
X165485714Y-60614285D01*
X165542857Y-60500000D01*
X165542857Y-60385714D01*
X165485714Y-59528571D02*
X165542857Y-59642857D01*
X165542857Y-59871428D01*
X165485714Y-59985714D01*
X165371428Y-60042857D01*
X164914285Y-60042857D01*
X164800000Y-59985714D01*
X164742857Y-59871428D01*
X164742857Y-59642857D01*
X164800000Y-59528571D01*
X164914285Y-59471428D01*
X165028571Y-59471428D01*
X165142857Y-60042857D01*
X165542857Y-58957142D02*
X164742857Y-58957142D01*
X164971428Y-58957142D02*
X164857142Y-58900000D01*
X164800000Y-58842857D01*
X164742857Y-58728571D01*
X164742857Y-58614285D01*
X165542857Y-57300000D02*
X164342857Y-57300000D01*
X164914285Y-57300000D02*
X164914285Y-56614285D01*
X165542857Y-56614285D02*
X164342857Y-56614285D01*
X165200000Y-56100000D02*
X165200000Y-55528571D01*
X165542857Y-56214285D02*
X164342857Y-55814285D01*
X165542857Y-55414285D01*
X164342857Y-55185714D02*
X164342857Y-54500000D01*
X165542857Y-54842857D02*
X164342857Y-54842857D01*
D13*
X142119047Y-34452380D02*
X142119047Y-33928571D01*
X142071428Y-33833333D01*
X141976190Y-33785714D01*
X141785714Y-33785714D01*
X141690476Y-33833333D01*
X142119047Y-34404761D02*
X142023809Y-34452380D01*
X141785714Y-34452380D01*
X141690476Y-34404761D01*
X141642857Y-34309523D01*
X141642857Y-34214285D01*
X141690476Y-34119047D01*
X141785714Y-34071428D01*
X142023809Y-34071428D01*
X142119047Y-34023809D01*
X142738095Y-34452380D02*
X142642857Y-34404761D01*
X142595238Y-34309523D01*
X142595238Y-33452380D01*
X143500000Y-34404761D02*
X143404761Y-34452380D01*
X143214285Y-34452380D01*
X143119047Y-34404761D01*
X143071428Y-34309523D01*
X143071428Y-33928571D01*
X143119047Y-33833333D01*
X143214285Y-33785714D01*
X143404761Y-33785714D01*
X143500000Y-33833333D01*
X143547619Y-33928571D01*
X143547619Y-34023809D01*
X143071428Y-34119047D01*
X143880952Y-34452380D02*
X144404761Y-33785714D01*
X143880952Y-33785714D02*
X144404761Y-34452380D01*
X145214285Y-34452380D02*
X145214285Y-33928571D01*
X145166666Y-33833333D01*
X145071428Y-33785714D01*
X144880952Y-33785714D01*
X144785714Y-33833333D01*
X145214285Y-34404761D02*
X145119047Y-34452380D01*
X144880952Y-34452380D01*
X144785714Y-34404761D01*
X144738095Y-34309523D01*
X144738095Y-34214285D01*
X144785714Y-34119047D01*
X144880952Y-34071428D01*
X145119047Y-34071428D01*
X145214285Y-34023809D01*
X145690476Y-33785714D02*
X145690476Y-34452380D01*
X145690476Y-33880952D02*
X145738095Y-33833333D01*
X145833333Y-33785714D01*
X145976190Y-33785714D01*
X146071428Y-33833333D01*
X146119047Y-33928571D01*
X146119047Y-34452380D01*
X147023809Y-34452380D02*
X147023809Y-33452380D01*
X147023809Y-34404761D02*
X146928571Y-34452380D01*
X146738095Y-34452380D01*
X146642857Y-34404761D01*
X146595238Y-34357142D01*
X146547619Y-34261904D01*
X146547619Y-33976190D01*
X146595238Y-33880952D01*
X146642857Y-33833333D01*
X146738095Y-33785714D01*
X146928571Y-33785714D01*
X147023809Y-33833333D01*
X147880952Y-34404761D02*
X147785714Y-34452380D01*
X147595238Y-34452380D01*
X147500000Y-34404761D01*
X147452380Y-34309523D01*
X147452380Y-33928571D01*
X147500000Y-33833333D01*
X147595238Y-33785714D01*
X147785714Y-33785714D01*
X147880952Y-33833333D01*
X147928571Y-33928571D01*
X147928571Y-34023809D01*
X147452380Y-34119047D01*
X148357142Y-34452380D02*
X148357142Y-33785714D01*
X148357142Y-33976190D02*
X148404761Y-33880952D01*
X148452380Y-33833333D01*
X148547619Y-33785714D01*
X148642857Y-33785714D01*
X148976190Y-34452380D02*
X148976190Y-33452380D01*
X149071428Y-34071428D02*
X149357142Y-34452380D01*
X149357142Y-33785714D02*
X148976190Y-34166666D01*
X150214285Y-33785714D02*
X150214285Y-34452380D01*
X149785714Y-33785714D02*
X149785714Y-34309523D01*
X149833333Y-34404761D01*
X149928571Y-34452380D01*
X150071428Y-34452380D01*
X150166666Y-34404761D01*
X150214285Y-34357142D01*
X150547619Y-33785714D02*
X150928571Y-33785714D01*
X150690476Y-33452380D02*
X150690476Y-34309523D01*
X150738095Y-34404761D01*
X150833333Y-34452380D01*
X150928571Y-34452380D01*
X151214285Y-34404761D02*
X151309523Y-34452380D01*
X151500000Y-34452380D01*
X151595238Y-34404761D01*
X151642857Y-34309523D01*
X151642857Y-34261904D01*
X151595238Y-34166666D01*
X151500000Y-34119047D01*
X151357142Y-34119047D01*
X151261904Y-34071428D01*
X151214285Y-33976190D01*
X151214285Y-33928571D01*
X151261904Y-33833333D01*
X151357142Y-33785714D01*
X151500000Y-33785714D01*
X151595238Y-33833333D01*
X152500000Y-34404761D02*
X152404761Y-34452380D01*
X152214285Y-34452380D01*
X152119047Y-34404761D01*
X152071428Y-34357142D01*
X152023809Y-34261904D01*
X152023809Y-33976190D01*
X152071428Y-33880952D01*
X152119047Y-33833333D01*
X152214285Y-33785714D01*
X152404761Y-33785714D01*
X152500000Y-33833333D01*
X152928571Y-34452380D02*
X152928571Y-33452380D01*
X153357142Y-34452380D02*
X153357142Y-33928571D01*
X153309523Y-33833333D01*
X153214285Y-33785714D01*
X153071428Y-33785714D01*
X152976190Y-33833333D01*
X152928571Y-33880952D01*
X154214285Y-34404761D02*
X154119047Y-34452380D01*
X153928571Y-34452380D01*
X153833333Y-34404761D01*
X153785714Y-34309523D01*
X153785714Y-33928571D01*
X153833333Y-33833333D01*
X153928571Y-33785714D01*
X154119047Y-33785714D01*
X154214285Y-33833333D01*
X154261904Y-33928571D01*
X154261904Y-34023809D01*
X153785714Y-34119047D01*
X154690476Y-34452380D02*
X154690476Y-33785714D01*
X154690476Y-33976190D02*
X154738095Y-33880952D01*
X154785714Y-33833333D01*
X154880952Y-33785714D01*
X154976190Y-33785714D01*
X155738095Y-34452380D02*
X155738095Y-33928571D01*
X155690476Y-33833333D01*
X155595238Y-33785714D01*
X155404761Y-33785714D01*
X155309523Y-33833333D01*
X155738095Y-34404761D02*
X155642857Y-34452380D01*
X155404761Y-34452380D01*
X155309523Y-34404761D01*
X155261904Y-34309523D01*
X155261904Y-34214285D01*
X155309523Y-34119047D01*
X155404761Y-34071428D01*
X155642857Y-34071428D01*
X155738095Y-34023809D01*
X156214285Y-34357142D02*
X156261904Y-34404761D01*
X156214285Y-34452380D01*
X156166666Y-34404761D01*
X156214285Y-34357142D01*
X156214285Y-34452380D01*
X157119047Y-34404761D02*
X157023809Y-34452380D01*
X156833333Y-34452380D01*
X156738095Y-34404761D01*
X156690476Y-34357142D01*
X156642857Y-34261904D01*
X156642857Y-33976190D01*
X156690476Y-33880952D01*
X156738095Y-33833333D01*
X156833333Y-33785714D01*
X157023809Y-33785714D01*
X157119047Y-33833333D01*
X157690476Y-34452380D02*
X157595238Y-34404761D01*
X157547619Y-34357142D01*
X157500000Y-34261904D01*
X157500000Y-33976190D01*
X157547619Y-33880952D01*
X157595238Y-33833333D01*
X157690476Y-33785714D01*
X157833333Y-33785714D01*
X157928571Y-33833333D01*
X157976190Y-33880952D01*
X158023809Y-33976190D01*
X158023809Y-34261904D01*
X157976190Y-34357142D01*
X157928571Y-34404761D01*
X157833333Y-34452380D01*
X157690476Y-34452380D01*
X158452380Y-34452380D02*
X158452380Y-33785714D01*
X158452380Y-33880952D02*
X158500000Y-33833333D01*
X158595238Y-33785714D01*
X158738095Y-33785714D01*
X158833333Y-33833333D01*
X158880952Y-33928571D01*
X158880952Y-34452380D01*
X158880952Y-33928571D02*
X158928571Y-33833333D01*
X159023809Y-33785714D01*
X159166666Y-33785714D01*
X159261904Y-33833333D01*
X159309523Y-33928571D01*
X159309523Y-34452380D01*
D12*
X163500000Y-72914285D02*
X163750000Y-73664285D01*
X164000000Y-72914285D01*
X164250000Y-73664285D02*
X164250000Y-72914285D01*
X164428571Y-72914285D01*
X164535714Y-72950000D01*
X164607142Y-73021428D01*
X164642857Y-73092857D01*
X164678571Y-73235714D01*
X164678571Y-73342857D01*
X164642857Y-73485714D01*
X164607142Y-73557142D01*
X164535714Y-73628571D01*
X164428571Y-73664285D01*
X164250000Y-73664285D01*
X165428571Y-73592857D02*
X165392857Y-73628571D01*
X165285714Y-73664285D01*
X165214285Y-73664285D01*
X165107142Y-73628571D01*
X165035714Y-73557142D01*
X165000000Y-73485714D01*
X164964285Y-73342857D01*
X164964285Y-73235714D01*
X165000000Y-73092857D01*
X165035714Y-73021428D01*
X165107142Y-72950000D01*
X165214285Y-72914285D01*
X165285714Y-72914285D01*
X165392857Y-72950000D01*
X165428571Y-72985714D01*
X163928571Y-75400000D02*
X163857142Y-75364285D01*
X163750000Y-75364285D01*
X163642857Y-75400000D01*
X163571428Y-75471428D01*
X163535714Y-75542857D01*
X163500000Y-75685714D01*
X163500000Y-75792857D01*
X163535714Y-75935714D01*
X163571428Y-76007142D01*
X163642857Y-76078571D01*
X163750000Y-76114285D01*
X163821428Y-76114285D01*
X163928571Y-76078571D01*
X163964285Y-76042857D01*
X163964285Y-75792857D01*
X163821428Y-75792857D01*
X164285714Y-76114285D02*
X164285714Y-75364285D01*
X164714285Y-76114285D01*
X164714285Y-75364285D01*
X165071428Y-76114285D02*
X165071428Y-75364285D01*
X165250000Y-75364285D01*
X165357142Y-75400000D01*
X165428571Y-75471428D01*
X165464285Y-75542857D01*
X165500000Y-75685714D01*
X165500000Y-75792857D01*
X165464285Y-75935714D01*
X165428571Y-76007142D01*
X165357142Y-76078571D01*
X165250000Y-76114285D01*
X165071428Y-76114285D01*
X163589285Y-78528571D02*
X163696428Y-78564285D01*
X163875000Y-78564285D01*
X163946428Y-78528571D01*
X163982142Y-78492857D01*
X164017857Y-78421428D01*
X164017857Y-78350000D01*
X163982142Y-78278571D01*
X163946428Y-78242857D01*
X163875000Y-78207142D01*
X163732142Y-78171428D01*
X163660714Y-78135714D01*
X163625000Y-78100000D01*
X163589285Y-78028571D01*
X163589285Y-77957142D01*
X163625000Y-77885714D01*
X163660714Y-77850000D01*
X163732142Y-77814285D01*
X163910714Y-77814285D01*
X164017857Y-77850000D01*
X164339285Y-78564285D02*
X164339285Y-77814285D01*
X164517857Y-77814285D01*
X164625000Y-77850000D01*
X164696428Y-77921428D01*
X164732142Y-77992857D01*
X164767857Y-78135714D01*
X164767857Y-78242857D01*
X164732142Y-78385714D01*
X164696428Y-78457142D01*
X164625000Y-78528571D01*
X164517857Y-78564285D01*
X164339285Y-78564285D01*
X165053571Y-78350000D02*
X165410714Y-78350000D01*
X164982142Y-78564285D02*
X165232142Y-77814285D01*
X165482142Y-78564285D01*
X163607142Y-80978571D02*
X163714285Y-81014285D01*
X163892857Y-81014285D01*
X163964285Y-80978571D01*
X164000000Y-80942857D01*
X164035714Y-80871428D01*
X164035714Y-80800000D01*
X164000000Y-80728571D01*
X163964285Y-80692857D01*
X163892857Y-80657142D01*
X163750000Y-80621428D01*
X163678571Y-80585714D01*
X163642857Y-80550000D01*
X163607142Y-80478571D01*
X163607142Y-80407142D01*
X163642857Y-80335714D01*
X163678571Y-80300000D01*
X163750000Y-80264285D01*
X163928571Y-80264285D01*
X164035714Y-80300000D01*
X164785714Y-80942857D02*
X164750000Y-80978571D01*
X164642857Y-81014285D01*
X164571428Y-81014285D01*
X164464285Y-80978571D01*
X164392857Y-80907142D01*
X164357142Y-80835714D01*
X164321428Y-80692857D01*
X164321428Y-80585714D01*
X164357142Y-80442857D01*
X164392857Y-80371428D01*
X164464285Y-80300000D01*
X164571428Y-80264285D01*
X164642857Y-80264285D01*
X164750000Y-80300000D01*
X164785714Y-80335714D01*
X165464285Y-81014285D02*
X165107142Y-81014285D01*
X165107142Y-80264285D01*
D14*
X162023809Y-70952380D02*
X162023809Y-69952380D01*
X162452380Y-70047619D02*
X162500000Y-70000000D01*
X162595238Y-69952380D01*
X162833333Y-69952380D01*
X162928571Y-70000000D01*
X162976190Y-70047619D01*
X163023809Y-70142857D01*
X163023809Y-70238095D01*
X162976190Y-70380952D01*
X162404761Y-70952380D01*
X163023809Y-70952380D01*
X164023809Y-70857142D02*
X163976190Y-70904761D01*
X163833333Y-70952380D01*
X163738095Y-70952380D01*
X163595238Y-70904761D01*
X163500000Y-70809523D01*
X163452380Y-70714285D01*
X163404761Y-70523809D01*
X163404761Y-70380952D01*
X163452380Y-70190476D01*
X163500000Y-70095238D01*
X163595238Y-70000000D01*
X163738095Y-69952380D01*
X163833333Y-69952380D01*
X163976190Y-70000000D01*
X164023809Y-70047619D01*
D15*
G04 #@! TO.C,A1*
X144160000Y-90445001D02*
X141490000Y-90445001D01*
X144160000Y-54885001D02*
X144160000Y-90445001D01*
X156860000Y-90445001D02*
X159530000Y-90445001D01*
X156860000Y-52345001D02*
X156860000Y-90445001D01*
X156860000Y-52345001D02*
X159530000Y-52345001D01*
X144160000Y-52345001D02*
X141490000Y-52345001D01*
X144160000Y-54885001D02*
X144160000Y-52345001D01*
G04 #@! TO.C,J7*
X145090000Y-64440000D02*
X147590000Y-64440000D01*
X145090000Y-61940000D02*
X145090000Y-64440000D01*
X154610000Y-62640000D02*
X154610000Y-64140000D01*
X155610000Y-62640000D02*
X154610000Y-62640000D01*
X146390000Y-62640000D02*
X146390000Y-64140000D01*
X145390000Y-62640000D02*
X146390000Y-62640000D01*
X155110000Y-61830000D02*
X155610000Y-61830000D01*
X155110000Y-60620000D02*
X155110000Y-61830000D01*
X145890000Y-60620000D02*
X155110000Y-60620000D01*
X145890000Y-61830000D02*
X145890000Y-60620000D01*
X145390000Y-61830000D02*
X145890000Y-61830000D01*
X155610000Y-60120000D02*
X145390000Y-60120000D01*
X155610000Y-64140000D02*
X155610000Y-60120000D01*
X145390000Y-64140000D02*
X155610000Y-64140000D01*
X145390000Y-60120000D02*
X145390000Y-64140000D01*
G04 #@! TO.C,J3*
X160170000Y-74270000D02*
X162830000Y-74270000D01*
X160170000Y-74270000D02*
X160170000Y-81950000D01*
X160170000Y-81950000D02*
X162830000Y-81950000D01*
X162830000Y-74270000D02*
X162830000Y-81950000D01*
X162830000Y-71670000D02*
X162830000Y-73000000D01*
X161500000Y-71670000D02*
X162830000Y-71670000D01*
G04 #@! TO.C,J4*
X145390000Y-78300000D02*
X145390000Y-82320000D01*
X145390000Y-82320000D02*
X155610000Y-82320000D01*
X155610000Y-82320000D02*
X155610000Y-78300000D01*
X155610000Y-78300000D02*
X145390000Y-78300000D01*
X145390000Y-80010000D02*
X145890000Y-80010000D01*
X145890000Y-80010000D02*
X145890000Y-78800000D01*
X145890000Y-78800000D02*
X155110000Y-78800000D01*
X155110000Y-78800000D02*
X155110000Y-80010000D01*
X155110000Y-80010000D02*
X155610000Y-80010000D01*
X145390000Y-80820000D02*
X146390000Y-80820000D01*
X146390000Y-80820000D02*
X146390000Y-82320000D01*
X155610000Y-80820000D02*
X154610000Y-80820000D01*
X154610000Y-80820000D02*
X154610000Y-82320000D01*
X145090000Y-80120000D02*
X145090000Y-82620000D01*
X145090000Y-82620000D02*
X147590000Y-82620000D01*
G04 #@! TO.C,J5*
X145090000Y-76740000D02*
X147590000Y-76740000D01*
X145090000Y-74240000D02*
X145090000Y-76740000D01*
X154610000Y-74940000D02*
X154610000Y-76440000D01*
X155610000Y-74940000D02*
X154610000Y-74940000D01*
X146390000Y-74940000D02*
X146390000Y-76440000D01*
X145390000Y-74940000D02*
X146390000Y-74940000D01*
X155110000Y-74130000D02*
X155610000Y-74130000D01*
X155110000Y-72920000D02*
X155110000Y-74130000D01*
X145890000Y-72920000D02*
X155110000Y-72920000D01*
X145890000Y-74130000D02*
X145890000Y-72920000D01*
X145390000Y-74130000D02*
X145890000Y-74130000D01*
X155610000Y-72420000D02*
X145390000Y-72420000D01*
X155610000Y-76440000D02*
X155610000Y-72420000D01*
X145390000Y-76440000D02*
X155610000Y-76440000D01*
X145390000Y-72420000D02*
X145390000Y-76440000D01*
G04 #@! TO.C,J6*
X145390000Y-66270000D02*
X145390000Y-70290000D01*
X145390000Y-70290000D02*
X155610000Y-70290000D01*
X155610000Y-70290000D02*
X155610000Y-66270000D01*
X155610000Y-66270000D02*
X145390000Y-66270000D01*
X145390000Y-67980000D02*
X145890000Y-67980000D01*
X145890000Y-67980000D02*
X145890000Y-66770000D01*
X145890000Y-66770000D02*
X155110000Y-66770000D01*
X155110000Y-66770000D02*
X155110000Y-67980000D01*
X155110000Y-67980000D02*
X155610000Y-67980000D01*
X145390000Y-68790000D02*
X146390000Y-68790000D01*
X146390000Y-68790000D02*
X146390000Y-70290000D01*
X155610000Y-68790000D02*
X154610000Y-68790000D01*
X154610000Y-68790000D02*
X154610000Y-70290000D01*
X145090000Y-68090000D02*
X145090000Y-70590000D01*
X145090000Y-70590000D02*
X147590000Y-70590000D01*
G04 #@! TO.C,J8*
X145390000Y-53970000D02*
X145390000Y-57990000D01*
X145390000Y-57990000D02*
X155610000Y-57990000D01*
X155610000Y-57990000D02*
X155610000Y-53970000D01*
X155610000Y-53970000D02*
X145390000Y-53970000D01*
X145390000Y-55680000D02*
X145890000Y-55680000D01*
X145890000Y-55680000D02*
X145890000Y-54470000D01*
X145890000Y-54470000D02*
X155110000Y-54470000D01*
X155110000Y-54470000D02*
X155110000Y-55680000D01*
X155110000Y-55680000D02*
X155610000Y-55680000D01*
X145390000Y-56490000D02*
X146390000Y-56490000D01*
X146390000Y-56490000D02*
X146390000Y-57990000D01*
X155610000Y-56490000D02*
X154610000Y-56490000D01*
X154610000Y-56490000D02*
X154610000Y-57990000D01*
X145090000Y-55790000D02*
X145090000Y-58290000D01*
X145090000Y-58290000D02*
X147590000Y-58290000D01*
G04 #@! TO.C,J9*
X145090000Y-52140000D02*
X147590000Y-52140000D01*
X145090000Y-49640000D02*
X145090000Y-52140000D01*
X154610000Y-50340000D02*
X154610000Y-51840000D01*
X155610000Y-50340000D02*
X154610000Y-50340000D01*
X146390000Y-50340000D02*
X146390000Y-51840000D01*
X145390000Y-50340000D02*
X146390000Y-50340000D01*
X155110000Y-49530000D02*
X155610000Y-49530000D01*
X155110000Y-48320000D02*
X155110000Y-49530000D01*
X145890000Y-48320000D02*
X155110000Y-48320000D01*
X145890000Y-49530000D02*
X145890000Y-48320000D01*
X145390000Y-49530000D02*
X145890000Y-49530000D01*
X155610000Y-47820000D02*
X145390000Y-47820000D01*
X155610000Y-51840000D02*
X155610000Y-47820000D01*
X145390000Y-51840000D02*
X155610000Y-51840000D01*
X145390000Y-47820000D02*
X145390000Y-51840000D01*
G04 #@! TO.C,J1*
X145370000Y-86420000D02*
X145370000Y-85090000D01*
X146700000Y-86420000D02*
X145370000Y-86420000D01*
X147970000Y-86420000D02*
X147970000Y-83760000D01*
X147970000Y-83760000D02*
X155650000Y-83760000D01*
X147970000Y-86420000D02*
X155650000Y-86420000D01*
X155650000Y-86420000D02*
X155650000Y-83760000D01*
G04 #@! TO.C,R1*
X153370000Y-89000000D02*
X153440000Y-89000000D01*
X153370000Y-89000000D02*
G75*
G03X153370000Y-89000000I-1370000J0D01*
G01*
G04 #@! TO.C,R2*
X163630000Y-49190000D02*
X166370000Y-49190000D01*
X166370000Y-49190000D02*
X166370000Y-42650000D01*
X166370000Y-42650000D02*
X163630000Y-42650000D01*
X163630000Y-42650000D02*
X163630000Y-49190000D01*
X165000000Y-49960000D02*
X165000000Y-49190000D01*
X165000000Y-41880000D02*
X165000000Y-42650000D01*
G04 #@! TO.C,R3*
X162000000Y-41880000D02*
X162000000Y-42650000D01*
X162000000Y-49960000D02*
X162000000Y-49190000D01*
X160630000Y-42650000D02*
X160630000Y-49190000D01*
X163370000Y-42650000D02*
X160630000Y-42650000D01*
X163370000Y-49190000D02*
X163370000Y-42650000D01*
X160630000Y-49190000D02*
X163370000Y-49190000D01*
G04 #@! TO.C,R4*
X138130000Y-50190000D02*
X140870000Y-50190000D01*
X140870000Y-50190000D02*
X140870000Y-43650000D01*
X140870000Y-43650000D02*
X138130000Y-43650000D01*
X138130000Y-43650000D02*
X138130000Y-50190000D01*
X139500000Y-50960000D02*
X139500000Y-50190000D01*
X139500000Y-42880000D02*
X139500000Y-43650000D01*
G04 #@! TO.C,R5*
X136500000Y-42880000D02*
X136500000Y-43650000D01*
X136500000Y-50960000D02*
X136500000Y-50190000D01*
X135130000Y-43650000D02*
X135130000Y-50190000D01*
X137870000Y-43650000D02*
X135130000Y-43650000D01*
X137870000Y-50190000D02*
X137870000Y-43650000D01*
X135130000Y-50190000D02*
X137870000Y-50190000D01*
G04 #@! TO.C,R6*
X138130000Y-62690000D02*
X140870000Y-62690000D01*
X140870000Y-62690000D02*
X140870000Y-56150000D01*
X140870000Y-56150000D02*
X138130000Y-56150000D01*
X138130000Y-56150000D02*
X138130000Y-62690000D01*
X139500000Y-63460000D02*
X139500000Y-62690000D01*
X139500000Y-55380000D02*
X139500000Y-56150000D01*
G04 #@! TO.C,R7*
X136500000Y-55380000D02*
X136500000Y-56150000D01*
X136500000Y-63460000D02*
X136500000Y-62690000D01*
X135130000Y-56150000D02*
X135130000Y-62690000D01*
X137870000Y-56150000D02*
X135130000Y-56150000D01*
X137870000Y-62690000D02*
X137870000Y-56150000D01*
X135130000Y-62690000D02*
X137870000Y-62690000D01*
G04 #@! TO.C,R8*
X150370000Y-89000000D02*
G75*
G03X150370000Y-89000000I-1370000J0D01*
G01*
X147630000Y-89000000D02*
X147560000Y-89000000D01*
G04 #@! TO.C,J2*
X142470000Y-39670000D02*
X142470000Y-42330000D01*
X155230000Y-39670000D02*
X142470000Y-39670000D01*
X155230000Y-42330000D02*
X142470000Y-42330000D01*
X155230000Y-39670000D02*
X155230000Y-42330000D01*
X156500000Y-39670000D02*
X157830000Y-39670000D01*
X157830000Y-39670000D02*
X157830000Y-41000000D01*
G04 #@! TO.C,J10*
X157830000Y-42670000D02*
X157830000Y-44000000D01*
X156500000Y-42670000D02*
X157830000Y-42670000D01*
X155230000Y-42670000D02*
X155230000Y-45330000D01*
X155230000Y-45330000D02*
X142470000Y-45330000D01*
X155230000Y-42670000D02*
X142470000Y-42670000D01*
X142470000Y-42670000D02*
X142470000Y-45330000D01*
G04 #@! TO.C,J11*
X162330000Y-52300000D02*
X159670000Y-52300000D01*
X162330000Y-54900000D02*
X162330000Y-52300000D01*
X159670000Y-54900000D02*
X159670000Y-52300000D01*
X162330000Y-54900000D02*
X159670000Y-54900000D01*
X162330000Y-56170000D02*
X162330000Y-57500000D01*
X162330000Y-57500000D02*
X161000000Y-57500000D01*
G04 #@! TO.C,J12*
X137670000Y-83030000D02*
X140330000Y-83030000D01*
X137670000Y-70270000D02*
X137670000Y-83030000D01*
X140330000Y-70270000D02*
X140330000Y-83030000D01*
X137670000Y-70270000D02*
X140330000Y-70270000D01*
X137670000Y-69000000D02*
X137670000Y-67670000D01*
X137670000Y-67670000D02*
X139000000Y-67670000D01*
G04 #@! TO.C,*
D16*
G04 #@! TO.C,A1*
X149795714Y-48701667D02*
X150271904Y-48701667D01*
X149700476Y-48987381D02*
X150033809Y-47987381D01*
X150367142Y-48987381D01*
X151224285Y-48987381D02*
X150652857Y-48987381D01*
X150938571Y-48987381D02*
X150938571Y-47987381D01*
X150843333Y-48130239D01*
X150748095Y-48225477D01*
X150652857Y-48273096D01*
G04 #@! TO.C,J7*
X150166666Y-58482380D02*
X150166666Y-59196666D01*
X150119047Y-59339523D01*
X150023809Y-59434761D01*
X149880952Y-59482380D01*
X149785714Y-59482380D01*
X150547619Y-58482380D02*
X151214285Y-58482380D01*
X150785714Y-59482380D01*
G04 #@! TO.C,J3*
X161166666Y-82452380D02*
X161166666Y-83166666D01*
X161119047Y-83309523D01*
X161023809Y-83404761D01*
X160880952Y-83452380D01*
X160785714Y-83452380D01*
X161547619Y-82452380D02*
X162166666Y-82452380D01*
X161833333Y-82833333D01*
X161976190Y-82833333D01*
X162071428Y-82880952D01*
X162119047Y-82928571D01*
X162166666Y-83023809D01*
X162166666Y-83261904D01*
X162119047Y-83357142D01*
X162071428Y-83404761D01*
X161976190Y-83452380D01*
X161690476Y-83452380D01*
X161595238Y-83404761D01*
X161547619Y-83357142D01*
G04 #@! TO.C,J4*
X150166666Y-76662380D02*
X150166666Y-77376666D01*
X150119047Y-77519523D01*
X150023809Y-77614761D01*
X149880952Y-77662380D01*
X149785714Y-77662380D01*
X151071428Y-76995714D02*
X151071428Y-77662380D01*
X150833333Y-76614761D02*
X150595238Y-77329047D01*
X151214285Y-77329047D01*
G04 #@! TO.C,J5*
X150166666Y-70782380D02*
X150166666Y-71496666D01*
X150119047Y-71639523D01*
X150023809Y-71734761D01*
X149880952Y-71782380D01*
X149785714Y-71782380D01*
X151119047Y-70782380D02*
X150642857Y-70782380D01*
X150595238Y-71258571D01*
X150642857Y-71210952D01*
X150738095Y-71163333D01*
X150976190Y-71163333D01*
X151071428Y-71210952D01*
X151119047Y-71258571D01*
X151166666Y-71353809D01*
X151166666Y-71591904D01*
X151119047Y-71687142D01*
X151071428Y-71734761D01*
X150976190Y-71782380D01*
X150738095Y-71782380D01*
X150642857Y-71734761D01*
X150595238Y-71687142D01*
G04 #@! TO.C,J6*
X150166666Y-64632380D02*
X150166666Y-65346666D01*
X150119047Y-65489523D01*
X150023809Y-65584761D01*
X149880952Y-65632380D01*
X149785714Y-65632380D01*
X151071428Y-64632380D02*
X150880952Y-64632380D01*
X150785714Y-64680000D01*
X150738095Y-64727619D01*
X150642857Y-64870476D01*
X150595238Y-65060952D01*
X150595238Y-65441904D01*
X150642857Y-65537142D01*
X150690476Y-65584761D01*
X150785714Y-65632380D01*
X150976190Y-65632380D01*
X151071428Y-65584761D01*
X151119047Y-65537142D01*
X151166666Y-65441904D01*
X151166666Y-65203809D01*
X151119047Y-65108571D01*
X151071428Y-65060952D01*
X150976190Y-65013333D01*
X150785714Y-65013333D01*
X150690476Y-65060952D01*
X150642857Y-65108571D01*
X150595238Y-65203809D01*
G04 #@! TO.C,J8*
X150166666Y-52332380D02*
X150166666Y-53046666D01*
X150119047Y-53189523D01*
X150023809Y-53284761D01*
X149880952Y-53332380D01*
X149785714Y-53332380D01*
X150785714Y-52760952D02*
X150690476Y-52713333D01*
X150642857Y-52665714D01*
X150595238Y-52570476D01*
X150595238Y-52522857D01*
X150642857Y-52427619D01*
X150690476Y-52380000D01*
X150785714Y-52332380D01*
X150976190Y-52332380D01*
X151071428Y-52380000D01*
X151119047Y-52427619D01*
X151166666Y-52522857D01*
X151166666Y-52570476D01*
X151119047Y-52665714D01*
X151071428Y-52713333D01*
X150976190Y-52760952D01*
X150785714Y-52760952D01*
X150690476Y-52808571D01*
X150642857Y-52856190D01*
X150595238Y-52951428D01*
X150595238Y-53141904D01*
X150642857Y-53237142D01*
X150690476Y-53284761D01*
X150785714Y-53332380D01*
X150976190Y-53332380D01*
X151071428Y-53284761D01*
X151119047Y-53237142D01*
X151166666Y-53141904D01*
X151166666Y-52951428D01*
X151119047Y-52856190D01*
X151071428Y-52808571D01*
X150976190Y-52760952D01*
G04 #@! TO.C,J9*
X150166666Y-46182380D02*
X150166666Y-46896666D01*
X150119047Y-47039523D01*
X150023809Y-47134761D01*
X149880952Y-47182380D01*
X149785714Y-47182380D01*
X150690476Y-47182380D02*
X150880952Y-47182380D01*
X150976190Y-47134761D01*
X151023809Y-47087142D01*
X151119047Y-46944285D01*
X151166666Y-46753809D01*
X151166666Y-46372857D01*
X151119047Y-46277619D01*
X151071428Y-46230000D01*
X150976190Y-46182380D01*
X150785714Y-46182380D01*
X150690476Y-46230000D01*
X150642857Y-46277619D01*
X150595238Y-46372857D01*
X150595238Y-46610952D01*
X150642857Y-46706190D01*
X150690476Y-46753809D01*
X150785714Y-46801428D01*
X150976190Y-46801428D01*
X151071428Y-46753809D01*
X151119047Y-46706190D01*
X151166666Y-46610952D01*
G04 #@! TO.C,J1*
X150666666Y-82452380D02*
X150666666Y-83166666D01*
X150619047Y-83309523D01*
X150523809Y-83404761D01*
X150380952Y-83452380D01*
X150285714Y-83452380D01*
X151666666Y-83452380D02*
X151095238Y-83452380D01*
X151380952Y-83452380D02*
X151380952Y-82452380D01*
X151285714Y-82595238D01*
X151190476Y-82690476D01*
X151095238Y-82738095D01*
G04 #@! TO.C,R1*
X153833333Y-90952380D02*
X153500000Y-90476190D01*
X153261904Y-90952380D02*
X153261904Y-89952380D01*
X153642857Y-89952380D01*
X153738095Y-90000000D01*
X153785714Y-90047619D01*
X153833333Y-90142857D01*
X153833333Y-90285714D01*
X153785714Y-90380952D01*
X153738095Y-90428571D01*
X153642857Y-90476190D01*
X153261904Y-90476190D01*
X154785714Y-90952380D02*
X154214285Y-90952380D01*
X154500000Y-90952380D02*
X154500000Y-89952380D01*
X154404761Y-90095238D01*
X154309523Y-90190476D01*
X154214285Y-90238095D01*
G04 #@! TO.C,R2*
X165452380Y-46086666D02*
X164976190Y-46420000D01*
X165452380Y-46658095D02*
X164452380Y-46658095D01*
X164452380Y-46277142D01*
X164500000Y-46181904D01*
X164547619Y-46134285D01*
X164642857Y-46086666D01*
X164785714Y-46086666D01*
X164880952Y-46134285D01*
X164928571Y-46181904D01*
X164976190Y-46277142D01*
X164976190Y-46658095D01*
X164547619Y-45705714D02*
X164500000Y-45658095D01*
X164452380Y-45562857D01*
X164452380Y-45324761D01*
X164500000Y-45229523D01*
X164547619Y-45181904D01*
X164642857Y-45134285D01*
X164738095Y-45134285D01*
X164880952Y-45181904D01*
X165452380Y-45753333D01*
X165452380Y-45134285D01*
G04 #@! TO.C,R3*
X162452380Y-46086666D02*
X161976190Y-46420000D01*
X162452380Y-46658095D02*
X161452380Y-46658095D01*
X161452380Y-46277142D01*
X161500000Y-46181904D01*
X161547619Y-46134285D01*
X161642857Y-46086666D01*
X161785714Y-46086666D01*
X161880952Y-46134285D01*
X161928571Y-46181904D01*
X161976190Y-46277142D01*
X161976190Y-46658095D01*
X161452380Y-45753333D02*
X161452380Y-45134285D01*
X161833333Y-45467619D01*
X161833333Y-45324761D01*
X161880952Y-45229523D01*
X161928571Y-45181904D01*
X162023809Y-45134285D01*
X162261904Y-45134285D01*
X162357142Y-45181904D01*
X162404761Y-45229523D01*
X162452380Y-45324761D01*
X162452380Y-45610476D01*
X162404761Y-45705714D01*
X162357142Y-45753333D01*
G04 #@! TO.C,R4*
X139952380Y-47086666D02*
X139476190Y-47420000D01*
X139952380Y-47658095D02*
X138952380Y-47658095D01*
X138952380Y-47277142D01*
X139000000Y-47181904D01*
X139047619Y-47134285D01*
X139142857Y-47086666D01*
X139285714Y-47086666D01*
X139380952Y-47134285D01*
X139428571Y-47181904D01*
X139476190Y-47277142D01*
X139476190Y-47658095D01*
X139285714Y-46229523D02*
X139952380Y-46229523D01*
X138904761Y-46467619D02*
X139619047Y-46705714D01*
X139619047Y-46086666D01*
G04 #@! TO.C,R5*
X136952380Y-47086666D02*
X136476190Y-47420000D01*
X136952380Y-47658095D02*
X135952380Y-47658095D01*
X135952380Y-47277142D01*
X136000000Y-47181904D01*
X136047619Y-47134285D01*
X136142857Y-47086666D01*
X136285714Y-47086666D01*
X136380952Y-47134285D01*
X136428571Y-47181904D01*
X136476190Y-47277142D01*
X136476190Y-47658095D01*
X135952380Y-46181904D02*
X135952380Y-46658095D01*
X136428571Y-46705714D01*
X136380952Y-46658095D01*
X136333333Y-46562857D01*
X136333333Y-46324761D01*
X136380952Y-46229523D01*
X136428571Y-46181904D01*
X136523809Y-46134285D01*
X136761904Y-46134285D01*
X136857142Y-46181904D01*
X136904761Y-46229523D01*
X136952380Y-46324761D01*
X136952380Y-46562857D01*
X136904761Y-46658095D01*
X136857142Y-46705714D01*
G04 #@! TO.C,R6*
X139952380Y-59586666D02*
X139476190Y-59920000D01*
X139952380Y-60158095D02*
X138952380Y-60158095D01*
X138952380Y-59777142D01*
X139000000Y-59681904D01*
X139047619Y-59634285D01*
X139142857Y-59586666D01*
X139285714Y-59586666D01*
X139380952Y-59634285D01*
X139428571Y-59681904D01*
X139476190Y-59777142D01*
X139476190Y-60158095D01*
X138952380Y-58729523D02*
X138952380Y-58920000D01*
X139000000Y-59015238D01*
X139047619Y-59062857D01*
X139190476Y-59158095D01*
X139380952Y-59205714D01*
X139761904Y-59205714D01*
X139857142Y-59158095D01*
X139904761Y-59110476D01*
X139952380Y-59015238D01*
X139952380Y-58824761D01*
X139904761Y-58729523D01*
X139857142Y-58681904D01*
X139761904Y-58634285D01*
X139523809Y-58634285D01*
X139428571Y-58681904D01*
X139380952Y-58729523D01*
X139333333Y-58824761D01*
X139333333Y-59015238D01*
X139380952Y-59110476D01*
X139428571Y-59158095D01*
X139523809Y-59205714D01*
G04 #@! TO.C,R7*
X136952380Y-59586666D02*
X136476190Y-59920000D01*
X136952380Y-60158095D02*
X135952380Y-60158095D01*
X135952380Y-59777142D01*
X136000000Y-59681904D01*
X136047619Y-59634285D01*
X136142857Y-59586666D01*
X136285714Y-59586666D01*
X136380952Y-59634285D01*
X136428571Y-59681904D01*
X136476190Y-59777142D01*
X136476190Y-60158095D01*
X135952380Y-59253333D02*
X135952380Y-58586666D01*
X136952380Y-59015238D01*
G04 #@! TO.C,R8*
X146833333Y-90952380D02*
X146500000Y-90476190D01*
X146261904Y-90952380D02*
X146261904Y-89952380D01*
X146642857Y-89952380D01*
X146738095Y-90000000D01*
X146785714Y-90047619D01*
X146833333Y-90142857D01*
X146833333Y-90285714D01*
X146785714Y-90380952D01*
X146738095Y-90428571D01*
X146642857Y-90476190D01*
X146261904Y-90476190D01*
X147404761Y-90380952D02*
X147309523Y-90333333D01*
X147261904Y-90285714D01*
X147214285Y-90190476D01*
X147214285Y-90142857D01*
X147261904Y-90047619D01*
X147309523Y-90000000D01*
X147404761Y-89952380D01*
X147595238Y-89952380D01*
X147690476Y-90000000D01*
X147738095Y-90047619D01*
X147785714Y-90142857D01*
X147785714Y-90190476D01*
X147738095Y-90285714D01*
X147690476Y-90333333D01*
X147595238Y-90380952D01*
X147404761Y-90380952D01*
X147309523Y-90428571D01*
X147261904Y-90476190D01*
X147214285Y-90571428D01*
X147214285Y-90761904D01*
X147261904Y-90857142D01*
X147309523Y-90904761D01*
X147404761Y-90952380D01*
X147595238Y-90952380D01*
X147690476Y-90904761D01*
X147738095Y-90857142D01*
X147785714Y-90761904D01*
X147785714Y-90571428D01*
X147738095Y-90476190D01*
X147690476Y-90428571D01*
X147595238Y-90380952D01*
G04 #@! TO.C,J2*
X158666666Y-41452380D02*
X158666666Y-42166666D01*
X158619047Y-42309523D01*
X158523809Y-42404761D01*
X158380952Y-42452380D01*
X158285714Y-42452380D01*
X159095238Y-41547619D02*
X159142857Y-41500000D01*
X159238095Y-41452380D01*
X159476190Y-41452380D01*
X159571428Y-41500000D01*
X159619047Y-41547619D01*
X159666666Y-41642857D01*
X159666666Y-41738095D01*
X159619047Y-41880952D01*
X159047619Y-42452380D01*
X159666666Y-42452380D01*
G04 #@! TO.C,J10*
X155690476Y-45452380D02*
X155690476Y-46166666D01*
X155642857Y-46309523D01*
X155547619Y-46404761D01*
X155404761Y-46452380D01*
X155309523Y-46452380D01*
X156690476Y-46452380D02*
X156119047Y-46452380D01*
X156404761Y-46452380D02*
X156404761Y-45452380D01*
X156309523Y-45595238D01*
X156214285Y-45690476D01*
X156119047Y-45738095D01*
X157309523Y-45452380D02*
X157404761Y-45452380D01*
X157500000Y-45500000D01*
X157547619Y-45547619D01*
X157595238Y-45642857D01*
X157642857Y-45833333D01*
X157642857Y-46071428D01*
X157595238Y-46261904D01*
X157547619Y-46357142D01*
X157500000Y-46404761D01*
X157404761Y-46452380D01*
X157309523Y-46452380D01*
X157214285Y-46404761D01*
X157166666Y-46357142D01*
X157119047Y-46261904D01*
X157071428Y-46071428D01*
X157071428Y-45833333D01*
X157119047Y-45642857D01*
X157166666Y-45547619D01*
X157214285Y-45500000D01*
X157309523Y-45452380D01*
G04 #@! TO.C,J11*
X160190476Y-57952380D02*
X160190476Y-58666666D01*
X160142857Y-58809523D01*
X160047619Y-58904761D01*
X159904761Y-58952380D01*
X159809523Y-58952380D01*
X161190476Y-58952380D02*
X160619047Y-58952380D01*
X160904761Y-58952380D02*
X160904761Y-57952380D01*
X160809523Y-58095238D01*
X160714285Y-58190476D01*
X160619047Y-58238095D01*
X162142857Y-58952380D02*
X161571428Y-58952380D01*
X161857142Y-58952380D02*
X161857142Y-57952380D01*
X161761904Y-58095238D01*
X161666666Y-58190476D01*
X161571428Y-58238095D01*
G04 #@! TO.C,J12*
X139190476Y-83452380D02*
X139190476Y-84166666D01*
X139142857Y-84309523D01*
X139047619Y-84404761D01*
X138904761Y-84452380D01*
X138809523Y-84452380D01*
X140190476Y-84452380D02*
X139619047Y-84452380D01*
X139904761Y-84452380D02*
X139904761Y-83452380D01*
X139809523Y-83595238D01*
X139714285Y-83690476D01*
X139619047Y-83738095D01*
X140571428Y-83547619D02*
X140619047Y-83500000D01*
X140714285Y-83452380D01*
X140952380Y-83452380D01*
X141047619Y-83500000D01*
X141095238Y-83547619D01*
X141142857Y-83642857D01*
X141142857Y-83738095D01*
X141095238Y-83880952D01*
X140523809Y-84452380D01*
X141142857Y-84452380D01*
G04 #@! TO.C,*
G04 #@! TD*
M02*
