G04 #@! TF.GenerationSoftware,KiCad,Pcbnew,(5.0.0-3-g5ebb6b6)*
G04 #@! TF.CreationDate,2019-02-02T18:51:14+01:00*
G04 #@! TF.ProjectId,tt_opt101_module,74745F6F70743130315F6D6F64756C65,rev?*
G04 #@! TF.SameCoordinates,Original*
G04 #@! TF.FileFunction,Copper,L2,Bot,Signal*
G04 #@! TF.FilePolarity,Positive*
%FSLAX46Y46*%
G04 Gerber Fmt 4.6, Leading zero omitted, Abs format (unit mm)*
G04 Created by KiCad (PCBNEW (5.0.0-3-g5ebb6b6)) date Saturday, 02. February 2019 um 18:51:14*
%MOMM*%
%LPD*%
G01*
G04 APERTURE LIST*
G04 #@! TA.AperFunction,ComponentPad*
%ADD10R,1.700000X1.950000*%
G04 #@! TD*
G04 #@! TA.AperFunction,ComponentPad*
%ADD11O,1.700000X1.950000*%
G04 #@! TD*
G04 #@! TA.AperFunction,ComponentPad*
%ADD12R,1.600000X1.600000*%
G04 #@! TD*
G04 #@! TA.AperFunction,ComponentPad*
%ADD13O,1.600000X1.600000*%
G04 #@! TD*
G04 #@! TA.AperFunction,Conductor*
%ADD14C,0.250000*%
G04 #@! TD*
G04 #@! TA.AperFunction,Conductor*
%ADD15C,0.254000*%
G04 #@! TD*
G04 APERTURE END LIST*
D10*
G04 #@! TO.P,J1,1*
G04 #@! TO.N,GND*
X130850000Y-66040000D03*
D11*
G04 #@! TO.P,J1,2*
G04 #@! TO.N,Net-(J1-Pad2)*
X133350000Y-66040000D03*
G04 #@! TO.P,J1,3*
G04 #@! TO.N,+5V*
X135850000Y-66040000D03*
G04 #@! TD*
D12*
G04 #@! TO.P,O1,1*
G04 #@! TO.N,+5V*
X137150000Y-53340000D03*
D13*
G04 #@! TO.P,O1,5*
G04 #@! TO.N,Net-(J1-Pad2)*
X129530000Y-60960000D03*
G04 #@! TO.P,O1,2*
G04 #@! TO.N,Net-(O1-Pad2)*
X137150000Y-55880000D03*
G04 #@! TO.P,O1,6*
G04 #@! TO.N,Net-(O1-Pad6)*
X129530000Y-58420000D03*
G04 #@! TO.P,O1,3*
G04 #@! TO.N,GND*
X137150000Y-58420000D03*
G04 #@! TO.P,O1,7*
G04 #@! TO.N,Net-(O1-Pad7)*
X129530000Y-55880000D03*
G04 #@! TO.P,O1,4*
G04 #@! TO.N,Net-(O1-Pad4)*
X137150000Y-60960000D03*
G04 #@! TO.P,O1,8*
G04 #@! TO.N,GND*
X129530000Y-53340000D03*
G04 #@! TD*
D14*
G04 #@! TO.N,+5V*
X135850000Y-53590000D02*
X136100000Y-53340000D01*
X136100000Y-53340000D02*
X137150000Y-53340000D01*
X135850000Y-66040000D02*
X135850000Y-53590000D01*
G04 #@! TD*
D15*
G04 #@! TO.N,GND*
G36*
X140260000Y-70410000D02*
X126440000Y-70410000D01*
X126440000Y-66325750D01*
X129365000Y-66325750D01*
X129365000Y-67141310D01*
X129461673Y-67374699D01*
X129640302Y-67553327D01*
X129873691Y-67650000D01*
X130564250Y-67650000D01*
X130723000Y-67491250D01*
X130723000Y-66167000D01*
X129523750Y-66167000D01*
X129365000Y-66325750D01*
X126440000Y-66325750D01*
X126440000Y-64938690D01*
X129365000Y-64938690D01*
X129365000Y-65754250D01*
X129523750Y-65913000D01*
X130723000Y-65913000D01*
X130723000Y-64588750D01*
X130977000Y-64588750D01*
X130977000Y-65913000D01*
X130997000Y-65913000D01*
X130997000Y-66167000D01*
X130977000Y-66167000D01*
X130977000Y-67491250D01*
X131135750Y-67650000D01*
X131826309Y-67650000D01*
X132059698Y-67553327D01*
X132238327Y-67374699D01*
X132292344Y-67244291D01*
X132770583Y-67563839D01*
X133350000Y-67679092D01*
X133929418Y-67563839D01*
X134420625Y-67235625D01*
X134600000Y-66967171D01*
X134779375Y-67235625D01*
X135270583Y-67563839D01*
X135850000Y-67679092D01*
X136429418Y-67563839D01*
X136920625Y-67235625D01*
X137248839Y-66744417D01*
X137335000Y-66311255D01*
X137335000Y-65768744D01*
X137248839Y-65335582D01*
X136920625Y-64844375D01*
X136610000Y-64636822D01*
X136610000Y-62315700D01*
X137008667Y-62395000D01*
X137291333Y-62395000D01*
X137709909Y-62311740D01*
X138184577Y-61994577D01*
X138501740Y-61519909D01*
X138613113Y-60960000D01*
X138501740Y-60400091D01*
X138184577Y-59925423D01*
X137800892Y-59669053D01*
X138005134Y-59572389D01*
X138381041Y-59157423D01*
X138541904Y-58769039D01*
X138419915Y-58547000D01*
X137277000Y-58547000D01*
X137277000Y-58567000D01*
X137023000Y-58567000D01*
X137023000Y-58547000D01*
X137003000Y-58547000D01*
X137003000Y-58293000D01*
X137023000Y-58293000D01*
X137023000Y-58273000D01*
X137277000Y-58273000D01*
X137277000Y-58293000D01*
X138419915Y-58293000D01*
X138541904Y-58070961D01*
X138381041Y-57682577D01*
X138005134Y-57267611D01*
X137800892Y-57170947D01*
X138184577Y-56914577D01*
X138501740Y-56439909D01*
X138613113Y-55880000D01*
X138501740Y-55320091D01*
X138184577Y-54845423D01*
X138063894Y-54764785D01*
X138197765Y-54738157D01*
X138407809Y-54597809D01*
X138548157Y-54387765D01*
X138597440Y-54140000D01*
X138597440Y-52540000D01*
X138548157Y-52292235D01*
X138407809Y-52082191D01*
X138197765Y-51941843D01*
X137950000Y-51892560D01*
X136350000Y-51892560D01*
X136102235Y-51941843D01*
X135892191Y-52082191D01*
X135751843Y-52292235D01*
X135702560Y-52540000D01*
X135702560Y-52691517D01*
X135552071Y-52792071D01*
X135509670Y-52855528D01*
X135365527Y-52999672D01*
X135302072Y-53042071D01*
X135259672Y-53105527D01*
X135259671Y-53105528D01*
X135134097Y-53293463D01*
X135075112Y-53590000D01*
X135090001Y-53664852D01*
X135090000Y-64636822D01*
X134779375Y-64844375D01*
X134600000Y-65112829D01*
X134420625Y-64844375D01*
X133929417Y-64516161D01*
X133350000Y-64400908D01*
X132770582Y-64516161D01*
X132292344Y-64835709D01*
X132238327Y-64705301D01*
X132059698Y-64526673D01*
X131826309Y-64430000D01*
X131135750Y-64430000D01*
X130977000Y-64588750D01*
X130723000Y-64588750D01*
X130564250Y-64430000D01*
X129873691Y-64430000D01*
X129640302Y-64526673D01*
X129461673Y-64705301D01*
X129365000Y-64938690D01*
X126440000Y-64938690D01*
X126440000Y-55880000D01*
X128066887Y-55880000D01*
X128178260Y-56439909D01*
X128495423Y-56914577D01*
X128847758Y-57150000D01*
X128495423Y-57385423D01*
X128178260Y-57860091D01*
X128066887Y-58420000D01*
X128178260Y-58979909D01*
X128495423Y-59454577D01*
X128847758Y-59690000D01*
X128495423Y-59925423D01*
X128178260Y-60400091D01*
X128066887Y-60960000D01*
X128178260Y-61519909D01*
X128495423Y-61994577D01*
X128970091Y-62311740D01*
X129388667Y-62395000D01*
X129671333Y-62395000D01*
X130089909Y-62311740D01*
X130564577Y-61994577D01*
X130881740Y-61519909D01*
X130993113Y-60960000D01*
X130881740Y-60400091D01*
X130564577Y-59925423D01*
X130212242Y-59690000D01*
X130564577Y-59454577D01*
X130881740Y-58979909D01*
X130993113Y-58420000D01*
X130881740Y-57860091D01*
X130564577Y-57385423D01*
X130212242Y-57150000D01*
X130564577Y-56914577D01*
X130881740Y-56439909D01*
X130993113Y-55880000D01*
X130881740Y-55320091D01*
X130564577Y-54845423D01*
X130180892Y-54589053D01*
X130385134Y-54492389D01*
X130761041Y-54077423D01*
X130921904Y-53689039D01*
X130799915Y-53467000D01*
X129657000Y-53467000D01*
X129657000Y-53487000D01*
X129403000Y-53487000D01*
X129403000Y-53467000D01*
X128260085Y-53467000D01*
X128138096Y-53689039D01*
X128298959Y-54077423D01*
X128674866Y-54492389D01*
X128879108Y-54589053D01*
X128495423Y-54845423D01*
X128178260Y-55320091D01*
X128066887Y-55880000D01*
X126440000Y-55880000D01*
X126440000Y-52990961D01*
X128138096Y-52990961D01*
X128260085Y-53213000D01*
X129403000Y-53213000D01*
X129403000Y-52069371D01*
X129657000Y-52069371D01*
X129657000Y-53213000D01*
X130799915Y-53213000D01*
X130921904Y-52990961D01*
X130761041Y-52602577D01*
X130385134Y-52187611D01*
X129879041Y-51948086D01*
X129657000Y-52069371D01*
X129403000Y-52069371D01*
X129180959Y-51948086D01*
X128674866Y-52187611D01*
X128298959Y-52602577D01*
X128138096Y-52990961D01*
X126440000Y-52990961D01*
X126440000Y-48970000D01*
X140260001Y-48970000D01*
X140260000Y-70410000D01*
X140260000Y-70410000D01*
G37*
X140260000Y-70410000D02*
X126440000Y-70410000D01*
X126440000Y-66325750D01*
X129365000Y-66325750D01*
X129365000Y-67141310D01*
X129461673Y-67374699D01*
X129640302Y-67553327D01*
X129873691Y-67650000D01*
X130564250Y-67650000D01*
X130723000Y-67491250D01*
X130723000Y-66167000D01*
X129523750Y-66167000D01*
X129365000Y-66325750D01*
X126440000Y-66325750D01*
X126440000Y-64938690D01*
X129365000Y-64938690D01*
X129365000Y-65754250D01*
X129523750Y-65913000D01*
X130723000Y-65913000D01*
X130723000Y-64588750D01*
X130977000Y-64588750D01*
X130977000Y-65913000D01*
X130997000Y-65913000D01*
X130997000Y-66167000D01*
X130977000Y-66167000D01*
X130977000Y-67491250D01*
X131135750Y-67650000D01*
X131826309Y-67650000D01*
X132059698Y-67553327D01*
X132238327Y-67374699D01*
X132292344Y-67244291D01*
X132770583Y-67563839D01*
X133350000Y-67679092D01*
X133929418Y-67563839D01*
X134420625Y-67235625D01*
X134600000Y-66967171D01*
X134779375Y-67235625D01*
X135270583Y-67563839D01*
X135850000Y-67679092D01*
X136429418Y-67563839D01*
X136920625Y-67235625D01*
X137248839Y-66744417D01*
X137335000Y-66311255D01*
X137335000Y-65768744D01*
X137248839Y-65335582D01*
X136920625Y-64844375D01*
X136610000Y-64636822D01*
X136610000Y-62315700D01*
X137008667Y-62395000D01*
X137291333Y-62395000D01*
X137709909Y-62311740D01*
X138184577Y-61994577D01*
X138501740Y-61519909D01*
X138613113Y-60960000D01*
X138501740Y-60400091D01*
X138184577Y-59925423D01*
X137800892Y-59669053D01*
X138005134Y-59572389D01*
X138381041Y-59157423D01*
X138541904Y-58769039D01*
X138419915Y-58547000D01*
X137277000Y-58547000D01*
X137277000Y-58567000D01*
X137023000Y-58567000D01*
X137023000Y-58547000D01*
X137003000Y-58547000D01*
X137003000Y-58293000D01*
X137023000Y-58293000D01*
X137023000Y-58273000D01*
X137277000Y-58273000D01*
X137277000Y-58293000D01*
X138419915Y-58293000D01*
X138541904Y-58070961D01*
X138381041Y-57682577D01*
X138005134Y-57267611D01*
X137800892Y-57170947D01*
X138184577Y-56914577D01*
X138501740Y-56439909D01*
X138613113Y-55880000D01*
X138501740Y-55320091D01*
X138184577Y-54845423D01*
X138063894Y-54764785D01*
X138197765Y-54738157D01*
X138407809Y-54597809D01*
X138548157Y-54387765D01*
X138597440Y-54140000D01*
X138597440Y-52540000D01*
X138548157Y-52292235D01*
X138407809Y-52082191D01*
X138197765Y-51941843D01*
X137950000Y-51892560D01*
X136350000Y-51892560D01*
X136102235Y-51941843D01*
X135892191Y-52082191D01*
X135751843Y-52292235D01*
X135702560Y-52540000D01*
X135702560Y-52691517D01*
X135552071Y-52792071D01*
X135509670Y-52855528D01*
X135365527Y-52999672D01*
X135302072Y-53042071D01*
X135259672Y-53105527D01*
X135259671Y-53105528D01*
X135134097Y-53293463D01*
X135075112Y-53590000D01*
X135090001Y-53664852D01*
X135090000Y-64636822D01*
X134779375Y-64844375D01*
X134600000Y-65112829D01*
X134420625Y-64844375D01*
X133929417Y-64516161D01*
X133350000Y-64400908D01*
X132770582Y-64516161D01*
X132292344Y-64835709D01*
X132238327Y-64705301D01*
X132059698Y-64526673D01*
X131826309Y-64430000D01*
X131135750Y-64430000D01*
X130977000Y-64588750D01*
X130723000Y-64588750D01*
X130564250Y-64430000D01*
X129873691Y-64430000D01*
X129640302Y-64526673D01*
X129461673Y-64705301D01*
X129365000Y-64938690D01*
X126440000Y-64938690D01*
X126440000Y-55880000D01*
X128066887Y-55880000D01*
X128178260Y-56439909D01*
X128495423Y-56914577D01*
X128847758Y-57150000D01*
X128495423Y-57385423D01*
X128178260Y-57860091D01*
X128066887Y-58420000D01*
X128178260Y-58979909D01*
X128495423Y-59454577D01*
X128847758Y-59690000D01*
X128495423Y-59925423D01*
X128178260Y-60400091D01*
X128066887Y-60960000D01*
X128178260Y-61519909D01*
X128495423Y-61994577D01*
X128970091Y-62311740D01*
X129388667Y-62395000D01*
X129671333Y-62395000D01*
X130089909Y-62311740D01*
X130564577Y-61994577D01*
X130881740Y-61519909D01*
X130993113Y-60960000D01*
X130881740Y-60400091D01*
X130564577Y-59925423D01*
X130212242Y-59690000D01*
X130564577Y-59454577D01*
X130881740Y-58979909D01*
X130993113Y-58420000D01*
X130881740Y-57860091D01*
X130564577Y-57385423D01*
X130212242Y-57150000D01*
X130564577Y-56914577D01*
X130881740Y-56439909D01*
X130993113Y-55880000D01*
X130881740Y-55320091D01*
X130564577Y-54845423D01*
X130180892Y-54589053D01*
X130385134Y-54492389D01*
X130761041Y-54077423D01*
X130921904Y-53689039D01*
X130799915Y-53467000D01*
X129657000Y-53467000D01*
X129657000Y-53487000D01*
X129403000Y-53487000D01*
X129403000Y-53467000D01*
X128260085Y-53467000D01*
X128138096Y-53689039D01*
X128298959Y-54077423D01*
X128674866Y-54492389D01*
X128879108Y-54589053D01*
X128495423Y-54845423D01*
X128178260Y-55320091D01*
X128066887Y-55880000D01*
X126440000Y-55880000D01*
X126440000Y-52990961D01*
X128138096Y-52990961D01*
X128260085Y-53213000D01*
X129403000Y-53213000D01*
X129403000Y-52069371D01*
X129657000Y-52069371D01*
X129657000Y-53213000D01*
X130799915Y-53213000D01*
X130921904Y-52990961D01*
X130761041Y-52602577D01*
X130385134Y-52187611D01*
X129879041Y-51948086D01*
X129657000Y-52069371D01*
X129403000Y-52069371D01*
X129180959Y-51948086D01*
X128674866Y-52187611D01*
X128298959Y-52602577D01*
X128138096Y-52990961D01*
X126440000Y-52990961D01*
X126440000Y-48970000D01*
X140260001Y-48970000D01*
X140260000Y-70410000D01*
G04 #@! TD*
M02*
