G04 #@! TF.GenerationSoftware,KiCad,Pcbnew,(5.0.0-3-g5ebb6b6)*
G04 #@! TF.CreationDate,2019-02-02T18:51:14+01:00*
G04 #@! TF.ProjectId,tt_opt101_module,74745F6F70743130315F6D6F64756C65,rev?*
G04 #@! TF.SameCoordinates,Original*
G04 #@! TF.FileFunction,Legend,Top*
G04 #@! TF.FilePolarity,Positive*
%FSLAX46Y46*%
G04 Gerber Fmt 4.6, Leading zero omitted, Abs format (unit mm)*
G04 Created by KiCad (PCBNEW (5.0.0-3-g5ebb6b6)) date Saturday, 02. February 2019 um 18:51:14*
%MOMM*%
%LPD*%
G01*
G04 APERTURE LIST*
%ADD10C,0.250000*%
%ADD11C,0.120000*%
%ADD12C,0.150000*%
G04 APERTURE END LIST*
D10*
X129945238Y-69350000D02*
X129850000Y-69302380D01*
X129707142Y-69302380D01*
X129564285Y-69350000D01*
X129469047Y-69445238D01*
X129421428Y-69540476D01*
X129373809Y-69730952D01*
X129373809Y-69873809D01*
X129421428Y-70064285D01*
X129469047Y-70159523D01*
X129564285Y-70254761D01*
X129707142Y-70302380D01*
X129802380Y-70302380D01*
X129945238Y-70254761D01*
X129992857Y-70207142D01*
X129992857Y-69873809D01*
X129802380Y-69873809D01*
X130421428Y-70302380D02*
X130421428Y-69302380D01*
X130992857Y-70302380D01*
X130992857Y-69302380D01*
X131469047Y-70302380D02*
X131469047Y-69302380D01*
X131707142Y-69302380D01*
X131850000Y-69350000D01*
X131945238Y-69445238D01*
X131992857Y-69540476D01*
X132040476Y-69730952D01*
X132040476Y-69873809D01*
X131992857Y-70064285D01*
X131945238Y-70159523D01*
X131850000Y-70254761D01*
X131707142Y-70302380D01*
X131469047Y-70302380D01*
X133183333Y-70254761D02*
X133326190Y-70302380D01*
X133564285Y-70302380D01*
X133659523Y-70254761D01*
X133707142Y-70207142D01*
X133754761Y-70111904D01*
X133754761Y-70016666D01*
X133707142Y-69921428D01*
X133659523Y-69873809D01*
X133564285Y-69826190D01*
X133373809Y-69778571D01*
X133278571Y-69730952D01*
X133230952Y-69683333D01*
X133183333Y-69588095D01*
X133183333Y-69492857D01*
X133230952Y-69397619D01*
X133278571Y-69350000D01*
X133373809Y-69302380D01*
X133611904Y-69302380D01*
X133754761Y-69350000D01*
X135421428Y-69302380D02*
X134945238Y-69302380D01*
X134897619Y-69778571D01*
X134945238Y-69730952D01*
X135040476Y-69683333D01*
X135278571Y-69683333D01*
X135373809Y-69730952D01*
X135421428Y-69778571D01*
X135469047Y-69873809D01*
X135469047Y-70111904D01*
X135421428Y-70207142D01*
X135373809Y-70254761D01*
X135278571Y-70302380D01*
X135040476Y-70302380D01*
X134945238Y-70254761D01*
X134897619Y-70207142D01*
X135754761Y-69302380D02*
X136088095Y-70302380D01*
X136421428Y-69302380D01*
X127088095Y-50196666D02*
X127564285Y-50196666D01*
X126992857Y-50482380D02*
X127326190Y-49482380D01*
X127659523Y-50482380D01*
X128421428Y-50482380D02*
X128421428Y-49482380D01*
X128421428Y-50434761D02*
X128326190Y-50482380D01*
X128135714Y-50482380D01*
X128040476Y-50434761D01*
X127992857Y-50387142D01*
X127945238Y-50291904D01*
X127945238Y-50006190D01*
X127992857Y-49910952D01*
X128040476Y-49863333D01*
X128135714Y-49815714D01*
X128326190Y-49815714D01*
X128421428Y-49863333D01*
X128897619Y-49815714D02*
X128897619Y-50672857D01*
X128850000Y-50768095D01*
X128754761Y-50815714D01*
X128707142Y-50815714D01*
X128897619Y-49482380D02*
X128850000Y-49530000D01*
X128897619Y-49577619D01*
X128945238Y-49530000D01*
X128897619Y-49482380D01*
X128897619Y-49577619D01*
X129802380Y-49815714D02*
X129802380Y-50482380D01*
X129373809Y-49815714D02*
X129373809Y-50339523D01*
X129421428Y-50434761D01*
X129516666Y-50482380D01*
X129659523Y-50482380D01*
X129754761Y-50434761D01*
X129802380Y-50387142D01*
X130230952Y-50434761D02*
X130326190Y-50482380D01*
X130516666Y-50482380D01*
X130611904Y-50434761D01*
X130659523Y-50339523D01*
X130659523Y-50291904D01*
X130611904Y-50196666D01*
X130516666Y-50149047D01*
X130373809Y-50149047D01*
X130278571Y-50101428D01*
X130230952Y-50006190D01*
X130230952Y-49958571D01*
X130278571Y-49863333D01*
X130373809Y-49815714D01*
X130516666Y-49815714D01*
X130611904Y-49863333D01*
X130945238Y-49815714D02*
X131326190Y-49815714D01*
X131088095Y-49482380D02*
X131088095Y-50339523D01*
X131135714Y-50434761D01*
X131230952Y-50482380D01*
X131326190Y-50482380D01*
X132373809Y-50434761D02*
X132516666Y-50482380D01*
X132754761Y-50482380D01*
X132850000Y-50434761D01*
X132897619Y-50387142D01*
X132945238Y-50291904D01*
X132945238Y-50196666D01*
X132897619Y-50101428D01*
X132850000Y-50053809D01*
X132754761Y-50006190D01*
X132564285Y-49958571D01*
X132469047Y-49910952D01*
X132421428Y-49863333D01*
X132373809Y-49768095D01*
X132373809Y-49672857D01*
X132421428Y-49577619D01*
X132469047Y-49530000D01*
X132564285Y-49482380D01*
X132802380Y-49482380D01*
X132945238Y-49530000D01*
X133754761Y-50434761D02*
X133659523Y-50482380D01*
X133469047Y-50482380D01*
X133373809Y-50434761D01*
X133326190Y-50339523D01*
X133326190Y-49958571D01*
X133373809Y-49863333D01*
X133469047Y-49815714D01*
X133659523Y-49815714D01*
X133754761Y-49863333D01*
X133802380Y-49958571D01*
X133802380Y-50053809D01*
X133326190Y-50149047D01*
X134230952Y-49815714D02*
X134230952Y-50482380D01*
X134230952Y-49910952D02*
X134278571Y-49863333D01*
X134373809Y-49815714D01*
X134516666Y-49815714D01*
X134611904Y-49863333D01*
X134659523Y-49958571D01*
X134659523Y-50482380D01*
X135088095Y-50434761D02*
X135183333Y-50482380D01*
X135373809Y-50482380D01*
X135469047Y-50434761D01*
X135516666Y-50339523D01*
X135516666Y-50291904D01*
X135469047Y-50196666D01*
X135373809Y-50149047D01*
X135230952Y-50149047D01*
X135135714Y-50101428D01*
X135088095Y-50006190D01*
X135088095Y-49958571D01*
X135135714Y-49863333D01*
X135230952Y-49815714D01*
X135373809Y-49815714D01*
X135469047Y-49863333D01*
X135945238Y-50482380D02*
X135945238Y-49815714D01*
X135945238Y-49482380D02*
X135897619Y-49530000D01*
X135945238Y-49577619D01*
X135992857Y-49530000D01*
X135945238Y-49482380D01*
X135945238Y-49577619D01*
X136278571Y-49815714D02*
X136659523Y-49815714D01*
X136421428Y-49482380D02*
X136421428Y-50339523D01*
X136469047Y-50434761D01*
X136564285Y-50482380D01*
X136659523Y-50482380D01*
X136992857Y-50482380D02*
X136992857Y-49815714D01*
X136992857Y-49482380D02*
X136945238Y-49530000D01*
X136992857Y-49577619D01*
X137040476Y-49530000D01*
X136992857Y-49482380D01*
X136992857Y-49577619D01*
X137373809Y-49815714D02*
X137611904Y-50482380D01*
X137850000Y-49815714D01*
X138230952Y-50482380D02*
X138230952Y-49815714D01*
X138230952Y-49482380D02*
X138183333Y-49530000D01*
X138230952Y-49577619D01*
X138278571Y-49530000D01*
X138230952Y-49482380D01*
X138230952Y-49577619D01*
X138564285Y-49815714D02*
X138945238Y-49815714D01*
X138707142Y-49482380D02*
X138707142Y-50339523D01*
X138754761Y-50434761D01*
X138850000Y-50482380D01*
X138945238Y-50482380D01*
X139183333Y-49815714D02*
X139421428Y-50482380D01*
X139659523Y-49815714D02*
X139421428Y-50482380D01*
X139326190Y-50720476D01*
X139278571Y-50768095D01*
X139183333Y-50815714D01*
D11*
G04 #@! TO.C,J1*
X128240000Y-64330000D02*
X128240000Y-68350000D01*
X128240000Y-68350000D02*
X138460000Y-68350000D01*
X138460000Y-68350000D02*
X138460000Y-64330000D01*
X138460000Y-64330000D02*
X128240000Y-64330000D01*
X128240000Y-66040000D02*
X128740000Y-66040000D01*
X128740000Y-66040000D02*
X128740000Y-64830000D01*
X128740000Y-64830000D02*
X137960000Y-64830000D01*
X137960000Y-64830000D02*
X137960000Y-66040000D01*
X137960000Y-66040000D02*
X138460000Y-66040000D01*
X128240000Y-66850000D02*
X129240000Y-66850000D01*
X129240000Y-66850000D02*
X129240000Y-68350000D01*
X138460000Y-66850000D02*
X137460000Y-66850000D01*
X137460000Y-66850000D02*
X137460000Y-68350000D01*
X127940000Y-66150000D02*
X127940000Y-68650000D01*
X127940000Y-68650000D02*
X130440000Y-68650000D01*
G04 #@! TO.C,R1*
X133611252Y-54050000D02*
X133088748Y-54050000D01*
X133611252Y-52630000D02*
X133088748Y-52630000D01*
G04 #@! TO.C,RV1*
X130830000Y-61380000D02*
X130830000Y-56540000D01*
X135870000Y-61380000D02*
X135870000Y-56540000D01*
X130830000Y-61380000D02*
X132110000Y-61380000D01*
X134590000Y-61380000D02*
X135870000Y-61380000D01*
X130830000Y-56540000D02*
X131310000Y-56540000D01*
X133090000Y-56540000D02*
X133610000Y-56540000D01*
X135390000Y-56540000D02*
X135870000Y-56540000D01*
X131210000Y-61380000D02*
X131210000Y-61380000D01*
X131210000Y-61380000D02*
X132110000Y-61380000D01*
X131210000Y-61380000D02*
X132110000Y-61380000D01*
G04 #@! TO.C,J1*
D12*
X133016666Y-62692380D02*
X133016666Y-63406666D01*
X132969047Y-63549523D01*
X132873809Y-63644761D01*
X132730952Y-63692380D01*
X132635714Y-63692380D01*
X134016666Y-63692380D02*
X133445238Y-63692380D01*
X133730952Y-63692380D02*
X133730952Y-62692380D01*
X133635714Y-62835238D01*
X133540476Y-62930476D01*
X133445238Y-62978095D01*
G04 #@! TO.C,R1*
X133183333Y-55442380D02*
X132850000Y-54966190D01*
X132611904Y-55442380D02*
X132611904Y-54442380D01*
X132992857Y-54442380D01*
X133088095Y-54490000D01*
X133135714Y-54537619D01*
X133183333Y-54632857D01*
X133183333Y-54775714D01*
X133135714Y-54870952D01*
X133088095Y-54918571D01*
X132992857Y-54966190D01*
X132611904Y-54966190D01*
X134135714Y-55442380D02*
X133564285Y-55442380D01*
X133850000Y-55442380D02*
X133850000Y-54442380D01*
X133754761Y-54585238D01*
X133659523Y-54680476D01*
X133564285Y-54728095D01*
G04 #@! TO.C,RV1*
X130152380Y-59555238D02*
X129676190Y-59888571D01*
X130152380Y-60126666D02*
X129152380Y-60126666D01*
X129152380Y-59745714D01*
X129200000Y-59650476D01*
X129247619Y-59602857D01*
X129342857Y-59555238D01*
X129485714Y-59555238D01*
X129580952Y-59602857D01*
X129628571Y-59650476D01*
X129676190Y-59745714D01*
X129676190Y-60126666D01*
X129152380Y-59269523D02*
X130152380Y-58936190D01*
X129152380Y-58602857D01*
X130152380Y-57745714D02*
X130152380Y-58317142D01*
X130152380Y-58031428D02*
X129152380Y-58031428D01*
X129295238Y-58126666D01*
X129390476Y-58221904D01*
X129438095Y-58317142D01*
G04 #@! TD*
M02*
