G04 #@! TF.GenerationSoftware,KiCad,Pcbnew,(5.0.0-3-g5ebb6b6)*
G04 #@! TF.CreationDate,2019-03-28T22:34:17+01:00*
G04 #@! TF.ProjectId,tt_nano_HAT_b2,74745F6E616E6F5F4841545F62322E6B,rev?*
G04 #@! TF.SameCoordinates,Original*
G04 #@! TF.FileFunction,Copper,L2,Bot,Signal*
G04 #@! TF.FilePolarity,Positive*
%FSLAX46Y46*%
G04 Gerber Fmt 4.6, Leading zero omitted, Abs format (unit mm)*
G04 Created by KiCad (PCBNEW (5.0.0-3-g5ebb6b6)) date Thursday, 28. March 2019 um 22:34:17*
%MOMM*%
%LPD*%
G01*
G04 APERTURE LIST*
G04 #@! TA.AperFunction,ComponentPad*
%ADD10C,5.600000*%
G04 #@! TD*
G04 #@! TA.AperFunction,ComponentPad*
%ADD11O,1.600000X1.600000*%
G04 #@! TD*
G04 #@! TA.AperFunction,ComponentPad*
%ADD12R,1.600000X1.600000*%
G04 #@! TD*
G04 #@! TA.AperFunction,ComponentPad*
%ADD13O,1.700000X1.950000*%
G04 #@! TD*
G04 #@! TA.AperFunction,ComponentPad*
%ADD14R,1.700000X1.950000*%
G04 #@! TD*
G04 #@! TA.AperFunction,ComponentPad*
%ADD15R,1.700000X1.700000*%
G04 #@! TD*
G04 #@! TA.AperFunction,ComponentPad*
%ADD16O,1.700000X1.700000*%
G04 #@! TD*
G04 #@! TA.AperFunction,ComponentPad*
%ADD17C,1.600000*%
G04 #@! TD*
G04 #@! TA.AperFunction,Conductor*
%ADD18C,0.250000*%
G04 #@! TD*
G04 #@! TA.AperFunction,Conductor*
%ADD19C,0.254000*%
G04 #@! TD*
G04 APERTURE END LIST*
D10*
G04 #@! TO.P,,1*
G04 #@! TO.N,N/C*
X137500000Y-87500000D03*
G04 #@! TD*
G04 #@! TO.P,,1*
G04 #@! TO.N,N/C*
X137500000Y-36500000D03*
G04 #@! TD*
G04 #@! TO.P,,1*
G04 #@! TO.N,N/C*
X163500000Y-87500000D03*
G04 #@! TD*
D11*
G04 #@! TO.P,A1,16*
G04 #@! TO.N,Net-(A1-Pad16)*
X158130000Y-89175001D03*
G04 #@! TO.P,A1,15*
G04 #@! TO.N,Net-(A1-Pad15)*
X142890000Y-89175001D03*
G04 #@! TO.P,A1,30*
G04 #@! TO.N,Net-(A1-Pad30)*
X158130000Y-53615001D03*
G04 #@! TO.P,A1,14*
G04 #@! TO.N,Net-(A1-Pad14)*
X142890000Y-86635001D03*
G04 #@! TO.P,A1,29*
G04 #@! TO.N,GND*
X158130000Y-56155001D03*
G04 #@! TO.P,A1,13*
G04 #@! TO.N,Net-(A1-Pad13)*
X142890000Y-84095001D03*
G04 #@! TO.P,A1,28*
G04 #@! TO.N,N/C*
X158130000Y-58695001D03*
G04 #@! TO.P,A1,12*
G04 #@! TO.N,Net-(A1-Pad12)*
X142890000Y-81555001D03*
G04 #@! TO.P,A1,27*
G04 #@! TO.N,Net-(A1-Pad27)*
X158130000Y-61235001D03*
G04 #@! TO.P,A1,11*
G04 #@! TO.N,Net-(A1-Pad11)*
X142890000Y-79015001D03*
G04 #@! TO.P,A1,26*
G04 #@! TO.N,Net-(A1-Pad26)*
X158130000Y-63775001D03*
G04 #@! TO.P,A1,10*
G04 #@! TO.N,Net-(A1-Pad10)*
X142890000Y-76475001D03*
G04 #@! TO.P,A1,25*
G04 #@! TO.N,Net-(A1-Pad25)*
X158130000Y-66315001D03*
G04 #@! TO.P,A1,9*
G04 #@! TO.N,Net-(A1-Pad9)*
X142890000Y-73935001D03*
G04 #@! TO.P,A1,24*
G04 #@! TO.N,Net-(A1-Pad24)*
X158130000Y-68855001D03*
G04 #@! TO.P,A1,8*
G04 #@! TO.N,Net-(A1-Pad8)*
X142890000Y-71395001D03*
G04 #@! TO.P,A1,23*
G04 #@! TO.N,Net-(A1-Pad23)*
X158130000Y-71395001D03*
G04 #@! TO.P,A1,7*
G04 #@! TO.N,Net-(A1-Pad7)*
X142890000Y-68855001D03*
G04 #@! TO.P,A1,22*
G04 #@! TO.N,Net-(A1-Pad22)*
X158130000Y-73935001D03*
G04 #@! TO.P,A1,6*
G04 #@! TO.N,Net-(A1-Pad6)*
X142890000Y-66315001D03*
G04 #@! TO.P,A1,21*
G04 #@! TO.N,Net-(A1-Pad21)*
X158130000Y-76475001D03*
G04 #@! TO.P,A1,5*
G04 #@! TO.N,Net-(A1-Pad5)*
X142890000Y-63775001D03*
G04 #@! TO.P,A1,20*
G04 #@! TO.N,Net-(A1-Pad20)*
X158130000Y-79015001D03*
G04 #@! TO.P,A1,4*
G04 #@! TO.N,N/C*
X142890000Y-61235001D03*
G04 #@! TO.P,A1,19*
G04 #@! TO.N,Net-(A1-Pad19)*
X158130000Y-81555001D03*
G04 #@! TO.P,A1,3*
G04 #@! TO.N,N/C*
X142890000Y-58695001D03*
G04 #@! TO.P,A1,18*
X158130000Y-84095001D03*
G04 #@! TO.P,A1,2*
G04 #@! TO.N,Net-(A1-Pad2)*
X142890000Y-56155001D03*
G04 #@! TO.P,A1,17*
G04 #@! TO.N,Net-(A1-Pad17)*
X158130000Y-86635001D03*
D12*
G04 #@! TO.P,A1,1*
G04 #@! TO.N,Net-(A1-Pad1)*
X142890000Y-53615001D03*
G04 #@! TD*
D13*
G04 #@! TO.P,J7,3*
G04 #@! TO.N,Net-(A1-Pad27)*
X153000000Y-61830000D03*
G04 #@! TO.P,J7,2*
G04 #@! TO.N,Net-(A1-Pad22)*
X150500000Y-61830000D03*
D14*
G04 #@! TO.P,J7,1*
G04 #@! TO.N,GND*
X148000000Y-61830000D03*
G04 #@! TD*
D15*
G04 #@! TO.P,J3,1*
G04 #@! TO.N,Net-(A1-Pad27)*
X161500000Y-73000000D03*
D16*
G04 #@! TO.P,J3,2*
G04 #@! TO.N,GND*
X161500000Y-75540000D03*
G04 #@! TO.P,J3,3*
G04 #@! TO.N,Net-(A1-Pad23)*
X161500000Y-78080000D03*
G04 #@! TO.P,J3,4*
G04 #@! TO.N,Net-(A1-Pad24)*
X161500000Y-80620000D03*
G04 #@! TD*
D14*
G04 #@! TO.P,J4,1*
G04 #@! TO.N,GND*
X148000000Y-80010000D03*
D13*
G04 #@! TO.P,J4,2*
G04 #@! TO.N,Net-(A1-Pad19)*
X150500000Y-80010000D03*
G04 #@! TO.P,J4,3*
G04 #@! TO.N,Net-(A1-Pad27)*
X153000000Y-80010000D03*
G04 #@! TD*
G04 #@! TO.P,J5,3*
G04 #@! TO.N,Net-(A1-Pad27)*
X153000000Y-74130000D03*
G04 #@! TO.P,J5,2*
G04 #@! TO.N,Net-(A1-Pad20)*
X150500000Y-74130000D03*
D14*
G04 #@! TO.P,J5,1*
G04 #@! TO.N,GND*
X148000000Y-74130000D03*
G04 #@! TD*
G04 #@! TO.P,J6,1*
G04 #@! TO.N,GND*
X148000000Y-67980000D03*
D13*
G04 #@! TO.P,J6,2*
G04 #@! TO.N,Net-(A1-Pad21)*
X150500000Y-67980000D03*
G04 #@! TO.P,J6,3*
G04 #@! TO.N,Net-(A1-Pad27)*
X153000000Y-67980000D03*
G04 #@! TD*
D14*
G04 #@! TO.P,J8,1*
G04 #@! TO.N,GND*
X148000000Y-55680000D03*
D13*
G04 #@! TO.P,J8,2*
G04 #@! TO.N,Net-(A1-Pad25)*
X150500000Y-55680000D03*
G04 #@! TO.P,J8,3*
G04 #@! TO.N,Net-(A1-Pad27)*
X153000000Y-55680000D03*
G04 #@! TD*
G04 #@! TO.P,J9,3*
G04 #@! TO.N,Net-(A1-Pad27)*
X153000000Y-49530000D03*
G04 #@! TO.P,J9,2*
G04 #@! TO.N,Net-(A1-Pad26)*
X150500000Y-49530000D03*
D14*
G04 #@! TO.P,J9,1*
G04 #@! TO.N,GND*
X148000000Y-49530000D03*
G04 #@! TD*
D16*
G04 #@! TO.P,J1,4*
G04 #@! TO.N,Net-(A1-Pad1)*
X154320000Y-85090000D03*
G04 #@! TO.P,J1,3*
G04 #@! TO.N,Net-(A1-Pad17)*
X151780000Y-85090000D03*
G04 #@! TO.P,J1,2*
G04 #@! TO.N,Net-(A1-Pad2)*
X149240000Y-85090000D03*
D15*
G04 #@! TO.P,J1,1*
G04 #@! TO.N,Net-(A1-Pad17)*
X146700000Y-85090000D03*
G04 #@! TD*
D11*
G04 #@! TO.P,R1,2*
G04 #@! TO.N,Net-(A1-Pad1)*
X154540000Y-89000000D03*
D17*
G04 #@! TO.P,R1,1*
G04 #@! TO.N,GND*
X152000000Y-89000000D03*
G04 #@! TD*
G04 #@! TO.P,R2,1*
G04 #@! TO.N,Net-(A1-Pad6)*
X165000000Y-51000000D03*
D11*
G04 #@! TO.P,R2,2*
G04 #@! TO.N,Net-(J2-Pad1)*
X165000000Y-40840000D03*
G04 #@! TD*
G04 #@! TO.P,R3,2*
G04 #@! TO.N,Net-(J2-Pad2)*
X162000000Y-40840000D03*
D17*
G04 #@! TO.P,R3,1*
G04 #@! TO.N,Net-(A1-Pad7)*
X162000000Y-51000000D03*
G04 #@! TD*
G04 #@! TO.P,R4,1*
G04 #@! TO.N,Net-(A1-Pad8)*
X139500000Y-52000000D03*
D11*
G04 #@! TO.P,R4,2*
G04 #@! TO.N,Net-(J2-Pad3)*
X139500000Y-41840000D03*
G04 #@! TD*
G04 #@! TO.P,R5,2*
G04 #@! TO.N,Net-(J2-Pad4)*
X136500000Y-41840000D03*
D17*
G04 #@! TO.P,R5,1*
G04 #@! TO.N,Net-(A1-Pad9)*
X136500000Y-52000000D03*
G04 #@! TD*
G04 #@! TO.P,R6,1*
G04 #@! TO.N,Net-(A1-Pad10)*
X139500000Y-64500000D03*
D11*
G04 #@! TO.P,R6,2*
G04 #@! TO.N,Net-(J2-Pad5)*
X139500000Y-54340000D03*
G04 #@! TD*
G04 #@! TO.P,R7,2*
G04 #@! TO.N,Net-(J2-Pad6)*
X136500000Y-54340000D03*
D17*
G04 #@! TO.P,R7,1*
G04 #@! TO.N,Net-(A1-Pad11)*
X136500000Y-64500000D03*
G04 #@! TD*
G04 #@! TO.P,R8,1*
G04 #@! TO.N,GND*
X149000000Y-89000000D03*
D11*
G04 #@! TO.P,R8,2*
G04 #@! TO.N,Net-(A1-Pad2)*
X146460000Y-89000000D03*
G04 #@! TD*
D15*
G04 #@! TO.P,J2,1*
G04 #@! TO.N,Net-(J2-Pad1)*
X156500000Y-41000000D03*
D16*
G04 #@! TO.P,J2,2*
G04 #@! TO.N,Net-(J2-Pad2)*
X153960000Y-41000000D03*
G04 #@! TO.P,J2,3*
G04 #@! TO.N,Net-(J2-Pad3)*
X151420000Y-41000000D03*
G04 #@! TO.P,J2,4*
G04 #@! TO.N,Net-(J2-Pad4)*
X148880000Y-41000000D03*
G04 #@! TO.P,J2,5*
G04 #@! TO.N,Net-(J2-Pad5)*
X146340000Y-41000000D03*
G04 #@! TO.P,J2,6*
G04 #@! TO.N,Net-(J2-Pad6)*
X143800000Y-41000000D03*
G04 #@! TD*
G04 #@! TO.P,J10,6*
G04 #@! TO.N,GND*
X143800000Y-44000000D03*
G04 #@! TO.P,J10,5*
X146340000Y-44000000D03*
G04 #@! TO.P,J10,4*
X148880000Y-44000000D03*
G04 #@! TO.P,J10,3*
X151420000Y-44000000D03*
G04 #@! TO.P,J10,2*
X153960000Y-44000000D03*
D15*
G04 #@! TO.P,J10,1*
X156500000Y-44000000D03*
G04 #@! TD*
G04 #@! TO.P,J11,1*
G04 #@! TO.N,GND*
X161000000Y-56170000D03*
D16*
G04 #@! TO.P,J11,2*
G04 #@! TO.N,Net-(A1-Pad30)*
X161000000Y-53630000D03*
G04 #@! TD*
D15*
G04 #@! TO.P,J12,1*
G04 #@! TO.N,Net-(A1-Pad5)*
X139000000Y-69000000D03*
D16*
G04 #@! TO.P,J12,2*
G04 #@! TO.N,Net-(A1-Pad12)*
X139000000Y-71540000D03*
G04 #@! TO.P,J12,3*
G04 #@! TO.N,Net-(A1-Pad13)*
X139000000Y-74080000D03*
G04 #@! TO.P,J12,4*
G04 #@! TO.N,Net-(A1-Pad14)*
X139000000Y-76620000D03*
G04 #@! TO.P,J12,5*
G04 #@! TO.N,Net-(A1-Pad15)*
X139000000Y-79160000D03*
G04 #@! TO.P,J12,6*
G04 #@! TO.N,Net-(A1-Pad16)*
X139000000Y-81700000D03*
G04 #@! TD*
D10*
G04 #@! TO.P,,1*
G04 #@! TO.N,N/C*
X163500000Y-36500000D03*
G04 #@! TD*
D18*
G04 #@! TO.N,Net-(A1-Pad19)*
X150500000Y-80135000D02*
X150500000Y-80010000D01*
X150500000Y-80010000D02*
X150500000Y-78785000D01*
G04 #@! TO.N,Net-(A1-Pad21)*
X157330001Y-75675002D02*
X158130000Y-76475001D01*
X150500000Y-68845001D02*
X157330001Y-75675002D01*
X150500000Y-67980000D02*
X150500000Y-68845001D01*
G04 #@! TO.N,Net-(A1-Pad6)*
X164200001Y-50200001D02*
X165000000Y-51000000D01*
X161779980Y-47779980D02*
X164200001Y-50200001D01*
X146703608Y-47779980D02*
X161779980Y-47779980D01*
X144015001Y-50468587D02*
X146703608Y-47779980D01*
X144015001Y-65190000D02*
X144015001Y-50468587D01*
X142890000Y-66315001D02*
X144015001Y-65190000D01*
G04 #@! TO.N,Net-(A1-Pad22)*
X150797499Y-61235001D02*
X150202500Y-61830000D01*
X157004999Y-72810000D02*
X157330001Y-73135002D01*
X150500000Y-63055000D02*
X157004999Y-69559999D01*
X157330001Y-73135002D02*
X158130000Y-73935001D01*
X157004999Y-69559999D02*
X157004999Y-72810000D01*
X150500000Y-61830000D02*
X150500000Y-63055000D01*
G04 #@! TO.N,Net-(A1-Pad7)*
X142890000Y-68855001D02*
X145000000Y-66745001D01*
X159229990Y-48229990D02*
X161200001Y-50200001D01*
X146890008Y-48229990D02*
X159229990Y-48229990D01*
X161200001Y-50200001D02*
X162000000Y-51000000D01*
X145000000Y-50119998D02*
X146890008Y-48229990D01*
X145000000Y-66745001D02*
X145000000Y-50119998D01*
G04 #@! TO.N,Net-(A1-Pad23)*
X162349999Y-77230001D02*
X161500000Y-78080000D01*
X162675001Y-76904999D02*
X162349999Y-77230001D01*
X162675001Y-71889999D02*
X162675001Y-76904999D01*
X162180003Y-71395001D02*
X162675001Y-71889999D01*
X158130000Y-71395001D02*
X162180003Y-71395001D01*
G04 #@! TO.N,Net-(A1-Pad24)*
X163125011Y-78994989D02*
X162349999Y-79770001D01*
X162349999Y-79770001D02*
X161500000Y-80620000D01*
X163125011Y-71703599D02*
X163125011Y-78994989D01*
X160276413Y-68855001D02*
X163125011Y-71703599D01*
X158130000Y-68855001D02*
X160276413Y-68855001D01*
G04 #@! TO.N,Net-(A1-Pad25)*
X157330001Y-65515002D02*
X158130000Y-66315001D01*
X157004999Y-65190000D02*
X157330001Y-65515002D01*
X157004999Y-63409999D02*
X157004999Y-65190000D01*
X150500000Y-56905000D02*
X157004999Y-63409999D01*
X150500000Y-55680000D02*
X150500000Y-56905000D01*
G04 #@! TO.N,Net-(A1-Pad26)*
X151675010Y-57320011D02*
X157330001Y-62975002D01*
X151675010Y-55068295D02*
X151675010Y-57320011D01*
X157330001Y-62975002D02*
X158130000Y-63775001D01*
X150500000Y-53893285D02*
X151675010Y-55068295D01*
X150500000Y-49530000D02*
X150500000Y-53893285D01*
G04 #@! TO.N,Net-(A1-Pad27)*
X153000000Y-49530000D02*
X153000000Y-55680000D01*
G04 #@! TO.N,Net-(A1-Pad16)*
X141764999Y-89715002D02*
X142549997Y-90500000D01*
X141764999Y-87139997D02*
X141764999Y-89715002D01*
X139000000Y-84374998D02*
X141764999Y-87139997D01*
X139000000Y-81700000D02*
X139000000Y-84374998D01*
X156805001Y-90500000D02*
X158130000Y-89175001D01*
X142549997Y-90500000D02*
X156805001Y-90500000D01*
G04 #@! TO.N,Net-(J2-Pad1)*
X164200001Y-41639999D02*
X165000000Y-40840000D01*
X163874999Y-41965001D02*
X164200001Y-41639999D01*
X158565001Y-41965001D02*
X163874999Y-41965001D01*
X157600000Y-41000000D02*
X158565001Y-41965001D01*
X156500000Y-41000000D02*
X157600000Y-41000000D01*
G04 #@! TO.N,Net-(J2-Pad2)*
X161200001Y-40040001D02*
X162000000Y-40840000D01*
X160984999Y-39824999D02*
X161200001Y-40040001D01*
X155135001Y-39824999D02*
X160984999Y-39824999D01*
X153960000Y-41000000D02*
X155135001Y-39824999D01*
G04 #@! TO.N,Net-(J2-Pad3)*
X149780001Y-42639999D02*
X150570001Y-41849999D01*
X150570001Y-41849999D02*
X151420000Y-41000000D01*
X140299999Y-42639999D02*
X149780001Y-42639999D01*
X139500000Y-41840000D02*
X140299999Y-42639999D01*
G04 #@! TO.N,Net-(J2-Pad4)*
X148030001Y-40150001D02*
X148880000Y-41000000D01*
X147380000Y-39500000D02*
X148030001Y-40150001D01*
X138840000Y-39500000D02*
X147380000Y-39500000D01*
X136500000Y-41840000D02*
X138840000Y-39500000D01*
G04 #@! TO.N,Net-(A1-Pad30)*
X158144999Y-53630000D02*
X158130000Y-53615001D01*
X161000000Y-53630000D02*
X158144999Y-53630000D01*
G04 #@! TO.N,Net-(A1-Pad13)*
X139000000Y-74500000D02*
X139000000Y-74080000D01*
X140175001Y-75675001D02*
X139000000Y-74500000D01*
X140175001Y-81380002D02*
X140175001Y-75675001D01*
X142890000Y-84095001D02*
X140175001Y-81380002D01*
G04 #@! TO.N,Net-(A1-Pad12)*
X139849999Y-72389999D02*
X139000000Y-71540000D01*
X140625011Y-79290012D02*
X140625011Y-73165011D01*
X140625011Y-73165011D02*
X139849999Y-72389999D01*
X142890000Y-81555001D02*
X140625011Y-79290012D01*
G04 #@! TO.N,Net-(A1-Pad5)*
X139000000Y-67665001D02*
X142890000Y-63775001D01*
X139000000Y-69000000D02*
X139000000Y-67665001D01*
G04 #@! TO.N,Net-(A1-Pad2)*
X149240000Y-86220000D02*
X149240000Y-85090000D01*
X146460000Y-89000000D02*
X149240000Y-86220000D01*
G04 #@! TO.N,Net-(A1-Pad1)*
X154320000Y-88780000D02*
X154540000Y-89000000D01*
X154320000Y-85090000D02*
X154320000Y-88780000D01*
G04 #@! TO.N,GND*
X156500000Y-44000000D02*
X143800000Y-44000000D01*
X158144999Y-56170000D02*
X158130000Y-56155001D01*
X161000000Y-56170000D02*
X158144999Y-56170000D01*
G04 #@! TD*
D19*
G04 #@! TO.N,GND*
G36*
X166765001Y-86406322D02*
X166412053Y-85554229D01*
X165445771Y-84587947D01*
X164183264Y-84065000D01*
X162816736Y-84065000D01*
X161554229Y-84587947D01*
X160587947Y-85554229D01*
X160065000Y-86816736D01*
X160065000Y-88183264D01*
X160587947Y-89445771D01*
X161554229Y-90412053D01*
X162406319Y-90765000D01*
X157614802Y-90765000D01*
X157806114Y-90573689D01*
X157988667Y-90610001D01*
X158271333Y-90610001D01*
X158689909Y-90526741D01*
X159164577Y-90209578D01*
X159481740Y-89734910D01*
X159593113Y-89175001D01*
X159481740Y-88615092D01*
X159164577Y-88140424D01*
X158812242Y-87905001D01*
X159164577Y-87669578D01*
X159481740Y-87194910D01*
X159593113Y-86635001D01*
X159481740Y-86075092D01*
X159164577Y-85600424D01*
X158812242Y-85365001D01*
X159164577Y-85129578D01*
X159481740Y-84654910D01*
X159593113Y-84095001D01*
X159481740Y-83535092D01*
X159164577Y-83060424D01*
X158812242Y-82825001D01*
X159164577Y-82589578D01*
X159481740Y-82114910D01*
X159593113Y-81555001D01*
X159481740Y-80995092D01*
X159164577Y-80520424D01*
X158812242Y-80285001D01*
X159164577Y-80049578D01*
X159481740Y-79574910D01*
X159593113Y-79015001D01*
X159481740Y-78455092D01*
X159164577Y-77980424D01*
X158812242Y-77745001D01*
X159164577Y-77509578D01*
X159481740Y-77034910D01*
X159593113Y-76475001D01*
X159481740Y-75915092D01*
X159164577Y-75440424D01*
X158812242Y-75205001D01*
X159164577Y-74969578D01*
X159481740Y-74494910D01*
X159593113Y-73935001D01*
X159481740Y-73375092D01*
X159164577Y-72900424D01*
X158812242Y-72665001D01*
X159164577Y-72429578D01*
X159348043Y-72155001D01*
X160002560Y-72155001D01*
X160002560Y-73850000D01*
X160051843Y-74097765D01*
X160192191Y-74307809D01*
X160402235Y-74448157D01*
X160505708Y-74468739D01*
X160228355Y-74773076D01*
X160058524Y-75183110D01*
X160179845Y-75413000D01*
X161373000Y-75413000D01*
X161373000Y-75393000D01*
X161627000Y-75393000D01*
X161627000Y-75413000D01*
X161647000Y-75413000D01*
X161647000Y-75667000D01*
X161627000Y-75667000D01*
X161627000Y-75687000D01*
X161373000Y-75687000D01*
X161373000Y-75667000D01*
X160179845Y-75667000D01*
X160058524Y-75896890D01*
X160228355Y-76306924D01*
X160618642Y-76735183D01*
X160748478Y-76796157D01*
X160429375Y-77009375D01*
X160101161Y-77500582D01*
X159985908Y-78080000D01*
X160101161Y-78659418D01*
X160429375Y-79150625D01*
X160727761Y-79350000D01*
X160429375Y-79549375D01*
X160101161Y-80040582D01*
X159985908Y-80620000D01*
X160101161Y-81199418D01*
X160429375Y-81690625D01*
X160920582Y-82018839D01*
X161353744Y-82105000D01*
X161646256Y-82105000D01*
X162079418Y-82018839D01*
X162570625Y-81690625D01*
X162898839Y-81199418D01*
X163014092Y-80620000D01*
X162941209Y-80253592D01*
X163609486Y-79585316D01*
X163672940Y-79542918D01*
X163715338Y-79479465D01*
X163715340Y-79479463D01*
X163831523Y-79305582D01*
X163840915Y-79291526D01*
X163885011Y-79069841D01*
X163885011Y-79069837D01*
X163899899Y-78994990D01*
X163885011Y-78920143D01*
X163885011Y-71778446D01*
X163899899Y-71703599D01*
X163885011Y-71628752D01*
X163885011Y-71628747D01*
X163840915Y-71407062D01*
X163672940Y-71155670D01*
X163609484Y-71113270D01*
X160866744Y-68370531D01*
X160824342Y-68307072D01*
X160572950Y-68139097D01*
X160351265Y-68095001D01*
X160351260Y-68095001D01*
X160276413Y-68080113D01*
X160201566Y-68095001D01*
X159348043Y-68095001D01*
X159164577Y-67820424D01*
X158812242Y-67585001D01*
X159164577Y-67349578D01*
X159481740Y-66874910D01*
X159593113Y-66315001D01*
X159481740Y-65755092D01*
X159164577Y-65280424D01*
X158812242Y-65045001D01*
X159164577Y-64809578D01*
X159481740Y-64334910D01*
X159593113Y-63775001D01*
X159481740Y-63215092D01*
X159164577Y-62740424D01*
X158812242Y-62505001D01*
X159164577Y-62269578D01*
X159481740Y-61794910D01*
X159593113Y-61235001D01*
X159481740Y-60675092D01*
X159164577Y-60200424D01*
X158812242Y-59965001D01*
X159164577Y-59729578D01*
X159481740Y-59254910D01*
X159593113Y-58695001D01*
X159481740Y-58135092D01*
X159164577Y-57660424D01*
X158780892Y-57404054D01*
X158985134Y-57307390D01*
X159361041Y-56892424D01*
X159515000Y-56520709D01*
X159515000Y-57146310D01*
X159611673Y-57379699D01*
X159790302Y-57558327D01*
X160023691Y-57655000D01*
X160714250Y-57655000D01*
X160873000Y-57496250D01*
X160873000Y-56297000D01*
X161127000Y-56297000D01*
X161127000Y-57496250D01*
X161285750Y-57655000D01*
X161976309Y-57655000D01*
X162209698Y-57558327D01*
X162388327Y-57379699D01*
X162485000Y-57146310D01*
X162485000Y-56455750D01*
X162326250Y-56297000D01*
X161127000Y-56297000D01*
X160873000Y-56297000D01*
X159673750Y-56297000D01*
X159515000Y-56455750D01*
X159515000Y-56491474D01*
X159399915Y-56282001D01*
X158257000Y-56282001D01*
X158257000Y-56302001D01*
X158003000Y-56302001D01*
X158003000Y-56282001D01*
X156860085Y-56282001D01*
X156738096Y-56504040D01*
X156898959Y-56892424D01*
X157274866Y-57307390D01*
X157479108Y-57404054D01*
X157095423Y-57660424D01*
X156778260Y-58135092D01*
X156666887Y-58695001D01*
X156778260Y-59254910D01*
X157095423Y-59729578D01*
X157447758Y-59965001D01*
X157095423Y-60200424D01*
X156778260Y-60675092D01*
X156666887Y-61235001D01*
X156667405Y-61237604D01*
X152686541Y-57256741D01*
X153000000Y-57319092D01*
X153579418Y-57203839D01*
X154070625Y-56875625D01*
X154398839Y-56384417D01*
X154485000Y-55951255D01*
X154485000Y-55408744D01*
X154398839Y-54975582D01*
X154070625Y-54484375D01*
X153760000Y-54276822D01*
X153760000Y-50933178D01*
X154070625Y-50725625D01*
X154398839Y-50234417D01*
X154485000Y-49801255D01*
X154485000Y-49258744D01*
X154431542Y-48989990D01*
X158915189Y-48989990D01*
X160586896Y-50661698D01*
X160565000Y-50714561D01*
X160565000Y-51285439D01*
X160783466Y-51812862D01*
X161115604Y-52145000D01*
X160853744Y-52145000D01*
X160420582Y-52231161D01*
X159929375Y-52559375D01*
X159721822Y-52870000D01*
X159358065Y-52870000D01*
X159164577Y-52580424D01*
X158689909Y-52263261D01*
X158271333Y-52180001D01*
X157988667Y-52180001D01*
X157570091Y-52263261D01*
X157095423Y-52580424D01*
X156778260Y-53055092D01*
X156666887Y-53615001D01*
X156778260Y-54174910D01*
X157095423Y-54649578D01*
X157479108Y-54905948D01*
X157274866Y-55002612D01*
X156898959Y-55417578D01*
X156738096Y-55805962D01*
X156860085Y-56028001D01*
X158003000Y-56028001D01*
X158003000Y-56008001D01*
X158257000Y-56008001D01*
X158257000Y-56028001D01*
X159399915Y-56028001D01*
X159515000Y-55818528D01*
X159515000Y-55884250D01*
X159673750Y-56043000D01*
X160873000Y-56043000D01*
X160873000Y-56023000D01*
X161127000Y-56023000D01*
X161127000Y-56043000D01*
X162326250Y-56043000D01*
X162485000Y-55884250D01*
X162485000Y-55193690D01*
X162388327Y-54960301D01*
X162209698Y-54781673D01*
X162048967Y-54715096D01*
X162070625Y-54700625D01*
X162398839Y-54209418D01*
X162514092Y-53630000D01*
X162398839Y-53050582D01*
X162070625Y-52559375D01*
X161884485Y-52435000D01*
X162285439Y-52435000D01*
X162812862Y-52216534D01*
X163216534Y-51812862D01*
X163435000Y-51285439D01*
X163435000Y-50714561D01*
X163290213Y-50365015D01*
X163586896Y-50661698D01*
X163565000Y-50714561D01*
X163565000Y-51285439D01*
X163783466Y-51812862D01*
X164187138Y-52216534D01*
X164714561Y-52435000D01*
X165285439Y-52435000D01*
X165812862Y-52216534D01*
X166216534Y-51812862D01*
X166435000Y-51285439D01*
X166435000Y-50714561D01*
X166216534Y-50187138D01*
X165812862Y-49783466D01*
X165285439Y-49565000D01*
X164714561Y-49565000D01*
X164661698Y-49586896D01*
X162370311Y-47295510D01*
X162327909Y-47232051D01*
X162076517Y-47064076D01*
X161854832Y-47019980D01*
X161854827Y-47019980D01*
X161779980Y-47005092D01*
X161705133Y-47019980D01*
X146778454Y-47019980D01*
X146703607Y-47005092D01*
X146628760Y-47019980D01*
X146628756Y-47019980D01*
X146407071Y-47064076D01*
X146407069Y-47064077D01*
X146407070Y-47064077D01*
X146219134Y-47189651D01*
X146219132Y-47189653D01*
X146155679Y-47232051D01*
X146113281Y-47295504D01*
X143530529Y-49878258D01*
X143467073Y-49920658D01*
X143424673Y-49984114D01*
X143424672Y-49984115D01*
X143299098Y-50172050D01*
X143240113Y-50468587D01*
X143255002Y-50543439D01*
X143255002Y-52167561D01*
X142090000Y-52167561D01*
X141842235Y-52216844D01*
X141632191Y-52357192D01*
X141491843Y-52567236D01*
X141442560Y-52815001D01*
X141442560Y-54415001D01*
X141491843Y-54662766D01*
X141632191Y-54872810D01*
X141842235Y-55013158D01*
X141976106Y-55039786D01*
X141855423Y-55120424D01*
X141538260Y-55595092D01*
X141426887Y-56155001D01*
X141538260Y-56714910D01*
X141855423Y-57189578D01*
X142207758Y-57425001D01*
X141855423Y-57660424D01*
X141538260Y-58135092D01*
X141426887Y-58695001D01*
X141538260Y-59254910D01*
X141855423Y-59729578D01*
X142207758Y-59965001D01*
X141855423Y-60200424D01*
X141538260Y-60675092D01*
X141426887Y-61235001D01*
X141538260Y-61794910D01*
X141855423Y-62269578D01*
X142207758Y-62505001D01*
X141855423Y-62740424D01*
X141538260Y-63215092D01*
X141426887Y-63775001D01*
X141491312Y-64098887D01*
X140935000Y-64655199D01*
X140935000Y-64214561D01*
X140716534Y-63687138D01*
X140312862Y-63283466D01*
X139785439Y-63065000D01*
X139214561Y-63065000D01*
X138687138Y-63283466D01*
X138283466Y-63687138D01*
X138065000Y-64214561D01*
X138065000Y-64785439D01*
X138283466Y-65312862D01*
X138687138Y-65716534D01*
X139214561Y-65935000D01*
X139655200Y-65935000D01*
X138515528Y-67074672D01*
X138452072Y-67117072D01*
X138409672Y-67180528D01*
X138409671Y-67180529D01*
X138284097Y-67368464D01*
X138257424Y-67502560D01*
X138150000Y-67502560D01*
X137902235Y-67551843D01*
X137692191Y-67692191D01*
X137551843Y-67902235D01*
X137502560Y-68150000D01*
X137502560Y-69850000D01*
X137551843Y-70097765D01*
X137692191Y-70307809D01*
X137902235Y-70448157D01*
X137947619Y-70457184D01*
X137929375Y-70469375D01*
X137601161Y-70960582D01*
X137485908Y-71540000D01*
X137601161Y-72119418D01*
X137929375Y-72610625D01*
X138227761Y-72810000D01*
X137929375Y-73009375D01*
X137601161Y-73500582D01*
X137485908Y-74080000D01*
X137601161Y-74659418D01*
X137929375Y-75150625D01*
X138227761Y-75350000D01*
X137929375Y-75549375D01*
X137601161Y-76040582D01*
X137485908Y-76620000D01*
X137601161Y-77199418D01*
X137929375Y-77690625D01*
X138227761Y-77890000D01*
X137929375Y-78089375D01*
X137601161Y-78580582D01*
X137485908Y-79160000D01*
X137601161Y-79739418D01*
X137929375Y-80230625D01*
X138227761Y-80430000D01*
X137929375Y-80629375D01*
X137601161Y-81120582D01*
X137485908Y-81700000D01*
X137601161Y-82279418D01*
X137929375Y-82770625D01*
X138240000Y-82978178D01*
X138240001Y-84088501D01*
X138183264Y-84065000D01*
X136816736Y-84065000D01*
X135554229Y-84587947D01*
X134587947Y-85554229D01*
X134235000Y-86406319D01*
X134235000Y-64214561D01*
X135065000Y-64214561D01*
X135065000Y-64785439D01*
X135283466Y-65312862D01*
X135687138Y-65716534D01*
X136214561Y-65935000D01*
X136785439Y-65935000D01*
X137312862Y-65716534D01*
X137716534Y-65312862D01*
X137935000Y-64785439D01*
X137935000Y-64214561D01*
X137716534Y-63687138D01*
X137312862Y-63283466D01*
X136785439Y-63065000D01*
X136214561Y-63065000D01*
X135687138Y-63283466D01*
X135283466Y-63687138D01*
X135065000Y-64214561D01*
X134235000Y-64214561D01*
X134235000Y-54340000D01*
X135036887Y-54340000D01*
X135148260Y-54899909D01*
X135465423Y-55374577D01*
X135940091Y-55691740D01*
X136358667Y-55775000D01*
X136641333Y-55775000D01*
X137059909Y-55691740D01*
X137534577Y-55374577D01*
X137851740Y-54899909D01*
X137963113Y-54340000D01*
X138036887Y-54340000D01*
X138148260Y-54899909D01*
X138465423Y-55374577D01*
X138940091Y-55691740D01*
X139358667Y-55775000D01*
X139641333Y-55775000D01*
X140059909Y-55691740D01*
X140534577Y-55374577D01*
X140851740Y-54899909D01*
X140963113Y-54340000D01*
X140851740Y-53780091D01*
X140534577Y-53305423D01*
X140348384Y-53181012D01*
X140716534Y-52812862D01*
X140935000Y-52285439D01*
X140935000Y-51714561D01*
X140716534Y-51187138D01*
X140312862Y-50783466D01*
X139785439Y-50565000D01*
X139214561Y-50565000D01*
X138687138Y-50783466D01*
X138283466Y-51187138D01*
X138065000Y-51714561D01*
X138065000Y-52285439D01*
X138283466Y-52812862D01*
X138651616Y-53181012D01*
X138465423Y-53305423D01*
X138148260Y-53780091D01*
X138036887Y-54340000D01*
X137963113Y-54340000D01*
X137851740Y-53780091D01*
X137534577Y-53305423D01*
X137348384Y-53181012D01*
X137716534Y-52812862D01*
X137935000Y-52285439D01*
X137935000Y-51714561D01*
X137716534Y-51187138D01*
X137312862Y-50783466D01*
X136785439Y-50565000D01*
X136214561Y-50565000D01*
X135687138Y-50783466D01*
X135283466Y-51187138D01*
X135065000Y-51714561D01*
X135065000Y-52285439D01*
X135283466Y-52812862D01*
X135651616Y-53181012D01*
X135465423Y-53305423D01*
X135148260Y-53780091D01*
X135036887Y-54340000D01*
X134235000Y-54340000D01*
X134235000Y-44356892D01*
X142358514Y-44356892D01*
X142604817Y-44881358D01*
X143033076Y-45271645D01*
X143443110Y-45441476D01*
X143673000Y-45320155D01*
X143673000Y-44127000D01*
X143927000Y-44127000D01*
X143927000Y-45320155D01*
X144156890Y-45441476D01*
X144566924Y-45271645D01*
X144995183Y-44881358D01*
X145070000Y-44722046D01*
X145144817Y-44881358D01*
X145573076Y-45271645D01*
X145983110Y-45441476D01*
X146213000Y-45320155D01*
X146213000Y-44127000D01*
X146467000Y-44127000D01*
X146467000Y-45320155D01*
X146696890Y-45441476D01*
X147106924Y-45271645D01*
X147535183Y-44881358D01*
X147610000Y-44722046D01*
X147684817Y-44881358D01*
X148113076Y-45271645D01*
X148523110Y-45441476D01*
X148753000Y-45320155D01*
X148753000Y-44127000D01*
X149007000Y-44127000D01*
X149007000Y-45320155D01*
X149236890Y-45441476D01*
X149646924Y-45271645D01*
X150075183Y-44881358D01*
X150150000Y-44722046D01*
X150224817Y-44881358D01*
X150653076Y-45271645D01*
X151063110Y-45441476D01*
X151293000Y-45320155D01*
X151293000Y-44127000D01*
X151547000Y-44127000D01*
X151547000Y-45320155D01*
X151776890Y-45441476D01*
X152186924Y-45271645D01*
X152615183Y-44881358D01*
X152690000Y-44722046D01*
X152764817Y-44881358D01*
X153193076Y-45271645D01*
X153603110Y-45441476D01*
X153833000Y-45320155D01*
X153833000Y-44127000D01*
X154087000Y-44127000D01*
X154087000Y-45320155D01*
X154316890Y-45441476D01*
X154726924Y-45271645D01*
X155024864Y-45000122D01*
X155111673Y-45209698D01*
X155290301Y-45388327D01*
X155523690Y-45485000D01*
X156214250Y-45485000D01*
X156373000Y-45326250D01*
X156373000Y-44127000D01*
X156627000Y-44127000D01*
X156627000Y-45326250D01*
X156785750Y-45485000D01*
X157476310Y-45485000D01*
X157709699Y-45388327D01*
X157888327Y-45209698D01*
X157985000Y-44976309D01*
X157985000Y-44285750D01*
X157826250Y-44127000D01*
X156627000Y-44127000D01*
X156373000Y-44127000D01*
X154087000Y-44127000D01*
X153833000Y-44127000D01*
X151547000Y-44127000D01*
X151293000Y-44127000D01*
X149007000Y-44127000D01*
X148753000Y-44127000D01*
X146467000Y-44127000D01*
X146213000Y-44127000D01*
X143927000Y-44127000D01*
X143673000Y-44127000D01*
X142479181Y-44127000D01*
X142358514Y-44356892D01*
X134235000Y-44356892D01*
X134235000Y-37593681D01*
X134587947Y-38445771D01*
X135554229Y-39412053D01*
X136816736Y-39935000D01*
X137330198Y-39935000D01*
X136823886Y-40441312D01*
X136641333Y-40405000D01*
X136358667Y-40405000D01*
X135940091Y-40488260D01*
X135465423Y-40805423D01*
X135148260Y-41280091D01*
X135036887Y-41840000D01*
X135148260Y-42399909D01*
X135465423Y-42874577D01*
X135940091Y-43191740D01*
X136358667Y-43275000D01*
X136641333Y-43275000D01*
X137059909Y-43191740D01*
X137534577Y-42874577D01*
X137851740Y-42399909D01*
X137963113Y-41840000D01*
X137898688Y-41516114D01*
X138175544Y-41239257D01*
X138148260Y-41280091D01*
X138036887Y-41840000D01*
X138148260Y-42399909D01*
X138465423Y-42874577D01*
X138940091Y-43191740D01*
X139358667Y-43275000D01*
X139641333Y-43275000D01*
X139827084Y-43238052D01*
X139882382Y-43275000D01*
X140003462Y-43355903D01*
X140225147Y-43399999D01*
X140225151Y-43399999D01*
X140299998Y-43414887D01*
X140374845Y-43399999D01*
X142472684Y-43399999D01*
X142358514Y-43643108D01*
X142479181Y-43873000D01*
X143673000Y-43873000D01*
X143673000Y-43853000D01*
X143927000Y-43853000D01*
X143927000Y-43873000D01*
X146213000Y-43873000D01*
X146213000Y-43853000D01*
X146467000Y-43853000D01*
X146467000Y-43873000D01*
X148753000Y-43873000D01*
X148753000Y-43853000D01*
X149007000Y-43853000D01*
X149007000Y-43873000D01*
X151293000Y-43873000D01*
X151293000Y-42679845D01*
X151547000Y-42679845D01*
X151547000Y-43873000D01*
X153833000Y-43873000D01*
X153833000Y-42679845D01*
X154087000Y-42679845D01*
X154087000Y-43873000D01*
X156373000Y-43873000D01*
X156373000Y-42673750D01*
X156627000Y-42673750D01*
X156627000Y-43873000D01*
X157826250Y-43873000D01*
X157985000Y-43714250D01*
X157985000Y-43023691D01*
X157888327Y-42790302D01*
X157709699Y-42611673D01*
X157476310Y-42515000D01*
X156785750Y-42515000D01*
X156627000Y-42673750D01*
X156373000Y-42673750D01*
X156214250Y-42515000D01*
X155523690Y-42515000D01*
X155290301Y-42611673D01*
X155111673Y-42790302D01*
X155024864Y-42999878D01*
X154726924Y-42728355D01*
X154316890Y-42558524D01*
X154087000Y-42679845D01*
X153833000Y-42679845D01*
X153603110Y-42558524D01*
X153193076Y-42728355D01*
X152764817Y-43118642D01*
X152690000Y-43277954D01*
X152615183Y-43118642D01*
X152186924Y-42728355D01*
X151776890Y-42558524D01*
X151547000Y-42679845D01*
X151293000Y-42679845D01*
X151063110Y-42558524D01*
X150846603Y-42648198D01*
X151053593Y-42441209D01*
X151273744Y-42485000D01*
X151566256Y-42485000D01*
X151999418Y-42398839D01*
X152490625Y-42070625D01*
X152690000Y-41772239D01*
X152889375Y-42070625D01*
X153380582Y-42398839D01*
X153813744Y-42485000D01*
X154106256Y-42485000D01*
X154539418Y-42398839D01*
X155030625Y-42070625D01*
X155042816Y-42052381D01*
X155051843Y-42097765D01*
X155192191Y-42307809D01*
X155402235Y-42448157D01*
X155650000Y-42497440D01*
X157350000Y-42497440D01*
X157597765Y-42448157D01*
X157807809Y-42307809D01*
X157817902Y-42292704D01*
X157974672Y-42449474D01*
X158017072Y-42512930D01*
X158268464Y-42680905D01*
X158490149Y-42725001D01*
X158490153Y-42725001D01*
X158565001Y-42739889D01*
X158639849Y-42725001D01*
X163800152Y-42725001D01*
X163874999Y-42739889D01*
X163949846Y-42725001D01*
X163949851Y-42725001D01*
X164171536Y-42680905D01*
X164422928Y-42512930D01*
X164465330Y-42449471D01*
X164676113Y-42238688D01*
X164858667Y-42275000D01*
X165141333Y-42275000D01*
X165559909Y-42191740D01*
X166034577Y-41874577D01*
X166351740Y-41399909D01*
X166463113Y-40840000D01*
X166351740Y-40280091D01*
X166034577Y-39805423D01*
X165559909Y-39488260D01*
X165358507Y-39448199D01*
X165445771Y-39412053D01*
X166412053Y-38445771D01*
X166765000Y-37593681D01*
X166765001Y-86406322D01*
X166765001Y-86406322D01*
G37*
X166765001Y-86406322D02*
X166412053Y-85554229D01*
X165445771Y-84587947D01*
X164183264Y-84065000D01*
X162816736Y-84065000D01*
X161554229Y-84587947D01*
X160587947Y-85554229D01*
X160065000Y-86816736D01*
X160065000Y-88183264D01*
X160587947Y-89445771D01*
X161554229Y-90412053D01*
X162406319Y-90765000D01*
X157614802Y-90765000D01*
X157806114Y-90573689D01*
X157988667Y-90610001D01*
X158271333Y-90610001D01*
X158689909Y-90526741D01*
X159164577Y-90209578D01*
X159481740Y-89734910D01*
X159593113Y-89175001D01*
X159481740Y-88615092D01*
X159164577Y-88140424D01*
X158812242Y-87905001D01*
X159164577Y-87669578D01*
X159481740Y-87194910D01*
X159593113Y-86635001D01*
X159481740Y-86075092D01*
X159164577Y-85600424D01*
X158812242Y-85365001D01*
X159164577Y-85129578D01*
X159481740Y-84654910D01*
X159593113Y-84095001D01*
X159481740Y-83535092D01*
X159164577Y-83060424D01*
X158812242Y-82825001D01*
X159164577Y-82589578D01*
X159481740Y-82114910D01*
X159593113Y-81555001D01*
X159481740Y-80995092D01*
X159164577Y-80520424D01*
X158812242Y-80285001D01*
X159164577Y-80049578D01*
X159481740Y-79574910D01*
X159593113Y-79015001D01*
X159481740Y-78455092D01*
X159164577Y-77980424D01*
X158812242Y-77745001D01*
X159164577Y-77509578D01*
X159481740Y-77034910D01*
X159593113Y-76475001D01*
X159481740Y-75915092D01*
X159164577Y-75440424D01*
X158812242Y-75205001D01*
X159164577Y-74969578D01*
X159481740Y-74494910D01*
X159593113Y-73935001D01*
X159481740Y-73375092D01*
X159164577Y-72900424D01*
X158812242Y-72665001D01*
X159164577Y-72429578D01*
X159348043Y-72155001D01*
X160002560Y-72155001D01*
X160002560Y-73850000D01*
X160051843Y-74097765D01*
X160192191Y-74307809D01*
X160402235Y-74448157D01*
X160505708Y-74468739D01*
X160228355Y-74773076D01*
X160058524Y-75183110D01*
X160179845Y-75413000D01*
X161373000Y-75413000D01*
X161373000Y-75393000D01*
X161627000Y-75393000D01*
X161627000Y-75413000D01*
X161647000Y-75413000D01*
X161647000Y-75667000D01*
X161627000Y-75667000D01*
X161627000Y-75687000D01*
X161373000Y-75687000D01*
X161373000Y-75667000D01*
X160179845Y-75667000D01*
X160058524Y-75896890D01*
X160228355Y-76306924D01*
X160618642Y-76735183D01*
X160748478Y-76796157D01*
X160429375Y-77009375D01*
X160101161Y-77500582D01*
X159985908Y-78080000D01*
X160101161Y-78659418D01*
X160429375Y-79150625D01*
X160727761Y-79350000D01*
X160429375Y-79549375D01*
X160101161Y-80040582D01*
X159985908Y-80620000D01*
X160101161Y-81199418D01*
X160429375Y-81690625D01*
X160920582Y-82018839D01*
X161353744Y-82105000D01*
X161646256Y-82105000D01*
X162079418Y-82018839D01*
X162570625Y-81690625D01*
X162898839Y-81199418D01*
X163014092Y-80620000D01*
X162941209Y-80253592D01*
X163609486Y-79585316D01*
X163672940Y-79542918D01*
X163715338Y-79479465D01*
X163715340Y-79479463D01*
X163831523Y-79305582D01*
X163840915Y-79291526D01*
X163885011Y-79069841D01*
X163885011Y-79069837D01*
X163899899Y-78994990D01*
X163885011Y-78920143D01*
X163885011Y-71778446D01*
X163899899Y-71703599D01*
X163885011Y-71628752D01*
X163885011Y-71628747D01*
X163840915Y-71407062D01*
X163672940Y-71155670D01*
X163609484Y-71113270D01*
X160866744Y-68370531D01*
X160824342Y-68307072D01*
X160572950Y-68139097D01*
X160351265Y-68095001D01*
X160351260Y-68095001D01*
X160276413Y-68080113D01*
X160201566Y-68095001D01*
X159348043Y-68095001D01*
X159164577Y-67820424D01*
X158812242Y-67585001D01*
X159164577Y-67349578D01*
X159481740Y-66874910D01*
X159593113Y-66315001D01*
X159481740Y-65755092D01*
X159164577Y-65280424D01*
X158812242Y-65045001D01*
X159164577Y-64809578D01*
X159481740Y-64334910D01*
X159593113Y-63775001D01*
X159481740Y-63215092D01*
X159164577Y-62740424D01*
X158812242Y-62505001D01*
X159164577Y-62269578D01*
X159481740Y-61794910D01*
X159593113Y-61235001D01*
X159481740Y-60675092D01*
X159164577Y-60200424D01*
X158812242Y-59965001D01*
X159164577Y-59729578D01*
X159481740Y-59254910D01*
X159593113Y-58695001D01*
X159481740Y-58135092D01*
X159164577Y-57660424D01*
X158780892Y-57404054D01*
X158985134Y-57307390D01*
X159361041Y-56892424D01*
X159515000Y-56520709D01*
X159515000Y-57146310D01*
X159611673Y-57379699D01*
X159790302Y-57558327D01*
X160023691Y-57655000D01*
X160714250Y-57655000D01*
X160873000Y-57496250D01*
X160873000Y-56297000D01*
X161127000Y-56297000D01*
X161127000Y-57496250D01*
X161285750Y-57655000D01*
X161976309Y-57655000D01*
X162209698Y-57558327D01*
X162388327Y-57379699D01*
X162485000Y-57146310D01*
X162485000Y-56455750D01*
X162326250Y-56297000D01*
X161127000Y-56297000D01*
X160873000Y-56297000D01*
X159673750Y-56297000D01*
X159515000Y-56455750D01*
X159515000Y-56491474D01*
X159399915Y-56282001D01*
X158257000Y-56282001D01*
X158257000Y-56302001D01*
X158003000Y-56302001D01*
X158003000Y-56282001D01*
X156860085Y-56282001D01*
X156738096Y-56504040D01*
X156898959Y-56892424D01*
X157274866Y-57307390D01*
X157479108Y-57404054D01*
X157095423Y-57660424D01*
X156778260Y-58135092D01*
X156666887Y-58695001D01*
X156778260Y-59254910D01*
X157095423Y-59729578D01*
X157447758Y-59965001D01*
X157095423Y-60200424D01*
X156778260Y-60675092D01*
X156666887Y-61235001D01*
X156667405Y-61237604D01*
X152686541Y-57256741D01*
X153000000Y-57319092D01*
X153579418Y-57203839D01*
X154070625Y-56875625D01*
X154398839Y-56384417D01*
X154485000Y-55951255D01*
X154485000Y-55408744D01*
X154398839Y-54975582D01*
X154070625Y-54484375D01*
X153760000Y-54276822D01*
X153760000Y-50933178D01*
X154070625Y-50725625D01*
X154398839Y-50234417D01*
X154485000Y-49801255D01*
X154485000Y-49258744D01*
X154431542Y-48989990D01*
X158915189Y-48989990D01*
X160586896Y-50661698D01*
X160565000Y-50714561D01*
X160565000Y-51285439D01*
X160783466Y-51812862D01*
X161115604Y-52145000D01*
X160853744Y-52145000D01*
X160420582Y-52231161D01*
X159929375Y-52559375D01*
X159721822Y-52870000D01*
X159358065Y-52870000D01*
X159164577Y-52580424D01*
X158689909Y-52263261D01*
X158271333Y-52180001D01*
X157988667Y-52180001D01*
X157570091Y-52263261D01*
X157095423Y-52580424D01*
X156778260Y-53055092D01*
X156666887Y-53615001D01*
X156778260Y-54174910D01*
X157095423Y-54649578D01*
X157479108Y-54905948D01*
X157274866Y-55002612D01*
X156898959Y-55417578D01*
X156738096Y-55805962D01*
X156860085Y-56028001D01*
X158003000Y-56028001D01*
X158003000Y-56008001D01*
X158257000Y-56008001D01*
X158257000Y-56028001D01*
X159399915Y-56028001D01*
X159515000Y-55818528D01*
X159515000Y-55884250D01*
X159673750Y-56043000D01*
X160873000Y-56043000D01*
X160873000Y-56023000D01*
X161127000Y-56023000D01*
X161127000Y-56043000D01*
X162326250Y-56043000D01*
X162485000Y-55884250D01*
X162485000Y-55193690D01*
X162388327Y-54960301D01*
X162209698Y-54781673D01*
X162048967Y-54715096D01*
X162070625Y-54700625D01*
X162398839Y-54209418D01*
X162514092Y-53630000D01*
X162398839Y-53050582D01*
X162070625Y-52559375D01*
X161884485Y-52435000D01*
X162285439Y-52435000D01*
X162812862Y-52216534D01*
X163216534Y-51812862D01*
X163435000Y-51285439D01*
X163435000Y-50714561D01*
X163290213Y-50365015D01*
X163586896Y-50661698D01*
X163565000Y-50714561D01*
X163565000Y-51285439D01*
X163783466Y-51812862D01*
X164187138Y-52216534D01*
X164714561Y-52435000D01*
X165285439Y-52435000D01*
X165812862Y-52216534D01*
X166216534Y-51812862D01*
X166435000Y-51285439D01*
X166435000Y-50714561D01*
X166216534Y-50187138D01*
X165812862Y-49783466D01*
X165285439Y-49565000D01*
X164714561Y-49565000D01*
X164661698Y-49586896D01*
X162370311Y-47295510D01*
X162327909Y-47232051D01*
X162076517Y-47064076D01*
X161854832Y-47019980D01*
X161854827Y-47019980D01*
X161779980Y-47005092D01*
X161705133Y-47019980D01*
X146778454Y-47019980D01*
X146703607Y-47005092D01*
X146628760Y-47019980D01*
X146628756Y-47019980D01*
X146407071Y-47064076D01*
X146407069Y-47064077D01*
X146407070Y-47064077D01*
X146219134Y-47189651D01*
X146219132Y-47189653D01*
X146155679Y-47232051D01*
X146113281Y-47295504D01*
X143530529Y-49878258D01*
X143467073Y-49920658D01*
X143424673Y-49984114D01*
X143424672Y-49984115D01*
X143299098Y-50172050D01*
X143240113Y-50468587D01*
X143255002Y-50543439D01*
X143255002Y-52167561D01*
X142090000Y-52167561D01*
X141842235Y-52216844D01*
X141632191Y-52357192D01*
X141491843Y-52567236D01*
X141442560Y-52815001D01*
X141442560Y-54415001D01*
X141491843Y-54662766D01*
X141632191Y-54872810D01*
X141842235Y-55013158D01*
X141976106Y-55039786D01*
X141855423Y-55120424D01*
X141538260Y-55595092D01*
X141426887Y-56155001D01*
X141538260Y-56714910D01*
X141855423Y-57189578D01*
X142207758Y-57425001D01*
X141855423Y-57660424D01*
X141538260Y-58135092D01*
X141426887Y-58695001D01*
X141538260Y-59254910D01*
X141855423Y-59729578D01*
X142207758Y-59965001D01*
X141855423Y-60200424D01*
X141538260Y-60675092D01*
X141426887Y-61235001D01*
X141538260Y-61794910D01*
X141855423Y-62269578D01*
X142207758Y-62505001D01*
X141855423Y-62740424D01*
X141538260Y-63215092D01*
X141426887Y-63775001D01*
X141491312Y-64098887D01*
X140935000Y-64655199D01*
X140935000Y-64214561D01*
X140716534Y-63687138D01*
X140312862Y-63283466D01*
X139785439Y-63065000D01*
X139214561Y-63065000D01*
X138687138Y-63283466D01*
X138283466Y-63687138D01*
X138065000Y-64214561D01*
X138065000Y-64785439D01*
X138283466Y-65312862D01*
X138687138Y-65716534D01*
X139214561Y-65935000D01*
X139655200Y-65935000D01*
X138515528Y-67074672D01*
X138452072Y-67117072D01*
X138409672Y-67180528D01*
X138409671Y-67180529D01*
X138284097Y-67368464D01*
X138257424Y-67502560D01*
X138150000Y-67502560D01*
X137902235Y-67551843D01*
X137692191Y-67692191D01*
X137551843Y-67902235D01*
X137502560Y-68150000D01*
X137502560Y-69850000D01*
X137551843Y-70097765D01*
X137692191Y-70307809D01*
X137902235Y-70448157D01*
X137947619Y-70457184D01*
X137929375Y-70469375D01*
X137601161Y-70960582D01*
X137485908Y-71540000D01*
X137601161Y-72119418D01*
X137929375Y-72610625D01*
X138227761Y-72810000D01*
X137929375Y-73009375D01*
X137601161Y-73500582D01*
X137485908Y-74080000D01*
X137601161Y-74659418D01*
X137929375Y-75150625D01*
X138227761Y-75350000D01*
X137929375Y-75549375D01*
X137601161Y-76040582D01*
X137485908Y-76620000D01*
X137601161Y-77199418D01*
X137929375Y-77690625D01*
X138227761Y-77890000D01*
X137929375Y-78089375D01*
X137601161Y-78580582D01*
X137485908Y-79160000D01*
X137601161Y-79739418D01*
X137929375Y-80230625D01*
X138227761Y-80430000D01*
X137929375Y-80629375D01*
X137601161Y-81120582D01*
X137485908Y-81700000D01*
X137601161Y-82279418D01*
X137929375Y-82770625D01*
X138240000Y-82978178D01*
X138240001Y-84088501D01*
X138183264Y-84065000D01*
X136816736Y-84065000D01*
X135554229Y-84587947D01*
X134587947Y-85554229D01*
X134235000Y-86406319D01*
X134235000Y-64214561D01*
X135065000Y-64214561D01*
X135065000Y-64785439D01*
X135283466Y-65312862D01*
X135687138Y-65716534D01*
X136214561Y-65935000D01*
X136785439Y-65935000D01*
X137312862Y-65716534D01*
X137716534Y-65312862D01*
X137935000Y-64785439D01*
X137935000Y-64214561D01*
X137716534Y-63687138D01*
X137312862Y-63283466D01*
X136785439Y-63065000D01*
X136214561Y-63065000D01*
X135687138Y-63283466D01*
X135283466Y-63687138D01*
X135065000Y-64214561D01*
X134235000Y-64214561D01*
X134235000Y-54340000D01*
X135036887Y-54340000D01*
X135148260Y-54899909D01*
X135465423Y-55374577D01*
X135940091Y-55691740D01*
X136358667Y-55775000D01*
X136641333Y-55775000D01*
X137059909Y-55691740D01*
X137534577Y-55374577D01*
X137851740Y-54899909D01*
X137963113Y-54340000D01*
X138036887Y-54340000D01*
X138148260Y-54899909D01*
X138465423Y-55374577D01*
X138940091Y-55691740D01*
X139358667Y-55775000D01*
X139641333Y-55775000D01*
X140059909Y-55691740D01*
X140534577Y-55374577D01*
X140851740Y-54899909D01*
X140963113Y-54340000D01*
X140851740Y-53780091D01*
X140534577Y-53305423D01*
X140348384Y-53181012D01*
X140716534Y-52812862D01*
X140935000Y-52285439D01*
X140935000Y-51714561D01*
X140716534Y-51187138D01*
X140312862Y-50783466D01*
X139785439Y-50565000D01*
X139214561Y-50565000D01*
X138687138Y-50783466D01*
X138283466Y-51187138D01*
X138065000Y-51714561D01*
X138065000Y-52285439D01*
X138283466Y-52812862D01*
X138651616Y-53181012D01*
X138465423Y-53305423D01*
X138148260Y-53780091D01*
X138036887Y-54340000D01*
X137963113Y-54340000D01*
X137851740Y-53780091D01*
X137534577Y-53305423D01*
X137348384Y-53181012D01*
X137716534Y-52812862D01*
X137935000Y-52285439D01*
X137935000Y-51714561D01*
X137716534Y-51187138D01*
X137312862Y-50783466D01*
X136785439Y-50565000D01*
X136214561Y-50565000D01*
X135687138Y-50783466D01*
X135283466Y-51187138D01*
X135065000Y-51714561D01*
X135065000Y-52285439D01*
X135283466Y-52812862D01*
X135651616Y-53181012D01*
X135465423Y-53305423D01*
X135148260Y-53780091D01*
X135036887Y-54340000D01*
X134235000Y-54340000D01*
X134235000Y-44356892D01*
X142358514Y-44356892D01*
X142604817Y-44881358D01*
X143033076Y-45271645D01*
X143443110Y-45441476D01*
X143673000Y-45320155D01*
X143673000Y-44127000D01*
X143927000Y-44127000D01*
X143927000Y-45320155D01*
X144156890Y-45441476D01*
X144566924Y-45271645D01*
X144995183Y-44881358D01*
X145070000Y-44722046D01*
X145144817Y-44881358D01*
X145573076Y-45271645D01*
X145983110Y-45441476D01*
X146213000Y-45320155D01*
X146213000Y-44127000D01*
X146467000Y-44127000D01*
X146467000Y-45320155D01*
X146696890Y-45441476D01*
X147106924Y-45271645D01*
X147535183Y-44881358D01*
X147610000Y-44722046D01*
X147684817Y-44881358D01*
X148113076Y-45271645D01*
X148523110Y-45441476D01*
X148753000Y-45320155D01*
X148753000Y-44127000D01*
X149007000Y-44127000D01*
X149007000Y-45320155D01*
X149236890Y-45441476D01*
X149646924Y-45271645D01*
X150075183Y-44881358D01*
X150150000Y-44722046D01*
X150224817Y-44881358D01*
X150653076Y-45271645D01*
X151063110Y-45441476D01*
X151293000Y-45320155D01*
X151293000Y-44127000D01*
X151547000Y-44127000D01*
X151547000Y-45320155D01*
X151776890Y-45441476D01*
X152186924Y-45271645D01*
X152615183Y-44881358D01*
X152690000Y-44722046D01*
X152764817Y-44881358D01*
X153193076Y-45271645D01*
X153603110Y-45441476D01*
X153833000Y-45320155D01*
X153833000Y-44127000D01*
X154087000Y-44127000D01*
X154087000Y-45320155D01*
X154316890Y-45441476D01*
X154726924Y-45271645D01*
X155024864Y-45000122D01*
X155111673Y-45209698D01*
X155290301Y-45388327D01*
X155523690Y-45485000D01*
X156214250Y-45485000D01*
X156373000Y-45326250D01*
X156373000Y-44127000D01*
X156627000Y-44127000D01*
X156627000Y-45326250D01*
X156785750Y-45485000D01*
X157476310Y-45485000D01*
X157709699Y-45388327D01*
X157888327Y-45209698D01*
X157985000Y-44976309D01*
X157985000Y-44285750D01*
X157826250Y-44127000D01*
X156627000Y-44127000D01*
X156373000Y-44127000D01*
X154087000Y-44127000D01*
X153833000Y-44127000D01*
X151547000Y-44127000D01*
X151293000Y-44127000D01*
X149007000Y-44127000D01*
X148753000Y-44127000D01*
X146467000Y-44127000D01*
X146213000Y-44127000D01*
X143927000Y-44127000D01*
X143673000Y-44127000D01*
X142479181Y-44127000D01*
X142358514Y-44356892D01*
X134235000Y-44356892D01*
X134235000Y-37593681D01*
X134587947Y-38445771D01*
X135554229Y-39412053D01*
X136816736Y-39935000D01*
X137330198Y-39935000D01*
X136823886Y-40441312D01*
X136641333Y-40405000D01*
X136358667Y-40405000D01*
X135940091Y-40488260D01*
X135465423Y-40805423D01*
X135148260Y-41280091D01*
X135036887Y-41840000D01*
X135148260Y-42399909D01*
X135465423Y-42874577D01*
X135940091Y-43191740D01*
X136358667Y-43275000D01*
X136641333Y-43275000D01*
X137059909Y-43191740D01*
X137534577Y-42874577D01*
X137851740Y-42399909D01*
X137963113Y-41840000D01*
X137898688Y-41516114D01*
X138175544Y-41239257D01*
X138148260Y-41280091D01*
X138036887Y-41840000D01*
X138148260Y-42399909D01*
X138465423Y-42874577D01*
X138940091Y-43191740D01*
X139358667Y-43275000D01*
X139641333Y-43275000D01*
X139827084Y-43238052D01*
X139882382Y-43275000D01*
X140003462Y-43355903D01*
X140225147Y-43399999D01*
X140225151Y-43399999D01*
X140299998Y-43414887D01*
X140374845Y-43399999D01*
X142472684Y-43399999D01*
X142358514Y-43643108D01*
X142479181Y-43873000D01*
X143673000Y-43873000D01*
X143673000Y-43853000D01*
X143927000Y-43853000D01*
X143927000Y-43873000D01*
X146213000Y-43873000D01*
X146213000Y-43853000D01*
X146467000Y-43853000D01*
X146467000Y-43873000D01*
X148753000Y-43873000D01*
X148753000Y-43853000D01*
X149007000Y-43853000D01*
X149007000Y-43873000D01*
X151293000Y-43873000D01*
X151293000Y-42679845D01*
X151547000Y-42679845D01*
X151547000Y-43873000D01*
X153833000Y-43873000D01*
X153833000Y-42679845D01*
X154087000Y-42679845D01*
X154087000Y-43873000D01*
X156373000Y-43873000D01*
X156373000Y-42673750D01*
X156627000Y-42673750D01*
X156627000Y-43873000D01*
X157826250Y-43873000D01*
X157985000Y-43714250D01*
X157985000Y-43023691D01*
X157888327Y-42790302D01*
X157709699Y-42611673D01*
X157476310Y-42515000D01*
X156785750Y-42515000D01*
X156627000Y-42673750D01*
X156373000Y-42673750D01*
X156214250Y-42515000D01*
X155523690Y-42515000D01*
X155290301Y-42611673D01*
X155111673Y-42790302D01*
X155024864Y-42999878D01*
X154726924Y-42728355D01*
X154316890Y-42558524D01*
X154087000Y-42679845D01*
X153833000Y-42679845D01*
X153603110Y-42558524D01*
X153193076Y-42728355D01*
X152764817Y-43118642D01*
X152690000Y-43277954D01*
X152615183Y-43118642D01*
X152186924Y-42728355D01*
X151776890Y-42558524D01*
X151547000Y-42679845D01*
X151293000Y-42679845D01*
X151063110Y-42558524D01*
X150846603Y-42648198D01*
X151053593Y-42441209D01*
X151273744Y-42485000D01*
X151566256Y-42485000D01*
X151999418Y-42398839D01*
X152490625Y-42070625D01*
X152690000Y-41772239D01*
X152889375Y-42070625D01*
X153380582Y-42398839D01*
X153813744Y-42485000D01*
X154106256Y-42485000D01*
X154539418Y-42398839D01*
X155030625Y-42070625D01*
X155042816Y-42052381D01*
X155051843Y-42097765D01*
X155192191Y-42307809D01*
X155402235Y-42448157D01*
X155650000Y-42497440D01*
X157350000Y-42497440D01*
X157597765Y-42448157D01*
X157807809Y-42307809D01*
X157817902Y-42292704D01*
X157974672Y-42449474D01*
X158017072Y-42512930D01*
X158268464Y-42680905D01*
X158490149Y-42725001D01*
X158490153Y-42725001D01*
X158565001Y-42739889D01*
X158639849Y-42725001D01*
X163800152Y-42725001D01*
X163874999Y-42739889D01*
X163949846Y-42725001D01*
X163949851Y-42725001D01*
X164171536Y-42680905D01*
X164422928Y-42512930D01*
X164465330Y-42449471D01*
X164676113Y-42238688D01*
X164858667Y-42275000D01*
X165141333Y-42275000D01*
X165559909Y-42191740D01*
X166034577Y-41874577D01*
X166351740Y-41399909D01*
X166463113Y-40840000D01*
X166351740Y-40280091D01*
X166034577Y-39805423D01*
X165559909Y-39488260D01*
X165358507Y-39448199D01*
X165445771Y-39412053D01*
X166412053Y-38445771D01*
X166765000Y-37593681D01*
X166765001Y-86406322D01*
G36*
X148127000Y-49403000D02*
X148147000Y-49403000D01*
X148147000Y-49657000D01*
X148127000Y-49657000D01*
X148127000Y-50981250D01*
X148285750Y-51140000D01*
X148976309Y-51140000D01*
X149209698Y-51043327D01*
X149388327Y-50864699D01*
X149442344Y-50734291D01*
X149740000Y-50933178D01*
X149740001Y-53818433D01*
X149725112Y-53893285D01*
X149740001Y-53968137D01*
X149784097Y-54189822D01*
X149810675Y-54229599D01*
X149442344Y-54475709D01*
X149388327Y-54345301D01*
X149209698Y-54166673D01*
X148976309Y-54070000D01*
X148285750Y-54070000D01*
X148127000Y-54228750D01*
X148127000Y-55553000D01*
X148147000Y-55553000D01*
X148147000Y-55807000D01*
X148127000Y-55807000D01*
X148127000Y-57131250D01*
X148285750Y-57290000D01*
X148976309Y-57290000D01*
X149209698Y-57193327D01*
X149388327Y-57014699D01*
X149442344Y-56884291D01*
X149763704Y-57099016D01*
X149784097Y-57201537D01*
X149952072Y-57452929D01*
X150015528Y-57495329D01*
X152759037Y-60238838D01*
X152420582Y-60306161D01*
X151929375Y-60634375D01*
X151750000Y-60902829D01*
X151570625Y-60634375D01*
X151079417Y-60306161D01*
X150500000Y-60190908D01*
X149920582Y-60306161D01*
X149442344Y-60625709D01*
X149388327Y-60495301D01*
X149209698Y-60316673D01*
X148976309Y-60220000D01*
X148285750Y-60220000D01*
X148127000Y-60378750D01*
X148127000Y-61703000D01*
X148147000Y-61703000D01*
X148147000Y-61957000D01*
X148127000Y-61957000D01*
X148127000Y-63281250D01*
X148285750Y-63440000D01*
X148976309Y-63440000D01*
X149209698Y-63343327D01*
X149388327Y-63164699D01*
X149442344Y-63034291D01*
X149763704Y-63249016D01*
X149784097Y-63351537D01*
X149952072Y-63602929D01*
X150015528Y-63645329D01*
X152759037Y-66388838D01*
X152420582Y-66456161D01*
X151929375Y-66784375D01*
X151750000Y-67052829D01*
X151570625Y-66784375D01*
X151079417Y-66456161D01*
X150500000Y-66340908D01*
X149920582Y-66456161D01*
X149442344Y-66775709D01*
X149388327Y-66645301D01*
X149209698Y-66466673D01*
X148976309Y-66370000D01*
X148285750Y-66370000D01*
X148127000Y-66528750D01*
X148127000Y-67853000D01*
X148147000Y-67853000D01*
X148147000Y-68107000D01*
X148127000Y-68107000D01*
X148127000Y-69431250D01*
X148285750Y-69590000D01*
X148976309Y-69590000D01*
X149209698Y-69493327D01*
X149388327Y-69314699D01*
X149442344Y-69184291D01*
X149920583Y-69503839D01*
X150124623Y-69544425D01*
X153088761Y-72508564D01*
X153000000Y-72490908D01*
X152420582Y-72606161D01*
X151929375Y-72934375D01*
X151750000Y-73202829D01*
X151570625Y-72934375D01*
X151079417Y-72606161D01*
X150500000Y-72490908D01*
X149920582Y-72606161D01*
X149442344Y-72925709D01*
X149388327Y-72795301D01*
X149209698Y-72616673D01*
X148976309Y-72520000D01*
X148285750Y-72520000D01*
X148127000Y-72678750D01*
X148127000Y-74003000D01*
X148147000Y-74003000D01*
X148147000Y-74257000D01*
X148127000Y-74257000D01*
X148127000Y-75581250D01*
X148285750Y-75740000D01*
X148976309Y-75740000D01*
X149209698Y-75643327D01*
X149388327Y-75464699D01*
X149442344Y-75334291D01*
X149920583Y-75653839D01*
X150500000Y-75769092D01*
X151079418Y-75653839D01*
X151570625Y-75325625D01*
X151750000Y-75057171D01*
X151929375Y-75325625D01*
X152420583Y-75653839D01*
X153000000Y-75769092D01*
X153579418Y-75653839D01*
X154070625Y-75325625D01*
X154398839Y-74834417D01*
X154485000Y-74401255D01*
X154485000Y-73904803D01*
X156731312Y-76151115D01*
X156666887Y-76475001D01*
X156778260Y-77034910D01*
X157095423Y-77509578D01*
X157447758Y-77745001D01*
X157095423Y-77980424D01*
X156778260Y-78455092D01*
X156666887Y-79015001D01*
X156778260Y-79574910D01*
X157095423Y-80049578D01*
X157447758Y-80285001D01*
X157095423Y-80520424D01*
X156778260Y-80995092D01*
X156666887Y-81555001D01*
X156778260Y-82114910D01*
X157095423Y-82589578D01*
X157447758Y-82825001D01*
X157095423Y-83060424D01*
X156778260Y-83535092D01*
X156666887Y-84095001D01*
X156778260Y-84654910D01*
X157095423Y-85129578D01*
X157447758Y-85365001D01*
X157095423Y-85600424D01*
X156778260Y-86075092D01*
X156666887Y-86635001D01*
X156778260Y-87194910D01*
X157095423Y-87669578D01*
X157447758Y-87905001D01*
X157095423Y-88140424D01*
X156778260Y-88615092D01*
X156666887Y-89175001D01*
X156731312Y-89498888D01*
X156490200Y-89740000D01*
X155771407Y-89740000D01*
X155891740Y-89559909D01*
X156003113Y-89000000D01*
X155891740Y-88440091D01*
X155574577Y-87965423D01*
X155099909Y-87648260D01*
X155080000Y-87644300D01*
X155080000Y-86368178D01*
X155390625Y-86160625D01*
X155718839Y-85669418D01*
X155834092Y-85090000D01*
X155718839Y-84510582D01*
X155390625Y-84019375D01*
X154899418Y-83691161D01*
X154466256Y-83605000D01*
X154173744Y-83605000D01*
X153740582Y-83691161D01*
X153249375Y-84019375D01*
X153050000Y-84317761D01*
X152850625Y-84019375D01*
X152359418Y-83691161D01*
X151926256Y-83605000D01*
X151633744Y-83605000D01*
X151200582Y-83691161D01*
X150709375Y-84019375D01*
X150510000Y-84317761D01*
X150310625Y-84019375D01*
X149819418Y-83691161D01*
X149386256Y-83605000D01*
X149093744Y-83605000D01*
X148660582Y-83691161D01*
X148169375Y-84019375D01*
X148157184Y-84037619D01*
X148148157Y-83992235D01*
X148007809Y-83782191D01*
X147797765Y-83641843D01*
X147550000Y-83592560D01*
X145850000Y-83592560D01*
X145602235Y-83641843D01*
X145392191Y-83782191D01*
X145251843Y-83992235D01*
X145202560Y-84240000D01*
X145202560Y-85940000D01*
X145251843Y-86187765D01*
X145392191Y-86397809D01*
X145602235Y-86538157D01*
X145850000Y-86587440D01*
X147550000Y-86587440D01*
X147797765Y-86538157D01*
X147946270Y-86438929D01*
X146783887Y-87601312D01*
X146601333Y-87565000D01*
X146318667Y-87565000D01*
X145900091Y-87648260D01*
X145425423Y-87965423D01*
X145108260Y-88440091D01*
X144996887Y-89000000D01*
X145108260Y-89559909D01*
X145228593Y-89740000D01*
X144238339Y-89740000D01*
X144241740Y-89734910D01*
X144353113Y-89175001D01*
X144241740Y-88615092D01*
X143924577Y-88140424D01*
X143572242Y-87905001D01*
X143924577Y-87669578D01*
X144241740Y-87194910D01*
X144353113Y-86635001D01*
X144241740Y-86075092D01*
X143924577Y-85600424D01*
X143572242Y-85365001D01*
X143924577Y-85129578D01*
X144241740Y-84654910D01*
X144353113Y-84095001D01*
X144241740Y-83535092D01*
X143924577Y-83060424D01*
X143572242Y-82825001D01*
X143924577Y-82589578D01*
X144241740Y-82114910D01*
X144353113Y-81555001D01*
X144241740Y-80995092D01*
X143924577Y-80520424D01*
X143588329Y-80295750D01*
X146515000Y-80295750D01*
X146515000Y-81111310D01*
X146611673Y-81344699D01*
X146790302Y-81523327D01*
X147023691Y-81620000D01*
X147714250Y-81620000D01*
X147873000Y-81461250D01*
X147873000Y-80137000D01*
X146673750Y-80137000D01*
X146515000Y-80295750D01*
X143588329Y-80295750D01*
X143572242Y-80285001D01*
X143924577Y-80049578D01*
X144241740Y-79574910D01*
X144353113Y-79015001D01*
X144331967Y-78908690D01*
X146515000Y-78908690D01*
X146515000Y-79724250D01*
X146673750Y-79883000D01*
X147873000Y-79883000D01*
X147873000Y-78558750D01*
X148127000Y-78558750D01*
X148127000Y-79883000D01*
X148147000Y-79883000D01*
X148147000Y-80137000D01*
X148127000Y-80137000D01*
X148127000Y-81461250D01*
X148285750Y-81620000D01*
X148976309Y-81620000D01*
X149209698Y-81523327D01*
X149388327Y-81344699D01*
X149442344Y-81214291D01*
X149920583Y-81533839D01*
X150500000Y-81649092D01*
X151079418Y-81533839D01*
X151570625Y-81205625D01*
X151750000Y-80937171D01*
X151929375Y-81205625D01*
X152420583Y-81533839D01*
X153000000Y-81649092D01*
X153579418Y-81533839D01*
X154070625Y-81205625D01*
X154398839Y-80714417D01*
X154485000Y-80281255D01*
X154485000Y-79738744D01*
X154398839Y-79305582D01*
X154070625Y-78814375D01*
X153579417Y-78486161D01*
X153000000Y-78370908D01*
X152420582Y-78486161D01*
X151929375Y-78814375D01*
X151750000Y-79082829D01*
X151570625Y-78814375D01*
X151236297Y-78590985D01*
X151215904Y-78488463D01*
X151047929Y-78237071D01*
X150796537Y-78069096D01*
X150500000Y-78010111D01*
X150203464Y-78069096D01*
X149952072Y-78237071D01*
X149784097Y-78488463D01*
X149763704Y-78590983D01*
X149442344Y-78805709D01*
X149388327Y-78675301D01*
X149209698Y-78496673D01*
X148976309Y-78400000D01*
X148285750Y-78400000D01*
X148127000Y-78558750D01*
X147873000Y-78558750D01*
X147714250Y-78400000D01*
X147023691Y-78400000D01*
X146790302Y-78496673D01*
X146611673Y-78675301D01*
X146515000Y-78908690D01*
X144331967Y-78908690D01*
X144241740Y-78455092D01*
X143924577Y-77980424D01*
X143572242Y-77745001D01*
X143924577Y-77509578D01*
X144241740Y-77034910D01*
X144353113Y-76475001D01*
X144241740Y-75915092D01*
X143924577Y-75440424D01*
X143572242Y-75205001D01*
X143924577Y-74969578D01*
X144241740Y-74494910D01*
X144257485Y-74415750D01*
X146515000Y-74415750D01*
X146515000Y-75231310D01*
X146611673Y-75464699D01*
X146790302Y-75643327D01*
X147023691Y-75740000D01*
X147714250Y-75740000D01*
X147873000Y-75581250D01*
X147873000Y-74257000D01*
X146673750Y-74257000D01*
X146515000Y-74415750D01*
X144257485Y-74415750D01*
X144353113Y-73935001D01*
X144241740Y-73375092D01*
X144010282Y-73028690D01*
X146515000Y-73028690D01*
X146515000Y-73844250D01*
X146673750Y-74003000D01*
X147873000Y-74003000D01*
X147873000Y-72678750D01*
X147714250Y-72520000D01*
X147023691Y-72520000D01*
X146790302Y-72616673D01*
X146611673Y-72795301D01*
X146515000Y-73028690D01*
X144010282Y-73028690D01*
X143924577Y-72900424D01*
X143572242Y-72665001D01*
X143924577Y-72429578D01*
X144241740Y-71954910D01*
X144353113Y-71395001D01*
X144241740Y-70835092D01*
X143924577Y-70360424D01*
X143572242Y-70125001D01*
X143924577Y-69889578D01*
X144241740Y-69414910D01*
X144353113Y-68855001D01*
X144288688Y-68531115D01*
X144554053Y-68265750D01*
X146515000Y-68265750D01*
X146515000Y-69081310D01*
X146611673Y-69314699D01*
X146790302Y-69493327D01*
X147023691Y-69590000D01*
X147714250Y-69590000D01*
X147873000Y-69431250D01*
X147873000Y-68107000D01*
X146673750Y-68107000D01*
X146515000Y-68265750D01*
X144554053Y-68265750D01*
X145484473Y-67335330D01*
X145547929Y-67292930D01*
X145715904Y-67041538D01*
X145748296Y-66878690D01*
X146515000Y-66878690D01*
X146515000Y-67694250D01*
X146673750Y-67853000D01*
X147873000Y-67853000D01*
X147873000Y-66528750D01*
X147714250Y-66370000D01*
X147023691Y-66370000D01*
X146790302Y-66466673D01*
X146611673Y-66645301D01*
X146515000Y-66878690D01*
X145748296Y-66878690D01*
X145760000Y-66819853D01*
X145760000Y-66819849D01*
X145774888Y-66745001D01*
X145760000Y-66670153D01*
X145760000Y-62115750D01*
X146515000Y-62115750D01*
X146515000Y-62931310D01*
X146611673Y-63164699D01*
X146790302Y-63343327D01*
X147023691Y-63440000D01*
X147714250Y-63440000D01*
X147873000Y-63281250D01*
X147873000Y-61957000D01*
X146673750Y-61957000D01*
X146515000Y-62115750D01*
X145760000Y-62115750D01*
X145760000Y-60728690D01*
X146515000Y-60728690D01*
X146515000Y-61544250D01*
X146673750Y-61703000D01*
X147873000Y-61703000D01*
X147873000Y-60378750D01*
X147714250Y-60220000D01*
X147023691Y-60220000D01*
X146790302Y-60316673D01*
X146611673Y-60495301D01*
X146515000Y-60728690D01*
X145760000Y-60728690D01*
X145760000Y-55965750D01*
X146515000Y-55965750D01*
X146515000Y-56781310D01*
X146611673Y-57014699D01*
X146790302Y-57193327D01*
X147023691Y-57290000D01*
X147714250Y-57290000D01*
X147873000Y-57131250D01*
X147873000Y-55807000D01*
X146673750Y-55807000D01*
X146515000Y-55965750D01*
X145760000Y-55965750D01*
X145760000Y-54578690D01*
X146515000Y-54578690D01*
X146515000Y-55394250D01*
X146673750Y-55553000D01*
X147873000Y-55553000D01*
X147873000Y-54228750D01*
X147714250Y-54070000D01*
X147023691Y-54070000D01*
X146790302Y-54166673D01*
X146611673Y-54345301D01*
X146515000Y-54578690D01*
X145760000Y-54578690D01*
X145760000Y-50434799D01*
X146537798Y-49657002D01*
X146673748Y-49657002D01*
X146515000Y-49815750D01*
X146515000Y-50631310D01*
X146611673Y-50864699D01*
X146790302Y-51043327D01*
X147023691Y-51140000D01*
X147714250Y-51140000D01*
X147873000Y-50981250D01*
X147873000Y-49657000D01*
X147853000Y-49657000D01*
X147853000Y-49403000D01*
X147873000Y-49403000D01*
X147873000Y-49383000D01*
X148127000Y-49383000D01*
X148127000Y-49403000D01*
X148127000Y-49403000D01*
G37*
X148127000Y-49403000D02*
X148147000Y-49403000D01*
X148147000Y-49657000D01*
X148127000Y-49657000D01*
X148127000Y-50981250D01*
X148285750Y-51140000D01*
X148976309Y-51140000D01*
X149209698Y-51043327D01*
X149388327Y-50864699D01*
X149442344Y-50734291D01*
X149740000Y-50933178D01*
X149740001Y-53818433D01*
X149725112Y-53893285D01*
X149740001Y-53968137D01*
X149784097Y-54189822D01*
X149810675Y-54229599D01*
X149442344Y-54475709D01*
X149388327Y-54345301D01*
X149209698Y-54166673D01*
X148976309Y-54070000D01*
X148285750Y-54070000D01*
X148127000Y-54228750D01*
X148127000Y-55553000D01*
X148147000Y-55553000D01*
X148147000Y-55807000D01*
X148127000Y-55807000D01*
X148127000Y-57131250D01*
X148285750Y-57290000D01*
X148976309Y-57290000D01*
X149209698Y-57193327D01*
X149388327Y-57014699D01*
X149442344Y-56884291D01*
X149763704Y-57099016D01*
X149784097Y-57201537D01*
X149952072Y-57452929D01*
X150015528Y-57495329D01*
X152759037Y-60238838D01*
X152420582Y-60306161D01*
X151929375Y-60634375D01*
X151750000Y-60902829D01*
X151570625Y-60634375D01*
X151079417Y-60306161D01*
X150500000Y-60190908D01*
X149920582Y-60306161D01*
X149442344Y-60625709D01*
X149388327Y-60495301D01*
X149209698Y-60316673D01*
X148976309Y-60220000D01*
X148285750Y-60220000D01*
X148127000Y-60378750D01*
X148127000Y-61703000D01*
X148147000Y-61703000D01*
X148147000Y-61957000D01*
X148127000Y-61957000D01*
X148127000Y-63281250D01*
X148285750Y-63440000D01*
X148976309Y-63440000D01*
X149209698Y-63343327D01*
X149388327Y-63164699D01*
X149442344Y-63034291D01*
X149763704Y-63249016D01*
X149784097Y-63351537D01*
X149952072Y-63602929D01*
X150015528Y-63645329D01*
X152759037Y-66388838D01*
X152420582Y-66456161D01*
X151929375Y-66784375D01*
X151750000Y-67052829D01*
X151570625Y-66784375D01*
X151079417Y-66456161D01*
X150500000Y-66340908D01*
X149920582Y-66456161D01*
X149442344Y-66775709D01*
X149388327Y-66645301D01*
X149209698Y-66466673D01*
X148976309Y-66370000D01*
X148285750Y-66370000D01*
X148127000Y-66528750D01*
X148127000Y-67853000D01*
X148147000Y-67853000D01*
X148147000Y-68107000D01*
X148127000Y-68107000D01*
X148127000Y-69431250D01*
X148285750Y-69590000D01*
X148976309Y-69590000D01*
X149209698Y-69493327D01*
X149388327Y-69314699D01*
X149442344Y-69184291D01*
X149920583Y-69503839D01*
X150124623Y-69544425D01*
X153088761Y-72508564D01*
X153000000Y-72490908D01*
X152420582Y-72606161D01*
X151929375Y-72934375D01*
X151750000Y-73202829D01*
X151570625Y-72934375D01*
X151079417Y-72606161D01*
X150500000Y-72490908D01*
X149920582Y-72606161D01*
X149442344Y-72925709D01*
X149388327Y-72795301D01*
X149209698Y-72616673D01*
X148976309Y-72520000D01*
X148285750Y-72520000D01*
X148127000Y-72678750D01*
X148127000Y-74003000D01*
X148147000Y-74003000D01*
X148147000Y-74257000D01*
X148127000Y-74257000D01*
X148127000Y-75581250D01*
X148285750Y-75740000D01*
X148976309Y-75740000D01*
X149209698Y-75643327D01*
X149388327Y-75464699D01*
X149442344Y-75334291D01*
X149920583Y-75653839D01*
X150500000Y-75769092D01*
X151079418Y-75653839D01*
X151570625Y-75325625D01*
X151750000Y-75057171D01*
X151929375Y-75325625D01*
X152420583Y-75653839D01*
X153000000Y-75769092D01*
X153579418Y-75653839D01*
X154070625Y-75325625D01*
X154398839Y-74834417D01*
X154485000Y-74401255D01*
X154485000Y-73904803D01*
X156731312Y-76151115D01*
X156666887Y-76475001D01*
X156778260Y-77034910D01*
X157095423Y-77509578D01*
X157447758Y-77745001D01*
X157095423Y-77980424D01*
X156778260Y-78455092D01*
X156666887Y-79015001D01*
X156778260Y-79574910D01*
X157095423Y-80049578D01*
X157447758Y-80285001D01*
X157095423Y-80520424D01*
X156778260Y-80995092D01*
X156666887Y-81555001D01*
X156778260Y-82114910D01*
X157095423Y-82589578D01*
X157447758Y-82825001D01*
X157095423Y-83060424D01*
X156778260Y-83535092D01*
X156666887Y-84095001D01*
X156778260Y-84654910D01*
X157095423Y-85129578D01*
X157447758Y-85365001D01*
X157095423Y-85600424D01*
X156778260Y-86075092D01*
X156666887Y-86635001D01*
X156778260Y-87194910D01*
X157095423Y-87669578D01*
X157447758Y-87905001D01*
X157095423Y-88140424D01*
X156778260Y-88615092D01*
X156666887Y-89175001D01*
X156731312Y-89498888D01*
X156490200Y-89740000D01*
X155771407Y-89740000D01*
X155891740Y-89559909D01*
X156003113Y-89000000D01*
X155891740Y-88440091D01*
X155574577Y-87965423D01*
X155099909Y-87648260D01*
X155080000Y-87644300D01*
X155080000Y-86368178D01*
X155390625Y-86160625D01*
X155718839Y-85669418D01*
X155834092Y-85090000D01*
X155718839Y-84510582D01*
X155390625Y-84019375D01*
X154899418Y-83691161D01*
X154466256Y-83605000D01*
X154173744Y-83605000D01*
X153740582Y-83691161D01*
X153249375Y-84019375D01*
X153050000Y-84317761D01*
X152850625Y-84019375D01*
X152359418Y-83691161D01*
X151926256Y-83605000D01*
X151633744Y-83605000D01*
X151200582Y-83691161D01*
X150709375Y-84019375D01*
X150510000Y-84317761D01*
X150310625Y-84019375D01*
X149819418Y-83691161D01*
X149386256Y-83605000D01*
X149093744Y-83605000D01*
X148660582Y-83691161D01*
X148169375Y-84019375D01*
X148157184Y-84037619D01*
X148148157Y-83992235D01*
X148007809Y-83782191D01*
X147797765Y-83641843D01*
X147550000Y-83592560D01*
X145850000Y-83592560D01*
X145602235Y-83641843D01*
X145392191Y-83782191D01*
X145251843Y-83992235D01*
X145202560Y-84240000D01*
X145202560Y-85940000D01*
X145251843Y-86187765D01*
X145392191Y-86397809D01*
X145602235Y-86538157D01*
X145850000Y-86587440D01*
X147550000Y-86587440D01*
X147797765Y-86538157D01*
X147946270Y-86438929D01*
X146783887Y-87601312D01*
X146601333Y-87565000D01*
X146318667Y-87565000D01*
X145900091Y-87648260D01*
X145425423Y-87965423D01*
X145108260Y-88440091D01*
X144996887Y-89000000D01*
X145108260Y-89559909D01*
X145228593Y-89740000D01*
X144238339Y-89740000D01*
X144241740Y-89734910D01*
X144353113Y-89175001D01*
X144241740Y-88615092D01*
X143924577Y-88140424D01*
X143572242Y-87905001D01*
X143924577Y-87669578D01*
X144241740Y-87194910D01*
X144353113Y-86635001D01*
X144241740Y-86075092D01*
X143924577Y-85600424D01*
X143572242Y-85365001D01*
X143924577Y-85129578D01*
X144241740Y-84654910D01*
X144353113Y-84095001D01*
X144241740Y-83535092D01*
X143924577Y-83060424D01*
X143572242Y-82825001D01*
X143924577Y-82589578D01*
X144241740Y-82114910D01*
X144353113Y-81555001D01*
X144241740Y-80995092D01*
X143924577Y-80520424D01*
X143588329Y-80295750D01*
X146515000Y-80295750D01*
X146515000Y-81111310D01*
X146611673Y-81344699D01*
X146790302Y-81523327D01*
X147023691Y-81620000D01*
X147714250Y-81620000D01*
X147873000Y-81461250D01*
X147873000Y-80137000D01*
X146673750Y-80137000D01*
X146515000Y-80295750D01*
X143588329Y-80295750D01*
X143572242Y-80285001D01*
X143924577Y-80049578D01*
X144241740Y-79574910D01*
X144353113Y-79015001D01*
X144331967Y-78908690D01*
X146515000Y-78908690D01*
X146515000Y-79724250D01*
X146673750Y-79883000D01*
X147873000Y-79883000D01*
X147873000Y-78558750D01*
X148127000Y-78558750D01*
X148127000Y-79883000D01*
X148147000Y-79883000D01*
X148147000Y-80137000D01*
X148127000Y-80137000D01*
X148127000Y-81461250D01*
X148285750Y-81620000D01*
X148976309Y-81620000D01*
X149209698Y-81523327D01*
X149388327Y-81344699D01*
X149442344Y-81214291D01*
X149920583Y-81533839D01*
X150500000Y-81649092D01*
X151079418Y-81533839D01*
X151570625Y-81205625D01*
X151750000Y-80937171D01*
X151929375Y-81205625D01*
X152420583Y-81533839D01*
X153000000Y-81649092D01*
X153579418Y-81533839D01*
X154070625Y-81205625D01*
X154398839Y-80714417D01*
X154485000Y-80281255D01*
X154485000Y-79738744D01*
X154398839Y-79305582D01*
X154070625Y-78814375D01*
X153579417Y-78486161D01*
X153000000Y-78370908D01*
X152420582Y-78486161D01*
X151929375Y-78814375D01*
X151750000Y-79082829D01*
X151570625Y-78814375D01*
X151236297Y-78590985D01*
X151215904Y-78488463D01*
X151047929Y-78237071D01*
X150796537Y-78069096D01*
X150500000Y-78010111D01*
X150203464Y-78069096D01*
X149952072Y-78237071D01*
X149784097Y-78488463D01*
X149763704Y-78590983D01*
X149442344Y-78805709D01*
X149388327Y-78675301D01*
X149209698Y-78496673D01*
X148976309Y-78400000D01*
X148285750Y-78400000D01*
X148127000Y-78558750D01*
X147873000Y-78558750D01*
X147714250Y-78400000D01*
X147023691Y-78400000D01*
X146790302Y-78496673D01*
X146611673Y-78675301D01*
X146515000Y-78908690D01*
X144331967Y-78908690D01*
X144241740Y-78455092D01*
X143924577Y-77980424D01*
X143572242Y-77745001D01*
X143924577Y-77509578D01*
X144241740Y-77034910D01*
X144353113Y-76475001D01*
X144241740Y-75915092D01*
X143924577Y-75440424D01*
X143572242Y-75205001D01*
X143924577Y-74969578D01*
X144241740Y-74494910D01*
X144257485Y-74415750D01*
X146515000Y-74415750D01*
X146515000Y-75231310D01*
X146611673Y-75464699D01*
X146790302Y-75643327D01*
X147023691Y-75740000D01*
X147714250Y-75740000D01*
X147873000Y-75581250D01*
X147873000Y-74257000D01*
X146673750Y-74257000D01*
X146515000Y-74415750D01*
X144257485Y-74415750D01*
X144353113Y-73935001D01*
X144241740Y-73375092D01*
X144010282Y-73028690D01*
X146515000Y-73028690D01*
X146515000Y-73844250D01*
X146673750Y-74003000D01*
X147873000Y-74003000D01*
X147873000Y-72678750D01*
X147714250Y-72520000D01*
X147023691Y-72520000D01*
X146790302Y-72616673D01*
X146611673Y-72795301D01*
X146515000Y-73028690D01*
X144010282Y-73028690D01*
X143924577Y-72900424D01*
X143572242Y-72665001D01*
X143924577Y-72429578D01*
X144241740Y-71954910D01*
X144353113Y-71395001D01*
X144241740Y-70835092D01*
X143924577Y-70360424D01*
X143572242Y-70125001D01*
X143924577Y-69889578D01*
X144241740Y-69414910D01*
X144353113Y-68855001D01*
X144288688Y-68531115D01*
X144554053Y-68265750D01*
X146515000Y-68265750D01*
X146515000Y-69081310D01*
X146611673Y-69314699D01*
X146790302Y-69493327D01*
X147023691Y-69590000D01*
X147714250Y-69590000D01*
X147873000Y-69431250D01*
X147873000Y-68107000D01*
X146673750Y-68107000D01*
X146515000Y-68265750D01*
X144554053Y-68265750D01*
X145484473Y-67335330D01*
X145547929Y-67292930D01*
X145715904Y-67041538D01*
X145748296Y-66878690D01*
X146515000Y-66878690D01*
X146515000Y-67694250D01*
X146673750Y-67853000D01*
X147873000Y-67853000D01*
X147873000Y-66528750D01*
X147714250Y-66370000D01*
X147023691Y-66370000D01*
X146790302Y-66466673D01*
X146611673Y-66645301D01*
X146515000Y-66878690D01*
X145748296Y-66878690D01*
X145760000Y-66819853D01*
X145760000Y-66819849D01*
X145774888Y-66745001D01*
X145760000Y-66670153D01*
X145760000Y-62115750D01*
X146515000Y-62115750D01*
X146515000Y-62931310D01*
X146611673Y-63164699D01*
X146790302Y-63343327D01*
X147023691Y-63440000D01*
X147714250Y-63440000D01*
X147873000Y-63281250D01*
X147873000Y-61957000D01*
X146673750Y-61957000D01*
X146515000Y-62115750D01*
X145760000Y-62115750D01*
X145760000Y-60728690D01*
X146515000Y-60728690D01*
X146515000Y-61544250D01*
X146673750Y-61703000D01*
X147873000Y-61703000D01*
X147873000Y-60378750D01*
X147714250Y-60220000D01*
X147023691Y-60220000D01*
X146790302Y-60316673D01*
X146611673Y-60495301D01*
X146515000Y-60728690D01*
X145760000Y-60728690D01*
X145760000Y-55965750D01*
X146515000Y-55965750D01*
X146515000Y-56781310D01*
X146611673Y-57014699D01*
X146790302Y-57193327D01*
X147023691Y-57290000D01*
X147714250Y-57290000D01*
X147873000Y-57131250D01*
X147873000Y-55807000D01*
X146673750Y-55807000D01*
X146515000Y-55965750D01*
X145760000Y-55965750D01*
X145760000Y-54578690D01*
X146515000Y-54578690D01*
X146515000Y-55394250D01*
X146673750Y-55553000D01*
X147873000Y-55553000D01*
X147873000Y-54228750D01*
X147714250Y-54070000D01*
X147023691Y-54070000D01*
X146790302Y-54166673D01*
X146611673Y-54345301D01*
X146515000Y-54578690D01*
X145760000Y-54578690D01*
X145760000Y-50434799D01*
X146537798Y-49657002D01*
X146673748Y-49657002D01*
X146515000Y-49815750D01*
X146515000Y-50631310D01*
X146611673Y-50864699D01*
X146790302Y-51043327D01*
X147023691Y-51140000D01*
X147714250Y-51140000D01*
X147873000Y-50981250D01*
X147873000Y-49657000D01*
X147853000Y-49657000D01*
X147853000Y-49403000D01*
X147873000Y-49403000D01*
X147873000Y-49383000D01*
X148127000Y-49383000D01*
X148127000Y-49403000D01*
G36*
X153249375Y-86160625D02*
X153560000Y-86368178D01*
X153560001Y-87928955D01*
X153505423Y-87965423D01*
X153278389Y-88305203D01*
X153253864Y-88245995D01*
X153007745Y-88171861D01*
X152179605Y-89000000D01*
X152193748Y-89014142D01*
X152014142Y-89193748D01*
X152000000Y-89179605D01*
X151985858Y-89193748D01*
X151806252Y-89014142D01*
X151820395Y-89000000D01*
X150992255Y-88171861D01*
X150746136Y-88245995D01*
X150553035Y-88783223D01*
X150580222Y-89353454D01*
X150740335Y-89740000D01*
X150258898Y-89740000D01*
X150446965Y-89216777D01*
X150419778Y-88646546D01*
X150253864Y-88245995D01*
X150007745Y-88171861D01*
X149179605Y-89000000D01*
X149193748Y-89014142D01*
X149014142Y-89193748D01*
X149000000Y-89179605D01*
X148985858Y-89193748D01*
X148806252Y-89014142D01*
X148820395Y-89000000D01*
X148806252Y-88985858D01*
X148985858Y-88806252D01*
X149000000Y-88820395D01*
X149828139Y-87992255D01*
X151171861Y-87992255D01*
X152000000Y-88820395D01*
X152828139Y-87992255D01*
X152754005Y-87746136D01*
X152216777Y-87553035D01*
X151646546Y-87580222D01*
X151245995Y-87746136D01*
X151171861Y-87992255D01*
X149828139Y-87992255D01*
X149754005Y-87746136D01*
X149216777Y-87553035D01*
X148970001Y-87564801D01*
X149724473Y-86810329D01*
X149787929Y-86767929D01*
X149908528Y-86587440D01*
X149955904Y-86516538D01*
X149974292Y-86424093D01*
X149983179Y-86379418D01*
X150310625Y-86160625D01*
X150510000Y-85862239D01*
X150709375Y-86160625D01*
X151200582Y-86488839D01*
X151633744Y-86575000D01*
X151926256Y-86575000D01*
X152359418Y-86488839D01*
X152850625Y-86160625D01*
X153050000Y-85862239D01*
X153249375Y-86160625D01*
X153249375Y-86160625D01*
G37*
X153249375Y-86160625D02*
X153560000Y-86368178D01*
X153560001Y-87928955D01*
X153505423Y-87965423D01*
X153278389Y-88305203D01*
X153253864Y-88245995D01*
X153007745Y-88171861D01*
X152179605Y-89000000D01*
X152193748Y-89014142D01*
X152014142Y-89193748D01*
X152000000Y-89179605D01*
X151985858Y-89193748D01*
X151806252Y-89014142D01*
X151820395Y-89000000D01*
X150992255Y-88171861D01*
X150746136Y-88245995D01*
X150553035Y-88783223D01*
X150580222Y-89353454D01*
X150740335Y-89740000D01*
X150258898Y-89740000D01*
X150446965Y-89216777D01*
X150419778Y-88646546D01*
X150253864Y-88245995D01*
X150007745Y-88171861D01*
X149179605Y-89000000D01*
X149193748Y-89014142D01*
X149014142Y-89193748D01*
X149000000Y-89179605D01*
X148985858Y-89193748D01*
X148806252Y-89014142D01*
X148820395Y-89000000D01*
X148806252Y-88985858D01*
X148985858Y-88806252D01*
X149000000Y-88820395D01*
X149828139Y-87992255D01*
X151171861Y-87992255D01*
X152000000Y-88820395D01*
X152828139Y-87992255D01*
X152754005Y-87746136D01*
X152216777Y-87553035D01*
X151646546Y-87580222D01*
X151245995Y-87746136D01*
X151171861Y-87992255D01*
X149828139Y-87992255D01*
X149754005Y-87746136D01*
X149216777Y-87553035D01*
X148970001Y-87564801D01*
X149724473Y-86810329D01*
X149787929Y-86767929D01*
X149908528Y-86587440D01*
X149955904Y-86516538D01*
X149974292Y-86424093D01*
X149983179Y-86379418D01*
X150310625Y-86160625D01*
X150510000Y-85862239D01*
X150709375Y-86160625D01*
X151200582Y-86488839D01*
X151633744Y-86575000D01*
X151926256Y-86575000D01*
X152359418Y-86488839D01*
X152850625Y-86160625D01*
X153050000Y-85862239D01*
X153249375Y-86160625D01*
G04 #@! TD*
M02*
