M48
;DRILL file {KiCad (5.0.0-3-g5ebb6b6)} date Thursday, 28. March 2019 um 22:34:20
;FORMAT={-:-/ absolute / inch / decimal}
FMAT,2
INCH,TZ
T1C0.0315
T2C0.0374
T3C0.0394
T4C0.1260
%
G90
G05
M72
T1
X6.378Y-1.6079
X6.378Y-2.0079
X5.7661Y-3.5039
X5.8661Y-3.5039
X5.4921Y-2.1394
X5.4921Y-2.5394
X5.4921Y-1.6472
X5.4921Y-2.0472
X5.6256Y-2.1108
X5.6256Y-2.2108
X5.6256Y-2.3108
X5.6256Y-2.4108
X5.6256Y-2.5108
X5.6256Y-2.6108
X5.6256Y-2.7108
X5.6256Y-2.8108
X5.6256Y-2.9108
X5.6256Y-3.0108
X5.6256Y-3.1108
X5.6256Y-3.2108
X5.6256Y-3.3108
X5.6256Y-3.4108
X5.6256Y-3.5108
X6.2256Y-2.1108
X6.2256Y-2.2108
X6.2256Y-2.3108
X6.2256Y-2.4108
X6.2256Y-2.5108
X6.2256Y-2.6108
X6.2256Y-2.7108
X6.2256Y-2.8108
X6.2256Y-2.9108
X6.2256Y-3.0108
X6.2256Y-3.1108
X6.2256Y-3.2108
X6.2256Y-3.3108
X6.2256Y-3.4108
X6.2256Y-3.5108
X5.374Y-1.6472
X5.374Y-2.0472
X5.9843Y-3.5039
X6.0843Y-3.5039
X6.4961Y-1.6079
X6.4961Y-2.0079
X5.374Y-2.1394
X5.374Y-2.5394
T2
X5.8268Y-2.1921
X5.9252Y-2.1921
X6.0236Y-2.1921
X5.8268Y-2.6764
X5.9252Y-2.6764
X6.0236Y-2.6764
X5.8268Y-1.95
X5.9252Y-1.95
X6.0236Y-1.95
X5.8268Y-2.4343
X5.9252Y-2.4343
X6.0236Y-2.4343
X5.8268Y-3.15
X5.9252Y-3.15
X6.0236Y-3.15
X5.8268Y-2.9185
X5.9252Y-2.9185
X6.0236Y-2.9185
T3
X6.3583Y-2.874
X6.3583Y-2.974
X6.3583Y-3.074
X6.3583Y-3.174
X5.4724Y-2.7165
X5.4724Y-2.8165
X5.4724Y-2.9165
X5.4724Y-3.0165
X5.4724Y-3.1165
X5.4724Y-3.2165
X5.6614Y-1.6142
X5.7614Y-1.6142
X5.8614Y-1.6142
X5.9614Y-1.6142
X6.0614Y-1.6142
X6.1614Y-1.6142
X6.3386Y-2.1114
X6.3386Y-2.2114
X5.7756Y-3.35
X5.8756Y-3.35
X5.9756Y-3.35
X6.0756Y-3.35
X5.6614Y-1.7323
X5.7614Y-1.7323
X5.8614Y-1.7323
X5.9614Y-1.7323
X6.0614Y-1.7323
X6.1614Y-1.7323
T4
X6.437Y-1.437
X5.4134Y-1.437
X5.4134Y-3.4449
X6.437Y-3.4449
T0
M30
