G04 #@! TF.GenerationSoftware,KiCad,Pcbnew,(5.0.0-3-g5ebb6b6)*
G04 #@! TF.CreationDate,2019-03-28T22:34:17+01:00*
G04 #@! TF.ProjectId,tt_nano_HAT_b2,74745F6E616E6F5F4841545F62322E6B,rev?*
G04 #@! TF.SameCoordinates,Original*
G04 #@! TF.FileFunction,Soldermask,Bot*
G04 #@! TF.FilePolarity,Negative*
%FSLAX46Y46*%
G04 Gerber Fmt 4.6, Leading zero omitted, Abs format (unit mm)*
G04 Created by KiCad (PCBNEW (5.0.0-3-g5ebb6b6)) date Thursday, 28. March 2019 um 22:34:17*
%MOMM*%
%LPD*%
G01*
G04 APERTURE LIST*
%ADD10C,6.000000*%
%ADD11O,2.000000X2.000000*%
%ADD12R,2.000000X2.000000*%
%ADD13O,2.100000X2.350000*%
%ADD14R,2.100000X2.350000*%
%ADD15R,2.100000X2.100000*%
%ADD16O,2.100000X2.100000*%
%ADD17C,2.000000*%
G04 APERTURE END LIST*
D10*
G04 #@! TO.C,*
X137500000Y-87500000D03*
G04 #@! TD*
G04 #@! TO.C,*
X137500000Y-36500000D03*
G04 #@! TD*
G04 #@! TO.C,*
X163500000Y-87500000D03*
G04 #@! TD*
D11*
G04 #@! TO.C,A1*
X158130000Y-89175001D03*
X142890000Y-89175001D03*
X158130000Y-53615001D03*
X142890000Y-86635001D03*
X158130000Y-56155001D03*
X142890000Y-84095001D03*
X158130000Y-58695001D03*
X142890000Y-81555001D03*
X158130000Y-61235001D03*
X142890000Y-79015001D03*
X158130000Y-63775001D03*
X142890000Y-76475001D03*
X158130000Y-66315001D03*
X142890000Y-73935001D03*
X158130000Y-68855001D03*
X142890000Y-71395001D03*
X158130000Y-71395001D03*
X142890000Y-68855001D03*
X158130000Y-73935001D03*
X142890000Y-66315001D03*
X158130000Y-76475001D03*
X142890000Y-63775001D03*
X158130000Y-79015001D03*
X142890000Y-61235001D03*
X158130000Y-81555001D03*
X142890000Y-58695001D03*
X158130000Y-84095001D03*
X142890000Y-56155001D03*
X158130000Y-86635001D03*
D12*
X142890000Y-53615001D03*
G04 #@! TD*
D13*
G04 #@! TO.C,J7*
X153000000Y-61830000D03*
X150500000Y-61830000D03*
D14*
X148000000Y-61830000D03*
G04 #@! TD*
D15*
G04 #@! TO.C,J3*
X161500000Y-73000000D03*
D16*
X161500000Y-75540000D03*
X161500000Y-78080000D03*
X161500000Y-80620000D03*
G04 #@! TD*
D14*
G04 #@! TO.C,J4*
X148000000Y-80010000D03*
D13*
X150500000Y-80010000D03*
X153000000Y-80010000D03*
G04 #@! TD*
G04 #@! TO.C,J5*
X153000000Y-74130000D03*
X150500000Y-74130000D03*
D14*
X148000000Y-74130000D03*
G04 #@! TD*
G04 #@! TO.C,J6*
X148000000Y-67980000D03*
D13*
X150500000Y-67980000D03*
X153000000Y-67980000D03*
G04 #@! TD*
D14*
G04 #@! TO.C,J8*
X148000000Y-55680000D03*
D13*
X150500000Y-55680000D03*
X153000000Y-55680000D03*
G04 #@! TD*
G04 #@! TO.C,J9*
X153000000Y-49530000D03*
X150500000Y-49530000D03*
D14*
X148000000Y-49530000D03*
G04 #@! TD*
D16*
G04 #@! TO.C,J1*
X154320000Y-85090000D03*
X151780000Y-85090000D03*
X149240000Y-85090000D03*
D15*
X146700000Y-85090000D03*
G04 #@! TD*
D11*
G04 #@! TO.C,R1*
X154540000Y-89000000D03*
D17*
X152000000Y-89000000D03*
G04 #@! TD*
G04 #@! TO.C,R2*
X165000000Y-51000000D03*
D11*
X165000000Y-40840000D03*
G04 #@! TD*
G04 #@! TO.C,R3*
X162000000Y-40840000D03*
D17*
X162000000Y-51000000D03*
G04 #@! TD*
G04 #@! TO.C,R4*
X139500000Y-52000000D03*
D11*
X139500000Y-41840000D03*
G04 #@! TD*
G04 #@! TO.C,R5*
X136500000Y-41840000D03*
D17*
X136500000Y-52000000D03*
G04 #@! TD*
G04 #@! TO.C,R6*
X139500000Y-64500000D03*
D11*
X139500000Y-54340000D03*
G04 #@! TD*
G04 #@! TO.C,R7*
X136500000Y-54340000D03*
D17*
X136500000Y-64500000D03*
G04 #@! TD*
G04 #@! TO.C,R8*
X149000000Y-89000000D03*
D11*
X146460000Y-89000000D03*
G04 #@! TD*
D15*
G04 #@! TO.C,J2*
X156500000Y-41000000D03*
D16*
X153960000Y-41000000D03*
X151420000Y-41000000D03*
X148880000Y-41000000D03*
X146340000Y-41000000D03*
X143800000Y-41000000D03*
G04 #@! TD*
G04 #@! TO.C,J10*
X143800000Y-44000000D03*
X146340000Y-44000000D03*
X148880000Y-44000000D03*
X151420000Y-44000000D03*
X153960000Y-44000000D03*
D15*
X156500000Y-44000000D03*
G04 #@! TD*
G04 #@! TO.C,J11*
X161000000Y-56170000D03*
D16*
X161000000Y-53630000D03*
G04 #@! TD*
D15*
G04 #@! TO.C,J12*
X139000000Y-69000000D03*
D16*
X139000000Y-71540000D03*
X139000000Y-74080000D03*
X139000000Y-76620000D03*
X139000000Y-79160000D03*
X139000000Y-81700000D03*
G04 #@! TD*
D10*
G04 #@! TO.C,*
X163500000Y-36500000D03*
G04 #@! TD*
M02*
