G04 #@! TF.GenerationSoftware,KiCad,Pcbnew,(5.0.0-3-g5ebb6b6)*
G04 #@! TF.CreationDate,2018-10-06T16:58:55+02:00*
G04 #@! TF.ProjectId,tt_photometer,74745F70686F746F6D657465722E6B69,rev?*
G04 #@! TF.SameCoordinates,Original*
G04 #@! TF.FileFunction,Legend,Bot*
G04 #@! TF.FilePolarity,Positive*
%FSLAX46Y46*%
G04 Gerber Fmt 4.6, Leading zero omitted, Abs format (unit mm)*
G04 Created by KiCad (PCBNEW (5.0.0-3-g5ebb6b6)) date Saturday, 06. October 2018 um 16:58:55*
%MOMM*%
%LPD*%
G01*
G04 APERTURE LIST*
%ADD10C,0.200000*%
%ADD11C,0.120000*%
%ADD12C,0.150000*%
G04 APERTURE END LIST*
D10*
X149860000Y-67310000D02*
X166370000Y-67310000D01*
X166370000Y-96520000D02*
X166370000Y-67310000D01*
X149860000Y-96520000D02*
X166370000Y-96520000D01*
X149860000Y-67310000D02*
X149860000Y-96520000D01*
D11*
G04 #@! TO.C,J1*
X153600000Y-74100000D02*
X153600000Y-70080000D01*
X153600000Y-70080000D02*
X163820000Y-70080000D01*
X163820000Y-70080000D02*
X163820000Y-74100000D01*
X163820000Y-74100000D02*
X153600000Y-74100000D01*
X153600000Y-72390000D02*
X154100000Y-72390000D01*
X154100000Y-72390000D02*
X154100000Y-73600000D01*
X154100000Y-73600000D02*
X163320000Y-73600000D01*
X163320000Y-73600000D02*
X163320000Y-72390000D01*
X163320000Y-72390000D02*
X163820000Y-72390000D01*
X153600000Y-71580000D02*
X154600000Y-71580000D01*
X154600000Y-71580000D02*
X154600000Y-70080000D01*
X163820000Y-71580000D02*
X162820000Y-71580000D01*
X162820000Y-71580000D02*
X162820000Y-70080000D01*
X153300000Y-72280000D02*
X153300000Y-69780000D01*
X153300000Y-69780000D02*
X155800000Y-69780000D01*
G04 #@! TO.C,RV1*
X157620000Y-89560000D02*
X157620000Y-94400000D01*
X162660000Y-89560000D02*
X162660000Y-94400000D01*
X157620000Y-89560000D02*
X158900000Y-89560000D01*
X161380000Y-89560000D02*
X162660000Y-89560000D01*
X157620000Y-94400000D02*
X158100000Y-94400000D01*
X159880000Y-94400000D02*
X160400000Y-94400000D01*
X162180000Y-94400000D02*
X162660000Y-94400000D01*
X158000000Y-89560000D02*
X158000000Y-89560000D01*
X158000000Y-89560000D02*
X158900000Y-89560000D01*
X158000000Y-89560000D02*
X158900000Y-89560000D01*
G04 #@! TO.C,R1*
X152760000Y-90837936D02*
X152760000Y-92042064D01*
X154580000Y-90837936D02*
X154580000Y-92042064D01*
G04 #@! TO.C,J1*
D12*
X159043333Y-74642380D02*
X159043333Y-75356666D01*
X159090952Y-75499523D01*
X159186190Y-75594761D01*
X159329047Y-75642380D01*
X159424285Y-75642380D01*
X158043333Y-75642380D02*
X158614761Y-75642380D01*
X158329047Y-75642380D02*
X158329047Y-74642380D01*
X158424285Y-74785238D01*
X158519523Y-74880476D01*
X158614761Y-74928095D01*
G04 #@! TO.C,RV1*
X156942380Y-91384761D02*
X156466190Y-91051428D01*
X156942380Y-90813333D02*
X155942380Y-90813333D01*
X155942380Y-91194285D01*
X155990000Y-91289523D01*
X156037619Y-91337142D01*
X156132857Y-91384761D01*
X156275714Y-91384761D01*
X156370952Y-91337142D01*
X156418571Y-91289523D01*
X156466190Y-91194285D01*
X156466190Y-90813333D01*
X155942380Y-91670476D02*
X156942380Y-92003809D01*
X155942380Y-92337142D01*
X156942380Y-93194285D02*
X156942380Y-92622857D01*
X156942380Y-92908571D02*
X155942380Y-92908571D01*
X156085238Y-92813333D01*
X156180476Y-92718095D01*
X156228095Y-92622857D01*
G04 #@! TO.C,R1*
X152302380Y-91273333D02*
X151826190Y-90940000D01*
X152302380Y-90701904D02*
X151302380Y-90701904D01*
X151302380Y-91082857D01*
X151350000Y-91178095D01*
X151397619Y-91225714D01*
X151492857Y-91273333D01*
X151635714Y-91273333D01*
X151730952Y-91225714D01*
X151778571Y-91178095D01*
X151826190Y-91082857D01*
X151826190Y-90701904D01*
X152302380Y-92225714D02*
X152302380Y-91654285D01*
X152302380Y-91940000D02*
X151302380Y-91940000D01*
X151445238Y-91844761D01*
X151540476Y-91749523D01*
X151588095Y-91654285D01*
G04 #@! TD*
M02*
